<svg version="1.2" xmlns="http://www.w3.org/2000/svg" viewBox="0 0 49 56" width="49" height="56"><defs><linearGradient id="P" gradientUnits="userSpaceOnUse"/><linearGradient id="g1" x1="1.6" y1="23.1" x2="2.3" y2="22.5" href="#P"><stop offset=".1" stop-color="#06c"/><stop offset=".9" stop-color="#3ff"/></linearGradient><linearGradient id="g2" x1=".8" y1="23.8" x2="1.4" y2="23.3" href="#P"><stop stop-color="#09f"/><stop offset="1" stop-color="#99ebff"/></linearGradient><linearGradient id="g3" x1="1.7" y1="21.2" x2="2.3" y2="21.2" href="#P"><stop stop-color="#31b4e6"/><stop offset="1" stop-color="#fff"/></linearGradient><linearGradient id="g4" x1="-0.2" y1="22.1" x2="1" y2="21.1" href="#P"><stop stop-color="#99ebff"/><stop offset="1" stop-color="#09f"/></linearGradient><linearGradient id="g5" x1="2.2" y1="21.3" x2="3.6" y2="21.5" href="#P"><stop offset=".2" stop-color="#06c"/><stop offset=".9" stop-color="#3ff"/></linearGradient><linearGradient id="g6" x1="-0.2" y1="22.1" x2="1" y2="21.1" href="#P"><stop stop-color="#99ebff"/><stop offset="1" stop-color="#09f"/></linearGradient><linearGradient id="g7" x1="1.5" y1="24.2" x2="2.5" y2="23.9" href="#P"><stop offset=".1" stop-color="#06c"/><stop offset=".9" stop-color="#3ff"/></linearGradient><linearGradient id="g8" x1=".5" y1="24.5" x2="1.4" y2="24.2" href="#P"><stop stop-color="#09f"/><stop offset="1" stop-color="#99ebff"/></linearGradient><linearGradient id="g9" x1="2" y1="22.1" x2="2.8" y2="22.3" href="#P"><stop stop-color="#31b4e6"/><stop offset="1" stop-color="#fff"/></linearGradient><linearGradient id="g10" x1="-0.2" y1="22.4" x2="1.5" y2="21.8" href="#P"><stop stop-color="#99ebff"/><stop offset="1" stop-color="#09f"/></linearGradient><linearGradient id="g11" x1="2.5" y1="22.3" x2="4" y2="23.1" href="#P"><stop offset=".2" stop-color="#06c"/><stop offset=".9" stop-color="#3ff"/></linearGradient><linearGradient id="g12" x1="-0.2" y1="22.4" x2="1.6" y2="21.8" href="#P"><stop stop-color="#99ebff"/><stop offset="1" stop-color="#09f"/></linearGradient><radialGradient id="g13" cx="2.9" cy="31.8" r="2.3" href="#P"><stop stop-color="#fff"/><stop offset="1"/></radialGradient><radialGradient id="g14" cx="2.9" cy="31.8" r="1.8" href="#P"><stop stop-color="#fff"/><stop offset="1"/></radialGradient><linearGradient id="g15" x1="49.6" y1="25.4" x2="50.8" y2="27.2" href="#P"><stop offset=".1" stop-color="#06c"/><stop offset=".9" stop-color="#3ff"/></linearGradient><linearGradient id="g16" x1="48.4" y1="23.7" x2="49.5" y2="25.3" href="#P"><stop stop-color="#09f"/><stop offset="1" stop-color="#99ebff"/></linearGradient><linearGradient id="g17" x1="51.1" y1="25.4" x2="51" y2="26.5" href="#P"><stop stop-color="#31b4e6"/><stop offset="1" stop-color="#fff"/></linearGradient><linearGradient id="g18" x1="49.5" y1="23.2" x2="51.6" y2="26.2" href="#P"><stop stop-color="#99ebff"/><stop offset="1" stop-color="#09f"/></linearGradient><linearGradient id="g19" x1="51.3" y1="26.6" x2="50.9" y2="28.2" href="#P"><stop offset=".2" stop-color="#06c"/><stop offset=".9" stop-color="#3ff"/></linearGradient><linearGradient id="g20" x1="49.4" y1="23.6" x2="51" y2="25.9" href="#P"><stop stop-color="#99ebff"/><stop offset="1" stop-color="#09f"/></linearGradient><linearGradient id="g21" x1="23.1" y1="4.3" x2="27.8" y2="3.8" href="#P"><stop stop-color="#9ff"/><stop offset="1" stop-color="#09f"/></linearGradient><linearGradient id="g22" x1="28.5" y1="5.2" x2="31.2" y2="8.1" href="#P"><stop stop-color="#140064"/><stop offset="1" stop-color="#0e7aa5"/></linearGradient><radialGradient id="g23" cx="27.2" cy="18.2" r="14" href="#P"><stop stop-color="#2d65e4"/><stop offset="1" stop-color="#2db7f0"/></radialGradient><radialGradient id="g24" cx="27.2" cy="14.4" r="1.9" href="#P"><stop stop-color="#2d65e4"/><stop offset="1" stop-color="#2db7f0"/></radialGradient><radialGradient id="g25" cx="25.8" cy="8" r="3.8" href="#P"><stop stop-color="#fff"/><stop offset="1" stop-color="#31b4e6"/></radialGradient><linearGradient id="g26" x1="-0.2" y1="19.8" x2="48.1" y2="19.8" href="#P"><stop stop-color="#0cf"/><stop offset="1" stop-color="#06c"/></linearGradient><radialGradient id="g27" cx="24.1" cy="34.4" r="23.2" href="#P"><stop stop-color="#fff"/><stop offset="1" stop-color="#45b6e5"/></radialGradient><linearGradient id="g28" x1="-27.4" y1="42.5" x2="88.6" y2="42.5" href="#P"><stop stop-color="#0cf"/><stop offset="1" stop-color="#06c"/></linearGradient><linearGradient id="g29" x1="33.6" y1="12" x2="53.8" y2="13.2" href="#P"><stop stop-color="#180074"/><stop offset="1" stop-color="#0f6e94"/></linearGradient><linearGradient id="g30" x1="38.9" y1="48" x2="32.5" y2="55.9" href="#P"><stop stop-color="#180074"/><stop offset="1" stop-color="#0f6e94"/></linearGradient><linearGradient id="g31" x1="29.9" y1="30.5" x2="53.5" y2="31.8" href="#P"><stop stop-color="#0e0045"/><stop offset="1" stop-color="#0f6e94"/></linearGradient><linearGradient id="g32" x1="33.6" y1="14.6" x2="53.6" y2="15.7" href="#P"><stop stop-color="#0e0045"/><stop offset="1" stop-color="#0f6e94"/></linearGradient><linearGradient id="g33" x1="33.8" y1="12.2" x2="53.2" y2="13.3" href="#P"><stop stop-color="#0e0045"/><stop offset="1" stop-color="#0f6e94"/></linearGradient><linearGradient id="g34" x1="-0.7" y1="32.8" x2="-1.9" y2="23.9" href="#P"><stop stop-color="#57bbe5"/><stop offset="1" stop-color="#229ed3"/></linearGradient><radialGradient id="g35" cx="5.3" cy="27.7" r="8.4" href="#P"><stop stop-color="#fff"/><stop offset="1" stop-color="#31b4e6"/></radialGradient><linearGradient id="g36" x1="21.3" y1="7.6" x2="47.3" y2="16.1" href="#P"><stop stop-color="#0e0045"/><stop offset="1" stop-color="#0f6e94"/></linearGradient><linearGradient id="g37" x1="-5.7" y1="36" x2="44.6" y2="52.5" href="#P"><stop stop-color="#28afe7"/><stop offset="1" stop-color="#1896c9"/></linearGradient><linearGradient id="g38" x1="16.2" y1="24.4" x2="45.3" y2="34" href="#P"><stop stop-color="#0e0045"/><stop offset="1" stop-color="#0f6e94"/></linearGradient><linearGradient id="g39" x1="21.7" y1="7.4" x2="47.2" y2="15.8" href="#P"><stop stop-color="#0e0045"/><stop offset="1" stop-color="#0f6e94"/></linearGradient><linearGradient id="g40" x1="37.4" y1="41.2" x2="40.8" y2="46" href="#P"><stop stop-color="#0e0045"/><stop offset="1" stop-color="#0f6e94"/></linearGradient><linearGradient id="g41" x1="25.3" y1="32.2" x2="37" y2="32.2" href="#P"><stop stop-color="#0cf"/><stop offset="1" stop-color="#06c"/></linearGradient><radialGradient id="g42" cx="33.6" cy="40.1" r="9.5" href="#P"><stop stop-color="#fff"/><stop offset="1" stop-color="#31b4e6"/></radialGradient><linearGradient id="g43" x1="27.5" y1="32.5" x2="36.5" y2="32.5" href="#P"><stop stop-color="#0e0045"/><stop offset="1" stop-color="#0f6e94"/></linearGradient><linearGradient id="g44" x1="27.8" y1="42.4" x2="36.4" y2="42.4" href="#P"><stop stop-color="#0e0045"/><stop offset="1" stop-color="#0f6e94"/></linearGradient><linearGradient id="g45" x1="34.7" y1="30.7" x2="42.6" y2="35.1" href="#P"><stop stop-color="#0e0045"/><stop offset="1" stop-color="#0f6e94"/></linearGradient><linearGradient id="g46" x1="33.7" y1="25.2" x2="48.1" y2="25.2" href="#P"><stop stop-color="#57bbe5"/><stop offset="1" stop-color="#229ed3"/></linearGradient><linearGradient id="g47" x1="34.4" y1="34.9" x2="40.1" y2="34.9" href="#P"><stop stop-color="#0e0045"/><stop offset="1" stop-color="#0f6e94"/></linearGradient><linearGradient id="g48" x1="34" y1="31.8" x2="47.5" y2="31.8" href="#P"><stop stop-color="#57bbe5"/><stop offset="1" stop-color="#229ed3"/></linearGradient><linearGradient id="g49" x1="34" y1="33.6" x2="47.5" y2="33.6" href="#P"><stop stop-color="#0cf"/><stop offset="1" stop-color="#06c"/></linearGradient><linearGradient id="g50" x1="34" y1="34.2" x2="47.5" y2="34.2" href="#P"><stop stop-color="#57bbe5"/><stop offset="1" stop-color="#229ed3"/></linearGradient><linearGradient id="g51" x1="25.4" y1="32.1" x2="37.1" y2="32.1" href="#P"><stop stop-color="#37a3d0"/><stop offset="1" stop-color="#158fc0"/></linearGradient><radialGradient id="g52" cx="26.5" cy="35.1" r="5.9" href="#P"><stop stop-color="#fff"/><stop offset="1" stop-color="#31b4e6"/></radialGradient><linearGradient id="g53" x1="5.3" y1="20.9" x2="29.5" y2="20.9" href="#P"><stop stop-color="#0cf"/><stop offset="1" stop-color="#06c"/></linearGradient><linearGradient id="g54" x1=".5" y1="26.4" x2="19" y2="31.4" href="#P"><stop stop-color="#180074"/><stop offset="1" stop-color="#0f6e94"/></linearGradient><linearGradient id="g55" x1=".7" y1="20" x2="26.9" y2="-4.4" href="#P"><stop stop-color="#99ebff"/><stop offset="1" stop-color="#09f"/></linearGradient><radialGradient id="g56" cx="7.4" cy="23.3" r="17.6" href="#P"><stop stop-color="#fff"/><stop offset="1" stop-color="#31b4e6"/></radialGradient><linearGradient id="g57" x1="10.4" y1="46.8" x2="-3.2" y2="33" href="#P"><stop stop-color="#0f6e94"/><stop offset="1" stop-color="#229dd1"/></linearGradient><linearGradient id="g58" x1="11.1" y1="46.2" x2="-2.6" y2="32.4" href="#P"><stop stop-color="#180074"/><stop offset="1" stop-color="#0f6e94"/></linearGradient><linearGradient id="g59" x1="10.8" y1="46.1" x2="-2.7" y2="32.5" href="#P"><stop stop-color="#0e0045"/><stop offset="1" stop-color="#0f6e94"/></linearGradient><radialGradient id="g60" cx="3.5" cy="30.7" r="7.7" href="#P"><stop stop-color="#fff"/><stop offset="1" stop-color="#31b4e6"/></radialGradient><radialGradient id="g61" cx="-1.4" cy="26.7" r="11.3" href="#P"><stop stop-color="#fff"/><stop offset="1" stop-color="#31b4e6"/></radialGradient><radialGradient id="g62" cx="16.1" cy="36.6" r="33.8" href="#P"><stop stop-color="#fff"/><stop offset="1" stop-color="#31b4e6"/></radialGradient><linearGradient id="g63" x1="10" y1="28.7" x2="41" y2="28.7" href="#P"><stop stop-color="#28afe7"/><stop offset="1" stop-color="#1896c9"/></linearGradient><linearGradient id="g64" x1="13" y1="28.5" x2="19.9" y2="28.5" href="#P"><stop stop-color="#28afe7"/><stop offset="1" stop-color="#1896c9"/></linearGradient><radialGradient id="g65" cx="3.4" cy="23.5" r="9.6" href="#P"><stop stop-color="#fff"/><stop offset="1" stop-color="#45b6e5"/></radialGradient><radialGradient id="g66" cx="1.6" cy="31.3" r="4.5" href="#P"><stop stop-color="#fff"/><stop offset="1" stop-color="#45b6e5"/></radialGradient><linearGradient id="g67" x1="21.1" y1="37.3" x2="30.6" y2="46.6" href="#P"><stop stop-color="#180074"/><stop offset="1" stop-color="#0f6e94"/></linearGradient><linearGradient id="g68" x1="-31.6" y1="42.4" x2="93.8" y2="42.4" href="#P"><stop stop-color="#180074"/><stop offset="1" stop-color="#0f6e94"/></linearGradient><linearGradient id="g69" x1="19.1" y1="53" x2="16.3" y2="47.2" href="#P"><stop stop-color="#24a7dd"/><stop offset="1" stop-color="#1284b2"/></linearGradient><linearGradient id="g70" x1="18.2" y1="42" x2="25.2" y2="42" href="#P"><stop stop-color="#37a3d0"/><stop offset="1" stop-color="#158fc0"/></linearGradient><radialGradient id="g71" cx="19.8" cy="45.3" r="4.1" href="#P"><stop stop-color="#fff"/><stop offset="1" stop-color="#31b4e6"/></radialGradient><radialGradient id="g72" cx="19.5" cy="47.6" r="3.7" href="#P"><stop stop-color="#fff"/><stop offset="1" stop-color="#31b4e6"/></radialGradient><linearGradient id="g73" x1="25.3" y1="32.1" x2="37.1" y2="32.1" href="#P"><stop stop-color="#28afe7"/><stop offset="1" stop-color="#1896c9"/></linearGradient><radialGradient id="g74" cx="31.1" cy="41.2" r="6.6" href="#P"><stop stop-color="#fff"/><stop offset="1" stop-color="#31b4e6"/></radialGradient><linearGradient id="g75" x1="33.8" y1="36.1" x2="35.2" y2="36" href="#P"><stop stop-color="#28afe7"/><stop offset="1" stop-color="#1896c9"/></linearGradient><linearGradient id="g76" x1="35.1" y1="32.3" x2="36.9" y2="32.3" href="#P"><stop stop-color="#28afe7"/><stop offset="1" stop-color="#1896c9"/></linearGradient><linearGradient id="g77" x1="8.3" y1="29.8" x2="10.6" y2="29.8" href="#P"><stop stop-color="#28afe7"/><stop offset="1" stop-color="#1896c9"/></linearGradient><radialGradient id="g78" cx="45.1" cy="23.1" r="3.9" href="#P"><stop stop-color="#fff"/><stop offset="1" stop-color="#31b4e6"/></radialGradient><radialGradient id="g79" cx="46.2" cy="37.7" r="6.7" href="#P"><stop stop-color="#6292ff"/><stop offset="1" stop-color="#45b6e5"/></radialGradient><radialGradient id="g80" cx="41.4" cy="39.7" r="6.1" href="#P"><stop stop-color="#9ff"/><stop offset="1" stop-color="#0cc"/></radialGradient><radialGradient id="g81" cx="31.7" cy="50.3" r="4.5" href="#P"><stop stop-color="#6292ff"/><stop offset="1" stop-color="#45b6e5"/></radialGradient><radialGradient id="g82" cx="37.3" cy="32.8" r="2" href="#P"><stop stop-color="#6292ff"/><stop offset="1" stop-color="#45b6e5"/></radialGradient><radialGradient id="g83" cx="45.5" cy="28.5" r="4.3" href="#P"><stop stop-color="#9ff"/><stop offset="1" stop-color="#0cc"/></radialGradient><radialGradient id="g84" cx="47.5" cy="30.9" r="2.5" href="#P"><stop stop-color="#9ff"/><stop offset="1" stop-color="#0cc"/></radialGradient><radialGradient id="g85" cx="37.4" cy="46.2" r="9.4" href="#P"><stop stop-color="#9ff"/><stop offset="1" stop-color="#0cc"/></radialGradient><radialGradient id="g86" cx="18" cy="18.3" r="33.4" href="#P"><stop stop-color="#fff"/><stop offset="1" stop-color="#31b4e6"/></radialGradient><linearGradient id="g87" x1="6.7" y1="31.2" x2="18.2" y2="31.2" href="#P"><stop stop-color="#28afe7"/><stop offset="1" stop-color="#1896c9"/></linearGradient><radialGradient id="g88" cx="15.6" cy="43.4" r="2.5" href="#P"><stop stop-color="#9ff"/><stop offset="1" stop-color="#0cc"/></radialGradient><linearGradient id="g89" x1="26.2" y1="46.7" x2="28.6" y2="46.7" href="#P"><stop stop-color="#28afe7"/><stop offset="1" stop-color="#1896c9"/></linearGradient><linearGradient id="g90" x1="25.8" y1="5.6" x2="18.1" y2="4.2" href="#P"><stop stop-color="#1ea1d8"/><stop offset="1" stop-color="#0e7aa5"/></linearGradient><linearGradient id="g91" x1="25.7" y1="6.1" x2="18" y2="4.8" href="#P"><stop stop-color="#9ff"/><stop offset="1" stop-color="#09f"/></linearGradient><linearGradient id="g92" x1="25.7" y1="6.3" x2="18" y2="5" href="#P"><stop stop-color="#9ff"/><stop offset="1" stop-color="#09f"/></linearGradient><linearGradient id="g93" x1="25.8" y1="5.7" x2="23.5" y2="5.3" href="#P"><stop offset=".1" stop-color="#3ff"/><stop offset=".9" stop-color="#06c"/></linearGradient><linearGradient id="g94" x1="21.5" y1="4.5" x2="19.8" y2="5.7" href="#P"><stop offset=".1" stop-color="#3ff"/><stop offset=".9" stop-color="#06c"/></linearGradient><radialGradient id="g95" cx="17.3" cy="12.8" r="2.2" href="#P"><stop stop-color="#3a6ad8"/><stop offset="1" stop-color="#3cb6e9"/></radialGradient><linearGradient id="g96" x1="25.1" y1="4.9" x2="19.4" y2="3.9" href="#P"><stop stop-color="#9ff"/><stop offset="1" stop-color="#09f"/></linearGradient><radialGradient id="g97" cx="23.1" cy="12.8" r="4.1" href="#P"><stop stop-color="#4dc6ff"/><stop offset="1" stop-color="#29b4ea"/></radialGradient><linearGradient id="g98" x1="20.9" y1="10.9" x2="20.6" y2="10.8" href="#P"><stop stop-color="#23b0eb"/><stop offset="1" stop-color="#149bd2"/></linearGradient><linearGradient id="g99" x1="22.5" y1="2.4" x2="45.5" y2="2.4" href="#P"><stop stop-color="#99ebff"/><stop offset="1" stop-color="#09f"/></linearGradient><linearGradient id="g100" x1="17.5" y1="2.3" x2="47.4" y2="2.3" href="#P"><stop stop-color="#6ff"/><stop offset="1" stop-color="#009"/></linearGradient><linearGradient id="g101" x1="9.5" y1="13.1" x2="10.1" y2="13.1" href="#P"><stop offset=".1" stop-color="#06c"/><stop offset=".9" stop-color="#3ff"/></linearGradient><linearGradient id="g102" x1="8.8" y1="13" x2="9.5" y2="13.1" href="#P"><stop stop-color="#09f"/><stop offset="1" stop-color="#99ebff"/></linearGradient><linearGradient id="g103" x1="10.7" y1="11.9" x2="11.2" y2="12.3" href="#P"><stop stop-color="#31b4e6"/><stop offset="1" stop-color="#fff"/></linearGradient><linearGradient id="g104" x1="9" y1="11.4" x2="10" y2="11.5" href="#P"><stop stop-color="#99ebff"/><stop offset="1" stop-color="#09f"/></linearGradient><linearGradient id="g105" x1="11.1" y1="12.3" x2="11.9" y2="13.2" href="#P"><stop offset=".2" stop-color="#06c"/><stop offset=".9" stop-color="#3ff"/></linearGradient><linearGradient id="g106" x1="8.9" y1="11.4" x2="10.1" y2="11.5" href="#P"><stop stop-color="#99ebff"/><stop offset="1" stop-color="#09f"/></linearGradient><linearGradient id="g107" x1="30" y1="10.4" x2="36.1" y2="5.4" href="#P"><stop stop-color="#140064"/><stop offset="1" stop-color="#0e7aa5"/></linearGradient><linearGradient id="g108" x1="21.5" y1="-1.3" x2="32.6" y2="2" href="#P"><stop stop-color="#fff"/><stop offset="1" stop-color="#cff"/></linearGradient><linearGradient id="g109" x1="18.9" y1="7.5" x2="29.7" y2="10.8" href="#P"><stop stop-color="#99ebff"/><stop offset="1" stop-color="#09f"/></linearGradient><linearGradient id="g110" x1="11.8" y1="11.6" x2="12.6" y2="11.9" href="#P"><stop offset=".1" stop-color="#06c"/><stop offset=".9" stop-color="#3ff"/></linearGradient><linearGradient id="g111" x1="11" y1="11.3" x2="11.8" y2="11.5" href="#P"><stop stop-color="#09f"/><stop offset="1" stop-color="#99ebff"/></linearGradient><linearGradient id="g112" x1="13.4" y1="10.6" x2="13.8" y2="11.1" href="#P"><stop stop-color="#31b4e6"/><stop offset="1" stop-color="#fff"/></linearGradient><linearGradient id="g113" x1="11.6" y1="9.6" x2="13" y2="10" href="#P"><stop stop-color="#99ebff"/><stop offset="1" stop-color="#09f"/></linearGradient><linearGradient id="g114" x1="13.6" y1="11" x2="14.3" y2="12.3" href="#P"><stop offset=".2" stop-color="#06c"/><stop offset=".9" stop-color="#3ff"/></linearGradient><linearGradient id="g115" x1="11.6" y1="9.6" x2="13" y2="10" href="#P"><stop stop-color="#99ebff"/><stop offset="1" stop-color="#09f"/></linearGradient><linearGradient id="g116" x1="11.1" y1="16.5" x2="13.6" y2="17.1" href="#P"><stop offset=".1" stop-color="#06c"/><stop offset=".9" stop-color="#3ff"/></linearGradient><linearGradient id="g117" x1="8.6" y1="15.9" x2="10.9" y2="16.5" href="#P"><stop stop-color="#09f"/><stop offset="1" stop-color="#99ebff"/></linearGradient><linearGradient id="g118" x1="12.2" y1="15" x2="13" y2="16.1" href="#P"><stop stop-color="#31b4e6"/><stop offset="1" stop-color="#fff"/></linearGradient><linearGradient id="g119" x1="9.2" y1="14.6" x2="13.6" y2="15.6" href="#P"><stop stop-color="#99ebff"/><stop offset="1" stop-color="#09f"/></linearGradient><linearGradient id="g120" x1="13.4" y1="16" x2="14.3" y2="17.7" href="#P"><stop offset=".2" stop-color="#06c"/><stop offset=".9" stop-color="#3ff"/></linearGradient><linearGradient id="g121" x1="9.2" y1="14.6" x2="13.6" y2="15.6" href="#P"><stop stop-color="#99ebff"/><stop offset="1" stop-color="#09f"/></linearGradient><linearGradient id="g122" x1="6.5" y1="14.1" x2="8.5" y2="13.7" href="#P"><stop offset=".1" stop-color="#06c"/><stop offset=".9" stop-color="#3ff"/></linearGradient><linearGradient id="g123" x1="4.5" y1="14.3" x2="6.3" y2="13.9" href="#P"><stop stop-color="#09f"/><stop offset="1" stop-color="#99ebff"/></linearGradient><linearGradient id="g124" x1="7" y1="12.2" x2="8" y2="12.7" href="#P"><stop stop-color="#31b4e6"/><stop offset="1" stop-color="#fff"/></linearGradient><linearGradient id="g125" x1="4.4" y1="12.7" x2="7.8" y2="12" href="#P"><stop stop-color="#99ebff"/><stop offset="1" stop-color="#09f"/></linearGradient><linearGradient id="g126" x1="8.2" y1="12.5" x2="9.6" y2="13.5" href="#P"><stop offset=".2" stop-color="#06c"/><stop offset=".9" stop-color="#3ff"/></linearGradient><linearGradient id="g127" x1="4.4" y1="12.7" x2="7.8" y2="12" href="#P"><stop stop-color="#99ebff"/><stop offset="1" stop-color="#09f"/></linearGradient><radialGradient id="g128" cx="8.4" cy="21" r="1.6" href="#P"><stop stop-color="#fff"/><stop offset="1" stop-color="#cff"/></radialGradient><radialGradient id="g129" cx="31.2" cy="26.9" r="6" href="#P"><stop stop-color="#003"/><stop offset="1" stop-color="#09f"/></radialGradient><radialGradient id="g130" cx="32" cy="29.5" r="11.7" href="#P"><stop stop-color="#003"/><stop offset="1" stop-color="#09f"/></radialGradient><radialGradient id="g131" cx="32.1" cy="25.7" r="9.9" href="#P"><stop stop-color="#003"/><stop offset="1" stop-color="#09f"/></radialGradient><radialGradient id="g132" cx="27.8" cy="23.4" r="13.1" href="#P"><stop stop-color="#003"/><stop offset="1" stop-color="#09f"/></radialGradient><radialGradient id="g133" cx="10.6" cy="18.5" r="3" href="#P"><stop stop-color="#fff"/><stop offset="1"/></radialGradient><radialGradient id="g134" cx="18.8" cy="30.4" r="3" href="#P"><stop stop-color="#fff"/><stop offset="1"/></radialGradient><radialGradient id="g135" cx="20.6" cy="12.4" r="3" href="#P"><stop stop-color="#fff"/><stop offset="1"/></radialGradient><radialGradient id="g136" cx="29.8" cy="39.9" r="2.3" href="#P"><stop stop-color="#fff"/><stop offset="1"/></radialGradient><radialGradient id="g137" cx="40" cy="36.7" r="2.3" href="#P"><stop stop-color="#fff"/><stop offset="1"/></radialGradient><radialGradient id="g138" cx="44.7" cy="24.4" r="3.1" href="#P"><stop stop-color="#fff"/><stop offset="1"/></radialGradient><radialGradient id="g139" cx="29.9" cy="12" r="3.2" href="#P"><stop stop-color="#fff"/><stop offset="1"/></radialGradient><radialGradient id="g140" cx="29.9" cy="12" r="2.5" href="#P"><stop stop-color="#fff"/><stop offset="1"/></radialGradient><radialGradient id="g141" cx="22" cy="17.9" r="3.2" href="#P"><stop stop-color="#fff"/><stop offset="1"/></radialGradient><radialGradient id="g142" cx="22" cy="17.9" r="2.5" href="#P"><stop stop-color="#fff"/><stop offset="1"/></radialGradient><radialGradient id="g143" cx="23.9" cy="8.6" r="4.2" href="#P"><stop stop-color="#fff"/><stop offset=".6"/></radialGradient><radialGradient id="g144" cx="5.6" cy="19" r="3.1" href="#P"><stop stop-color="#fff"/><stop offset=".6"/></radialGradient><radialGradient id="g145" cx="8.5" cy="26.3" r="2.3" href="#P"><stop stop-color="#fff"/><stop offset=".6"/></radialGradient><radialGradient id="g146" cx="33.4" cy="4.8" r="2.4" href="#P"><stop stop-color="#fff"/><stop offset=".6"/></radialGradient><radialGradient id="g147" cx="33.3" cy="4.2" r="6.8" href="#P"><stop stop-color="#fff"/><stop offset="1"/></radialGradient><radialGradient id="g148" cx="33.3" cy="4.2" r="5.2" href="#P"><stop stop-color="#fff"/><stop offset="1"/></radialGradient></defs><style>.a{fill:url(#g1)}.b{opacity:.4;fill:#0050a3}.c{opacity:.2;fill:#fff}.d{fill:url(#g2)}.e{opacity:.2;fill:#0050a3}.f{fill:url(#g3)}.g{fill:url(#g4)}.h{fill:url(#g5)}.i{fill:url(#g6)}.j{opacity:.5;fill:#cff}.k{opacity:.6;fill:#fff}.l{fill:url(#g7)}.m{fill:url(#g8)}.n{fill:url(#g9)}.o{fill:url(#g10)}.p{fill:url(#g11)}.q{fill:url(#g12)}.r{fill:#fff}.s{mix-blend-mode:color-dodge;fill:url(#g13)}.t{mix-blend-mode:color-dodge;fill:url(#g14)}.u{fill:url(#g15)}.v{fill:url(#g16)}.w{fill:url(#g17)}.x{fill:url(#g18)}.y{fill:url(#g19)}.z{fill:url(#g20)}.A{opacity:.6;fill:#0050a3}.B{fill:url(#g21)}.C{opacity:.4;fill:url(#g22)}.D{opacity:.2;fill:#0009af}.E{opacity:.4;fill:url(#g23)}.F{opacity:.4;fill:url(#g24)}.G{fill:url(#g25)}.H{fill:url(#g26)}.I{opacity:.3;fill:url(#g27)}.J{opacity:.5;fill:url(#g28)}.K{opacity:.7;fill:url(#g29)}.L{opacity:.7;fill:url(#g30)}.M{fill:url(#g31)}.N{fill:url(#g32)}.O{fill:url(#g33)}.P{fill:url(#g34)}.Q{fill:url(#g35)}.R{opacity:.4;fill:url(#g36)}.S{opacity:.5;fill:url(#g37)}.T{opacity:.5;fill:url(#g38)}.U{opacity:.4;fill:url(#g39)}.V{opacity:.7;fill:url(#g40)}.W{fill:url(#g41)}.X{opacity:.4;fill:url(#g42)}.Y{fill:#0072a2}.Z{opacity:.4;fill:url(#g43)}.a0{opacity:.5;fill:url(#g44)}.a1{fill:url(#g45)}.a2{opacity:.5;fill:url(#g46)}.a3{fill:url(#g47)}.a4{opacity:.5;fill:url(#g48)}.a5{fill:url(#g49)}.a6{opacity:.5;fill:url(#g50)}.a7{fill:url(#g51)}.a8{opacity:.4;fill:url(#g52)}.a9{fill:url(#g53)}.aa{fill:url(#g54)}.ab{fill:url(#g55)}.ac{fill:url(#g56)}.ad{fill:url(#g57)}.ae{opacity:.2;fill:url(#g58)}.af{opacity:.3;fill:url(#g59)}.ag{opacity:.7;fill:#3ff}.ah{fill:url(#g60)}.ai{fill:url(#g61)}.aj{fill:url(#g62)}.ak{fill:url(#g63)}.al{fill:url(#g64)}.am{fill:url(#g65)}.an{fill:url(#g66)}.ao{opacity:.7;fill:url(#g67)}.ap{opacity:.7;fill:url(#g68)}.aq{fill:url(#g69)}.ar{fill:url(#g70)}.as{opacity:.4;fill:url(#g71)}.at{fill:url(#g72)}.au{fill:url(#g73)}.av{fill:url(#g74)}.aw{fill:url(#g75)}.ax{opacity:.5;fill:url(#g76)}.ay{opacity:.5;fill:url(#g77)}.az{opacity:.3;fill:#62c8ff}.aA{fill:url(#g78)}.aB{opacity:.3;fill:url(#g79)}.aC{opacity:.6;fill:url(#g80)}.aD{opacity:.3;fill:url(#g81)}.aE{opacity:.3;fill:url(#g82)}.aF{opacity:.6;fill:url(#g83)}.aG{opacity:.6;fill:url(#g84)}.aH{opacity:.6;fill:url(#g85)}.aI{opacity:.5;fill:url(#g86)}.aJ{fill:url(#g87)}.aK{opacity:.5;fill:url(#g88)}.aL{opacity:.4;fill:url(#g89)}.aM{fill:url(#g90)}.aN{fill:url(#g91)}.aO{fill:url(#g92)}.aP{opacity:.6;fill:url(#g93)}.aQ{opacity:.6;fill:url(#g94)}.aR{opacity:.2;fill:#00078b}.aS{opacity:.2;fill:url(#g95)}.aT{opacity:.4;fill:#fff}.aU{opacity:.8;fill:#fff}.aV{fill:url(#g96)}.aW{fill:url(#g97)}.aX{opacity:.5;fill:#fff}.aY{fill:url(#g98)}.aZ{fill:url(#g99)}.b0{fill:url(#g100)}.b1{fill:url(#g101)}.b2{fill:url(#g102)}.b3{fill:url(#g103)}.b4{fill:url(#g104)}.b5{fill:url(#g105)}.b6{fill:url(#g106)}.b7{opacity:.9;fill:url(#g107)}.b8{fill:url(#g108)}.b9{opacity:.2;fill:url(#g109)}.ba{fill:url(#g110)}.bb{fill:url(#g111)}.bc{fill:url(#g112)}.bd{fill:url(#g113)}.be{fill:url(#g114)}.bf{fill:url(#g115)}.bg{fill:url(#g116)}.bh{fill:url(#g117)}.bi{fill:url(#g118)}.bj{fill:url(#g119)}.bk{fill:url(#g120)}.bl{fill:url(#g121)}.bm{fill:url(#g122)}.bn{fill:url(#g123)}.bo{fill:url(#g124)}.bp{fill:url(#g125)}.bq{fill:url(#g126)}.br{fill:url(#g127)}.bs{fill:url(#g128)}.bt{fill:#9ff}.bu{fill:url(#g129)}.bv{fill:url(#g130)}.bw{fill:url(#g131)}.bx{fill:url(#g132)}.by{fill:#f5f5f5}.bz{fill:#55d1f2}.bA{opacity:.4;fill:#55d1f2}.bB{opacity:.5;mix-blend-mode:color-dodge;fill:url(#g133)}.bC{opacity:.5;mix-blend-mode:color-dodge;fill:url(#g134)}.bD{opacity:.5;mix-blend-mode:color-dodge;fill:url(#g135)}.bE{mix-blend-mode:color-dodge;fill:url(#g136)}.bF{mix-blend-mode:color-dodge;fill:url(#g137)}.bG{mix-blend-mode:color-dodge;fill:url(#g138)}.bH{mix-blend-mode:color-dodge;fill:url(#g139)}.bI{mix-blend-mode:color-dodge;fill:url(#g140)}.bJ{mix-blend-mode:color-dodge;fill:url(#g141)}.bK{mix-blend-mode:color-dodge;fill:url(#g142)}.bL{opacity:.5;mix-blend-mode:color-dodge;fill:url(#g143)}.bM{mix-blend-mode:color-dodge;fill:url(#g144)}.bN{opacity:.7;mix-blend-mode:color-dodge;fill:url(#g145)}.bO{opacity:.7;mix-blend-mode:color-dodge;fill:url(#g146)}.bP{mix-blend-mode:color-dodge;fill:url(#g147)}.bQ{mix-blend-mode:color-dodge;fill:url(#g148)}</style><path class="a" d="m6.6 28.8l0.1 0.8-4.1-4.8 0.8-0.6z"/><path class="b" d="m5.2 27.9l-2.6-3.2 0.7-0.6 0.2 0.2c-0.2 0.2 0.2 1.2 0.5 1.6q0.5 1 1.2 2z"/><path class="c" d="m5.5 27.2l1.1 1.6v0.3q-0.5-0.9-1.1-1.9z"/><path class="d" d="m6.7 30h-0.8l-3.8-4.7 0.9-0.1z"/><path class="e" d="m6.5 29.6h-0.6l-2-2.5c-0.2-0.3 0.3 0 0.4 0.2q0.4 0.3 0.8 0.6c0.4 0.6 0.9 1.1 1.4 1.7z"/><path class="f" d="m1.8 24.6l-0.2-1.4 1.3 0.5 0.5 0.5-0.4 0.8-0.8 0.1z"/><path class="g" d="m2.2 25.1l-0.4-0.5-0.2-1.4z"/><path class="h" d="m3.4 24.2l-0.4 0.8-1.4-1.8 1.3 0.5z"/><path class="b" d="m3.3 24.4l-0.3 0.6-1.2-1.6q0.4 0.5 0.8 0.8c0.3 0.2 0.5 0.2 0.7 0.2z"/><path class="i" d="m1.6 23.2l1.3 0.5 0.5 0.5h-0.1c-0.1-0.1-0.3-0.2-0.5-0.3-0.3-0.2-1.2-0.7-1.2-0.7z"/><path class="j" d="m3.1 25l3.6 4.6q0 0 0 0l-3.7-4.5h-0.9l0.7-0.3-1.2-1.6q0.3 0.3 0.6 0.6 0.2 0.3 0.4 0.5c0.1 0.2 0.2 0.3 0.3 0.3 0.1 0 0.2-0.1 0.2-0.2q0.1-0.1 0.3-0.2z"/><path class="k" d="m3.1 25l3.5 4.5-3.5-4.5q-0.1 0-0.1 0 0 0 0 0 0 0 0 0l-0.9 0.1 0.8-0.2-1.3-1.7 1.3 1.6 0.5-0.6-0.4 0.7q0 0.1 0 0.1 0 0 0.1 0z"/><path class="k" d="m1.6 23.2l0.6 1.9q0 0 0 0-0.1 0-0.1-0.1 0 0 0 0z"/><path class="k" d="m3.3 24.1q0 0 0 0 0 0 0.1 0.1 0 0.1-0.1 0l-1.7-1z"/><path class="l" d="m5.1 32.2l-0.2 1-2.9-7 1-0.4z"/><path class="b" d="m3.8 30.7l-1.9-4.6 1.1-0.4 0.1 0.3c-0.3 0.1-0.1 1.4 0 2 0.2 0.9 0.4 1.8 0.7 2.7z"/><path class="c" d="m4.4 30l0.7 2.1-0.1 0.5q-0.3-1.3-0.6-2.6z"/><path class="m" d="m4.9 33.1l-0.8-0.2-2.8-6.6 1 0.2z"/><path class="e" d="m4.7 33.1l-0.6-0.2-1.5-3.6c-0.1-0.4 0.3 0.1 0.4 0.3q0.3 0.5 0.6 1.1c0.4 0.7 0.8 1.6 1.1 2.4z"/><path class="n" d="m1.1 25.7l0.3-1.7 1.2 1 0.4 0.7-0.7 0.8-1-0.1z"/><path class="o" d="m1.3 26.4l-0.2-0.7 0.3-1.7z"/><path class="p" d="m3 25.7l-0.7 0.8-0.9-2.5 1.2 1z"/><path class="b" d="m2.8 25.9l-0.5 0.6-0.8-2.2q0.2 0.7 0.6 1.2c0.3 0.3 0.5 0.4 0.7 0.4z"/><path class="q" d="m1.4 24l1.2 1 0.4 0.7c-0.2-0.1-0.3-0.3-0.5-0.5-0.4-0.3-1.1-1.2-1.1-1.2z"/><path class="j" d="m2.4 26.6l2.5 6.5q0 0 0 0l-2.6-6.5-1-0.2 0.8-0.2-0.7-2.2q0.2 0.5 0.4 0.9 0.1 0.4 0.3 0.7c0.1 0.3 0.2 0.5 0.3 0.5 0.1 0 0.2-0.1 0.2-0.1q0.2-0.2 0.4-0.3z"/><path class="k" d="m2.4 26.6l2.5 6.5-2.5-6.4c0 0 0 0 0 0-0.1 0-0.1 0-0.1 0 0 0 0 0.1 0 0.1l-1 0.2h0.9l-0.8-2.7 0.9 2.1 0.7-0.7-0.6 0.8q-0.1 0-0.1 0 0.1 0.1 0.1 0.1z"/><path class="k" d="m1.2 24.1l0.1 2.3c0 0-0.1 0-0.1 0-0.1 0-0.2-0.1-0.2-0.2q0 0 0 0z"/><path class="k" d="m2.9 25.6q0 0 0 0 0.1 0.1 0.1 0.2 0 0-0.1 0l-1.5-1.8z"/><path class="r" d="m4.5 24c-0.7-0.3-1.3-0.8-1.8-1.2-0.4-0.3-0.8-0.6-0.9-1-0.2-0.8 1.3-1.3 1.8-1.5q0-0.1 0 0c-0.4 0.5-1.8 1-1 1.9 0.6 0.6 1.3 1.1 1.9 1.7 0 0 0 0.1 0 0.1z"/><path class="s" d="m2.9 29.5l0.1 2.2 2.3 0.1-2.3 0.1-0.1 2.2v-2.2l-2.3-0.1 2.3-0.1z"/><path class="t" d="m4.2 30.5l-1.2 1.3 1.2 1.3-1.3-1.2-1.2 1.2 1.2-1.3-1.2-1.3 1.2 1.2z"/><path class="u" d="m46.9 28.6l-0.8-0.7 1.5-1.8 1.3 2z"/><path class="b" d="m46.6 27.3l1-1.2 1.3 2h-0.1c-0.3-0.5-1-0.8-1.2-0.9-0.4-0.1-0.7 0-1 0.1z"/><path class="c" d="m47.6 28.5l-0.7 0.1-0.3-0.3q0.5 0.1 1 0.2z"/><path class="v" d="m46.1 27.9l-0.6-1.2 1.3-1.7 1 1.6z"/><path class="w" d="m47.1 25l1.8 0.8 0.1 1.9-0.1 0.4-1.2-1.5-0.9-1.6z"/><path class="x" d="m46.8 25h0.3l1.8 0.8z"/><path class="y" d="m48.9 28.1l-1.2-1.5 1.2-0.8 0.1 1.9z"/><path class="b" d="m48.6 27.7l-0.9-1.1 1.1-0.8c-0.1 0.2-0.7 0.7-0.6 1 0 0.2 0.2 0.6 0.4 0.9z"/><path class="z" d="m48.9 25.8l0.1 1.9-0.1 0.4c-0.1-0.2-0.2-0.5-0.2-0.7-0.1-0.4 0.2-1.6 0.2-1.6z"/><path class="j" d="m47.8 26.8l-1.7 1.2q0-0.1 0-0.1l1.5-1.4-0.8-1.5 0.9 1.4 1.2-0.6c-0.1 0.1-0.7 0.5-0.7 0.6q-0.1 0.1-0.2 0.2c0 0-0.1 0.1 0 0.3 0.1 0.1 0.3 0.3 0.4 0.5q0.2 0.3 0.5 0.7z"/><path class="k" d="m47.8 26.7l-1.6 1.3 1.5-1.3q0 0 0 0c0-0.1 0-0.1 0-0.1 0 0 0 0 0 0l-0.9-1.6 0.9 1.5 1.2-0.7-1.1 0.8 1.1 1.5-1.1-1.4q0 0-0.1-0.1 0.1 0.1 0.1 0.1z"/><path class="k" d="m48.9 25.8l-2-0.6q0 0 0-0.1-0.1-0.1 0 0 0 0 0 0z"/><path class="k" d="m49 28q0 0 0 0c0 0-0.1 0.1-0.1 0 0 0-0.1 0-0.1-0.1l0.1-2.1z"/><path class="A" d="m46 27.7l-0.5-1 1.6-1.5c0.2 0.1 1.2 0.2 1.2 0.4 0 0.2-1.8 1.2-1.9 1.3q-0.1 0.5-0.4 0.8z"/><path class="B" d="m27.6 6.8q0.2 0.4 0.3 0.8c0 0.3 0.2 0.5 0.2 0.8 0 0-0.5 5.2-0.5 5.3-0.3 0.3-0.7 0.6-0.9 0.9q-0.9-0.1-1.8-0.1 0-0.1-0.1-0.1-0.4-0.4-0.9-0.6 0-0.2 0.8-5.8 0.2-0.5 0.4-0.9c0.3-0.5 0.4-1.1 0.9-1.2 0.4 0 0.9 0.1 1.2 0.3q0.1 0.1 0.1 0.1c0.2 0.2 0.2 0.4 0.3 0.5z"/><path class="A" d="m24.8 14.4q-0.4-0.4-0.9-0.6c0-0.2 0.4-3.2 0.6-4.8 0.6 0.6 0.5 2.1 0.6 2.8q0 0.8-0.1 1.6 0 0.3 0 0.6 0 0.2-0.1 0.2-0.1 0.1-0.1 0.2z"/><path class="C" d="m27.6 13.7c-0.3 0.3-0.7 0.6-0.9 0.9q-0.9-0.1-1.8-0.1 0-0.1 0-0.1c0.1-0.7 0.8-6.5 0.8-7.2q0.1 0 0.1-0.1c0.6 0.3 1.4 0.3 1.8 0.3q0.1 0 0.2-0.1 0.2 0.5 0.3 1.1c0 0-0.5 5.2-0.5 5.3z"/><path class="D" d="m25.2 14.5q-0.1 0-0.3 0c0.1-0.5 0.7-6.1 0.8-6.6q0 0 0-0.1 0.2-0.4 0.4-0.5c0.6 0.1 1.2 0.1 1.5 0.1q0.1 0 0.2-0.1 0 0.2 0.1 0.4 0 0.1-0.1 0.2c-0.1 0.2-0.7 5.5-0.8 5.7-0.3-0.3-0.1-5.7-0.4-5.6-0.4 0.2-1.4 5.9-1.4 6.5z"/><path class="E" d="m27.3 14c0-0.3 0.7-5.5 0.8-5.7q0 0 0 0.1c0 0-0.5 5.2-0.5 5.3q-0.2 0.1-0.3 0.3z"/><path class="F" d="m25.4 14.5c0.2-0.3 0.4-0.7 0.6-0.9 0.3-0.2 0.8 0.5 0.9 0.6q0 0.1 0.1 0.1-0.2 0.1-0.3 0.3-0.6-0.1-1.3-0.1z"/><path class="G" d="m27.7 7c0.1 0.2 0.1 0.4 0.2 0.6 0.1 0.3 0.2 0.5 0.2 0.8 0-0.2-0.1-0.4-0.2-0.5-0.1-0.1-0.2-0.3-0.3-0.4-0.1 0-0.2 0-0.2 0-0.6 0.1-0.5 0.6-0.6 1.1q0.1-0.2 0-0.5 0-0.1 0-0.3c0-0.2-0.1-0.3-0.3-0.3-0.2-0.1-0.4-0.1-0.5 0-0.1 0.1-0.1 0.2-0.1 0.3-0.2 0.7-0.3 1.4-0.4 2.2q-0.2 1.4-0.4 2.8-0.1 0.8-0.2 1.6c0.1-0.4 0.6-5.9 0.7-6.4 0-0.2 0.1-0.8-0.3-0.7-0.2 0.1-0.5 0.5-0.7 0.7q0.1-0.2 0.2-0.5c0.2-0.4 0.5-1.1 0.9-1.4-0.1 0.3-0.5 0.7-0.1 0.9 0.4 0.1 0.8 0.3 1.2 0.3 0.5 0.1 0.8-0.3 0.4-0.7-0.1-0.1-1-0.4-1-0.2 0 0.3 0.4 0.7 0.7 0.5 0.2 0 0.1-0.1 0-0.2 0.1 0 0.2 0.1 0.2 0.2 0 0.1-0.1 0.1-0.2 0.2-0.4 0-0.7-0.1-0.9-0.4-0.1-0.1-0.2-0.4-0.2-0.4 0-0.1 0.3-0.2 0.4-0.2 0.2 0 0.6 0 0.8 0.1 0.3 0.1 0.4 0.3 0.5 0.5q0.1 0.2 0.2 0.3z"/><path class="H" d="m46.8 27.1q1.7 2.7 1.4 3.6-0.3 0.9-0.2 1.7-0.2 1.8-0.3 2.5c-0.4 1.8-2.3 4-2.9 5.6-0.8 2.1-3.9 1.2-4.5 2.7-0.6 1.8-1.1 3-1.2 3.2q-2.7-0.2-3.5 2.5l-7.5 6.6-3-0.9 0.1-1.5q-4.5-2.4-6.4-4.3-0.9-0.7-1.5-0.9l-2.4-0.8-5-3.3-7.1-7.6q-0.9-1.7-1.7-3.5c-0.1-1.8-0.4-3.7-0.6-5.5q0.3-0.4 0.5-0.8 0 0 0.1-0.1l2.9-0.3-2.3-4.2h46.6z"/><path class="I" d="m9.1 41.1c0.2 0.7 0.3 1.4 0.3 2.2l-6.1-6.5c0.9 0.2 1.7 0.4 2.5 0.8 1 0.4 2.5 1 3 2 0.1 0.5 0.2 1 0.3 1.5z"/><path class="J" d="m25.2 44.8c-0.5 3.9-2.1 5.8-2.6 6.5 0.1-0.8 0.2-1.6 0.4-2.4 0.4-1.5 0.7-2.9 0.6-4.3l0.3 0.1q1.4-0.7 1.3 0.1z"/><path class="K" d="m47.8 32.2q0 2-0.1 2.7c-0.4 1.8-2.3 4-2.9 5.6-0.8 2.1-3.9 1.2-4.5 2.7-0.6 1.8-1.1 3-1.2 3.2q-2.7-0.2-3.5 2.5l-7.4 6.5q0.1-0.5 0.3-0.9c0.7-1.6 2-3 3.4-4.1 0.6-0.6 1.2-1.1 1.8-1.7 0.6-0.7 0.4-1.3 0.9-2.2 0.8-1.6 1-3.2 1.3-5 0.3-1.8 1.3-4.1 1.2-6 0-0.9 0.1-1.9 0.1-2.9 0-0.9 0-1.8-0.3-2.8-0.2-0.7-0.5-1.4-0.8-2q-0.5-1.3-0.7-2.6c-0.2-1.7 0-3.5 0.2-5.2 0.2-2.2 0.5-3.6 0.9-5.8l11.8 7.6-1.5 5.4q1.8 2.1 1.5 3-0.3 0.9-0.5 2z"/><path class="L" d="m28.9 54.7c0.4-0.4 0.5-1.2 0.8-1.6 1.1-1.3 2-2.3 3.2-3.6 0.4-0.4 1.2-1 1.7-1.4q0.7 0.1 1.4 0-0.3 0.4-0.4 0.8z"/><path class="M" d="m47.7 34.9c-0.4 1.8-2.3 4-2.9 5.6-0.8 2.1-3.9 1.2-4.5 2.7q-0.4 1.2-0.7 1.9 0-0.2 0.1-0.4 0.2-2.3 0.1-4.5 0.5-0.5 0.8-0.8c0.9-1 2.5-1.5 3.7-2.1 1.6-0.8 3-2.1 3.3-3.8 0.1 0.5 0.1 1.1 0.1 1.4z"/><path class="N" d="m41.7 17l6.3 4.5c-0.4 1.1-0.6 2.4-0.9 3.5-0.5 1.5-1 3-1.5 4.4-0.5 1.4-1.2 2.8-2.2 3.9-0.4 0.4-0.8 0.7-1.2 1 0-0.7 0-1.4 0-2.1-0.1-1.8 0.2-3.6 0.1-5.4-0.1-0.9-0.3-1.8-0.4-2.6q-0.2-1.4-0.2-2.7c0-1.5 0.1-3 0-4.5z"/><path class="O" d="m40.8 27q0 0 0 0 0 0.1-0.1 0.2 0-0.1 0-0.1c-1.2-0.1-2.4-0.1-3.6-0.2-0.4 0-0.9-0.1-1.3-0.1q-0.3-0.8-0.4-1.6c-0.2-1.7 0-3.5 0.2-5.2 0.2-2.2 0.6-3.5 0.9-5.7l4.9 2.5c-0.1 1.5-0.1 3-0.1 4.4 0 1.8 0.3 3.4 0.4 5.1 0.2 1.7 0 3.5-0.1 5.2 0 0.8 0 1.5 0 2.3-0.1-0.2-0.5-3.8-0.5-4.3 0-0.7 0.1-1.8-0.3-2.5z"/><path class="P" d="m10.8 31.2q-0.2 3.5-1.7 6.6 0-0.2-0.1-0.3-0.2-0.3-0.4-0.5 0-0.4 0-0.7c-0.1-1.4-0.8-2.3-2-3.1-1.2-0.9-2.3-1.8-3.4-3-0.9-1-1.7-2-2.6-3.1q0.2-0.3 0.4-0.7 0 0 0.1-0.1l2.9-0.3-2.3-4.2 5.8-4.2c0.8 2.2 1.8 4.2 2.6 6.4 0.7 2.3 0.8 4.8 0.7 7.2z"/><path class="Q" d="m10.8 31.2q-0.2 3.5-1.7 6.6 0-0.2-0.1-0.3-0.2-0.3-0.4-0.5 0-0.4 0-0.7c-0.1-1.4-0.8-2.3-2-3.1-1.2-0.9-2.3-1.8-3.4-3-0.9-1-1.7-2-2.6-3.1q0.2-0.3 0.4-0.7 0 0 0.1-0.1l2.9-0.3-2.3-4.2 5.8-4.2c0.8 2.2 1.8 4.2 2.6 6.4 0.7 2.3 0.8 4.8 0.7 7.2z"/><path class="R" d="m37.5 23.7c0 2.1-0.2 4.2-0.3 6.3-0.2 2.1-0.2 4.2-0.3 6.3-0.1 2-0.5 3.9-1 5.8-0.5 1.8-0.4 2.7-1.7 5.4q-0.1 0.3-0.2 0.5-0.3 0.3-0.6 0.6c-1 1.1-1.9 2.3-2.8 3.5q-1.1 1.5-2.2 3l-0.3 0.4-3-0.9 0.1-1.5q-1.3-0.7-2.8-1.6c0-1.6 1.1-3.2 1.1-4.7-0.1-0.8-1.1-1.6-1.3-2.4-0.3-0.8-0.9-1.5-1.4-2.2-1-1.2-2.3-2.1-3.3-3.3-1.1-1.4-1.9-3-2.5-4.7-0.3-0.8-1.9-4.1-2.1-4.9-0.1-0.7 1-1.3 1.2-1.9 0.4-0.9 0.4-1.9 0.5-2.8 0.1-3.8-0.1-6.5-0.6-10.2l22.5 0.3c0.2 1.3 0.6 1.4 0.8 2.7 0.2 2.1 0.3 4.2 0.2 6.3z"/><path class="S" d="m25.1 54.6l0.1-1.5q0 0 0 0c0.3-0.6 0.7-3.7 1-4.5 0.3 1.3 1.9 6 1.8 6.8z"/><path class="T" d="m27 30c-0.1 0.8-0.4 1.4-0.7 2.1-0.2 0.7-0.2 1.5-0.5 2.1-0.4-0.9-0.2-2.2-0.8-2.9-0.7-0.9-3.1-1.5-3.4-0.6-0.5 1.6 0.3 5.2 0.1 7.6-0.8-3.4-1.3-5.4-1.8-7.6-0.7-0.1-0.4 0.3-1 0.7q-0.8 0.6-1.8 3.3 1.8 5.1 1.8 5.7c-0.5-0.5-1-1-1.4-1.5-1.1-1.4-1.9-3-2.5-4.7-0.3-0.8-1.9-4.1-2.1-4.9q0-0.2 0.1-0.4c1.4 0.3 2.9 0.2 4.4 0.2 1.8 0.1 3.5 0.2 5.3 0.6 1.4 0.3 2.9-0.1 4.3 0.3z"/><path class="U" d="m37.5 23.7c0 2.1-0.2 4.2-0.3 6.3-0.2 2.1-0.2 4.2-0.3 6.3-0.1 2-0.5 3.9-1 5.8-0.5 1.8-1 3.7-1.7 5.4q-0.1 0.3-0.2 0.5-0.3 0.3-0.6 0.6c-1 1.1-1.9 2.3-2.8 3.5q-1 1.5-2.1 2.9 0.1-0.4 0.1-0.9c0.2-1.6 0.3-3.2 0.6-4.9 0.5-1.9 0.9-3.8 1-5.7 0.1-2.1-0.3-4.1-0.4-6.1-0.2-2-0.1-4-0.2-5.9-0.2-2.1-0.5-4.2-0.7-6.2-0.3-2.1-0.4-4.1-0.7-6.1-0.3-1.9-0.6-3-0.6-4.9l9 0.1c0.2 1.3 0.5 1.7 0.7 3 0.2 2.1 0.3 4.2 0.2 6.3z"/><path class="V" d="m35.8 42.3c0.1 1-0.1 2.2-1.6 5.2q-0.1 0.3-0.2 0.5-0.3 0.3-0.6 0.6c-1 1.1-1.9 2.3-2.8 3.5q-1 1.5-2.1 2.9 0.1-0.4 0.1-0.9c0.2-1.6 0.3-3.2 0.6-4.9q0.2-0.6 0.3-1.3c1.8-1.1 3.5-2.3 4.9-3.7q0.8-0.9 1.4-1.9z"/><path class="W" d="m37 34.4q0 1-0.1 1.9c-0.1 2.8-0.7 5.9-2.5 8.2-0.6 0.7-1.4 1.1-2.1 1.7-0.6 0.6-1.1 1.1-1.7 1.6-0.4 0.3-0.6 0.4-1 0.7q-0.1 0.1-0.3 0.2c-0.1-0.1-0.2-0.2-0.2-0.2q-0.2-0.4-0.3-0.7c-0.8-1.6-1.3-3.7-1.8-5.6-0.6-2.6-1-5.3-1.7-8 3.9 0.4 7.8 0.5 11.7 0.2z"/><path class="X" d="m26.3 38.6c-0.3-1.5-0.6-2.9-1-4.4q1 0.1 2 0.2c-0.1 1.2 1.6 2.1 1.7 3.3 0.1 0.6-1 2.5-1.6 2.9q-0.1 0-0.1 0.1c-0.9 0.4-0.9-1.6-1-2.1z"/><path class="Y" d="m34 34.5c1.6 0 2.4-0.4 2.5 1.3 0.1 2.2-0.5 4.4-1.1 6.4-0.3 1.4-0.7 2.5-2 3.1-1.2 0.6-2.1 1.3-3 2.2-0.3 0.4-0.5 0.7-1 0.8-0.2-1 0.7-2.7 1-3.6q0.1-0.3 0-0.5c0.1-1.2-0.1-2.4-0.2-3.5 0-0.2 0-1.2 0-1.6-0.1-0.3-1.9-3.3-2.7-4.7 0.4 0.6 5.7 0.2 6.5 0.1z"/><path class="Z" d="m30.2 39.1c-0.1-0.3-1.9-3.3-2.7-4.7 0.4 0.6 5.7 0.2 6.5 0.1 1.6 0 2.4-0.4 2.5 1.3q0 0.1 0 0.1c-0.2 0-0.4 0.1-0.6 0.1q-0.5 0.2-0.9 0.5c-1.3 0.6-2.5 1.7-3.3 2.9-0.6 0.7-1 1.5-1.4 2.4q0-0.6-0.1-1.1c0-0.2 0-1.2 0-1.6z"/><path class="a0" d="m34.1 44.9q-0.3 0.2-0.7 0.4c-1.2 0.6-2.1 1.3-3 2.2-0.3 0.4-0.5 0.7-1 0.8-0.2-1 0.7-2.7 1-3.6q0-0.2 0-0.3 1.9 0.1 3.7 0.5z"/><path class="a1" d="m35.6 42.6c-0.5 0.9-0.9 1.7-1.5 2.4 1.2-3.3 1.6-7.1 0.8-10.4q0-0.1-0.1-0.1c1-0.1 1.4-0.3 2.3-0.3 0.1 2.1 0.2 5.7-1.5 8.4z"/><path class="a2" d="m47.5 34.5c-0.5 0.9-1.4 2-2.4 2.5-1 0.4-2.4 0.6-3.4 1.2-0.4 0.3-0.7 0.7-1 1.1-0.2-0.3-0.5-0.7-0.7-0.9-0.4-0.7-0.9-1.3-1.5-1.7 0.7-0.7 1.3-0.7 2.2-1.3q0.5-0.4 2.7-1.4c0.2-0.1 0.3-0.6 0.4-0.7 0.3-0.5 0.6-1 1-1.5 0.7-0.7 0.8-1.6 1.2-2.5 0.3-0.6 0.5-1.5 0.8-2.1 0.3 0.8 1.1 1.6 1.4 2.6 0.1 0.6-0.2 1.5-0.3 2.1q-0.1 0.2-0.1 0.4c-0.1 0.7 0.1 1.5-0.3 2.2z"/><path class="a3" d="m35.5 44.3c0.4-1-0.4-1 1-3.5 0.5-1.1 1.8-3.8 1.8-3.9q0 0 0 0c0.3 0.6 0.7 1.1 1 1.6q0.4 0.6 0.7 1.2c0.1 0.1 0 0 0.1 0.2-1.2 0.3-2.8 1.9-4.6 4.4z"/><path class="a4" d="m45.7 36.3q-0.4 0.3-0.8 0.6-0.3 0.1-0.6 0.2 0-0.1-0.1-0.1-0.4-1.5-1-2.9 0.1-0.1 0.2-0.1l0.1-0.2c0.3 0.5 0.8 1 1.2 1.5q0.5 0.5 1 1z"/><path class="a5" d="m37.8 37.9c0.3-0.6 0.5-1 0.5-1 0.7-0.9 1.3-0.8 2.2-1.3q0.3 1.1 0.6 2.2 0.1 0.4 0.2 0.8c-0.4 0.3-1.4 1.3-1.6 1.5-0.2-0.3-0.2-0.2-0.4-0.4q-0.5-0.7-1.1-1.4-0.2-0.2-0.4-0.4z"/><path class="a6" d="m38.2 37.1q0.1-0.2 0.1-0.2c0.3-0.4 0.6-0.6 1-0.7 0.4 1 1 2 1.5 3q-0.2 0.3-0.5 0.7 0 0 0 0c-0.7-0.9-1.4-1.9-2.1-2.8z"/><path class="a7" d="m36.9 34.1c0.2 0 0.3 0.3 0.2 0.5-0.4 0.6-0.7 1.3-1.2 1.8-0.2 0.3-0.2 0.3-0.4 0.3-0.4 0.2-0.8 0.2-1.2 0.3-0.8 0.1-1.7 0.2-2.5 0.3-0.5 0.1-0.9 0.2-1.4 0.1-0.7 0-1.4-0.3-2-0.6-1.2-0.5-2.5-1.4-2.9-2.5q-0.1 0-0.1-0.1 0.4 0 0.8 0c1.3 0.1 2.6 0 3.9 0 2.3 0 4.5-0.1 6.8-0.1z"/><path class="a8" d="m36.1 36.3q-0.1 0.1-0.2 0.1c-0.2 0.3-0.2 0.3-0.4 0.3-0.4 0.2-0.8 0.2-1.2 0.3-0.8 0.1-1.7 0.2-2.5 0.3-0.5 0.1-0.9 0.2-1.4 0.1-0.7 0-1.4-0.3-2-0.6-1.2-0.5-2.5-1.4-2.9-2.5q-0.1 0-0.1-0.1 0.4 0 0.8 0c0.9 0.1 1.8 0.1 2.7 0 1.1 1.1 2.7 1.7 4.4 1.9q1.4 0.2 2.8 0.2z"/><path class="a9" d="m6.2 26.9q-1.6-3.9-1.1-4.1c0.8-0.4 2.7 1.2 3.3 1.7 0.7 0.5 4.1 2.5 4 3.4-0.1 1.2-2.7 0.1-3.3-0.1-0.8-0.3-1.6-1.2-1.6 0.1q0 0.9 0 1.8c0 0.4 0 0.9 0 1.3 0 0-0.2 0.5-0.3 0.4q-0.3-0.4-1-4.5z"/><path class="aa" d="m18.4 46.3c-1.9-0.8-3.9-2.2-5.2-3.7-1.7-2.1-2.4-4.7-3.9-6.9-0.5-0.8-1.1-1.6-1.5-2.5q-0.1-0.2-0.2-0.5c1-0.3 1.9-0.9 2.7-1.5 0.3 0 0.5 0 0.8 0.5 1 1.4 2.9 7.1 3.3 8.3 0.2 0.7 0.6 0.9 1.1 1.4 0.5 0.5 0.9 1 1.4 1.5 1.1 1.1 1.1 2.1 1.5 3.4z"/><path class="ab" d="m37 13.7l11.3 8.1q-2.7 1.9-5.4 3.9-0.4 0.2-0.7 0.4-0.9 0.1-1.8 0.1c-0.6 0-1.2 0.2-1.8 0.2-0.7 0-1.4 0-2 0.1q-0.1 0 0 0 0.9 0 1.8 0.1c0.7 0.1 1.4 0.4 2.2 0.5q0.1 0 0.2 0l-1.9 1.4c-0.5 0.4-1 1-1.6 1.3-0.8 0.5-2 0.3-2.9 0.3q-11.7 0.1-12.3 0c-0.7 0-0.7-0.6-0.7-0.7 0-1-0.2-1.9-0.2-2.8 0-0.1-0.1-0.1-0.1-0.1-0.2 0.8-0.3 1.6-0.6 2.4q-0.2 0.4-0.3 0.8-0.1 0.1-0.4 0.4h-2.5c-1.1 0-2.4 0.2-3.5 0q-0.2 0-0.4-0.1c-1.1-0.2-2.2-1-3.3-1.8-0.2-0.1-0.1-0.4 0.1-0.4 0.5 0.1 1.1 0 1.6 0.1q0.1 0 0 0c-0.5-0.2-0.9-0.3-1.4-0.6-0.5-0.2-0.9-0.5-1.3-0.7q-0.8-0.3-1.6-0.6-0.5-0.4-1-0.7l-4.8-3.5 11-7.9 1.3-0.5h22.2z"/><path class="ac" d="m38.8 28.6c-0.5 0.4-1 0.9-1.5 1.2-0.8 0.5-2 0.3-2.9 0.3q-11.7 0.1-12.3 0c-0.7 0-0.7-0.6-0.7-0.7 0-1-0.2-1.9-0.2-2.8 0-0.1-0.1-0.1-0.1-0.1-0.2 0.8-0.3 1.6-0.6 2.4q-0.2 0.4-0.3 0.8-0.1 0.1-0.4 0.4h-2.5c-1.1 0-2.4 0.2-3.5 0q-0.2 0-0.4-0.1c-1.1-0.2-2.2-1-3.3-1.8-0.2-0.1-0.1-0.4 0.1-0.4 0.5 0.1 1.1 0 1.6 0.1q0.1 0 0 0c-0.5-0.2-0.9-0.3-1.4-0.6-0.5-0.2-0.9-0.5-1.3-0.7q-0.8-0.3-1.6-0.6-0.5-0.4-1-0.7l-4.8-3.5 11-7.9 1.1-0.4c-0.1 2.1 1.2 4.2 2.5 5.8 2 2.2 4.3 4.1 7 5.5 2.9 1.3 5.9 2.2 9 3 2.1 0.5 4.3 0.8 6.5 0.8z"/><path class="ad" d="m19.8 49.7q-0.1-0.1-0.1-0.1-0.1-0.1-1.8-2.6-1.3 0.3-2 0.1c0 0-3.3-2.5-4.8-3.8q-0.2-1-0.4-1.8c-0.6-1.8-1.7-2.9-3.4-3.7-1-0.4-1.9-0.7-2.9-1-0.5-0.2-1.1-0.4-1.6-0.5v-0.1q-0.9-1.7-1.7-3.5c-0.1-1.8-0.4-3.7-0.6-5.5q0.3-0.4 0.5-0.8 0 0 0.1-0.1l1.4-0.1q0.8 1.2 1.8 2.3c0.9 0.9 2 1.5 3.1 2.1q0.3 0.5 0.7 1.1c0.5 0.8 0.2 1 0.7 1.9 0.7 1.1 2.1 2.9 2.7 4.1 0.6 1 1 2.2 1.7 3.2q1.2 1.9 4.8 4.3 1.8 4.3 1.8 4.5z"/><path class="ae" d="m19.4 47.4c0 0.8 0.4 1.5 0.4 2.3-0.8-0.7-1.3-1.8-1.9-2.7q-1.3 0.3-2 0.1c0 0-3.3-2.5-4.8-3.8q-0.1-0.6-0.3-1.1c0.1 0.2 3.1-1.2 3.4-1.3 1.4-0.4 3.3-0.5 4.7-0.3-0.1 1.4 0.7 2.7 0.7 4.2q0 0.2 0 0.4c0 0.8-0.1 1.5-0.2 2.2z"/><path class="af" d="m8.2 32c-1 0.2-2.1 1.1-2.7 1.6-0.7 0.7-1.3 1.7-1.5 2.6q0 0.1 0 0.2-0.1-0.3-0.2-0.6c-0.3-1.1-0.6-2.1-0.8-3.3-0.2-1.5-0.4-3.1-0.4-4.7 0.1-0.5 0.1-0.9 0.1-1.4q0.7 1.1 1.6 2.1c0.9 0.9 2 1.5 3.1 2.1q0.3 0.5 0.7 1.1 0.1 0.1 0.1 0.3z"/><path class="ag" d="m18.9 47.2c0.4 1.2 0.9 2.4 0.9 2.5q-0.1-0.1-0.1-0.1-0.1-0.1-1.8-2.6-1.3 0.3-2 0.1c0 0-3.3-2.5-4.8-3.8q-0.2-1-0.4-1.8c-0.6-1.8-1.7-2.9-3.4-3.7-1-0.4-1.9-0.7-2.9-1q-0.4-0.2-0.8-0.3 0.6 0.1 5.1 1.3 2.5 2.6 2.9 4.4c0.4 1.9 2.4 2.5 3.6 3.8 0.2 0.3 0.5 0.6 0.8 0.7 0.5 0.1 0.9 0 1.4 0 0.5 0 1 0.2 1.5 0.5z"/><path class="ah" d="m4 36.7q-0.6-0.2-1.2-0.4v-0.1q-0.9-1.7-1.7-3.5c-0.1-1.8-0.4-3.7-0.6-5.5q0.3-0.4 0.5-0.8 0 0 0.1-0.1l1.2-0.1c0.2 3.6-0.1 5.4 1.7 10.5z"/><path class="ai" d="m10.9 31.3c-0.6 0.9-1.4 1.5-2.2 2.2q-0.5-0.1-0.9-0.2c-1.7-0.6-3.3-1.1-5-1.7q-0.1 0-0.1 0-0.2-0.1-0.3-0.3-0.8-1.4-1.7-2.8-0.1-0.6-0.2-1.3 0.3-0.4 0.5-0.8 0.1-0.1 0.1-0.1l2.9-0.4c0.4 1.1 0.6 2.2 1.6 2.9 1 0.8 2.3 1.2 3.5 1.7 0.6 0.2 1.3 0.5 1.8 0.8z"/><path class="aj" d="m41 27.1c-0.4 0.6-1.3 1.1-2 1.6-0.3 0.3-0.7 0.5-1.1 0.8-0.8 0.5-1.3 0.9-2.3 0.9-0.9 0.1-1.7 0-2.6-0.1-2.3 0-4.6 0.3-6.9 0.2q-1.2-0.1-2.4-0.1c-0.7-0.1-1.5 0.5-2.2 0.1-0.6-0.4-0.6-1-0.6-1.5 0-0.5 0.1-0.9 0-1.4 0.1 0.6-0.4 1.4-0.6 2-0.1 0.5-0.4 1.2-0.3 1.7 0.1 0.5 0.7 3.3 1 4.2-0.4-0.9-1.3-3.7-1.7-4.2-0.4-0.7-1.3-0.4-2.1-0.4-0.6 0-1.8-0.4-2.4-0.2q-0.1 0-0.2 0.1-0.8 0.7-1.6-0.3c-0.3-0.4-1.5-1.2-2.1-1.1 0 0.5-0.1 1-0.1 1.4-0.1-0.9-0.9-1.9-0.7-2.9 2.8 2.5 5.6 2 6.6 2.1 0.9 0 2.1-0.2 2.8-0.8 0.9-0.6 1.2-2 1.7-2.9-0.1 0.2 0.1 0.8 0.1 1.1q0.1 0.5 0.2 1.1c0.1 0.4 0.1 1 0.6 1.1 0.5 0.2 1.2 0 1.8-0.1 0.8-0.1 1.8 0.2 2.7 0.2 2 0.1 4-0.1 6 0.1 1.1 0.1 2.5 0.4 3.6 0.2 1-0.2 2.1-1.5 2.7-2.2 0.5-0.7-0.1-0.7-0.7-0.9-0.5-0.1-1.1-0.1-1.5-0.4 0.7-0.2 1.5 0 2.3 0.1 0.5 0.1 1.6 0.2 2 0.5z"/><path class="ak" d="m21 35.5c-0.4-0.9-1.3-3.7-1.7-4.2q-0.1-0.2-0.4-0.3c0.2-0.1 0.8-0.3 0.9-0.3q0.1 0 0.2 0 0 0.3 0 0.6c0.1 0.5 0.7 3.3 1 4.2z"/><path class="al" d="m16.1 36.2c0.7 1.4 2 2.6 2.9 4 0.1 0.1 0.8 3.2 0.9 4.8-0.9-2.5-1.1-4.5-1.3-4.6-0.4-0.5-0.9-1-1.2-1.5-0.8-0.8-1.7-1.9-2.3-2.8-0.5-0.9-0.9-2.1-1.3-3.1-0.3-0.7-0.5-1.9-0.8-2.5 0.6 0.3 1.4 0.1 1.9 0.2-0.7 0.6 0 1.9 0.2 2.4 0.2 0.6 0.5 1.2 0.7 1.8 0.1 0.4 0.1 0.9 0.3 1.3z"/><path class="am" d="m9.1 27c-0.8-0.3-1.6-0.5-2.2-1q-1-0.6-1.9-1.4c-0.2-0.1-1.7-1.6-1.6-0.9 0 0.4 0.4 0.8 0.5 1.2 0.3 0.5 0.4 1.1 0.6 1.7 0.1 0.5 0.4 1.1 0.4 1.6q-0.2-0.5-0.4-1.1c-0.6-1.3-3-5.4-3-5.6 0.1-0.2 1.6-1.2 2.1-1.5 0.5-0.2 1-0.4 1.5-0.8q0 0 0 0c-0.5 0.6-2.7 2.2-2.6 2.6 0.2 0.5 3.6 3 4.1 3.4 0.6 0.5 1.3 0.8 2 1.1 1 0.5 2.7 0.9 3.5 1.7 0.1 0.1-2.6-0.9-3-1z"/><path class="an" d="m8.7 33.3c-0.4 0.1-1 0-1.4-0.1-0.8 0-1.5-0.2-2.2-0.5-0.6-0.3-1.2-0.2-1.9-0.4 0 0.6 0.3 1.4 0.4 2.1 0.1 0.7 0.3 1.5 0.4 2.2-0.1-0.4-0.5-1-0.7-1.4-0.1-0.4-0.3-0.8-0.4-1.2-0.6-2-0.3-2-0.6-2.3-0.3-0.3-1.1-1.2-1.5-2.1q-0.1-0.7-0.2-1.5 0.2 0.4 0.4 0.8c0.4 0.7 0.9 1.8 1.6 2.2 0.6 0.3 1.1 0.4 1.7 0.5 0.6 0.2 1.1 0.4 1.6 0.6 1 0.3 1.9 0.7 2.8 1 0.1 0.1 0.1 0.1 0 0.1z"/><path class="ao" d="m22.3 44.7l1.5 0.1q1.5-0.8 1.4 0c-0.6 4.6-2.7 6.4-2.7 6.7-1-0.6-3-1.7-4.3-6.8q-0.1-0.4 1.7 0.1-0.4-3.2-0.8-4.2 2.5 1.9 3.2 4.1z"/><path class="ap" d="m25.3 44.7c-0.5 4-2.4 6.1-2.8 6.8 0-0.5 0.1-1 0.1-1.4 0.1-0.9 0.5-1.7 0.7-2.6 0.2-0.7 0.2-1.4 0.1-2.1 0-0.2-0.1-0.4-0.2-0.6h0.6q1.6-0.9 1.5-0.1z"/><path class="aq" d="m21.7 51c-1.1-0.8-2.5-2.3-3.5-6.3-0.1-0.3 1.2 0 1.6 0.1 0.1 0.4 0.4 0.8 0.4 1.2 0 0.7-0.1 1.2 0.2 1.9 0.3 0.8 0.7 1.4 1 2.1q0.2 0.5 0.3 1z"/><path class="ar" d="m22.4 44.9q2.2-0.6 2.7-0.5c0.1 0 0.2 0.3 0.1 0.5-0.2 0.5-1.5 2.4-1.7 2.4-0.5 0.1-2.3-0.1-3.5-0.4-0.3-0.1-1.5-1.4-1.8-2.3q0 0 0-0.1 0.1 0 1.4-0.5l0.3 0.9z"/><path class="as" d="m23.5 47.3q0 0 0 0c-0.5 0.1-2.3-0.1-3.5-0.4-0.3-0.1-1.5-1.4-1.8-2.3q0 0 0-0.1 0.1 0 1.4-0.5l0.3 0.9q3.4 2.3 3.6 2.4z"/><path class="at" d="m24.6 45.7c0.7-1 0.6-1.3 0.6-1.3 0.2 0.2-0.2 1.1-0.5 1.5q-0.2 0.3-0.4 0.6c-0.3 0.5-0.7 0.9-1 1.4-0.2 0.4-0.4 1-0.6 1.5q0.2-0.5 0.2-1.1c0.1-0.1 0.1-0.3 0.1-0.5-0.1-0.3-0.6-0.2-0.8-0.3q-0.6 0-1.1-0.1c-0.1 0-0.8-0.1-0.8-0.1 0.1 0.5 0.4 1 0.6 1.5 0.1 0.2 0.1 0.5 0.3 0.8 0.1 0.3 0.3 0.6 0.3 0.8q0 0 0 0c-0.3-0.2-0.4-0.7-0.6-0.9q-0.3-0.5-0.6-1c-0.1-0.4-0.3-0.8-0.4-1.2-0.1-0.1-0.1-0.3-0.3-0.4-0.5-0.7-1.3-1.4-1.4-2.3 0 0 0.1 0 0.1 0 0.1 0.5 0.7 1.2 1.1 1.6 0.5 0.4 1.2 0.6 1.8 0.7 0.4 0.1 1.9 0.6 2.2 0.2 0.2-0.2 0.4-0.5 0.6-0.7q0.2-0.2 0.4-0.4 0.1-0.2 0.2-0.3z"/><path class="au" d="m37.1 34.6c-0.3 1.1-1.5 2.6-2.7 2.8q-1.9 0.4-3.8 0.3-0.4 0-0.8 0c0.2 0.1 0.9 2.8 0.6 5.2-0.1 0.9 0 1.8-0.4 2.7-0.2 0.6-0.6 1.7-0.5 2.4 0 0.1 2-1.2 2.3-1.6-0.3 0.5-0.7 1-1.2 1.4-0.6 0.4-1.2 0.8-1.3 1.5-0.2 0.7-0.5 2.3-0.5 3.1-0.1-0.7 0-2.3 0.1-3 0-0.6-0.2-1.2-0.2-1.7 0-0.4 0.2-0.9 0.4-1.3 0.3-0.8 0.9-1.7 0.9-2.7 0-1.6-0.3-4.8-1.1-6.2-0.6-0.1-1.1-0.3-1.6-0.7-0.9-0.6-1.7-1.6-2-2.6 0-0.1 0.1-0.1 0.1-0.1 0.7 0.8 1.3 1.6 2.2 2.1 1 0.4 2 0.6 3 0.7 2.1 0 4.7 0.3 5.9-1.7 0.1-0.1 0.7-0.8 0.6-0.6z"/><path class="av" d="m36.3 35.5c-0.1 0.1-1.3 2.2-6.4 2-0.4 0.1 0.6 2.2 0 4.8-0.1-1.7-0.4-3.7-1-4.8-0.6-0.1-1.1-0.3-1.6-0.7-0.9-0.6-1.7-1.6-2-2.6 0-0.1 0.1-0.1 0.1-0.1 0.7 0.8 1.3 1.6 2.2 2.1 1 0.4 2 0.6 3 0.7 2 0 4.4 0.2 5.7-1.4z"/><path class="aw" d="m35.2 41.6c-0.1 1.1-0.5 2.3-1 3.3 0 0-0.1 0-0.1 0 0.2-1.2 0.5-2.2 0.6-3.4 0.1-0.5 0.6-3.5 0.6-3.5 0.2 0.6 0 1.4 0.1 1.9 0 0.6-0.1 1.2-0.2 1.7z"/><path class="ax" d="m37.1 34.3q0 0 0 0c-0.2 0.6-0.4 1.1-0.8 1.6-0.4 0.4-0.8 0.8-1.2 1.2 0 0 0 0.1 0 0 1.1-0.4 2.4-1.5 2-2.8z"/><path class="ay" d="m10.9 31.4c0-0.1-1 0.8-1.2 1-0.4 0.4-0.9 0.6-1.4 1q0 0 0 0c1.3 0.9 3.6-1.3 2.6-2z"/><path class="az" d="m19 31c-1.1 0.9-3-0.2-4.2-0.4q0 0 0 0c0.6-0.1 1.3 0 1.9 0.1 0.8 0.1 1.4 0.1 2.2 0 0.1 0 0.2 0.2 0.1 0.3z"/><path class="aA" d="m48.3 22c-0.5 0.7-1.5 1.4-2.2 1.8-0.6 0.4-2.7 1.7-3.2 2.1q-0.6 0.5-0.7 1.9-0.1-1.3-0.1-1.8c1.2-0.5 2.2-1.4 3.2-2.2 1.6-1.4 1.7-2.8 0.9-3.3-1-0.6-2-1.3-2.7-2.1-0.1-0.1 0-0.1 0-0.1 1.2 0.8 2.4 1.6 3.6 2.3 0.6 0.3 1.6 0.7 1.2 1.4z"/><path class="Y" d="m39.3 44.7q-0.1 0.3-0.1 0.6 0-0.3 0.1-0.6z"/><path class="Y" d="m47.7 33.7q0 0.4 0 0.7c0 0.8-0.9 1.3-1.4 1.9-0.3 0.4-0.5 0.8-1.1 1-1.4 0.4-2.7 1.1-4 1.9-0.4 0.3-0.9 0.6-1.2 1.2-0.3 0.5-0.2 1.1-0.2 1.7-0.1 0.6-0.2 1.2-0.3 1.8q-0.1 0.4-0.2 0.8 0.1-1 0.2-2.1 0-0.7 0.1-1.4c0-1-0.4-0.5-0.9 0-0.5 0.4-1 1-1.6 1.4-0.6 0.5-1.3 1.7-2 2.9 0.6-2.2 2.3-4 3.6-5 1.6-1.2 2.9-2.6 4.8-3.3q0.7-0.3 1.3-0.4c0.3 0 0.5-0.1 0.7-0.3 0.2-0.2 0.4-0.6 0.6-0.8 0.4-0.3 0.8-0.6 1-1 0.1-0.2 0.5-0.8 0.6-1z"/><path class="aB" d="m39.3 44.7q-0.1 0.3-0.1 0.6 0-0.3 0.1-0.6z"/><path class="aC" d="m47.7 33.9q0 0.2 0 0.5c0 0.8-0.9 1.3-1.4 1.9-0.3 0.4-0.5 0.8-1.1 1-1.4 0.4-2.7 1.1-4 1.9-0.4 0.3-0.9 0.6-1.2 1.2-0.3 0.5-0.2 1.1-0.2 1.7-0.1 0.6-0.2 1.2-0.3 1.8q-0.1 0.4-0.2 0.8 0.1-1 0.2-2.1 0-0.7 0.1-1.4c0-1-0.4-0.5-0.9 0-0.5 0.4-1 1-1.6 1.4-0.6 0.5-1.3 1.7-2 2.9 0.6-2.2 2.3-4 3.6-5 1.6-1.2 2.9-2.6 4.8-3.3q0.7-0.3 1.3-0.4c0.3 0 0.5-0.1 0.7-0.3 0.2-0.2 0.4-0.6 0.6-0.8 0.4-0.3 0.8-0.6 1-1 0.1-0.2 0.5-0.7 0.6-0.8z"/><path class="Y" d="m35.2 45.3c-0.3 0.6-0.6 1.1-0.8 1.7-0.2 0.4-0.2 0.9-0.4 1.3-0.3 0.7-0.9 1.1-1.4 1.6-1.6 1.5-2.8 4-4.5 5.4 0 0 0.2-0.5 0.2-0.5 1.2-1.7 2.2-3.7 3.7-5.2 0.5-0.5 1.2-1.1 1.6-1.8 0.5-0.9 1.1-1.6 1.6-2.5q0 0 0 0z"/><path class="aD" d="m35.2 45.3c-0.3 0.6-0.6 1.1-0.8 1.7-0.2 0.4-0.2 0.9-0.4 1.3-0.3 0.7-0.9 1.1-1.4 1.6-1.6 1.5-2.8 4-4.5 5.4 0 0 0.2-0.5 0.2-0.5 1.2-1.7 2.2-3.7 3.7-5.2 0.5-0.5 1.2-1.1 1.6-1.8 0.5-0.9 1.1-1.6 1.6-2.5q0 0 0 0z"/><path class="Y" d="m37.1 32.7c0-0.9-0.1-1.8-0.1-2.7q0.1 0 0.1 0c0.3 0.9 0.6 2 0.6 3 0 0.4-0.5 1.2-0.6 1.2q0-0.7 0-1.5z"/><path class="aE" d="m37.1 32.7c0-0.9-0.1-1.8-0.1-2.7q0.1 0 0.1 0c0.3 0.9 0.6 2 0.6 3 0 0.4-0.5 1.1-0.6 1.1q0-0.7 0-1.4z"/><path class="Y" d="m47.8 22.8c-0.1 1.1-0.4 2.3-0.7 3.3q-0.4 1.7-1 3.3-0.5 1.7-1.4 3.2c-0.4 0.7-0.6 1.4-1.5 1.7 0 0-0.1-0.1 0-0.1 0.6-0.6 1-1.7 1.4-2.4q0.7-1.6 1.3-3.1 0.5-1.6 1-3.1c0.3-0.9 0.5-1.9 0.9-2.8q0 0 0 0z"/><path class="aF" d="m47.8 22.8c-0.1 1.1-0.4 2.3-0.7 3.3q-0.4 1.7-1 3.3-0.5 1.7-1.4 3.2c-0.4 0.7-0.6 1.4-1.5 1.7 0 0-0.1-0.1 0-0.1 0.6-0.6 1-1.7 1.4-2.4q0.7-1.6 1.3-3.1 0.5-1.6 1-3.1c0.3-0.9 0.5-1.9 0.9-2.8q0 0 0 0z"/><path class="Y" d="m48.4 30.5c-0.2 0.8-0.4 1.6-0.4 2.5-0.1 0.5-0.1 1-0.3 1.5-0.1 0-0.1 0-0.1-0.1 0.1-1.1 0-2.2 0.2-3.3 0.1-0.6 0.2-1-0.1-1.6-0.3-0.4-0.7-0.8-1.2-1 0-0.2 0.1-0.4 0.1-0.6 0.1-0.2 0.1-0.5 0.2-0.6 0.6 0.4 1.1 1.2 1.5 1.8 0.2 0.5 0.2 0.9 0.1 1.4z"/><path class="aG" d="m48.4 30.5c-0.2 0.8-0.4 1.6-0.4 2.5-0.1 0.5-0.1 1-0.3 1.5-0.1 0-0.1 0-0.1-0.1 0.1-1.1 0-2.2 0.2-3.3 0.1-0.6 0.2-1-0.1-1.6-0.3-0.4-0.7-0.8-1.2-1 0-0.2 0.1-0.4 0.1-0.6 0.1-0.2 0.1-0.5 0.2-0.6 0.6 0.4 1.1 1.2 1.5 1.8 0.2 0.5 0.2 0.9 0.1 1.4z"/><path class="Y" d="m46.8 36.8c-0.3 1.1-1.3 1.9-1.6 3-0.2 0.9-0.5 1.5-1.4 2q-0.7 0.4-1.5 0.6c-0.5 0.2-1.1 0.4-1.5 0.8-0.9 0.9-1 2-1.4 3.2 0 0.1-0.1 0.2-0.2 0.1-0.7 0-1.4 0.2-2 0.5-0.7 0.4-0.9 0.8-1.2 1.5-0.2 0.4-0.6 0.8-1 1.1q-0.7 0.7-1.5 1.4c-1 0.9-2.1 1.8-3.2 2.8-0.7 0.6-1.3 1.4-2.3 1.7-0.1 0-0.1-0.1-0.1-0.1 0.6-0.3 1-0.9 1.4-1.3 0.5-0.5 1.1-1 1.6-1.5 1.1-0.9 2.2-1.8 3.2-2.8 0.6-0.5 1.3-1 1.5-1.6 0.2-0.5 0.4-0.9 0.8-1.3 0.7-0.5 1.7-0.9 2.6-0.9 0.3-1 0.5-2 1.1-2.8 0.6-0.8 1.3-1.1 2.2-1.4 0.6-0.2 1.5-0.5 1.9-1 0.3-0.4 0.5-0.9 0.7-1.3 0.5-1 1.4-1.7 1.9-2.7q0 0 0 0z"/><path class="aH" d="m46.8 36.8c-0.3 1.1-1.3 1.9-1.6 3-0.2 0.9-0.5 1.5-1.4 2q-0.7 0.4-1.5 0.6c-0.5 0.2-1.1 0.4-1.5 0.8-0.9 0.9-1 2-1.4 3.2 0 0.1-0.1 0.2-0.2 0.1-0.7 0-1.4 0.2-2 0.5-0.7 0.4-0.9 0.8-1.2 1.5-0.2 0.4-0.6 0.8-1 1.1q-0.7 0.7-1.5 1.4c-1 0.9-2.1 1.8-3.2 2.8-0.7 0.6-1.3 1.4-2.3 1.7-0.1 0-0.1-0.1-0.1-0.1 0.6-0.3 1-0.9 1.4-1.3 0.5-0.5 1.1-1 1.6-1.5 1.1-0.9 2.2-1.8 3.2-2.8 0.6-0.5 1.3-1 1.5-1.6 0.2-0.5 0.4-0.9 0.8-1.3 0.7-0.5 1.7-0.9 2.6-0.9 0.3-1 0.5-2 1.1-2.8 0.6-0.8 1.3-1.1 2.2-1.4 0.6-0.2 1.5-0.5 1.9-1 0.3-0.4 0.5-0.9 0.7-1.3 0.5-1 1.4-1.7 1.9-2.7q0 0 0 0z"/><path class="aI" d="m13.1 16.2c-0.5 0.4-1.3 1-1.3 1.7 0.1 1.4 7.7 3.6 8.9 4 4.1 1.3 7.5 0.7 9.7 0.2 1.7-0.4 4-1.1 5.1-2.5-1.4-1.3-3.7-1.9-5.4-2.5-1.3-0.5-2.9-0.1-4.2 0-1.3 0.1-2.8 0.2-3.9 0.8 0.8 0.5 1.3 1.2 2.3 1.4 0.8 0.2 1.7 0.6 2.5 0.5 1.5-0.3 2.9-0.8 4.4-0.9-0.9 0.2-1.3 0.6-2.1 1-0.9 0.4-2 0.8-2.9 1.2-0.7 0.4-1.3-0.4-2-0.5-1-0.3-1.9-0.6-2.9-1-1.6-0.6-3.7-0.9-5-2.1 0.4-0.3 1.5-0.4 2-0.4 1.2-0.1 2.3-0.4 3.4-0.5q2.1-0.1 4.1-0.6 0.6-0.2 3.3-1.1 4.6 2.4 5.5 2.6 0.8 0.3 4.5 2.5-5.1 2.4-6.4 2.9c-0.9 0.3-1.6 0.8-2.4 1.3-0.8 0.5-4.1 2.6-4.5 3-0.8-0.5-1.4-1.3-2.3-1.9q-0.9-0.6-1.8-1.2c-0.9-0.5-1.7-0.7-2.6-0.9-1.4-0.3-2.6-0.9-4-1.1-1.6-0.3-6.8-1.6-8.2-1.3 1.6-1.4 3-3.9 4.6-5.3 1.1-1.1 1.9-2.1 3.5-2.1q1.4 0 2.8 0 4.4 0 8.7 0 3.4 0 6.8 0c0.8 0 2-0.2 2.9 0l0.8 0.3 5.3 3.8q-0.7-0.3-1.3-0.5c-1.6-0.6-3.2-1.4-4.9-1.9-3.3-1.1-6.7-1-10.2-0.9-2.3 0-4.6-0.2-6.8-0.1-1 0.1-2.1 0.2-3.2 0.4-1 0.3-2 0.9-2.8 1.7z"/><path class="aJ" d="m18.2 45.7c-0.6-0.7-1.6-1-2.4-1.5-1.3-0.9-2.3-1.9-3-3.3-0.6-1.3-1.2-2.5-2.2-3.6-0.9-1.2-2.2-2.1-2.8-3.5q0 0 0 0 0-0.2-0.1-0.5 0.5 0 1-0.1 0 0.2 0.1 0.4c0.7 1.1 2.1 2.9 2.7 4.1 0.6 1 1 2.2 1.7 3.2q1.2 1.9 4.8 4.3 0.1 0.2 0.2 0.5z"/><path class="aK" d="m18.2 45.7c-0.6-0.7-1.6-1-2.4-1.5-1.2-0.8-2.2-1.7-2.8-3q0.1 0 0.3-0.1 1.3 1.8 4.7 4.1 0.1 0.2 0.2 0.5z"/><path class="aL" d="m28.7 55.1q0 0.2-0.7 0.4l-1.1-0.5q-0.7-5.7-0.8-6.2 0.1-0.1 0.1 0c0.5 1.3 2.6 5.6 2.5 6.3z"/><path class="aM" d="m18.3 10.2c0.7-0.2 1.5-0.4 2-1.1 0.5 0.2 1 0.4 1.6 0.5 0.4 0.1 0.8 0 1.2-0.3 0.3-0.1 0.6-0.1 0.7 0.3 0.2 0.4 0.3 1 0.3 1.5 0.1 0.5 0.2 2 0.2 2.8-0.8 0.6-1.5 1.2-2 2-1-0.2-2.3-0.2-3.3 0.4h-0.3c-0.2-0.4-0.4-0.7-0.7-0.9-0.2-0.2-0.5-0.2-0.7-0.4-0.2-0.3-0.2-1.1-0.3-1.6q0-0.1 0-0.2 0.8-1.4 1.3-3z"/><path class="aN" d="m19.7 16q-0.4 0.1-0.7 0.3h-0.3c-0.2-0.4-0.4-0.7-0.7-0.9-0.2-0.2-0.5-0.2-0.7-0.4-0.2-0.3-0.2-1.1-0.3-1.6q0-0.1 0-0.2 0.8-1.4 1.3-3c0.7-0.2 1.5-0.4 2-1.1q0 0 0 0c0 1.4 0.1 2.7-0.2 4.1-0.1 1-0.2 1.9-0.4 2.8z"/><path class="aO" d="m21.7 9.6q-0.1 0.3-0.2 0.6 0-0.3 0-0.7 0.1 0.1 0.2 0.1z"/><path class="aP" d="m23.1 9.3c0.3-0.1 0.6-0.1 0.7 0.3 0.2 0.4 0.3 1 0.3 1.5 0.1 0.5 0.2 2 0.2 2.8-0.7 0.5-1.4 1.1-1.9 1.8 0.1-2.1 0.1-4.1 0.3-6.2q0 0 0 0 0.2-0.1 0.4-0.2z"/><path class="aQ" d="m20.3 9.1c0.5 0.2 1 0.4 1.6 0.5q0.4 0.1 0.7-0.1c-0.2 2.2-0.2 4.2-0.3 6.3q0 0 0 0.1c-0.8-0.2-1.6-0.2-2.5 0.1 0.3-1.8 0.5-3.5 0.5-5.2 0 0.1 0.1 0 0.1-0.1q0-0.3 0-0.6-0.1-0.2-0.1-0.4 0-0.2-0.1-0.5 0.1 0 0.1-0.1z"/><path class="aR" d="m19.8 16c0.3-1.8 0.5-3.5 0.5-5.2q0 0 0 0 0.1 0.2 0.1 0.5 0.1 0.9 0 1.9c-0.1 0.9-0.3 1.8-0.2 2.7q-0.2 0-0.4 0.1z"/><path class="aR" d="m20.7 15.8c0.2-0.7 0.2-1.5 0.3-2.2q0.1 0.7 0.1 1.3c0 0.3 0.1 0.6 0.3 0.6 0.4 0 0.7-1 0.9-1.8q0 1.1 0 2.1 0 0 0 0.1c-0.5-0.1-1.1-0.2-1.6-0.1z"/><path class="c" d="m18.7 16.3c-0.2-0.4-0.4-0.7-0.7-0.9-0.1-0.2-0.4-0.2-0.6-0.3q0.2-0.5 0.4-0.8c0.2-0.3 0.4-0.8 0.7-0.9 0.3-0.1 0.4 0.6 0.4 1.1q-0.1 0.9-0.2 1.8z"/><path class="aS" d="m17.4 12.4q-0.1 0.5-0.2 0.9 0 0.5-0.1 1c0-0.3 0-0.6-0.1-0.9q0-0.1 0-0.2 0.2-0.4 0.4-0.8z"/><path class="aT" d="m18.3 10.2q0.1 0 0.2 0-0.1 0.3-0.1 0.7-0.2 1-0.5 2 0 0.1 0 0.2c0-0.6 0-1.1-0.1-1.6q0.3-0.6 0.5-1.3z"/><path class="aU" d="m17.1 13c0 0.4 0.1 0.9 0.2 1.1q0.1 0.1 0.2 0c0.2-0.5 0.7-2 0.7-2.2q-0.1 0.7-0.2 1.3c-0.2 0.6-0.4 1.3-0.6 1.9q-0.1-0.1-0.1-0.1c-0.2-0.3-0.2-1.1-0.3-1.6q0-0.1 0-0.2 0-0.1 0.1-0.2z"/><path class="aV" d="m18.3 10.2c0.9-0.2 1.9-0.5 2.3-1.6q0.1-0.1 0.1-0.2 0.4-0.1 0.8 0c0.4 0.3 1 0.3 1.6 0.1 0.3 0 0.8 0 0.9 0.3 0.1 0.2 0.1 1.5 0.1 1.8-0.1-0.3-0.1-0.7-0.3-0.9-0.1 0.3-0.2 0.5-0.4 0.8q-0.1 0.3-0.3 0.7c-0.2 0.3-0.4 0.8-0.7 1.1-0.2 0.2-0.7 0-1-0.1-0.5-0.1-0.9-0.3-1.4 0.2 0-1.2-1.1-1.7-1.8-1.9q0-0.1 0.1-0.3z"/><path class="aW" d="m20.2 9.2q0.1 0.1 0.2 0.2c0.1 0.1 0.1 0.3 0.2 0.4q0.2 0.2 0.3 0.4c0 0.1 0.2 0.6 0.2 0.6q0.1-0.2 0.3-0.3c0-0.1 0.3-0.3 0.4-0.3-0.1-0.1-0.2-0.2-0.3-0.4-0.1-0.1-0.3-0.3-0.4-0.4 0.2 0.1 0.4 0.3 0.6 0.4q0.2 0 0.3 0.1c0.2 0.1 0.4 0 0.5 0.1 0 0-0.2 0.3-0.2 0.3q-0.2 0.1-0.3 0.2-0.4 0.2-0.7 0.5c-0.1 0.1-0.2 0.3-0.3 0.5-0.1-0.5-0.3-0.8-0.4-1.1q-0.2-0.2-0.3-0.5c-0.1-0.2-0.2-0.3-0.3-0.4q0.1-0.1 0.2-0.3z"/><path class="aX" d="m18.3 10.2q0 0 0 0c0.8 0.2 1.8 0.5 1.9 2 0.7-0.4 1.4-0.4 2.1-0.1 0.2-0.5 0.5-1 0.8-1.5q0.2-0.3 0.4-0.7c0.2-0.4 0.3-0.8 0.3-1.2 0 0-2.4 0-2.5-0.1q-0.2-0.1-0.4-0.2 0.6-0.1 1.1 0 0.4 0.2 0.8 0.2 0.1 0 0.2-0.1c0.3 0.1 0.6 0 0.9 0.1 0.1 0 0.1-0.1 0.1 0.1 0.1 0.1 0 0.2 0 0.3-0.1 0.5-0.3 1-0.5 1.4q-0.4 0.6-0.8 1.3c-0.3 0.8-0.2 1.5-0.3 2.3 0 0.6 0 1.2 0 1.7q0 0-0.1 0c0.1-0.8 0.1-1.8 0-2.5-0.1-1.1-1.2-1-1.7-0.6-0.5 0.2-0.6 1.6-0.7 2.2 0.1-0.9 0.1-1.9-0.1-2.6-0.1-0.7-0.4-1-0.8-1.2-0.2-0.1-0.5-0.3-0.8-0.5q0-0.1 0.1-0.3z"/><path class="r" d="m19.9 14.8c0.1-0.9 0.1-1.9-0.1-2.6-0.1-0.7-0.4-1-0.8-1.2-0.2-0.1-0.5-0.3-0.8-0.5q0-0.1 0.1-0.3 0 0 0 0c0.8 0.2 1.8 0.5 1.9 2 0.5-0.3 1.1-0.4 1.7-0.3q-0.6 0.2-1.1 0.6-0.1 0-0.2 0.1c-0.5 0.2-0.6 1.6-0.7 2.2z"/><path class="aY" d="m19.6 16c0.2-0.6 0.3-1.1 0.4-1.3q0-0.1 0 0c0 0.2-0.1 0.7-0.2 1.3q-0.1 0-0.2 0z"/><path class="aZ" d="m42.5 12.5c1.2 0.1 1.6 2.4 2 3.3 0.3 0.7 2.3 3.4 1.4 4-0.2 0.2-0.6 0-0.8 0-0.4 0.1-0.7 0.3-1.1 0.5-0.8 0.4-1.6 1-2.5 1.4-0.9 0.4-1.9 1.1-2.9 0.9-0.8-0.1-1.6-0.5-2.5-0.7-1.3-0.3-2.5-0.8-3.6-1.5-0.9-0.5-1.7-1-2.8-1.1-2.4-0.4-4.7-1.2-6.7-2.6-0.8-0.5-1-0.8-0.4-1.6 0.5-0.6 1.1-1 1.6-1.5 1.3-1.4 2.8-2.5 4-4q0.8-0.9 1.6-1.8c0.5-0.5 0.9-1.2 1.3-1.8 0.5-0.6 1-1.4 1.8-1.6 1.6-0.4 2.9 1.2 3.7 2.4 1.2 1.5 2.1 3 2.9 4.7 0.3 0.4 0.5 0.7 0.8 0.8 0.5 0.3 1.2 0.1 2.2 0.2z"/><path fill-rule="evenodd" class="b0" d="m44.8 20.9c0.3 1-0.3 2-1.4 2 0.4-0.1 0.9-0.6 0.8-1.2-0.2-0.7-1-0.6-1.7-0.5-0.9 0.2-1.6 0.5-2.5 0.8-0.6 0.2-1.1 0.4-1.8 0.3-1.3-0.2-2.4-1.1-3.7-1.3-0.8-0.2-1.5-0.5-2.2-0.8 0.1-1.2-0.1-2.7-0.1-3.1 0 0-0.1-0.1-0.1 0-0.1 0.7-0.1 1.3-0.2 2q0 0.4-0.1 0.8-0.1 0-0.2 0-0.3-0.2-0.6-0.3c0.1-0.3 0.1-0.7 0.2-1q0.2-1.2 0.4-2.4 0 0-0.1 0-0.4 1.1-0.7 2.3c-0.1 0.3-0.2 0.6-0.3 1q-0.5-0.2-1-0.4 0.1-0.3 0.2-0.7c0.2-1 0.8-1.8 0.9-2.8q0-0.1 0 0c-0.3 0.8-0.7 1.6-1.1 2.5q-0.1 0.4-0.3 0.9-0.2-0.1-0.5-0.2-0.1-0.1-0.3-0.1c1.1-1.2 1.6-2.8 1.8-4.3q0 0 0 0-0.4 1.5-1.2 2.8c-0.2 0.5-0.6 0.9-1 1.3q-0.4-0.2-1-0.3c2.3-1.5 3.1-4.6 2.9-7.2q0-0.1 0 0c-0.2 2.6-1.1 5.5-3.2 7.2-0.6-0.2-0.9-0.4-1.3-0.9-0.4-0.3-1.3-0.5-1.5-0.9 1-0.5 2-0.9 3-1.5 0.5-0.4 2.7-2.2 1-2.1 0-0.8 0.7-1.6 1.1-2.2 0.5-0.7 1-1.2 1.4-1.9 0.5-0.8 0.8-1.7 1.3-2.5 0.5-0.7 1-1.3 1.6-1.9q0.1 0.1 0.3 0.3c-0.7 1.7-1.6 3.4-2.9 4.7 0 0.1 0 0.1 0.1 0.1 1.2-0.9 2.9-3.1 3-4.8 0.2 0.2 0.2 0.5 0.4 0.6-0.3 1-1 2-1.6 2.9-0.1 0 0 0.1 0 0 0.8-0.7 1.7-1.7 1.7-2.9q0.4 0.2 0.7 0.4c0.5 0.4 0.7 0.9 1 1.3-0.5 1.6 0.3 4.2 1.3 5.5 0.8 1.2 2.1 2 3.2 2.9 0.6 0.5 0.9 1.1 1.3 1.7q0.3 0.5 0.6 0.9c0.7 1 2.1 1.8 2.4 3zm-7.6-4.6c-0.1-0.7-0.7-1.4-1.1-2.1-0.5-0.8-1.1-1.6-1.5-2.5q0 0 0 0 0.4 1.3 1 2.5c0.4 0.7 0.8 1.7 1.4 2.2 0.1 0.1 0.2 0 0.2-0.1zm0.7-0.1c-1-1.7-2.2-3.2-2.7-5.1q-0.1-0.1-0.1 0c0.4 1.8 1.3 3.9 2.7 5.2 0 0 0.1 0 0.1-0.1zm0.9 0.1c-1.3-2.3-2.5-4.6-3.3-7.1q0 0 0 0c0.6 2.6 1.3 5.3 3.2 7.2 0 0.1 0.2 0 0.1-0.1z"/><path class="r" d="m31.4 23c-2 1.6-5.1 2.7-7.3 1q0 0 0 0c2.3 1.1 5.1-0.1 7.2-1.1 0.1 0 0.1 0.1 0.1 0.1z"/><path class="r" d="m25.8 15.3c-0.7 0.6-1.8 1-2.6 0.6-0.1-0.1 0-0.1 0-0.2q0.7 0 1.4-0.1c0.4-0.1 0.8-0.3 1.2-0.4q0 0 0 0.1z"/><path class="r" d="m24.9 15.1c-0.2 0.1-0.3 0.2-0.5 0.2-0.2 0.1-0.4 0.1-0.5 0q-0.1 0 0-0.1c0.1-0.1 0.3-0.1 0.5-0.1q0.2-0.1 0.4-0.1 0.1 0 0.1 0.1z"/><path class="r" d="m24.7 14.7q-0.1 0-0.1 0.1 0 0 0 0-0.1 0-0.2 0.1c-0.2 0-0.2-0.3 0-0.3q0 0 0.1 0c0.1 0.1 0.1 0.1 0.2 0.1q0 0 0 0z"/><path class="r" d="m24.6 14.4q0 0-0.1 0 0-0.1 0-0.1 0.1-0.1 0.2 0c0.1 0.1 0 0.2-0.1 0.1z"/><path class="b1" d="m9.8 17.7l-0.3 0.3-0.2-2.9 0.7 0.1z"/><path class="b" d="m9.4 17l-0.1-1.9 0.7 0.1v0.1c-0.2-0.1-0.4 0.4-0.5 0.6q-0.1 0.5-0.1 1.1z"/><path class="c" d="m9.9 16.9l-0.1 0.8-0.2 0.1q0.2-0.4 0.3-0.9z"/><path class="b2" d="m9.5 18l-0.5-0.3-0.1-2.7 0.5 0.3z"/><path class="e" d="m9.4 17.9l-0.4-0.2-0.1-1.4c0.1-0.2 0.2 0.1 0.2 0.2q0.1 0.2 0.2 0.4 0 0.5 0.1 1z"/><path class="b3" d="m8.9 14.8l0.5-1.3 0.5 1.4 0.1 0.3-0.6 0.1-0.5-0.3z"/><path class="b4" d="m8.9 15v-0.2l0.5-1.3z"/><path class="b5" d="m10 15.2l-0.6 0.1v-1.8l0.5 1.4z"/><path class="b" d="m9.8 15.2l-0.4 0.1v-1.7c0 0.2 0.1 1.2 0.1 1.3 0.1 0.2 0.2 0.3 0.3 0.3z"/><path class="b6" d="m9.4 13.5l0.5 1.4 0.1 0.3q-0.1-0.2-0.2-0.3c-0.1-0.2-0.4-1.4-0.4-1.4z"/><path class="j" d="m9.5 15.3v2.7q0 0 0 0l-0.1-2.7-0.5-0.3 0.5 0.2v-1.7c0 0.1 0 1 0 1.1q0.1 0.2 0.1 0.3c0 0.1 0 0.2 0 0.2 0.1 0 0.2-0.1 0.2-0.1q0.2 0 0.3 0z"/><path class="k" d="m9.3 15.3v2.7l-0.3-2.7q0 0 0 0c0 0 0.2 0 0.2 0 0 0 0.2 0 0.2 0l-0.6-0.3 0.6 0.2v-1.7 1.7h0.6l-0.6 0.1q0 0 0 0c0 0-0.1 0-0.1 0z"/><path class="k" d="m9.4 13.5l-0.5 1.6q0 0 0 0 0-0.1 0-0.1 0 0 0 0z"/><path class="k" d="m10 15.1q0 0 0 0 0 0.1 0 0.1 0 0-0.1 0l-0.5-1.7z"/><path class="b7" d="m39.9 16.8q-1.2-1.3-2.1-2.9c-0.4-0.7-0.7-1.5-0.9-2.4q0.2 0.6 0.4 1.1c0.1 0.1 0.1 0 0.1 0q-0.5-1.4-0.8-2.8c-0.1-0.8-0.2-1.6-0.3-2.3q0-0.1 0-0.2 0.1 0.2 0.2 0.3 0.6 0.8 1 1.8c0.5 1.3 1.4 2.2 2.2 3.1 0.8 0.9 1.6 1.7 2.9 1.7-0.4-0.1-1.8-0.9-2-1.4 0.7-0.1 1.5-0.1 2.1 0.1 0.5 0.2 0.8 1 1.1 1.4 1.2 2.2 4.1 7.2 0.9 9-0.8 0.4-1.7 0.7-2.5 0.9-0.4 0.1-0.9 0.1-1.2 0.3-0.5 0.3-0.4 0.5-0.4 1.2-0.7-0.4-1.3-0.5-2-0.6 0.4-0.1 1 0 1.4-0.1 0-0.3 0-0.6 0-0.9 1.1 0 1.7-0.3 2.7-0.8 0.6-0.4 2-1 1.4-1.8-0.9-1-4.1 0.6-5 0.9 1.3-0.4 3.5-2.1 2.8-3.6q-0.1-0.2-0.2-0.4c-0.5-0.6-1.3-1.1-1.8-1.6z"/><path class="b8" d="m42.2 18.8c0.1 3-3.1 3.7-5.4 4.2-1.8 0.5-3.6 0.8-5.5 1.1-1.4 0.2-2.9 0.9-4 1.7-0.5 0.4-1 0.9-1.6 1.3-0.5 0.4-0.9-0.1-1.3-0.6-0.6-0.7-1.3-1.3-2-1.8-1.2-0.8-2.7-1.3-4-1.9-0.9-0.4-2.5-0.6-3.1-1.4 1.9-0.1 4.1-0.4 5.6-1.7 0.3-0.3 0.8-0.6 0.8-0.9 0.4-0.1 0.8 0.2 1.2 0.4 0.6 0.4 1.2 0.6 2 0.9 0.7 0.2 1.4 0.5 2.2 0.6 0.4 0 0.9 0 1.2 0.2-1.3 0.7-2.5 1.2-3.2 2.6-0.3-1.1-1.7-1.5-2.6-2 1.1 0 2.2 0.6 3.4 0.3 0.2-0.7-2.4-1.4-2.9-1.5-0.5-0.2-1.1-0.3-1.6-0.1-0.4 0.2-1.3 0.5-1.5 1-0.2 0.7 0.4 0.7 0.9 0.9 1.3 0.4 2.6 1.1 3.6 2 0.7 0.5 0.8 0.7 1.6 0.4 0.4-0.1 0.7-0.2 1.1-0.2 1.6-0.2 3-1 4.4-1.6 1.8-0.7 4.1-1.3 4.7-3.3 0.8-2.4-0.7-3.3-2.7-4.1-1.6-0.7-3-1.4-3.5-3.2-0.6-1.7 1-2.8 2.3-3.4 0.8-0.5 1.9-1 2-2 0.2-1.1-0.1-2.1-1.2-2.4 0.2-0.1 3.6 1.9 2.8 3.6-0.3 0.6-1 0.9-1.6 1.2-0.5 0.3-1 0.6-1.4 1.1-1.3 1.6 0.1 2.9 1.6 3.6 1.9 0.9 4 1.1 5.8 1.9 1.2 0.5 1.9 1.8 1.9 3.1z"/><path class="r" d="m33.2 4.3c0.1 0 3.5 1.9 2.7 3.6-0.3 0.6-1 0.9-1.6 1.2q-0.1 0.1-0.3 0.2c1.1-0.9 1.5-1.2 1.6-2 0.2-1.3-1.4-2.3-2.4-3z"/><path class="b9" d="m41.7 18.9c0 2.6-2.9 3.6-4.9 4.1-1.8 0.5-3.6 0.8-5.5 1.1-1.4 0.2-2.9 0.9-4 1.7-0.5 0.4-1 0.9-1.6 1.3-0.5 0.4-0.9-0.1-1.3-0.6-0.6-0.7-1.3-1.3-2-1.8-1.2-0.8-2.7-1.3-4-1.9-0.9-0.4-2.5-0.6-3.1-1.4 1.9-0.1 4.1-0.4 5.6-1.7 0.3-0.3 0.8-0.6 0.8-0.9 0.4-0.1 0.8 0.2 1.2 0.4 0.6 0.4 1.2 0.6 2 0.9 0.7 0.2 1.4 0.5 2.2 0.6 0.4 0 0.9 0 1.2 0.2-1.3 0.7-2.5 1.2-3.2 2.6-0.3-1.1-1.7-1.5-2.6-2 1.1 0 2.2 0.6 3.4 0.3 0.2-0.7-2.4-1.4-2.9-1.5-0.5-0.2-1.1-0.3-1.6-0.1-0.4 0.2-1.3 0.5-1.5 1-0.2 0.7 0.4 0.7 0.9 0.9 1.5 0.4 2.6 1.3 3.8 2.1 1 0.6 2 0.2 3-0.1 0.9-0.2 1.8-0.3 2.7-0.6 0.7-0.2 1.3-0.6 2-0.8 0.4-0.1 0.9-0.1 1.4-0.2 1-0.3 2-0.9 2.8-1.6 1.4-1.3 1.8-3.3 0.4-4.7-1-1-2.9-0.7-3.6-2.1 0.4 0.8 2 1 2.7 1.2 2 0.6 2.2 2.2 3 3.9 0.9-0.6 0.2-2.2-0.4-2.8-0.7-0.7-1.6-1.3-2.7-1.3 0.8-0.3 2.2 0.5 2.8 1 0.6 0.5 0.9 1.1 1.3 1.7 0-0.8-0.8-1.4-0.9-2.1 0 0 0.8 0.6 0.9 0.8 0.2 0.3 0.3 1 0.6 1 0.1-0.6-0.1-1.5-0.8-1.7 0.9 0.6 1.5 1 1.8 2.1 0.1 0.4 0.1 0.8 0.1 1z"/><path class="r" d="m37 22.7c-0.1 0.1-0.1 0-0.1-0.1 1.8-0.7 4.5-1.3 4.6-3.7q0 0 0 0c0.3 2.5-2.5 3.6-4.5 3.8z"/><path class="r" d="m31.8 14.2q-0.6-0.3-1.1-0.8c-0.2-0.1-0.5-0.7-0.6-0.8-0.5-0.2-0.6 0.3-0.9 0.7-0.3 0.4-0.7 0.9-1 1.3-0.9 0.8-1.6 1.1-3.1 1.4 1-0.5 2.3-1 3.2-2 0.9-0.9 1.2-1.9 1.5-3.1 0.2-0.9 1-1.6 1.9-1.8q0.1 0 0 0.1c-1.1 0.3-1.9 1.5-1.6 2.7 0.3 1 1 1.6 1.7 2.3 0.1 0 0 0.1 0 0z"/><path class="ba" d="m10.2 19l-0.6 0.6 1.5-6.1 0.9 0.3z"/><path class="b" d="m10.1 17.4l1-4 0.9 0.3-0.1 0.2c-0.2-0.1-0.8 0.9-1 1.3q-0.4 1.1-0.8 2.2z"/><path class="c" d="m10.8 17.2l-0.6 1.8-0.3 0.3q0.5-1 0.9-2.1z"/><path class="bb" d="m9.6 19.6l-0.4-0.6 1.3-5.7 0.7 0.6z"/><path class="e" d="m9.5 19.5l-0.3-0.5 0.7-3.1c0.2-0.3 0.2 0.2 0.2 0.4q-0.1 0.5-0.2 1c-0.1 0.7-0.2 1.4-0.4 2.2z"/><path class="bc" d="m10.8 12.7l0.9-1 0.4 1.3-0.1 0.7-0.9 0.2-0.6-0.6z"/><path class="bd" d="m10.5 13.3l0.3-0.6 0.9-1z"/><path class="be" d="m12 13.7l-0.9 0.2 0.6-2.2 0.4 1.3z"/><path class="b" d="m11.8 13.8l-0.7 0.1 0.6-1.9q-0.2 0.6-0.2 1.1c0 0.4 0.1 0.5 0.3 0.7z"/><path class="bf" d="m11.7 11.8v-0.1l0.4 1.3-0.1 0.7c0-0.2-0.1-0.4-0.1-0.6-0.1-0.4-0.2-1.3-0.2-1.3z"/><path class="j" d="m11.2 14l-1.6 5.6q0 0 0 0l1.5-5.7-0.6-0.6 0.7 0.3 0.5-1.9q-0.1 0.4-0.2 0.8 0 0.4-0.1 0.7c0 0.2-0.1 0.4 0 0.4 0 0.1 0.2 0.1 0.2 0.1q0.2 0 0.4 0z"/><path class="k" d="m11.1 14l-1.5 5.5 1.5-5.5q0 0 0 0 0-0.1 0-0.1 0 0 0 0l-0.6-0.6 0.6 0.5 0.6-2.1-0.5 2.1 0.8-0.1-0.8 0.2q0 0-0.1 0 0.1 0 0 0.1z"/><path class="k" d="m11.7 11.8l-1.1 1.5q0 0.1-0.1 0 0 0 0.1-0.1 0 0 0 0z"/><path class="k" d="m12 13.6q0 0 0 0 0 0.1 0 0.1-0.1 0.1-0.1 0l-0.2-1.9z"/><path class="bg" d="m11.4 20.9h-1.3l-0.1-2.6 2.8 0.6z"/><path class="b" d="m10.1 20l-0.1-1.7 2.8 0.6-0.1 0.1c-0.8-0.2-1.6 0.1-1.8 0.2-0.5 0.2-0.7 0.5-0.8 0.8z"/><path class="c" d="m11.9 20.3l-0.5 0.6h-0.6q0.6-0.3 1.1-0.6z"/><path class="bh" d="m10.1 20.9l-1.6-0.5-0.1-2.5 2.1 0.7z"/><path class="bi" d="m8.6 17.8l2.3-0.8 1.6 1.6 0.3 0.3-2.3-0.3-2.1-0.6z"/><path class="bj" d="m8.4 18l0.2-0.2 2.3-0.8z"/><path class="bk" d="m12.8 18.9l-2.3-0.3 0.4-1.6 1.6 1.6z"/><path class="b" d="m12.1 18.8l-1.6-0.2 0.3-1.5c0 0.2-0.1 1.1 0.2 1.3 0.3 0.2 0.7 0.3 1.1 0.4z"/><path class="bl" d="m10.9 17l1.6 1.6 0.3 0.3h-0.1c-0.2-0.1-0.4-0.2-0.6-0.3-0.5-0.3-1.2-1.5-1.2-1.6z"/><path class="j" d="m10.7 18.7l-0.6 2.3q0 0 0 0l0.2-2.4-1.9-0.7 1.9 0.5 0.6-1.4c0 0.2-0.2 1-0.2 1.1q0 0.1 0 0.2c0 0.1 0 0.2 0.3 0.3 0.2 0 0.5 0.1 0.7 0.1q0.5 0.1 1.1 0.2z"/><path class="k" d="m10.5 18.6q0.1 0 0.1 0l2.1 0.3-2.1-0.3 0.3-1.6-0.5 1.5-2.1-0.6 2.1 0.7c0 0 0.3 0 0.3 0 0 0 0.3 0 0.3 0q0 0 0 0l-0.6 2.3 0.3-2.2c0-0.1-0.1-0.1-0.2-0.1z"/><path class="k" d="m10.9 17.1l-2.3 0.9c-0.1 0-0.1 0-0.2 0q0 0 0.1 0 0 0 0 0z"/><path class="k" d="m12.7 18.9q0 0 0 0 0.1 0 0 0-0.1 0-0.2 0l-1.6-1.9z"/><path class="A" d="m9.8 20.8l-1.3-0.4 0.2-2.5c0.3-0.1 1.3-0.7 1.4-0.6 0.2 0.2-0.6 2.4-0.5 2.6q0.2 0.4 0.2 0.9z"/><path class="bm" d="m8.9 20.5l-0.8 0.8-1.7-5.1 2.2-0.5z"/><path class="b" d="m7.5 19.3l-1.1-3.4 2.1-0.4v0.2c-0.6 0.1-0.9 1.1-1 1.6-0.1 0.7-0.1 1.3 0 2z"/><path class="c" d="m8.8 18.8l0.1 1.6-0.4 0.3q0.2-1 0.3-1.9z"/><path class="bn" d="m8 21.2l-1.3-0.2-1.6-4.8h1.8z"/><path class="j" d="m7 21.1l-0.3-0.1-1.6-4.8h0.5c-0.2 0.6 0.1 1.3 0.4 2 0.3 0.9 0.6 1.9 1 2.9z"/><path class="e" d="m7.8 21.1l-1.1-0.1-0.8-2.6c0.1-0.3 0.5 0.1 0.6 0.2q0.4 0.3 0.6 0.8 0.4 0.8 0.7 1.7z"/><path class="bo" d="m5.2 15.6l1.3-1.3 1.7 0.7 0.3 0.5-1.6 0.7h-1.8z"/><path class="bp" d="m5.1 16.2l0.1-0.6 1.3-1.3z"/><path class="bq" d="m8.5 15.5l-1.6 0.7-0.4-1.9 1.7 0.7z"/><path class="b" d="m8.1 15.7l-1.2 0.5-0.4-1.7c0.1 0.4 0.3 0.7 0.6 0.9 0.3 0.3 0.6 0.3 1 0.3z"/><path class="br" d="m6.5 14.3l1.7 0.7 0.3 0.5c-0.2-0.1-0.4-0.2-0.6-0.3-0.5-0.3-1.4-0.9-1.4-0.9z"/><path class="j" d="m7.1 16.3l1 4.9q0 0-0.1 0l-1.2-4.9-1.7-0.1 1.6-0.2-0.2-1.7q0.1 0.4 0.2 0.7 0.1 0.3 0.2 0.5c0 0.2 0.1 0.4 0.3 0.4 0.2 0 0.4-0.1 0.5-0.2q0.4-0.1 0.8-0.2z"/><path class="k" d="m7 16.3l1 4.8-1.2-4.8q0 0 0 0 0-0.1 0-0.1 0 0 0 0h-1.7l1.7-0.1-0.3-1.8 0.4 1.8 1.6-0.6-1.6 0.7q0 0 0 0 0 0 0.1 0.1z"/><path class="k" d="m6.5 14.4l-1.2 1.8q0 0-0.1 0-0.1 0 0-0.1 0 0 0 0z"/><path class="k" d="m8.4 15.4q0.1 0 0.1 0 0 0.1 0 0.2-0.1 0-0.1 0l-1.9-1.3z"/><path class="bs" d="m10.5 21.2c-1-0.8-1.6 0.2-2.6 0.3-0.7 0.1-1.1-0.1-1.6-0.5q0-0.1 0-0.1c1.2 0.4 1.9-0.5 2.9-0.5 0.6 0.1 1.1 0.3 1.4 0.8 0 0-0.1 0.1-0.1 0z"/><path class="r" d="m12.6 21.9c0 0-0.1 0.1-0.2 0-0.3-0.3-0.5-0.5-1-0.5-0.3 0.1-0.7 0-0.9 0.1-0.7 0.1-1.2 0.4-1.8 0.2q-0.1 0 0 0c0.9-0.1 1.5-1.3 2.6-1 0.5 0.1 1.4 0.5 1.3 1.2z"/><path class="r" d="m8.3 21.6c-0.6 0.4-1.5 0.5-2.2 0.2-0.6-0.2-0.9-0.8-0.6-1.4q0 0 0 0c-0.1 0.8 0.4 1.1 1.1 1.2 0.6 0 1.1 0.1 1.7-0.1 0 0 0 0.1 0 0.1z"/><path class="r" d="m8.7 22.3q-0.2 0.2-0.5 0.1c-0.1 0-0.2 0-0.2-0.1q-0.1 0-0.1-0.1c0-0.1 0.1-0.2 0.2-0.2 0.1-0.2 0.2-0.2 0.4-0.2q0.1 0.1 0.2 0.2 0 0.1 0 0.3z"/><path class="r" d="m9.6 22.5c-0.1 0-0.2-0.1-0.3-0.2 0 0 0.1-0.2 0.1-0.2q0.2 0 0.3 0.1c0 0.1 0 0.2-0.1 0.3z"/><path class="r" d="m10.5 27.3c-1.5-0.4-2.8-0.7-3.9-1.8q0-0.1 0-0.1c1.2 0.8 2.7 1.1 3.9 1.9 0.1 0 0 0 0 0z"/><path class="r" d="m12.3 20.9q-0.1-0.1-0.1-0.1c0 0 0 0 0-0.1q0 0 0 0c-0.1-0.1 0-0.2 0.1-0.2 0.1-0.1 0.3 0 0.3 0.2 0.1 0.2-0.2 0.3-0.3 0.2z"/><path class="r" d="m13.3 21c-0.1 0.1-0.2 0.1-0.3 0q-0.1 0-0.2-0.1 0-0.1 0-0.2 0-0.1 0.1-0.1 0 0 0.2 0 0.1 0 0.2 0.1c0.1 0.1 0.1 0.2 0 0.3z"/><path class="r" d="m13.8 21.3q0 0.1 0 0.1-0.1 0-0.1 0-0.1-0.1-0.1-0.1 0 0 0 0c-0.1-0.1-0.1-0.2 0-0.2q0.1 0 0.1 0 0.1 0.1 0.1 0.1 0.1 0.1 0 0.1z"/><path class="r" d="m14.3 21.3c0 0.2-0.1 0.2-0.2 0.2-0.1-0.1-0.1-0.2 0-0.2-0.1 0 0 0 0 0q0 0 0-0.1c0.1-0.1 0.2 0 0.2 0.1z"/><path class="r" d="m14.8 21.1q-0.2 0.1-0.3 0c-0.1-0.1 0-0.3 0.1-0.2q0 0 0.1 0 0 0 0.1 0c0.1 0 0.1 0.2 0 0.2z"/><path class="r" d="m15.3 21.2c0 0.1-0.2 0-0.2-0.1-0.1 0 0-0.1 0-0.1 0.1 0 0.3 0.1 0.2 0.2z"/><path class="r" d="m15.7 21.3q0 0-0.1 0c-0.1-0.1 0.1-0.2 0.1-0.1q0.1 0 0.1 0c0.1 0 0 0.2-0.1 0.1z"/><path class="r" d="m22.7 15.3c-0.1 0.5-0.3 0.9-0.8 1q-0.6 0.2-1-0.3c-0.1 0 0-0.1 0-0.1 0.6 0 1.4-0.2 1.8-0.6q0 0 0 0z"/><path class="r" d="m22.9 16c0 0.3-0.3 0.9-0.7 0.7-0.2-0.1-0.2-0.3-0.1-0.4 0.2-0.1 0.3-0.1 0.4-0.1q0.2-0.1 0.3-0.2 0.1 0 0.1 0z"/><path class="r" d="m23.3 16.6c0 0.2-0.1 0.3-0.3 0.3-0.1 0-0.2-0.1-0.2-0.3 0-0.1 0.1-0.2 0.2-0.2 0.2 0 0.3 0.1 0.3 0.2z"/><path class="r" d="m23.3 16.9c-0.1 0.1 0.1 0.2 0.2 0.1 0.1-0.1-0.1-0.3-0.2-0.1z"/><path class="r" d="m21 16.4v0.5c0.5 0 0.5-0.5 0-0.5z"/><path class="r" d="m20 16.2v0.3c1 0 1-0.3 0-0.3z"/><path class="r" d="m20 15.8v0.3c1 0 1-0.3 0-0.3z"/><path class="r" d="m21 16.8q-0.1 0-0.1 0c-0.1 0-0.2-0.1-0.2-0.3 0-0.1 0.2-0.1 0.3-0.1q0 0 0 0c0.1 0.1 0.1 0.3 0 0.4z"/><path class="r" d="m19 16.2v0.3c1 0 1-0.3 0-0.3z"/><path class="r" d="m18.8 16.5c-0.1 0-0.2 0-0.2-0.1q0 0 0-0.1c0.1-0.2 0.4 0.1 0.2 0.2z"/><path class="r" d="m18.2 16q0 0 0 0-0.1 0.1-0.1 0 0 0 0 0-0.1 0-0.1 0 0-0.1 0-0.1c0.1-0.1 0.1-0.1 0.2 0q0 0 0 0 0 0 0 0.1z"/><path class="r" d="m17 16v0.3c0.5 0 0.5-0.3 0-0.3z"/><path class="bt" d="m40.8 25.8c0 0.2-0.2 0.2-0.3 0.2-0.8-0.4-1.5-0.7-2.5-0.8q0 0 0 0c1-0.1 1.6 0.3 2.4 0.5 0.1-0.4 0-0.8 0.3-1.1 0.1-0.2 0.6-0.4 0.9-0.5 0.6-0.2 1.4-0.2 2.1-0.4-0.3 0.1-0.6 0.3-0.9 0.4q-0.3 0.1-0.6 0.2c-0.8 0.3-1.5 0.5-1.4 1.5z"/><path class="bu" d="m29.2 21.8q0 0 0 0 0-0.1 0 0z"/><path fill-rule="evenodd" class="bv" d="m35.5 22.5c0 0.3-0.3 0.8-0.7 0.6-0.2-0.1-0.1-0.3 0-0.4 0 0.1 0.1 0.3 0.2 0.3 0.3-0.1 0.2-0.4 0.1-0.5-0.2-0.3-0.6-0.1-0.7 0.2-0.1 0.1-0.1 0.3-0.2 0.5-0.1 0.1-0.3 0.6-0.5 0.6 0.3 0 0.4 0.2 0.4 0.4 0 0.2-0.1 0.5-0.4 0.5 0.2-0.1 0.3-0.4 0.1-0.6-0.2-0.2-0.6 0.1-0.8 0.3q-0.2 0.1-0.4 0.2c-0.1 0-0.3 0-0.3 0.1 0.4-0.1 0.8 0.4 0.5 0.7-0.1 0.2-0.5 0.3-0.5 0-0.1-0.1 0.1-0.4 0.3-0.2-0.1-0.1-0.3 0.1-0.2 0.2 0.1 0.1 0.3 0 0.3-0.1 0.1-0.2-0.1-0.3-0.3-0.3-0.2 0-0.3 0.2-0.3 0.4 0.1 0.3 0 0.6 0.1 0.8-0.1 0.1-0.4 0-0.6 0q0.1 0 0.1-0.1c0.3-0.5 0.1-1.2-0.5-1.1-0.3 0-0.6 0.2-0.4 0.5 0.2 0.3 0.5-0.1 0.2-0.2 0.3-0.1 0.2 0.3 0.1 0.4-0.2 0.1-0.5-0.1-0.6-0.3 0-0.1 0-0.2 0.1-0.3 0-0.1 0.1-0.1 0.2-0.2-0.1 0.1-1.7-0.7-1.6 0.2-0.1-0.3-0.1-0.5 0.3-0.5q-0.3-0.2-0.4-0.4c-0.1-0.2-0.2-0.5-0.4-0.6-0.3-0.2-0.6 0-0.4 0.3 0.2 0.3 0.5 0 0.2-0.2 0.3 0.1 0.2 0.5-0.1 0.6-0.3 0-0.5-0.5-0.4-0.7 0.2-0.4 0.7-0.3 1-0.1 0.2 0.1 0.2 0.4 0.3 0.6 0.2 0.3 0.4 0.4 0.6 0.5 0.4 0.2 0.7 0.2 1.1 0.2q-0.1-0.1-0.2-0.2 0 0 0 0c-0.2-0.1-0.4-0.1-0.6-0.2-0.2-0.2-0.3-0.3-0.5-0.5q0 0 0.1 0c0.1 0.1 0.3 0.2 0.4 0.4q0.2 0.1 0.4 0.1-0.2-0.3-0.3-0.5 0 0-0.1 0-0.2-0.1-0.4-0.2c-0.2-0.1-0.5-0.3-0.7-0.5-0.1 0-0.6-0.5-0.6-0.2 0-0.3 0.4-0.2 0.6-0.1 0.1 0.1 0.2 0.3 0.4 0.5 0.1 0.1 0.3 0.1 0.5 0.1-0.2-0.1-0.3-0.3-0.4-0.5q-0.2-0.2-0.3-0.4c-0.2-0.3-0.6-0.7-1-0.7-0.2 0.1-0.3 0.3-0.1 0.5 0.2 0.1 0.4-0.1 0.2-0.2 0.1-0.1 0.3 0.3 0 0.4-0.3 0.1-0.6-0.2-0.6-0.5 0-0.2 0.2-0.3 0.3-0.4 0.1-0.1 0.4-0.2 0.5 0-0.1-0.2-0.1-0.5 0.1-0.6 0.2-0.2 0.4 0.1 0.4 0.3 0-0.3-0.3-0.3-0.4 0 0 0.2 0.1 0.4 0.3 0.5-0.1-0.2 0.2-0.2 0.4-0.1 0.1 0.1 0.1 0.4-0.1 0.4 0.2-0.1 0-0.4-0.1-0.2-0.3 0.3 0.6 1 0.8 1.1-0.1-0.1-0.2-0.4-0.2-0.6 0.1-0.7 1.2-0.4 1 0.1-0.2 0.2-0.4 0.1-0.6 0 0.2 0 0.5 0 0.4-0.2-0.1-0.2-0.4-0.1-0.4 0.1-0.1 0.3 0.2 0.7 0.3 0.9 0.2 0.4 0.4-0.2 0.4-0.4q0 0 0 0 0 0.2 0 0.4 0 0.2 0 0.3 0.2-0.1 0.3-0.2c0.2-0.3 0.1-0.6 0-0.8 0-0.2-0.1-0.5-0.3-0.7-0.1-0.1-0.3 0-0.4-0.1-0.4-0.2-0.1-0.7-0.5-0.9-0.2 0-0.5 0.1-0.4 0.3 0.1 0.2 0.4 0.2 0.3 0 0.2 0-0.2 0.5-0.4 0.2-0.2-0.2-0.1-0.6 0.1-0.7 0.3-0.2 0.7 0.1 0.8 0.4 0.1 0.1 0 0.3 0.1 0.4 0.1 0.2 0.3 0.1 0.4 0.2-0.1-0.2 0-0.4 0-0.5 0.1-0.2 0.1-0.3 0-0.5 0-0.2 0-0.9-0.4-0.8-0.4 0.1 0.2 0.7 0.2 0.2q0 0 0 0c0.1 0.3-0.4 0.5-0.5 0.1 0-0.6 0.6-0.7 0.9-0.2-0.1-0.3 0.3-0.6 0.6-0.4 0.2 0.1 0.3 0.7-0.1 0.7-0.1 0-0.3-0.2-0.1-0.3-0.2 0.2 0.1 0.3 0.2 0.1 0-0.2-0.1-0.3-0.3-0.3-0.1 0.1-0.1 0.2-0.2 0.3-0.1 0.3-0.1 0.7-0.1 1 0 0.2 0.1 0.8 0.3 0.7 0.2-0.2 0.2-0.7-0.1-0.6 0.2-0.1 0.4 0 0.4 0.3 0.2-0.2 0.4-0.4 0.5-0.7 0-0.2-0.1-0.4-0.3-0.3-0.2 0-0.2 0.3 0 0.2 0 0.1-0.2 0.1-0.2 0-0.1 0-0.1-0.2 0-0.2 0.1-0.2 0.3-0.3 0.5-0.2 0.2 0.2 0.2 0.5 0.1 0.8 0 0.1-0.2 0.3-0.3 0.4-0.1 0.1-0.3 0.2-0.4 0.3 0.2 0.1 0.3 0.2 0.4 0.4-0.1-0.2-0.4-0.2-0.5-0.1-0.2 0.1-0.1 0.5 0 0.7q0 0.1 0 0.1c0.3-0.1 0.7-0.7 0.9-0.2 0.1 0.2 0.1 0.4 0 0.5-0.1 0.1-0.3 0.1-0.4 0 0.2 0 0.3 0 0.3-0.3-0.1-0.4-0.5 0.2-0.6 0.3-0.3 0.3-0.5 0.7-0.9 0.9q0 0 0.1 0.1c0.2 0.3 0.5 0.3 0.9 0.3-0.1-0.1-0.1-0.4-0.2-0.5q0 0 0 0 0.1 0.1 0.2 0.2 0 0 0.1 0.1 0 0 0 0c0 0 0.1 0 0.1 0q0 0 0 0.1 0 0 0-0.1c-0.1-0.1-0.1-0.2-0.1-0.4q0-0.3 0.1-0.6 0 0 0 0 0.1 0.3 0.1 0.5c0 0.1 0.1 0.3 0.1 0.4 0-0.3 0.3-0.5 0.4-0.7q0.2-0.4 0.3-0.9 0-0.1 0-0.2c-0.3-0.2-0.6-0.4-0.6-0.8 0-0.3 0.2-0.7 0.5-0.6 0.2 0.1 0.3 0.4 0.2 0.6-0.1 0.2-0.5 0.2-0.4-0.1q0 0.1 0 0.1c0.1 0 0.3 0 0.3-0.2-0.1-0.2-0.3-0.1-0.4 0-0.2 0.2 0 0.5 0.1 0.6 0.1 0.1 0.3 0.3 0.3 0.3 0.1 0 0.1-0.3 0.2-0.4q0 0 0 0 0-0.1 0-0.1c0.1-0.1 0-0.3 0.1-0.4q0-0.2 0.1-0.5c0-0.3 0-0.6-0.2-0.8-0.1-0.2-0.4-0.3-0.5-0.1-0.1 0.2 0.3 0.3 0.2 0.1 0.1 0.2-0.3 0.3-0.4 0 0-0.3 0.3-0.5 0.6-0.5 0.7 0.2 0.6 1.2 0.5 1.7 0.1-0.1 0.3 0 0.3 0.2-0.1 0-0.2-0.1-0.3 0 0.4 0.2 0.3 0.8-0.1 0.8 0.2 0 0.2-0.3 0.1-0.4-0.3-0.1-0.4 0.5-0.3 0.5 0.2 0.1 0.5 0.2 0.8 0.3q0-0.1 0-0.1 0.1 0 0.2-0.1c-0.2 0-0.3-0.1-0.3-0.3 0 0 0-0.1 0-0.1q0-0.1 0-0.2c0.1 0 0.1 0.2 0.2 0.2q0.1 0.1 0.2 0.2c-0.1-0.1 0-0.3 0-0.3q0-0.2-0.1-0.4-0.1-0.3-0.3-0.5c0.1 0 0.3 0 0.4 0.2-0.1-0.1-0.1-0.4-0.1-0.5 0-0.2-0.1-0.4 0-0.6q0-0.3 0.1-0.5 0.2-0.2 0.4-0.2c0.5-0.1 0.6 0.7 0.4 1-0.2 0.3-0.8 0.2-0.6-0.2-0.1 0.2 0.4 0.3 0.4-0.1 0-0.3-0.3-0.5-0.5-0.2-0.2 0.3 0 0.7 0.1 0.9q0.1 0.2 0.1 0.5c0 0-0.1 0.7-0.1 0.7 0.1 0 0.2-0.1 0.3-0.1q0.1 0 0.2 0c0.3 0 0.5 0.1 0.5 0.4zm-1.2-0.1q0 0 0 0 0 0 0 0zm-2.3-0.1q0 0 0 0 0 0 0 0zm-3.4-0.6q0 0 0 0 0 0 0 0zm4.5 1.4q0.1 0 0.3-0.1 0.2-0.1 0.4-0.2-0.1 0-0.2 0-0.2-0.1-0.4-0.2 0 0.1 0 0.1-0.1 0.2-0.1 0.4zm0.9-0.2c-0.3 0.2-0.6 0.3-1 0.3q0 0.2-0.1 0.4-0.1 0.2-0.3 0.4c0 0.1-0.1 0.2-0.2 0.4q0 0 0 0 0 0 0 0 0.7-0.3 1.2-0.8 0.2-0.3 0.4-0.7z"/><g style="opacity:.5"><path class="bw" d="m34.7 30.2q0 0 0 0 0 0 0 0z"/><path class="bx" d="m33.6 30.3c-0.2-0.1-0.6-0.2-0.9-0.4-0.4-0.2-0.4-0.5 0.1-0.4 0.5 0.1 0.8 0.5 0.4 0.4 0.2-0.1-0.3-0.3-0.4-0.2 0 0.1 0.5 0.4 0.8 0.4 0.5 0 0.3-0.4 0.1-0.6q-0.1-0.2-0.2-0.4c0-0.2-0.2-0.3-0.1-0.4-0.2 0-0.4 0-0.4 0.1 0 0.1 0.1 0.3 0.1 0.4 0 0.1-0.3 0.2-0.7 0 0.3 0.1 0.3-0.2 0.3-0.3 0-0.1 0.1-0.3 0.2-0.4q0-0.1 0.3-0.1 0-0.1 0-0.1-0.2-0.2-0.3-0.4c-0.1 0-0.2 0-0.2 0.1-0.1 0.1-0.1 0.2-0.1 0.3q0 0-0.1 0c0.1-0.1 0-0.3 0-0.4 0-0.1 0.2-0.1 0.3-0.2q0-0.1 0 0 0-0.1 0-0.2c-0.4 0-0.7 0.1-0.9 0.2-0.2 0.1-0.2 0.2-0.1 0.4 0.2 0.2 0.5 0.5 0.5 0.6-0.1 0.2-0.5 0.3-1.2 0-0.5-0.3-0.9-0.7-0.5-0.6 0.4 0 1 0.3 0.8 0.4 0.1-0.2-0.7-0.4-0.5-0.2 0.2 0.3 0.8 0.5 0.9 0.3 0-0.1-0.2-0.3-0.3-0.5q-0.2-0.2-0.1-0.3c-0.4-0.1-0.7-0.2-1-0.5 1 0.8 1.8 0 2 0.1-0.1 0-0.3-0.1-0.5-0.1-0.1-0.1-0.3-0.2-0.4-0.3-0.2-0.2-0.2-0.4 0.3-0.3 0.3 0.1 0.8 0.4 0.4 0.4 0.2-0.1-0.8-0.5-0.5-0.2 0.2 0.3 0.7 0.4 1 0.4 0.8 0.1 0.1-0.5-0.8-0.9q-0.1-0.1-0.3-0.2c0.2 0 0.5 0 0.7 0 0.2 0.2 0.6 0.5 0.9 0.7 0.2 0.2 0.6 0.4 0.9 0.4 0.2 0 0.3-0.1-0.1-0.3-0.2-0.1-0.5-0.1-0.4-0.1 0 0.1 0.5 0.3 0.4 0.2 0.2 0.2-0.5-0.1-0.6-0.2-0.3-0.2 0.2-0.1 0.5 0 0.8 0.3 1 0.7 0.4 0.6 0.1 0.1 0.4 0.1 0.5 0.1q0.4 0.1 0.7 0.2c0.4 0.1 1.3 0.4 1.3 0.2 0-0.1-0.5-0.4-0.8-0.5 0.2 0 0.6 0.2 0.9 0.4 0.3 0.2 0.5 0.4 0.2 0.4 0.2 0 1.1 0.4 1.3 0.5q0.1 0.1 0.1 0.1 0 0-0.1 0.1-0.6-0.3-1.2-0.5c-0.9-0.3-1.7-0.6-2.4-0.7q0 0 0 0 0.1 0 0.1 0 0.4 0.2 0.7 0.3 0.4 0.2 0.8 0.4 0.3 0.1 0.6 0.3c0.4 0 0.9 0.1 1.3 0.2q0 0-0.1 0.1-0.2-0.1-0.4-0.1-0.3-0.1-0.6-0.1 0.3 0.2 0.6 0.3 0.1 0.1 0.1 0.1-0.1 0-0.2 0 0 0-0.1 0-0.7-0.4-1.5-0.8c-0.4-0.2-1-0.4-1.3-0.6 0.1 0.1 0.3 0.2 0.3 0.3q0.3 0.2 0.6 0.4 0 0.1 0 0.1-0.5-0.3-0.9-0.6c-0.2-0.1-0.4-0.2-0.4-0.3q0 0-0.1 0 0.1 0 0.1 0c0 0-0.1 0-0.1 0q0 0 0 0.1 0 0 0 0 0 0.1 0.1 0.2 0 0-0.1 0c-0.1-0.1-0.3-0.3-0.3-0.4-0.5-0.1-0.8 0-0.7 0.3q0.1 0 0.1 0.1c0.7 0.1 1.4 0.4 2.1 0.7 0.2 0.1 1.5 0.6 1 0.2-0.3-0.2-0.4-0.2-0.6-0.2-0.1-0.1 0.2-0.1 0.4 0 0.2 0.1 0.5 0.3 0.6 0.4 0.4 0.4-0.8-0.1-1.3-0.2q0.1 0.1 0.2 0.1c0.2 0.2 0.5 0.6 0.9 0.7q0.2 0 0.3 0-0.5 0.3-1 0.4-0.1-0.1 0-0.1c0-0.1 0.4 0 0.3-0.2 0-0.1-0.3-0.4-0.5-0.5-0.2-0.3-0.5-0.5-1.1-0.7q-0.3-0.2-0.6-0.3 0.2 0.2 0.4 0.3 0.3 0.2 0.5 0.4 0 0 0 0c-0.3-0.2-1.2-0.7-1-0.4 0.2 0.3 0.4 0.6 0.8 0.8 0.3 0.2 0.8 0.3 0.6 0.1-0.2-0.2-0.5-0.2-0.6-0.1-0.1-0.2 0.2-0.2 0.6 0 0.8 0.3 0 0.6-1 0.1-0.2-0.2-0.5-0.5-0.4-0.6-0.2 0.1-0.3 0.7 0.4 1 0.4 0.2 0.3-0.1-0.1-0.2 0.3 0 0.6 0.3 0.6 0.4 0 0.1-0.4 0.1-0.6-0.1q0 0.1 0.1 0.2-0.1 0-0.1 0-0.1 0-0.1 0 0 0-0.1 0 0.1 0 0.1 0-0.2 0-0.3 0-0.2 0-0.3 0z"/></g><path class="by" d="m39 44.9v0.1z"/><path class="bt" d="m31.7 26.4c-0.1 0-0.2-0.1-0.2-0.1-0.1 0-0.2 0.1-0.3 0.1-0.1 0.1-0.2 0.1-0.3 0 0.4 0.1 0.5-0.5 0.8-0.6-0.1 0.1-0.2 0.3 0 0.4 0.1 0.1 0.4 0 0.6 0-0.1 0-0.2 0.2-0.6 0.2z"/><path class="bz" d="m45.4 22.7c0 0-0.1 0 0 0 1.5-1.6 0.2-4.5-0.5-6.1-0.5-0.9-0.9-1.8-1.4-2.7-0.4-0.7-0.7-1.1-1.4-1.4q0 0 0 0c0.9 0.2 1.3 0.4 1.7 1.2 0.7 1.1 1.2 2.3 1.7 3.5 0.7 1.6 1.6 4.2-0.1 5.5z"/><path class="bA" d="m42.2 18.6c0.1-0.6-0.7-2-0.7-2 1.2 1.9 2.5 3.7 3.2 4.1-1.2-0.4-2.1-2.1-2.5-2.1z"/><path class="bB" d="m10.6 15.4l0.2 2.9 2.3-1.7-2.2 1.9 2.8 0.7-2.9-0.5 1.2 2.6-1.4-2.5-1.3 2.5 1.2-2.6-2.9 0.5 2.8-0.7-2.2-1.9 2.3 1.7z"/><path class="bC" d="m18.8 27.3l0.2 2.9 2.3-1.7-2.2 1.9 2.8 0.8-2.9-0.6 1.2 2.7-1.4-2.6-1.3 2.6 1.1-2.7-2.8 0.6 2.8-0.8-2.2-1.9 2.3 1.7z"/><path class="bD" d="m20.6 9.4l0.1 2.9 2.4-1.8-2.2 1.9 2.8 0.8-2.9-0.6 1.2 2.7-1.4-2.6-1.3 2.6 1.1-2.7-2.8 0.6 2.8-0.8-2.2-1.9 2.3 1.8z"/><path class="bE" d="m31.2 38l-1.3 1.9 1.9 1.4-1.9-1.3-1.4 1.8 1.3-1.9-1.9-1.4 1.9 1.3z"/><path class="bF" d="m41.4 34.8l-1.3 1.9 1.8 1.4-1.9-1.3-1.4 1.8 1.3-1.9-1.8-1.4 1.9 1.3z"/><path class="bG" d="m46.5 21.9l-1.7 2.4 2.4 1.9-2.5-1.7-1.8 2.4 1.7-2.5-2.4-1.8 2.5 1.6z"/><path class="bH" d="m29.9 8.8l0.1 3.1 3.2 0.1-3.2 0.1-0.1 3.2-0.1-3.2-3.1-0.1 3.1-0.1z"/><path class="bI" d="m31.7 10.3l-1.7 1.7 1.7 1.8-1.8-1.7-1.7 1.7 1.6-1.8-1.6-1.7 1.7 1.6z"/><g style="opacity:.8"><path class="bJ" d="m22 14.7l0.1 3.2h3.1l-3.1 0.1-0.1 3.2-0.1-3.2-3.1-0.1h3.1z"/><path class="bK" d="m23.8 16.2l-1.7 1.7 1.7 1.8-1.8-1.7-1.7 1.7 1.6-1.8-1.6-1.7 1.7 1.6z"/></g><path class="bL" d="m28.5 7.7c0.5 2.4-1.1 4.8-3.6 5.3-2.5 0.5-5-1.1-5.5-3.5-0.5-2.4 1.1-4.7 3.6-5.2 2.5-0.5 4.9 1 5.5 3.4z"/><path class="bM" d="m8.9 18.3c0.4 1.8-0.8 3.5-2.6 3.8-1.8 0.4-3.6-0.7-4-2.5-0.3-1.7 0.8-3.4 2.6-3.8 1.8-0.3 3.6 0.8 4 2.5z"/><path class="bN" d="m11 25.8c0.3 1.4-0.6 2.7-2 3-1.3 0.3-2.7-0.6-3-2-0.3-1.4 0.6-2.7 2-3 1.3-0.3 2.7 0.6 3 2z"/><path class="bO" d="m35.9 4.2c0.3 1.5-0.6 2.8-2 3.1-1.4 0.3-2.8-0.6-3.1-2-0.3-1.4 0.6-2.8 2-3.1 1.4-0.3 2.8 0.6 3.1 2z"/><path class="bP" d="m33.3-2.6l0.2 6.6 6.6 0.2-6.6 0.2-0.2 6.6-0.2-6.6-6.7-0.2 6.7-0.2z"/><path class="bQ" d="m37 0.5l-3.5 3.7 3.5 3.7-3.7-3.5-3.7 3.5 3.5-3.7-3.5-3.7 3.7 3.5z"/></svg>