<svg version="1.2" xmlns="http://www.w3.org/2000/svg" viewBox="0 0 62 61" width="62" height="61"><defs><linearGradient id="P" gradientUnits="userSpaceOnUse"/><linearGradient id="g1" x1="34.2" y1="13.3" x2="34.2" y2="-0.4" href="#P"><stop stop-color="#f90"/><stop offset=".5" stop-color="#ff0"/><stop offset="1" stop-color="#f90"/></linearGradient><radialGradient id="g2" cx="30.5" cy="44" r="20.9" href="#P"><stop stop-color="#649283"/><stop offset="1" stop-color="#82638a"/></radialGradient><radialGradient id="g3" cx="30.3" cy="39.7" r="23.5" href="#P"><stop stop-color="#9fa9b7"/><stop offset="1" stop-color="#7a8193"/></radialGradient><radialGradient id="g4" cx="30" cy="53.5" r="2.5" href="#P"><stop stop-color="#454f72"/><stop offset="1" stop-color="#464164"/></radialGradient><linearGradient id="g5" x1="39.9" y1="17" x2="60.5" y2="18.2" href="#P"><stop stop-color="#1a1c2c"/><stop offset="1" stop-color="#454b58"/></linearGradient><linearGradient id="g6" x1="45.3" y1="53.4" x2="38.8" y2="61.5" href="#P"><stop stop-color="#1a1c2c"/><stop offset="1" stop-color="#454b58"/></linearGradient><radialGradient id="g7" cx="47.2" cy="46.5" r="7.4" href="#P"><stop offset=".1" stop-color="#611508"/><stop offset="1" stop-color="#122343"/></radialGradient><linearGradient id="g8" x1="36.2" y1="35.7" x2="60.1" y2="37.1" href="#P"><stop stop-color="#343b56"/><stop offset="1" stop-color="#35324c"/></linearGradient><linearGradient id="g9" x1="40" y1="19.6" x2="60.3" y2="20.7" href="#P"><stop stop-color="#343b56"/><stop offset="1" stop-color="#35324c"/></linearGradient><linearGradient id="g10" x1="40.2" y1="17.1" x2="59.9" y2="18.3" href="#P"><stop stop-color="#343b56"/><stop offset="1" stop-color="#35324c"/></linearGradient><linearGradient id="g11" x1="5.1" y1="38" x2="3.9" y2="29" href="#P"><stop stop-color="#83889a"/><stop offset="1" stop-color="#646c7d"/></linearGradient><radialGradient id="g12" cx="11.6" cy="32.9" r="8.4" href="#P"><stop stop-color="#587387"/><stop offset="1" stop-color="#4d486d"/></radialGradient><linearGradient id="g13" x1="27.4" y1="12.5" x2="53.8" y2="21.2" href="#P"><stop stop-color="#343b56"/><stop offset="1" stop-color="#35324c"/></linearGradient><linearGradient id="g14" x1="0" y1="41.3" x2="51.1" y2="58.1" href="#P"><stop stop-color="#6d7688"/><stop offset="1" stop-color="#5c6274"/></linearGradient><linearGradient id="g15" x1="22.3" y1="29.6" x2="51.8" y2="39.3" href="#P"><stop stop-color="#343b56"/><stop offset="1" stop-color="#35324c"/></linearGradient><radialGradient id="g16" cx="38.9" cy="39.9" r="7.1" href="#P"><stop offset=".1" stop-color="#611508"/><stop offset="1" stop-color="#122343"/></radialGradient><linearGradient id="g17" x1="43.7" y1="46.6" x2="47.3" y2="51.5" href="#P"><stop stop-color="#343b56"/><stop offset="1" stop-color="#35324c"/></linearGradient><radialGradient id="g18" cx="37.5" cy="46.9" r="6.7" href="#P"><stop stop-color="#454f72"/><stop offset="1" stop-color="#464164"/></radialGradient><linearGradient id="g19" x1="33.8" y1="37.8" x2="42.9" y2="37.8" href="#P"><stop stop-color="#343b56"/><stop offset="1" stop-color="#35324c"/></linearGradient><linearGradient id="g20" x1="34" y1="47.9" x2="42.8" y2="47.9" href="#P"><stop stop-color="#343b56"/><stop offset="1" stop-color="#35324c"/></linearGradient><linearGradient id="g21" x1="41" y1="35.9" x2="49.1" y2="40.5" href="#P"><stop stop-color="#343b56"/><stop offset="1" stop-color="#35324c"/></linearGradient><radialGradient id="g22" cx="49.8" cy="38.5" r="5.5" href="#P"><stop stop-color="#587387"/><stop offset="1" stop-color="#4d486d"/></radialGradient><radialGradient id="g23" cx="49.8" cy="38.5" r="5.5" href="#P"><stop stop-color="#ad8133"/><stop offset="1" stop-color="#984f3b"/></radialGradient><linearGradient id="g24" x1="40.7" y1="40.2" x2="46.5" y2="40.2" href="#P"><stop stop-color="#343b56"/><stop offset="1" stop-color="#35324c"/></linearGradient><linearGradient id="g25" x1="40.3" y1="37" x2="54.1" y2="37" href="#P"><stop stop-color="#83889a"/><stop offset="1" stop-color="#646c7d"/></linearGradient><linearGradient id="g26" x1="44.2" y1="38.8" x2="47.8" y2="38.8" href="#P"><stop stop-color="#454f72"/><stop offset="1" stop-color="#464164"/></linearGradient><linearGradient id="g27" x1="40.3" y1="39.5" x2="54.1" y2="39.5" href="#P"><stop stop-color="#83889a"/><stop offset="1" stop-color="#646c7d"/></linearGradient><radialGradient id="g28" cx="40.9" cy="40.7" r="8.6" href="#P"><stop stop-color="#454f72"/><stop offset="1" stop-color="#5c5977"/></radialGradient><radialGradient id="g29" cx="40.9" cy="40.7" r="8.6" href="#P"><stop stop-color="#ad8133"/><stop offset="1" stop-color="#984f3b"/></radialGradient><linearGradient id="g30" x1="11.2" y1="25.9" x2="35.7" y2="25.9" href="#P"><stop stop-color="#343b56"/><stop offset="1" stop-color="#35324c"/></linearGradient><linearGradient id="g31" x1="13.6" y1="34.4" x2="24.5" y2="34.4" href="#P"><stop stop-color="#1e0f2f"/><stop offset="1" stop-color="#375c58"/></linearGradient><linearGradient id="g32" x1="7.5" y1="16.4" x2="54.9" y2="16.4" href="#P"><stop stop-color="#454f72"/><stop offset="1" stop-color="#464164"/></linearGradient><linearGradient id="g33" x1="7.5" y1="16.5" x2="45.3" y2="16.5" href="#P"><stop stop-color="#343b56"/><stop offset="1" stop-color="#35324c"/></linearGradient><linearGradient id="g34" x1="16.4" y1="52.2" x2="2.6" y2="38.2" href="#P"><stop stop-color="#454b58"/><stop offset="1" stop-color="#62697b"/></linearGradient><radialGradient id="g35" cx="21.3" cy="50.6" r="4.6" href="#P"><stop offset=".1" stop-color="#611508"/><stop offset="1" stop-color="#122343"/></radialGradient><linearGradient id="g36" x1="16.8" y1="51.5" x2="3.1" y2="37.7" href="#P"><stop stop-color="#343b56"/><stop offset="1" stop-color="#35324c"/></linearGradient><radialGradient id="g37" cx="19.3" cy="47.5" r="9.2" href="#P"><stop stop-color="#788094"/><stop offset="1" stop-color="#646b7f"/></radialGradient><radialGradient id="g38" cx="9.3" cy="35.9" r="7.8" href="#P"><stop stop-color="#587387"/><stop offset="1" stop-color="#4d486d"/></radialGradient><radialGradient id="g39" cx="4.4" cy="31.8" r="11.5" href="#P"><stop stop-color="#454f72"/><stop offset="1" stop-color="#5c5977"/></radialGradient><radialGradient id="g40" cx="4.4" cy="31.8" r="11.5" href="#P"><stop stop-color="#ad8133"/><stop offset="1" stop-color="#984f3b"/></radialGradient><radialGradient id="g41" cx="24.3" cy="36.1" r="25.1" href="#P"><stop stop-color="#f90"/><stop offset="1" stop-color="#454f72"/></radialGradient><linearGradient id="g42" x1="16" y1="33.9" x2="47.5" y2="33.9" href="#P"><stop stop-color="#6d7688"/><stop offset="1" stop-color="#5c6274"/></linearGradient><radialGradient id="g43" cx="22.5" cy="43.1" r="5.8" href="#P"><stop stop-color="#395f7e"/><stop offset="1" stop-color="#464164"/></radialGradient><radialGradient id="g44" cx="10.4" cy="28.5" r="7.9" href="#P"><stop stop-color="#f90"/><stop offset="1" stop-color="#454f72"/></radialGradient><radialGradient id="g45" cx="8.4" cy="36.7" r="9.3" href="#P"><stop stop-color="#f90"/><stop offset="1" stop-color="#454f72"/></radialGradient><linearGradient id="g46" x1="27.2" y1="42.7" x2="36.9" y2="52.1" href="#P"><stop stop-color="#1a1c2c"/><stop offset="1" stop-color="#454b58"/></linearGradient><linearGradient id="g47" x1="-26.3" y1="47.9" x2="101.1" y2="47.9" href="#P"><stop stop-color="#1a1c2c"/><stop offset="1" stop-color="#454b58"/></linearGradient><linearGradient id="g48" x1="25.3" y1="58.5" x2="22.4" y2="52.7" href="#P"><stop stop-color="#687082"/><stop offset="1" stop-color="#515666"/></linearGradient><radialGradient id="g49" cx="27.9" cy="51.1" r="2.8" href="#P"><stop stop-color="#587387"/><stop offset="1" stop-color="#4d486d"/></radialGradient><linearGradient id="g50" x1="41.5" y1="37.6" x2="43.3" y2="37.6" href="#P"><stop stop-color="#6d7688"/><stop offset="1" stop-color="#5c6274"/></linearGradient><radialGradient id="g51" cx="52.7" cy="43" r="6.7" href="#P"><stop stop-color="#82879a"/><stop offset="1" stop-color="#7a8193"/></radialGradient><radialGradient id="g52" cx="46.7" cy="46.1" r="6.8" href="#P"><stop stop-color="#c47600"/><stop offset="1" stop-color="#454f72"/></radialGradient><radialGradient id="g53" cx="38" cy="55.9" r="4.6" href="#P"><stop stop-color="#82879a"/><stop offset="1" stop-color="#7a8193"/></radialGradient><radialGradient id="g54" cx="52.5" cy="34.4" r="7" href="#P"><stop stop-color="#636778"/><stop offset="1" stop-color="#7a8193"/></radialGradient><radialGradient id="g55" cx="55.4" cy="37.3" r="3.2" href="#P"><stop stop-color="#636778"/><stop offset="1" stop-color="#7a8193"/></radialGradient><radialGradient id="g56" cx="48.6" cy="51.1" r="15.2" href="#P"><stop stop-color="#636778"/><stop offset="1" stop-color="#7a8193"/></radialGradient><radialGradient id="g57" cx="22.2" cy="48.5" r="6" href="#P"><stop stop-color="#c47600"/><stop offset="1" stop-color="#454f72"/></radialGradient><linearGradient id="g58" x1="32.4" y1="52.3" x2="34.9" y2="52.3" href="#P"><stop stop-color="#6d7688"/><stop offset="1" stop-color="#5c6274"/></linearGradient><radialGradient id="g59" cx="43" cy="6" r="1.4" href="#P"><stop stop-color="#7376d6"/><stop offset="1" stop-color="#404199"/></radialGradient><radialGradient id="g60" cx="40.1" cy="4.7" r=".8" href="#P"><stop stop-color="#7376d6"/><stop offset="1" stop-color="#404199"/></radialGradient><radialGradient id="g61" cx="48.3" cy="5.7" r="1.7" href="#P"><stop stop-color="#7376d6"/><stop offset="1" stop-color="#404199"/></radialGradient><radialGradient id="g62" cx="44.8" cy="6.5" r=".6" href="#P"><stop stop-color="#7376d6"/><stop offset="1" stop-color="#404199"/></radialGradient><radialGradient id="g63" cx="19.7" cy="13.6" r="1.7" href="#P"><stop stop-color="#7376d6"/><stop offset="1" stop-color="#404199"/></radialGradient><radialGradient id="g64" cx="16.3" cy="13.6" r="1.8" href="#P"><stop stop-color="#7376d6"/><stop offset="1" stop-color="#404199"/></radialGradient><radialGradient id="g65" cx="17.4" cy="12" r=".7" href="#P"><stop stop-color="#7376d6"/><stop offset="1" stop-color="#404199"/></radialGradient><radialGradient id="g66" cx="23.5" cy="32.4" r="25" href="#P"><stop stop-color="#4590d9"/><stop offset="1" stop-color="#b44c4c"/></radialGradient><radialGradient id="g67" cx="16" cy="20.2" r="2.5" href="#P"><stop stop-color="#f90"/><stop offset="1" stop-color="#656f94"/></radialGradient><radialGradient id="g68" cx="22.8" cy="16.6" r="2.6" href="#P"><stop stop-color="#f90"/><stop offset="1" stop-color="#656f94"/></radialGradient><radialGradient id="g69" cx="24.5" cy="34" r="27.9" href="#P"><stop stop-color="#e1ab4a"/><stop offset="1" stop-color="#c56e55"/></radialGradient><linearGradient id="g70" x1="32.6" y1="5" x2="54.7" y2="5" href="#P"><stop stop-color="#28153d"/><stop offset="1" stop-color="#517873"/></linearGradient><radialGradient id="g71" cx="36.2" cy="13.1" r="6.3" href="#P"><stop offset=".1" stop-color="#a42713"/><stop offset="1" stop-color="#2b4271"/></radialGradient><radialGradient id="g72" cx="20.3" cy="18.1" r="1.7" href="#P"><stop stop-color="#a42713"/><stop offset="1" stop-color="#2b4271"/></radialGradient><radialGradient id="g73" cx="20.3" cy="18.3" r="2.1" href="#P"><stop stop-color="#f90"/><stop offset="1" stop-color="#f30"/></radialGradient><radialGradient id="g74" cx="17.2" cy="23.4" r=".6" href="#P"><stop stop-color="#f30"/><stop offset="1"/></radialGradient><radialGradient id="g75" cx="29.5" cy="7.8" r=".6" href="#P"><stop stop-color="#f30"/><stop offset="1"/></radialGradient><radialGradient id="g76" cx="38.5" cy="7.9" r=".6" href="#P"><stop stop-color="#f30"/><stop offset="1"/></radialGradient><radialGradient id="g77" cx="30.9" cy="32.3" r="24.9" href="#P"><stop stop-color="#f90"/><stop offset="1" stop-color="#f30"/></radialGradient><radialGradient id="g78" cx="51.2" cy="33.5" r="6.9" href="#P"><stop stop-color="#ff3"/><stop offset="1"/></radialGradient><radialGradient id="g79" cx="30.5" cy="8.8" r="2.9" href="#P"><stop stop-color="#ff3"/><stop offset="1"/></radialGradient><radialGradient id="g80" cx="38.3" cy="7.1" r="1" href="#P"><stop stop-color="#f90"/><stop offset="1" stop-color="#f30"/></radialGradient><linearGradient id="g81" x1="21.1" y1="14.7" x2="33" y2="14.7" href="#P"><stop stop-color="#28153d"/><stop offset="1" stop-color="#517873"/></linearGradient><radialGradient id="g82" cx="42.8" cy="20.1" r="7.6" href="#P"><stop stop-color="#ff3"/><stop offset="1"/></radialGradient><radialGradient id="g83" cx="35.8" cy="13.6" r="1.9" href="#P"><stop stop-color="#ff3"/><stop offset="1"/></radialGradient><radialGradient id="g84" cx="41" cy="20.2" r=".5" href="#P"><stop stop-color="#ff3"/><stop offset="1"/></radialGradient><radialGradient id="g85" cx="40.1" cy="18.5" r=".4" href="#P"><stop stop-color="#ff3"/><stop offset="1"/></radialGradient><radialGradient id="g86" cx="39.9" cy="19.2" r=".2" href="#P"><stop stop-color="#ff3"/><stop offset="1"/></radialGradient><radialGradient id="g87" cx="43" cy="21" r=".6" href="#P"><stop stop-color="#ff3"/><stop offset="1"/></radialGradient><radialGradient id="g88" cx="44.9" cy="22.3" r=".4" href="#P"><stop stop-color="#ff3"/><stop offset="1"/></radialGradient><radialGradient id="g89" cx="46.6" cy="27.9" r=".5" href="#P"><stop stop-color="#ff3"/><stop offset="1"/></radialGradient><radialGradient id="g90" cx="47.8" cy="27.4" r=".6" href="#P"><stop stop-color="#ff3"/><stop offset="1"/></radialGradient><radialGradient id="g91" cx="42.9" cy="24.5" r=".6" href="#P"><stop stop-color="#ff3"/><stop offset="1"/></radialGradient><radialGradient id="g92" cx="48.4" cy="33.6" r="2.4" href="#P"><stop stop-color="#ff3"/><stop offset="1"/></radialGradient><radialGradient id="g93" cx="54.2" cy="40.4" r="3.7" href="#P"><stop stop-color="#ff3"/><stop offset="1"/></radialGradient><linearGradient id="g94" x1="28.2" y1="0" x2="38.6" y2="-0.2" href="#P"><stop stop-color="#ff4141"/><stop offset=".4" stop-color="#f90"/><stop offset="1" stop-color="#f30"/></linearGradient><radialGradient id="g95" cx="33.9" cy="7.5" r="2.9" href="#P"><stop stop-color="#ff3"/><stop offset="1"/></radialGradient><radialGradient id="g96" cx="34.1" cy="8.4" r="1.3" href="#P"><stop stop-color="#ff3"/><stop offset="1"/></radialGradient><radialGradient id="g97" cx="30.6" cy="8.2" r=".8" href="#P"><stop stop-color="#ff3"/><stop offset="1"/></radialGradient><radialGradient id="g98" cx="40.3" cy="31.3" r="8" href="#P"><stop offset=".1" stop-color="#7e1c0c"/><stop offset="1" stop-color="#1b2f57"/></radialGradient><radialGradient id="g99" cx="43.9" cy="20.6" r="7" href="#P"><stop stop-color="#ff3"/><stop offset="1"/></radialGradient><radialGradient id="g100" cx="24.9" cy="37.5" r="5" href="#P"><stop stop-color="#ff3"/><stop offset="1"/></radialGradient><radialGradient id="g101" cx="28.9" cy="48.8" r="4.9" href="#P"><stop stop-color="#ff3"/><stop offset="1"/></radialGradient><radialGradient id="g102" cx="8.6" cy="27.6" r="2.2" href="#P"><stop stop-color="#ff3"/><stop offset="1"/></radialGradient><radialGradient id="g103" cx="8" cy="36" r="2.4" href="#P"><stop stop-color="#ff3"/><stop offset="1"/></radialGradient><radialGradient id="g104" cx="24.3" cy="29.5" r="2.3" href="#P"><stop stop-color="#ff3"/><stop offset="1"/></radialGradient><radialGradient id="g105" cx="14.5" cy="29.7" r="3" href="#P"><stop stop-color="#ff3"/><stop offset="1"/></radialGradient><radialGradient id="g106" cx="13.2" cy="26" r=".4" href="#P"><stop stop-color="#ff3"/><stop offset="1"/></radialGradient><radialGradient id="g107" cx="16.1" cy="25.6" r=".4" href="#P"><stop stop-color="#ff3"/><stop offset="1"/></radialGradient><radialGradient id="g108" cx="14.9" cy="26.5" r=".5" href="#P"><stop stop-color="#ff3"/><stop offset="1"/></radialGradient><radialGradient id="g109" cx="16.7" cy="26.4" r=".4" href="#P"><stop stop-color="#ff3"/><stop offset="1"/></radialGradient><radialGradient id="g110" cx="16.2" cy="27.3" r=".6" href="#P"><stop stop-color="#ff3"/><stop offset="1"/></radialGradient><radialGradient id="g111" cx="18.4" cy="25.7" r=".5" href="#P"><stop stop-color="#ff3"/><stop offset="1"/></radialGradient><radialGradient id="g112" cx="18.4" cy="26.4" r=".4" href="#P"><stop stop-color="#ff3"/><stop offset="1"/></radialGradient><radialGradient id="g113" cx="20.1" cy="25.5" r=".5" href="#P"><stop stop-color="#ff3"/><stop offset="1"/></radialGradient><radialGradient id="g114" cx="21.9" cy="25.4" r=".4" href="#P"><stop stop-color="#ff3"/><stop offset="1"/></radialGradient><radialGradient id="g115" cx="23.2" cy="25.4" r=".3" href="#P"><stop stop-color="#ff3"/><stop offset="1"/></radialGradient><radialGradient id="g116" cx="20.6" cy="26.2" r=".2" href="#P"><stop stop-color="#ff3"/><stop offset="1"/></radialGradient><radialGradient id="g117" cx="18.7" cy="24.9" r=".4" href="#P"><stop stop-color="#ff3"/><stop offset="1"/></radialGradient><radialGradient id="g118" cx="14.4" cy="27.5" r=".4" href="#P"><stop stop-color="#ff3"/><stop offset="1"/></radialGradient><radialGradient id="g119" cx="12.8" cy="27.1" r=".4" href="#P"><stop stop-color="#ff3"/><stop offset="1"/></radialGradient><radialGradient id="g120" cx="11" cy="26.8" r=".5" href="#P"><stop stop-color="#ff3"/><stop offset="1"/></radialGradient><radialGradient id="g121" cx="12.7" cy="25.3" r=".3" href="#P"><stop stop-color="#ff3"/><stop offset="1"/></radialGradient><radialGradient id="g122" cx="14.6" cy="25.2" r=".3" href="#P"><stop stop-color="#ff3"/><stop offset="1"/></radialGradient><radialGradient id="g123" cx="26.4" cy="28.9" r=".4" href="#P"><stop stop-color="#ff3"/><stop offset="1"/></radialGradient><radialGradient id="g124" cx="27.7" cy="29" r=".3" href="#P"><stop stop-color="#ff3"/><stop offset="1"/></radialGradient><radialGradient id="g125" cx="28.9" cy="29.4" r=".3" href="#P"><stop stop-color="#ff3"/><stop offset="1"/></radialGradient><radialGradient id="g126" cx="27.1" cy="29.6" r=".5" href="#P"><stop stop-color="#ff3"/><stop offset="1"/></radialGradient><radialGradient id="g127" cx="28.4" cy="29.8" r=".2" href="#P"><stop stop-color="#ff3"/><stop offset="1"/></radialGradient><radialGradient id="g128" cx="26.6" cy="30.8" r=".4" href="#P"><stop stop-color="#ff3"/><stop offset="1"/></radialGradient><radialGradient id="g129" cx="26.3" cy="31.9" r=".4" href="#P"><stop stop-color="#ff3"/><stop offset="1"/></radialGradient><radialGradient id="g130" cx="26.2" cy="33.5" r=".3" href="#P"><stop stop-color="#ff3"/><stop offset="1"/></radialGradient><radialGradient id="g131" cx="23" cy="32.3" r=".5" href="#P"><stop stop-color="#ff3"/><stop offset="1"/></radialGradient><radialGradient id="g132" cx="24.7" cy="32.2" r=".4" href="#P"><stop stop-color="#ff3"/><stop offset="1"/></radialGradient><radialGradient id="g133" cx="25.6" cy="33" r=".2" href="#P"><stop stop-color="#ff3"/><stop offset="1"/></radialGradient><radialGradient id="g134" cx="14.9" cy="28.6" r=".4" href="#P"><stop stop-color="#ff3"/><stop offset="1"/></radialGradient><radialGradient id="g135" cx="16.2" cy="29.7" r=".4" href="#P"><stop stop-color="#ff3"/><stop offset="1"/></radialGradient><radialGradient id="g136" cx="16.5" cy="30.2" r="0" href="#P"><stop stop-color="#ff3"/><stop offset="1"/></radialGradient><radialGradient id="g137" cx="17.5" cy="30.9" r=".3" href="#P"><stop stop-color="#ff3"/><stop offset="1"/></radialGradient><radialGradient id="g138" cx="18.9" cy="31.5" r=".2" href="#P"><stop stop-color="#ff3"/><stop offset="1"/></radialGradient><radialGradient id="g139" cx="16.1" cy="28.3" r=".4" href="#P"><stop stop-color="#ff3"/><stop offset="1"/></radialGradient><radialGradient id="g140" cx="17.1" cy="29.3" r=".4" href="#P"><stop stop-color="#ff3"/><stop offset="1"/></radialGradient><radialGradient id="g141" cx="18" cy="30.5" r=".3" href="#P"><stop stop-color="#ff3"/><stop offset="1"/></radialGradient><radialGradient id="g142" cx="17.2" cy="27.2" r=".4" href="#P"><stop stop-color="#ff3"/><stop offset="1"/></radialGradient><radialGradient id="g143" cx="17.6" cy="28.6" r=".3" href="#P"><stop stop-color="#ff3"/><stop offset="1"/></radialGradient><radialGradient id="g144" cx="32.7" cy="21.6" r="6.4" href="#P"><stop stop-color="#ff3"/><stop offset="1"/></radialGradient><radialGradient id="g145" cx="35.7" cy="7.1" r=".7" href="#P"><stop stop-color="#ff3"/><stop offset="1"/></radialGradient><radialGradient id="g146" cx="32.1" cy="4.3" r=".7" href="#P"><stop stop-color="#ff3"/><stop offset="1"/></radialGradient><radialGradient id="g147" cx="33.9" cy="6.2" r=".4" href="#P"><stop stop-color="#ff3"/><stop offset="1"/></radialGradient><radialGradient id="g148" cx="31.6" cy="24.9" r=".4" href="#P"><stop stop-color="#ff3"/><stop offset="1"/></radialGradient><radialGradient id="g149" cx="30.8" cy="23.7" r=".4" href="#P"><stop stop-color="#ff3"/><stop offset="1"/></radialGradient><radialGradient id="g150" cx="31.3" cy="22.8" r=".4" href="#P"><stop stop-color="#ff3"/><stop offset="1"/></radialGradient><radialGradient id="g151" cx="30.8" cy="22.3" r=".4" href="#P"><stop stop-color="#ff3"/><stop offset="1"/></radialGradient><radialGradient id="g152" cx="31.7" cy="7.9" r=".7" href="#P"><stop stop-color="#ff3"/><stop offset="1"/></radialGradient><radialGradient id="g153" cx="35.4" cy="4.3" r=".7" href="#P"><stop stop-color="#ff3"/><stop offset="1"/></radialGradient><radialGradient id="g154" cx="30.7" cy="2.9" r=".7" href="#P"><stop stop-color="#ff3"/><stop offset="1"/></radialGradient><radialGradient id="g155" cx="35.9" cy="1" r=".7" href="#P"><stop stop-color="#ff3"/><stop offset="1"/></radialGradient><radialGradient id="g156" cx="14.6" cy="25.6" r="7.8" href="#P"><stop stop-color="#ff3"/><stop offset="1"/></radialGradient><radialGradient id="g157" cx="24.9" cy="15.2" r="8.5" href="#P"><stop stop-color="#fc0"/><stop offset=".7"/></radialGradient><radialGradient id="g158" cx="9.7" cy="28.5" r="8.5" href="#P"><stop stop-color="#fc0"/><stop offset=".6"/></radialGradient><radialGradient id="g159" cx="48.8" cy="25.8" r="6.5" href="#P"><stop stop-color="#920b16"/><stop offset="1" stop-color="#334773"/></radialGradient><radialGradient id="g160" cx="50.2" cy="19" r="6.3" href="#P"><stop stop-color="#920b16"/><stop offset="1" stop-color="#334773"/></radialGradient><radialGradient id="g161" cx="23" cy="37.9" r="9.7" href="#P"><stop stop-color="#f90"/><stop offset="1"/></radialGradient><radialGradient id="g162" cx="51" cy="29.2" r="9.7" href="#P"><stop stop-color="#f90"/><stop offset="1"/></radialGradient><radialGradient id="g163" cx="31.3" cy="30.5" r="3.1" href="#P"><stop offset=".1" stop-color="#7e1c0c"/><stop offset="1" stop-color="#1b2f57"/></radialGradient><radialGradient id="g164" cx="17.5" cy="22" r="1.8" href="#P"><stop offset=".1" stop-color="#7e1c0c"/><stop offset="1" stop-color="#1b2f57"/></radialGradient><radialGradient id="g165" cx="16" cy="23.3" r="0" href="#P"><stop offset=".1" stop-color="#7e1c0c"/><stop offset="1" stop-color="#1b2f57"/></radialGradient><radialGradient id="g166" cx="25.2" cy="22.4" r="2.5" href="#P"><stop offset=".1" stop-color="#7e1c0c"/><stop offset="1" stop-color="#1b2f57"/></radialGradient><radialGradient id="g167" cx="32.2" cy="14.8" r="2.8" href="#P"><stop offset=".1" stop-color="#7e1c0c"/><stop offset="1" stop-color="#1b2f57"/></radialGradient><radialGradient id="g168" cx="51.4" cy="30.5" r="7.9" href="#P"><stop stop-color="#f90"/><stop offset="1" stop-color="#454f72"/></radialGradient></defs><style>.a{opacity:.4;fill:url(#g1)}.b{fill:url(#g2)}.c{opacity:.3;fill:url(#g3)}.d{fill:url(#g4)}.e{opacity:.7;fill:url(#g5)}.f{opacity:.7;fill:url(#g6)}.g{opacity:.5;fill:url(#g7)}.h{fill:url(#g8)}.i{fill:url(#g9)}.j{fill:url(#g10)}.k{fill:url(#g11)}.l{fill:#c49d00}.m{fill:url(#g12)}.n{fill:url(#g13)}.o{opacity:.5;fill:url(#g14)}.p{fill:url(#g15)}.q{opacity:.5;fill:url(#g16)}.r{fill:url(#g17)}.s{fill:url(#g18)}.t{opacity:.4;fill:#c49d00}.u{fill:#424859}.v{fill:url(#g19)}.w{fill:url(#g20)}.x{fill:url(#g21)}.y{fill:url(#g22)}.z{opacity:.4;fill:url(#g23)}.A{fill:url(#g24)}.B{opacity:.5;fill:url(#g25)}.C{fill:url(#g26)}.D{opacity:.5;fill:url(#g27)}.E{fill:url(#g28)}.F{opacity:.5;fill:url(#g29)}.G{opacity:.5;fill:url(#g30)}.H{opacity:.7;fill:url(#g31)}.I{fill:url(#g32)}.J{fill:url(#g33)}.K{fill:url(#g34)}.L{opacity:.5;fill:url(#g35)}.M{opacity:.4;fill:url(#g36)}.N{opacity:.7;fill:url(#g37)}.O{fill:url(#g38)}.P{fill:url(#g39)}.Q{opacity:.5;fill:url(#g40)}.R{fill:url(#g41)}.S{fill:url(#g42)}.T{opacity:.6;fill:url(#g43)}.U{fill:url(#g44)}.V{fill:url(#g45)}.W{opacity:.7;fill:url(#g46)}.X{opacity:.7;fill:url(#g47)}.Y{fill:url(#g48)}.Z{fill:url(#g49)}.a0{opacity:.5;fill:#c49d00}.a1{opacity:.5;fill:url(#g50)}.a2{opacity:.3;fill:#9198ab}.a3{opacity:.3;fill:url(#g51)}.a4{opacity:.4;fill:url(#g52)}.a5{opacity:.3;fill:url(#g53)}.a6{opacity:.7;fill:#c49d00}.a7{opacity:.6;fill:url(#g54)}.a8{opacity:.6;fill:url(#g55)}.a9{opacity:.6;fill:url(#g56)}.aa{fill:url(#g57)}.ab{opacity:.4;fill:url(#g58)}.ac{fill:url(#g59)}.ad{fill:url(#g60)}.ae{fill:url(#g61)}.af{fill:url(#g62)}.ag{opacity:.5;fill:url(#g63)}.ah{opacity:.5;fill:url(#g64)}.ai{opacity:.5;fill:url(#g65)}.aj{fill:url(#g66)}.ak{opacity:.5;fill:url(#g67)}.al{opacity:.5;fill:url(#g68)}.am{opacity:.7;fill:url(#g69)}.an{opacity:.7;fill:url(#g70)}.ao{fill:url(#g71)}.ap{fill:url(#g72)}.aq{fill:url(#g73)}.ar{mix-blend-mode:color-dodge;fill:url(#g74)}.as{mix-blend-mode:color-dodge;fill:url(#g75)}.at{mix-blend-mode:color-dodge;fill:url(#g76)}.au{fill:url(#g77)}.av{opacity:.4;mix-blend-mode:color-dodge;fill:url(#g78)}.aw{fill:#f90}.ax{opacity:.4;mix-blend-mode:color-dodge;fill:url(#g79)}.ay{fill:url(#g80)}.az{opacity:.7;fill:url(#g81)}.aA{opacity:.7;mix-blend-mode:color-dodge;fill:url(#g82)}.aB{opacity:.7;mix-blend-mode:color-dodge;fill:url(#g83)}.aC{opacity:.3;mix-blend-mode:color-dodge;fill:url(#g84)}.aD{opacity:.3;mix-blend-mode:color-dodge;fill:url(#g85)}.aE{opacity:.3;mix-blend-mode:color-dodge;fill:url(#g86)}.aF{opacity:.3;mix-blend-mode:color-dodge;fill:url(#g87)}.aG{opacity:.3;mix-blend-mode:color-dodge;fill:url(#g88)}.aH{opacity:.3;mix-blend-mode:color-dodge;fill:url(#g89)}.aI{opacity:.3;mix-blend-mode:color-dodge;fill:url(#g90)}.aJ{opacity:.3;mix-blend-mode:color-dodge;fill:url(#g91)}.aK{opacity:.7;mix-blend-mode:color-dodge;fill:url(#g92)}.aL{opacity:.6;mix-blend-mode:color-dodge;fill:url(#g93)}.aM{fill:url(#g94)}.aN{opacity:.5;mix-blend-mode:color-dodge;fill:url(#g95)}.aO{opacity:.7;mix-blend-mode:color-dodge;fill:url(#g96)}.aP{opacity:.7;mix-blend-mode:color-dodge;fill:url(#g97)}.aQ{fill:url(#g98)}.aR{opacity:.3;mix-blend-mode:color-dodge;fill:url(#g99)}.aS{opacity:.7;mix-blend-mode:color-dodge;fill:url(#g100)}.aT{opacity:.7;mix-blend-mode:color-dodge;fill:url(#g101)}.aU{opacity:.7;mix-blend-mode:color-dodge;fill:url(#g102)}.aV{opacity:.7;mix-blend-mode:color-dodge;fill:url(#g103)}.aW{opacity:.7;mix-blend-mode:color-dodge;fill:url(#g104)}.aX{opacity:.7;mix-blend-mode:color-dodge;fill:url(#g105)}.aY{opacity:.7;mix-blend-mode:color-dodge;fill:url(#g106)}.aZ{opacity:.7;mix-blend-mode:color-dodge;fill:url(#g107)}.b0{opacity:.7;mix-blend-mode:color-dodge;fill:url(#g108)}.b1{opacity:.7;mix-blend-mode:color-dodge;fill:url(#g109)}.b2{opacity:.7;mix-blend-mode:color-dodge;fill:url(#g110)}.b3{opacity:.7;mix-blend-mode:color-dodge;fill:url(#g111)}.b4{opacity:.7;mix-blend-mode:color-dodge;fill:url(#g112)}.b5{opacity:.7;mix-blend-mode:color-dodge;fill:url(#g113)}.b6{opacity:.7;mix-blend-mode:color-dodge;fill:url(#g114)}.b7{opacity:.7;mix-blend-mode:color-dodge;fill:url(#g115)}.b8{opacity:.7;mix-blend-mode:color-dodge;fill:url(#g116)}.b9{opacity:.7;mix-blend-mode:color-dodge;fill:url(#g117)}.ba{opacity:.7;mix-blend-mode:color-dodge;fill:url(#g118)}.bb{opacity:.7;mix-blend-mode:color-dodge;fill:url(#g119)}.bc{opacity:.7;mix-blend-mode:color-dodge;fill:url(#g120)}.bd{opacity:.7;mix-blend-mode:color-dodge;fill:url(#g121)}.be{opacity:.7;mix-blend-mode:color-dodge;fill:url(#g122)}.bf{opacity:.7;mix-blend-mode:color-dodge;fill:url(#g123)}.bg{opacity:.7;mix-blend-mode:color-dodge;fill:url(#g124)}.bh{opacity:.7;mix-blend-mode:color-dodge;fill:url(#g125)}.bi{opacity:.7;mix-blend-mode:color-dodge;fill:url(#g126)}.bj{opacity:.7;mix-blend-mode:color-dodge;fill:url(#g127)}.bk{opacity:.7;mix-blend-mode:color-dodge;fill:url(#g128)}.bl{opacity:.7;mix-blend-mode:color-dodge;fill:url(#g129)}.bm{opacity:.7;mix-blend-mode:color-dodge;fill:url(#g130)}.bn{opacity:.7;mix-blend-mode:color-dodge;fill:url(#g131)}.bo{opacity:.7;mix-blend-mode:color-dodge;fill:url(#g132)}.bp{opacity:.7;mix-blend-mode:color-dodge;fill:url(#g133)}.bq{opacity:.7;mix-blend-mode:color-dodge;fill:url(#g134)}.br{fill:url(#g135)}.bs{fill:url(#g136)}.bt{opacity:.7;mix-blend-mode:color-dodge;fill:url(#g137)}.bu{opacity:.7;mix-blend-mode:color-dodge;fill:url(#g138)}.bv{opacity:.7;mix-blend-mode:color-dodge;fill:url(#g139)}.bw{opacity:.7;mix-blend-mode:color-dodge;fill:url(#g140)}.bx{opacity:.7;mix-blend-mode:color-dodge;fill:url(#g141)}.by{opacity:.7;mix-blend-mode:color-dodge;fill:url(#g142)}.bz{opacity:.7;mix-blend-mode:color-dodge;fill:url(#g143)}.bA{opacity:.7;mix-blend-mode:color-dodge;fill:url(#g144)}.bB{opacity:.7;mix-blend-mode:color-dodge;fill:url(#g145)}.bC{opacity:.7;mix-blend-mode:color-dodge;fill:url(#g146)}.bD{opacity:.7;mix-blend-mode:color-dodge;fill:url(#g147)}.bE{opacity:.7;mix-blend-mode:color-dodge;fill:url(#g148)}.bF{opacity:.7;mix-blend-mode:color-dodge;fill:url(#g149)}.bG{opacity:.7;mix-blend-mode:color-dodge;fill:url(#g150)}.bH{opacity:.7;mix-blend-mode:color-dodge;fill:url(#g151)}.bI{opacity:.7;mix-blend-mode:color-dodge;fill:url(#g152)}.bJ{opacity:.7;mix-blend-mode:color-dodge;fill:url(#g153)}.bK{opacity:.7;mix-blend-mode:color-dodge;fill:url(#g154)}.bL{opacity:.7;mix-blend-mode:color-dodge;fill:url(#g155)}.bM{opacity:.8;mix-blend-mode:color-dodge;fill:url(#g156)}.bN{mix-blend-mode:color-dodge;fill:url(#g157)}.bO{opacity:.4;mix-blend-mode:color-dodge;fill:url(#g158)}.bP{fill:url(#g159)}.bQ{fill:url(#g160)}.bR{opacity:.5;mix-blend-mode:color-dodge;fill:url(#g161)}.bS{mix-blend-mode:color-dodge;fill:url(#g162)}.bT{fill:url(#g163)}.bU{fill:url(#g164)}.bV{fill:url(#g165)}.bW{fill:url(#g166)}.bX{fill:url(#g167)}.bY{fill:url(#g168)}</style><path fill-rule="evenodd" class="a" d="m36.6 9.2q-0.3 0.7 0.9 2.8-2.4-3.6-3-1.4-0.1 0.4-0.3 2.7-0.1-1.1-0.3-2.1c0-0.4-0.1-1.3-0.6-1.3-0.4-0.1-0.7 0.5-0.9 0.8q-0.2 0.4-0.9 1.9 1.8-4.2-0.1-3.7-1.3 0.4-3.8 2 2.8-2.2 3-2.6c0.5-1-0.2-1.2-1.1-1.1q-0.5 0-2.1 0.2 4.2-1.4 2.9-2.3-0.2-0.2-3.2-1.7 3 0.9 3.5 1.1 1.6 0.5 0.6-1.9c0.4 0.3 0.8 0.8 1.3 0.9 0.8 0.1 0.6-0.6 0.6-1.1q0.1-0.4-0.2-2.5 0.8 2.6 1.3 2.7c0.9 0.1 1.4-2.4 1.5-3 0.2 0.9-0.1 1.9-0.1 2.8 0 0.9 0.5 1.3 1.4 0.7q0.3-0.2 2.4-2.3-1.1 1.5-1.6 2.3c-0.3 0.4-0.5 0.7 0 0.6q0.7 0 2.1-0.8-2 1.5-2 2.2c0 0.9 1.9 0.5 2.5 0.7-0.6 0.1-1.2 0.3-1.8 0.4-1.3 0.2-0.3 0.8 0.4 1.1q0.8 0.2 2.4 0.7-1.6-0.4-2.3-0.5c-1.1-0.1-2.3 0-1.1 1.3 0.5 0.6 1.3 1.1 1.9 1.6-0.5-0.4-2.9-1.9-3.3-1.2zm-0.3-3.1c-0.2-0.1-0.5-0.1-0.7-0.3-0.2-0.2-0.1-0.4 0.1-0.6-0.3 0.1-0.6 0.3-0.9 0.1-0.3-0.1-0.5-0.4-0.4-0.7-0.1 0.2-0.2 0.7-0.5 0.8-0.2 0-0.6-0.2-0.6-0.4 0.1 0.2 0.1 0.6-0.1 0.9-0.1 0.1-0.6 0.2-0.8 0.1 0.5 0.3 1.1 1.2 0.3 1.5 0.3-0.1 0.6-0.1 0.9 0.1 0.3 0.2 0.2 0.5 0.1 0.8 0.1-0.2 0.4-0.5 0.7-0.6 0.3 0 0.5 0.4 0.7 0.6-0.2-0.2 0-0.7 0.1-0.8 0.3-0.3 0.6-0.2 0.9-0.1-0.2-0.2-0.4-0.5-0.3-0.8q0 0 0-0.2c0.1-0.2 0.3-0.5 0.5-0.4zm-1.2 2.3q0 0 0 0 0 0 0 0zm-2.4-0.9q0 0 0 0 0 0 0 0zm0.6-2.5q0 0 0 0 0 0 0 0zm3 1.1q0 0 0 0 0 0 0 0z"/><path class="b" d="m53.3 32.3q1.8 2.7 1.5 3.6-0.3 0.9-0.3 1.8-0.1 1.8-0.2 2.4c-0.5 1.9-2.4 4.2-3 5.8-0.8 2.1-3.9 1.2-4.5 2.8-0.7 1.7-1.1 2.9-1.3 3.2q-2.7-0.2-3.6 2.5l-7.6 6.7-3-0.9 0.2-1.5q-4.7-2.5-6.6-4.3-0.9-0.8-1.5-1l-2.4-0.8-5.1-3.4-7.2-7.6q-0.9-1.9-1.7-3.7c-0.2-1.8-0.4-3.7-0.7-5.5q0.3-0.4 0.5-0.8 0.1-0.1 0.1-0.1l3-0.3-2.4-4.3h47.4z"/><path class="c" d="m15 46.5c0.2 0.7 0.3 1.4 0.4 2.2l-6.2-6.6c0.9 0.2 1.7 0.5 2.5 0.8 1 0.5 2.6 1 3 2.1 0.2 0.5 0.2 1 0.3 1.5z"/><path class="d" d="m31.4 50.2c-0.5 4-2.1 5.9-2.6 6.6 0.1-0.8 0.2-1.6 0.4-2.4 0.4-1.5 0.7-2.9 0.6-4.4l0.3 0.1q1.4-0.6 1.3 0.1z"/><path class="e" d="m54.3 37.5q0.1 2 0 2.6c-0.5 1.9-2.4 4.2-3 5.8-0.8 2.1-3.9 1.2-4.5 2.8-0.7 1.7-1.1 2.9-1.3 3.2q-2.7-0.2-3.6 2.5l-7.5 6.6q0.2-0.5 0.4-0.9c0.7-1.6 2-3 3.4-4.2 0.6-0.6 1.3-1.1 1.9-1.7 0.6-0.7 0.4-1.4 0.8-2.2 0.9-1.6 1-3.3 1.4-5.1 0.3-1.9 1.3-4.1 1.2-6.1 0-0.9 0.1-1.9 0.1-2.9 0-1 0-1.9-0.3-2.9-0.2-0.7-0.5-1.4-0.8-2.1q-0.5-1.2-0.7-2.5c-0.2-1.8-0.1-3.6 0.2-5.4 0.2-2.2 0.5-3.7 0.9-5.9l12 7.7-1.6 5.5q1.9 2.2 1.6 3.1-0.4 0.9-0.6 2.1z"/><path class="f" d="m35.2 60.3c0.3-0.4 0.5-1.2 0.8-1.6 1.1-1.4 2-2.4 3.2-3.6 0.5-0.5 1.3-1 1.8-1.5q0.7 0.1 1.4 0-0.3 0.5-0.5 0.8z"/><path class="g" d="m54.3 40.1c-0.5 1.9-2.4 4.2-3 5.8-0.8 2.1-3.9 1.2-4.5 2.8-0.7 1.7-1.1 2.9-1.3 3.2q-0.6-0.1-1.2 0.1-0.1 0-0.2 0c-0.4 0.2-1.3 0.5-1.9 1.7-0.3 0.7-1.5 0.4-2.1 0.6 0.3-0.3 1-2.9 1.9-4.4 1.1-2.1 4.2-4.1 5-5.1 0.9-1.1 2.6-1.5 3.8-2.2 1.7-0.8 3.1-2.1 3.4-3.8 0.1 0.5 0.1 1 0.1 1.3z"/><path class="h" d="m54.3 40.1c-0.5 1.9-2.4 4.2-3 5.8-0.8 2.1-3.9 1.2-4.5 2.8q-0.4 1.1-0.7 1.9 0-0.2 0-0.5 0.2-2.3 0.1-4.6 0.5-0.4 0.8-0.7c0.9-1.1 2.6-1.5 3.8-2.2 1.7-0.8 3.1-2.1 3.4-3.8 0.1 0.5 0.1 1 0.1 1.3z"/><path class="i" d="m48.2 22l6.4 4.6c-0.4 1.1-0.7 2.4-1 3.5-0.4 1.5-1 3-1.5 4.5-0.5 1.5-1.2 2.9-2.2 4-0.4 0.4-0.8 0.7-1.2 1 0-0.7 0-1.5 0-2.2-0.1-1.8 0.2-3.6 0-5.4 0-0.9-0.2-1.8-0.3-2.7q-0.2-1.4-0.2-2.7c-0.1-1.5 0.1-3.1 0-4.6z"/><path class="j" d="m47.3 32.2q0 0 0 0-0.1 0.1-0.1 0.1 0 0-0.1 0c-1.2-0.1-2.4-0.1-3.6-0.2-0.4-0.1-0.9-0.1-1.4-0.1q-0.2-0.8-0.3-1.6c-0.2-1.8-0.1-3.6 0.2-5.4 0.2-2.2 0.6-3.5 0.9-5.7l5 2.5c-0.1 1.5-0.1 3-0.1 4.5 0 1.8 0.2 3.4 0.4 5.2 0.2 1.7 0 3.5-0.1 5.2 0 0.8 0 1.6 0 2.4-0.1-0.3-0.5-3.9-0.6-4.4 0-0.7 0.2-1.8-0.2-2.5z"/><path class="k" d="m16.8 36.4q-0.2 3.5-1.7 6.7 0-0.2-0.2-0.3-0.2-0.2-0.4-0.5 0-0.3 0-0.7c-0.1-1.4-0.8-2.3-1.9-3.2-1.3-0.9-2.4-1.8-3.5-2.9-0.9-1.1-1.8-2.2-2.7-3.2q0.2-0.4 0.4-0.7 0.1-0.1 0.1-0.1l3-0.3-2.4-4.4 5.9-4.2c0.8 2.2 1.9 4.3 2.6 6.5 0.8 2.4 0.9 4.9 0.8 7.3z"/><path class="l" d="m16.8 36.4q-0.2 3.5-1.7 6.7 0-0.2-0.2-0.3-0.2-0.2-0.4-0.5 0-0.3 0-0.7c-0.1-1.4-0.8-2.3-1.9-3.2-1.3-0.9-2.4-1.8-3.5-2.9-0.9-1.1-1.8-2.2-2.7-3.2q0.2-0.4 0.4-0.7 0.1-0.1 0.1-0.1l3-0.3-2.4-4.4 5.9-4.2c0.8 2.2 1.9 4.3 2.6 6.5 0.8 2.4 0.9 4.9 0.8 7.3z"/><path class="m" d="m16.8 36.4q-0.2 3.5-1.7 6.7 0-0.2-0.2-0.3-0.2-0.2-0.4-0.5 0-0.3 0-0.7c-0.1-1.4-0.8-2.3-1.9-3.2-1.3-0.9-2.4-1.8-3.5-2.9-0.9-1.1-1.8-2.2-2.7-3.2q0.2-0.4 0.4-0.7 0.1-0.1 0.1-0.1l3-0.3-2.4-4.4 5.9-4.2c0.8 2.2 1.9 4.3 2.6 6.5 0.8 2.4 0.9 4.9 0.8 7.3z"/><path class="n" d="m43.9 28.8c0 2.1-0.2 4.3-0.3 6.4-0.2 2.2-0.2 4.3-0.3 6.5-0.1 1.9-0.5 3.9-1.1 5.8-0.5 1.8-0.3 2.7-1.6 5.5q-0.1 0.2-0.2 0.5-0.4 0.3-0.6 0.6c-1.1 1.1-2 2.4-2.9 3.6q-1.1 1.5-2.2 3l-0.4 0.4-3-0.9 0.2-1.5q-0.2-0.1-0.5-0.3-0.3-0.2-0.9-0.5c-0.4-0.2-1-0.5-1.5-0.9 0-1.5 1.1-3.2 1.1-4.7-0.1-0.4-0.2-0.7-0.5-1-0.3-0.5-0.7-1-0.9-1.5q0 0 0 0c-0.2-0.8-0.8-1.5-1.4-2.2-1-1.2-2.3-2.1-3.3-3.3-1.2-1.5-2-3.1-2.5-4.8-0.3-0.8-2-4.2-2.1-5-0.2-0.6 0.7-1.2 1.1-1.8q0-0.1 0.1-0.2 0.2-0.5 0.3-1.1c0.1-0.6 0.1-1.2 0.1-1.7q0-0.5 0.1-1 0-0.4 0-0.8 0-0.6 0-1.3 0-1.2-0.1-2.4c-0.1-1.5-0.3-3-0.6-4.8l9 0.1h2.7l6.8 0.1 4.4 0.1c0.2 1.3 0.6 1.4 0.8 2.7q0.1 0.8 0.1 1.5c0.1 1.6 0.2 3.3 0.1 4.9z"/><path class="o" d="m31.3 60.2l0.2-1.5q0 0-0.1 0c0.3-0.6 0.7-3.8 1-4.6 0.3 1.3 1.9 6.1 1.8 6.9z"/><path class="p" d="m33.2 35.3c0 0.7-0.4 1.4-0.6 2.1-0.2 0.6-0.3 1.4-0.6 2-0.4-0.8-0.1-2.2-0.8-2.9-0.7-0.8-3.1-1.5-3.4-0.6-0.6 1.7 0.3 5.3 0.1 7.8-0.8-3.5-1.4-5.6-1.9-7.8-0.7-0.1-0.4 0.3-1 0.7q-0.8 0.6-1.8 3.4 1.8 5.2 1.8 5.8c-0.5-0.5-1-1-1.4-1.5-1.2-1.5-2-3.1-2.5-4.8-0.3-0.8-2-4.2-2.1-5q-0.1-0.2 0-0.4c1.4 0.2 3 0.2 4.5 0.2 1.8 0.1 3.6 0.2 5.4 0.6 1.4 0.3 2.9-0.1 4.3 0.4z"/><path class="q" d="m43.9 28.8c0 2.1-0.2 4.3-0.3 6.4-0.2 2.2-0.2 4.3-0.3 6.5-0.1 1.9-0.5 3.9-1.1 5.8-0.5 1.8-0.9 3.7-1.6 5.5q-0.1 0.3-0.2 0.5-0.4 0.3-0.6 0.6c-1.1 1.1-2 2.4-2.9 3.6q-1.1 1.4-2.1 2.9 0-0.4 0.1-0.9c0.2-1.7 0.3-3.3 0.6-4.9 0.4-2 0.9-3.9 1-5.9 0.1-2.1-0.3-4.1-0.4-6.2-0.2-2-0.1-4-0.2-6-0.2-2.1-0.5-4.2-0.8-6.3-0.2-2.1-0.3-4.1-0.6-6.2-0.4-1.9-0.6-3-0.6-5l9.1 0.2c0.2 1.3 0.5 1.7 0.7 3 0.2 2.1 0.3 4.3 0.2 6.4z"/><path class="r" d="m42.2 47.7c0.1 1-0.1 2.2-1.6 5.3q-0.1 0.2-0.2 0.5-0.4 0.3-0.6 0.6c-1.1 1.1-2 2.4-2.9 3.6q-1.1 1.4-2.1 2.9 0-0.4 0.1-0.9c0.2-1.7 0.3-3.3 0.6-4.9q0.2-0.7 0.3-1.4c1.8-1.1 3.6-2.3 5-3.8q0.8-0.9 1.4-1.9z"/><path class="s" d="m43.4 39.7q0 0.9-0.1 2c-0.1 2.7-0.8 6-2.6 8.2-0.6 0.7-1.4 1.2-2.1 1.8-0.6 0.5-1.1 1.1-1.7 1.6-0.4 0.3-0.6 0.4-1 0.7q-0.2 0.1-0.3 0.2c-0.1-0.1-0.2-0.2-0.2-0.2q-0.2-0.4-0.4-0.7c-0.8-1.7-1.3-3.8-1.7-5.7-0.7-2.6-1.1-5.4-1.8-8.1 4 0.4 7.9 0.4 11.9 0.2z"/><path class="t" d="m32.5 43.9c-0.3-1.4-0.6-2.9-1-4.4q1.1 0.1 2.1 0.2c-0.1 1.2 1.6 2.2 1.7 3.4 0.1 0.5-1.1 2.5-1.7 2.9q0 0-0.1 0c-0.8 0.5-0.9-1.5-1-2.1z"/><path class="u" d="m40.4 39.8c1.6 0 2.4-0.4 2.5 1.3 0.1 2.2-0.5 4.5-1.1 6.5-0.4 1.4-0.7 2.5-2.1 3.2-1.2 0.6-2.1 1.3-3 2.2-0.3 0.4-0.5 0.7-1 0.8-0.2-1 0.7-2.7 1-3.7q0.1-0.3 0-0.5c0.1-1.1-0.1-2.4-0.2-3.5 0-0.2 0-1.2 0-1.6-0.1-0.3-1.9-3.4-2.7-4.8 0.3 0.6 5.8 0.1 6.6 0.1z"/><path class="v" d="m36.5 44.5c-0.1-0.3-1.9-3.4-2.7-4.8 0.3 0.6 5.8 0.1 6.6 0.1 1.6 0 2.4-0.4 2.5 1.3q0 0.1 0 0.1c-0.2 0-0.5 0.1-0.6 0.1-0.4 0.1-0.7 0.3-0.9 0.5-1.4 0.7-2.5 1.7-3.4 3-0.6 0.7-1 1.5-1.4 2.4q0-0.6-0.1-1.1c0-0.2 0-1.2 0-1.6z"/><path class="w" d="m40.4 50.3q-0.3 0.3-0.7 0.5c-1.2 0.6-2.1 1.3-3 2.2-0.3 0.4-0.5 0.7-1 0.8-0.2-1 0.7-2.7 1-3.7q0-0.1 0-0.2 1.9 0 3.7 0.4z"/><path class="x" d="m42 48c-0.6 0.9-0.9 1.7-1.5 2.4 1.2-3.3 1.6-7.2 0.7-10.6q0 0 0 0c1-0.1 1.4-0.3 2.3-0.3 0.1 2.1 0.2 5.8-1.5 8.5z"/><path class="y" d="m54.1 39.7c-0.6 1-1.5 2.1-2.5 2.6-1 0.5-2.4 0.6-3.4 1.3-0.4 0.3-0.8 0.7-1.1 1.1-0.2-0.4-0.4-0.7-0.6-1-0.5-0.6-0.9-1.2-1.6-1.7 0.7-0.7 1.4-0.6 2.3-1.3q0.5-0.4 2.7-1.4c0.2-0.1 0.4-0.6 0.5-0.8 0.3-0.4 0.5-1 0.9-1.4 0.7-0.8 0.9-1.7 1.3-2.6 0.3-0.6 0.4-1.5 0.7-2.2 0.3 0.9 1.2 1.7 1.5 2.7 0.1 0.6-0.2 1.5-0.3 2.1q-0.1 0.2-0.1 0.4c-0.1 0.8 0.1 1.6-0.3 2.2z"/><path class="z" d="m54.1 39.7c-0.6 1-1.5 2.1-2.5 2.6-1 0.5-2.4 0.6-3.4 1.3-0.4 0.3-0.8 0.7-1.1 1.1-0.2-0.4-0.4-0.7-0.6-1-0.5-0.6-0.9-1.2-1.6-1.7 0.7-0.7 1.4-0.6 2.3-1.3q0.5-0.4 2.7-1.4c0.2-0.1 0.4-0.6 0.5-0.8 0.3-0.4 0.5-1 0.9-1.4 0.7-0.8 0.9-1.7 1.3-2.6 0.3-0.6 0.4-1.5 0.7-2.2 0.3 0.9 1.2 1.7 1.5 2.7 0.1 0.6-0.2 1.5-0.3 2.1q-0.1 0.2-0.1 0.4c-0.1 0.8 0.1 1.6-0.3 2.2z"/><path class="A" d="m41.8 49.8c0.5-1.1-0.3-1.1 1.1-3.6 0.5-1.1 1.8-3.9 1.8-3.9q0-0.1 0-0.1c0.3 0.6 0.7 1.1 1 1.7q0.4 0.5 0.7 1.1c0.1 0.2 0.1 0.1 0.1 0.2-1.2 0.4-2.8 2-4.7 4.6z"/><path class="B" d="m52.3 41.6q-0.5 0.4-0.9 0.6-0.3 0.1-0.6 0.2 0 0-0.1-0.1-0.4-1.5-1-3 0.1 0 0.2 0l0.1-0.3c0.4 0.6 0.8 1.1 1.2 1.6q0.5 0.5 1.1 1z"/><path class="C" d="m44.2 43.2c0.3-0.5 0.5-0.9 0.5-0.9 0.7-1 1.4-0.9 2.3-1.5q0.2 1.2 0.5 2.3 0.2 0.4 0.3 0.8c-0.4 0.4-1.5 1.4-1.7 1.6-0.1-0.3-0.2-0.2-0.4-0.5q-0.5-0.7-1.1-1.4-0.1-0.2-0.4-0.4z"/><path class="D" d="m44.6 42.4q0.1-0.1 0.1-0.1c0.3-0.5 0.7-0.7 1-0.8 0.4 1 1.1 2 1.6 3q-0.3 0.4-0.5 0.7-0.1 0.1-0.1 0.1c-0.7-1-1.3-1.9-2.1-2.9z"/><path class="E" d="m43.3 39.3c0.2 0 0.3 0.4 0.2 0.6-0.4 0.6-0.7 1.3-1.2 1.9-0.2 0.2-0.2 0.2-0.4 0.2-0.4 0.2-0.8 0.3-1.2 0.3-0.9 0.2-1.7 0.2-2.6 0.4-0.5 0-0.9 0.1-1.4 0.1-0.7-0.1-1.4-0.3-2.1-0.6-1.2-0.6-2.5-1.5-2.9-2.6q-0.1-0.1-0.1-0.1 0.4 0 0.8 0c1.3 0.1 2.6 0 4 0 2.3 0 4.6-0.1 6.9-0.2z"/><path class="F" d="m43.3 39.3c0.2 0 0.3 0.4 0.2 0.6-0.4 0.6-0.7 1.3-1.2 1.9-0.2 0.2-0.2 0.2-0.4 0.2-0.4 0.2-0.8 0.3-1.2 0.3-0.9 0.2-1.7 0.2-2.6 0.4-0.5 0-0.9 0.1-1.4 0.1-0.7-0.1-1.4-0.3-2.1-0.6-1.2-0.6-2.5-1.5-2.9-2.6q-0.1-0.1-0.1-0.1 0.4 0 0.8 0c1.3 0.1 2.6 0 4 0 2.3 0 4.6-0.1 6.9-0.2z"/><path class="t" d="m42.5 41.6q-0.1 0.1-0.2 0.2c-0.2 0.2-0.2 0.2-0.4 0.2-0.4 0.2-0.8 0.3-1.2 0.3-0.9 0.2-1.7 0.2-2.6 0.4-0.5 0-0.9 0.1-1.4 0.1-0.7-0.1-1.4-0.3-2.1-0.6-1.2-0.6-2.5-1.5-2.9-2.6q-0.1-0.1-0.1-0.1 0.4 0 0.8 0c0.9 0.1 1.8 0 2.7 0 1.2 1.1 2.8 1.7 4.5 1.9q1.4 0.2 2.9 0.2z"/><path class="G" d="m12.1 32.1q-1.6-4-1.1-4.2c0.8-0.4 2.7 1.3 3.4 1.7 0.6 0.5 4.1 2.6 4 3.4-0.1 1.3-2.7 0.2-3.3-0.1-0.9-0.3-1.6-1.1-1.7 0.2q0 0.9 0 1.8c0 0.4 0.1 0.9 0 1.3 0 0-0.2 0.6-0.2 0.5q-0.4-0.5-1.1-4.6z"/><path class="H" d="m24.5 51.8c-1.9-0.9-3.9-2.2-5.3-3.8-1.7-2.1-2.5-4.8-4-7-0.5-0.8-1.1-1.7-1.5-2.5q-0.1-0.3-0.1-0.5c1-0.4 1.9-1 2.7-1.6 0.3 0 0.4 0.1 0.8 0.5 1 1.5 2.9 7.3 3.3 8.5 0.2 0.6 0.7 0.9 1.2 1.4 0.5 0.5 0.9 1 1.4 1.5 1.1 1.1 1.1 2.1 1.5 3.5z"/><path class="I" d="m43.4 18.6l11.5 8.3q-2.8 1.9-5.5 3.9-0.4 0.3-0.7 0.5-0.9 0-1.8 0c-0.6 0.1-1.2 0.2-1.9 0.2-0.7 0.1-1.4 0.1-2 0.1q-0.1 0 0 0 0.9 0.1 1.8 0.2c0.7 0 1.5 0.3 2.2 0.4q0.2 0.1 0.3 0.1l-1.9 1.4c-0.6 0.4-1.1 1-1.7 1.3-0.8 0.5-2 0.3-3 0.3q-11.8 0.1-12.5 0c-0.7 0-0.6-0.6-0.6-0.8-0.1-0.9-0.3-1.8-0.3-2.8 0 0 0 0 0 0-0.2 0.8-0.4 1.6-0.7 2.4q-0.2 0.4-0.3 0.8 0 0.1-0.4 0.4h-2.5c-1.2 0-2.4 0.2-3.5 0q-0.3 0-0.5-0.1c-1.1-0.2-2.2-1-3.3-1.8-0.2-0.1-0.2-0.4 0-0.4 0.6 0 1.2 0 1.7 0q0.1 0 0 0c-0.5-0.1-1-0.2-1.4-0.5-0.5-0.2-0.9-0.5-1.4-0.7q-0.8-0.4-1.6-0.6-0.5-0.5-0.9-0.8l-5-3.5 11.2-8.1 1.3-0.4h22.6z"/><path class="J" d="m45.3 33.7c-0.5 0.4-1 1-1.6 1.3-0.8 0.5-2 0.3-3 0.3q-11.8 0.1-12.5 0c-0.7 0-0.6-0.6-0.6-0.8-0.1-0.9-0.3-1.8-0.3-2.8 0 0 0 0 0 0-0.2 0.8-0.4 1.6-0.7 2.4q-0.2 0.4-0.3 0.8 0 0.1-0.4 0.4h-2.5c-1.2 0-2.4 0.2-3.5 0q-0.3 0-0.5-0.1c-1.1-0.2-2.2-1-3.3-1.8-0.2-0.1-0.2-0.4 0-0.4 0.6 0 1.2 0 1.7 0q0.1 0 0 0c-0.5-0.1-1-0.2-1.4-0.5-0.5-0.2-0.9-0.5-1.4-0.7q-0.8-0.4-1.6-0.6-0.5-0.5-0.9-0.8l-5-3.5 11.2-8.1 1.1-0.3c-0.1 2.1 1.3 4.2 2.6 5.8 2 2.3 4.3 4.2 7.1 5.6 2.9 1.4 6 2.2 9.1 3 2.2 0.6 4.4 0.9 6.7 0.8z"/><path class="K" d="m25.9 55.2q-0.1 0-0.1-0.1-0.1-0.1-1.8-2.6-1.4 0.3-2 0.1c-0.1-0.1-3.4-2.6-5-3.9q-0.1-1-0.4-1.9c-0.5-1.7-1.7-2.9-3.4-3.6-1-0.4-1.9-0.8-2.9-1.1-0.6-0.2-1.1-0.4-1.6-0.5q-0.9-1.9-1.7-3.7c-0.2-1.8-0.4-3.7-0.7-5.5q0.3-0.4 0.5-0.8 0.1-0.1 0.1-0.1l1.5-0.2q0.7 1.3 1.7 2.4c1 0.9 2.1 1.6 3.3 2.1q0.3 0.6 0.6 1.1c0.5 0.9 0.3 1 0.8 1.9 0.7 1.2 2.1 3 2.7 4.2 0.6 1.1 1 2.3 1.7 3.3q1.3 1.9 4.9 4.3 1.8 4.4 1.8 4.6z"/><path class="L" d="m25.6 52.9c-0.1 0.8 0.3 1.5 0.3 2.3-0.8-0.7-1.3-1.8-1.9-2.7q-1.4 0.3-2 0.1c-0.1-0.1-3.4-2.6-5-3.9q0-0.6-0.2-1.1c0.1 0.2 3.2-1.2 3.4-1.3 1.5-0.4 3.3-0.5 4.8-0.3-0.1 1.4 0.8 2.7 0.8 4.2q0 0.2 0 0.5c-0.1 0.7-0.2 1.5-0.2 2.2z"/><path class="M" d="m14.2 37.2c-1.1 0.2-2.2 1.1-2.8 1.7-0.7 0.7-1.3 1.7-1.5 2.6q0 0.1 0 0.2-0.1-0.3-0.2-0.6c-0.3-1.1-0.7-2.2-0.8-3.3-0.2-1.6-0.4-3.2-0.5-4.9 0.1-0.4 0.2-0.9 0.2-1.3q0.6 1.1 1.5 2.1c1 0.9 2.1 1.6 3.3 2.1q0.3 0.6 0.6 1.1 0.1 0.2 0.2 0.3z"/><path class="N" d="m25 52.7c0.4 1.2 0.9 2.4 0.9 2.5q-0.1 0-0.1-0.1-0.1-0.1-1.8-2.6-1.4 0.3-2 0.1c-0.1-0.1-3.4-2.6-5-3.9q-0.1-1-0.4-1.9c-0.5-1.7-1.7-2.9-3.4-3.6-1-0.4-1.9-0.8-2.9-1.1q-0.4-0.1-0.9-0.3 0.7 0.1 5.2 1.3 2.6 2.7 3 4.5c0.4 1.9 2.4 2.6 3.6 3.9 0.3 0.2 0.5 0.6 0.9 0.7 0.4 0.1 0.9 0 1.4 0 0.5 0 1 0.2 1.5 0.5z"/><path class="O" d="m9.9 42q-0.6-0.2-1.2-0.4-0.9-1.9-1.7-3.7c-0.2-1.8-0.4-3.7-0.7-5.5q0.3-0.4 0.5-0.8 0.1-0.1 0.1-0.1l1.2-0.2c0.3 3.7 0 5.6 1.8 10.7z"/><path class="P" d="m16.9 36.5c-0.6 0.9-1.4 1.6-2.3 2.2q-0.4 0-0.9-0.1c-1.7-0.6-3.4-1.1-5-1.7q-0.1-0.1-0.2-0.1-0.1-0.1-0.2-0.2-0.9-1.5-1.8-2.9-0.1-0.6-0.2-1.3 0.3-0.4 0.5-0.8 0.1-0.1 0.1-0.2l2.9-0.3c0.5 1.1 0.6 2.2 1.7 2.9 1 0.8 2.3 1.2 3.5 1.7 0.7 0.2 1.3 0.5 1.9 0.8z"/><path class="Q" d="m16.9 36.5c-0.6 0.9-1.4 1.6-2.3 2.2q-0.4 0-0.9-0.1c-1.7-0.6-3.4-1.1-5-1.7q-0.1-0.1-0.2-0.1-0.1-0.1-0.2-0.2-0.9-1.5-1.8-2.9-0.1-0.6-0.2-1.3 0.3-0.4 0.5-0.8 0.1-0.1 0.1-0.2l2.9-0.3c0.5 1.1 0.6 2.2 1.7 2.9 1 0.8 2.3 1.2 3.5 1.7 0.7 0.2 1.3 0.5 1.9 0.8z"/><path class="R" d="m47.5 32.3c-0.5 0.6-1.4 1.1-2 1.6-0.4 0.3-0.8 0.5-1.2 0.8-0.7 0.5-1.3 0.9-2.3 1-0.9 0-1.8-0.1-2.7-0.1-2.3-0.1-4.6 0.3-6.9 0.1q-1.3 0-2.5-0.1c-0.8-0.1-1.6 0.5-2.3 0.1-0.5-0.4-0.5-1-0.5-1.6-0.1-0.4 0-0.9 0-1.3 0 0.6-0.5 1.4-0.6 2-0.2 0.5-0.4 1.2-0.3 1.7 0.1 0.5 0.7 3.4 1 4.3-0.5-0.9-1.4-3.7-1.7-4.2-0.5-0.7-1.4-0.4-2.2-0.5-0.7 0-1.8-0.4-2.4-0.2q-0.2 0.1-0.3 0.1c-0.5 0.5-1 0.4-1.6-0.2-0.3-0.5-1.5-1.3-2.1-1.2 0 0.5-0.1 1.1-0.1 1.5-0.1-1-1-2-0.8-3 2.9 2.6 5.8 2 6.8 2.1 0.9 0 2.1-0.2 2.9-0.8 0.8-0.6 1.1-2.1 1.6-3-0.1 0.2 0.1 0.9 0.1 1.1q0.1 0.6 0.2 1.2c0.1 0.4 0.1 1 0.7 1.1 0.5 0.2 1.2 0 1.7-0.1 1-0.1 1.9 0.2 2.9 0.2 2 0.1 4-0.1 6 0.1 1.2 0.1 2.6 0.4 3.7 0.2 1-0.2 2.1-1.5 2.7-2.2 0.6-0.7-0.1-0.7-0.7-0.9-0.5-0.2-1.1-0.2-1.5-0.4 0.7-0.2 1.5-0.1 2.3 0.1 0.6 0.1 1.6 0.1 2.1 0.5z"/><path class="S" d="m27.2 40.8c-0.5-0.9-1.4-3.7-1.7-4.2q-0.2-0.3-0.5-0.4c0.2-0.1 0.8-0.2 0.9-0.2q0.1 0 0.3-0.1-0.1 0.4 0 0.6c0.1 0.5 0.7 3.4 1 4.3z"/><path class="T" d="m22.1 41.5c0.8 1.5 2.1 2.6 3.1 4 0 0.2 0.7 3.4 0.9 5-0.9-2.6-1.2-4.6-1.4-4.8-0.4-0.4-0.9-1-1.3-1.4-0.7-0.9-1.7-1.9-2.2-2.9-0.6-1-0.9-2.1-1.4-3.2-0.2-0.6-0.5-1.8-0.8-2.5 0.6 0.4 1.5 0.1 1.9 0.2-0.7 0.6 0 2 0.2 2.5 0.3 0.6 0.6 1.1 0.7 1.8 0.2 0.4 0.2 0.9 0.3 1.3z"/><path class="U" d="m15.1 32.1c-0.9-0.2-1.6-0.4-2.3-0.9q-1-0.7-1.9-1.5c-0.2-0.1-1.8-1.6-1.7-0.9 0.1 0.4 0.4 0.8 0.6 1.2 0.3 0.6 0.4 1.2 0.6 1.7 0.1 0.5 0.4 1.1 0.4 1.7q-0.2-0.6-0.4-1.1c-0.6-1.4-3.1-5.5-3-5.7 0-0.3 1.6-1.3 2-1.5 0.6-0.3 1.1-0.5 1.6-0.8q0 0 0 0c-0.6 0.6-2.8 2.2-2.6 2.6 0.1 0.5 3.6 3 4.2 3.4 0.6 0.5 1.3 0.8 2 1.2 1 0.4 2.7 0.9 3.5 1.7 0.1 0.1-2.7-0.9-3-1.1z"/><path class="V" d="m14.7 38.6c-0.5 0.1-1 0-1.5-0.1-0.7-0.1-1.4-0.3-2.2-0.6-0.6-0.2-1.3-0.2-1.9-0.4 0 0.7 0.2 1.5 0.4 2.1 0.1 0.8 0.3 1.6 0.4 2.3-0.1-0.4-0.5-1-0.7-1.4-0.1-0.4-0.4-0.8-0.5-1.2-0.5-2.1-0.2-2-0.5-2.4-0.3-0.3-1.1-1.2-1.6-2.1q-0.1-0.7-0.2-1.5 0.2 0.4 0.5 0.8c0.4 0.7 0.9 1.8 1.6 2.2 0.5 0.3 1.1 0.4 1.7 0.6 0.6 0.1 1.1 0.3 1.6 0.5 1 0.4 2 0.7 2.9 1.1 0 0 0 0.1 0 0.1z"/><path class="W" d="m28.5 50.1l1.5 0.1q1.5-0.7 1.4 0c-0.6 4.7-2.7 6.6-2.8 6.9-0.9-0.6-3-1.7-4.3-7q-0.1-0.4 1.7 0.2-0.4-3.3-0.8-4.4 2.6 2 3.3 4.2z"/><path class="X" d="m31.5 50.1c-0.5 4.1-2.4 6.3-2.8 6.9 0-0.4 0.1-1 0.1-1.4 0.1-0.9 0.5-1.7 0.7-2.6 0.2-0.7 0.2-1.4 0.1-2.2-0.1-0.2-0.1-0.4-0.2-0.6h0.6q1.6-0.8 1.5-0.1z"/><path class="Y" d="m27.8 56.5c-1-0.7-2.5-2.3-3.5-6.4-0.1-0.3 1.2 0 1.6 0.2 0.1 0.3 0.4 0.7 0.4 1.1 0 0.8-0.1 1.3 0.2 2 0.3 0.8 0.7 1.4 1 2.2q0.2 0.4 0.3 0.9z"/><path class="Z" d="m28.5 50.4q2.3-0.6 2.8-0.6c0.1 0.1 0.2 0.3 0.1 0.5-0.2 0.6-1.5 2.4-1.7 2.5-0.5 0.1-2.4-0.1-3.6-0.4-0.3-0.1-1.5-1.4-1.8-2.3q0-0.1 0-0.2 0.1 0.1 1.4-0.5l0.3 0.9z"/><path class="t" d="m29.7 52.8q0 0 0 0c-0.5 0.1-2.4-0.1-3.6-0.4-0.3-0.1-1.5-1.4-1.8-2.3q0-0.1 0-0.2 0.1 0.1 1.4-0.5l0.3 0.9q3.4 2.4 3.7 2.5z"/><path class="l" d="m30.8 51.1c0.7-0.9 0.6-1.2 0.6-1.2 0.3 0.1-0.2 1.1-0.5 1.5q-0.2 0.3-0.4 0.6c-0.3 0.5-0.7 0.8-1 1.3-0.2 0.5-0.4 1.1-0.6 1.6q0.1-0.5 0.2-1.1c0-0.1 0.1-0.3 0.1-0.5-0.1-0.3-0.6-0.3-0.9-0.3q-0.5 0-1.1-0.1c0 0-0.8-0.1-0.8-0.1 0.2 0.5 0.4 1 0.6 1.5 0.1 0.3 0.2 0.6 0.3 0.8 0.1 0.3 0.3 0.6 0.4 0.9q-0.1-0.1-0.1-0.1c-0.2-0.2-0.4-0.6-0.6-0.9q-0.3-0.5-0.5-1c-0.2-0.4-0.3-0.8-0.5-1.2 0-0.2-0.1-0.3-0.2-0.4-0.6-0.7-1.4-1.4-1.5-2.4 0 0 0.1 0 0.1 0 0.1 0.6 0.7 1.2 1.2 1.7 0.4 0.4 1.2 0.6 1.8 0.7 0.4 0.1 1.9 0.6 2.2 0.2 0.2-0.2 0.4-0.5 0.6-0.7q0.2-0.2 0.4-0.5 0.1-0.1 0.2-0.3z"/><path class="a0" d="m43.5 39.8c-0.3 1.2-1.5 2.7-2.8 2.9q-1.8 0.4-3.8 0.4-0.4 0-0.8-0.1c0.2 0.2 0.9 2.9 0.6 5.3-0.1 0.9 0 1.9-0.4 2.7-0.2 0.7-0.6 1.8-0.5 2.5 0 0.1 2-1.2 2.3-1.7-0.3 0.6-0.7 1.1-1.2 1.5-0.6 0.4-1.2 0.8-1.3 1.5-0.2 0.7-0.5 2.4-0.6 3.1 0-0.7 0.1-2.3 0.1-3 0.1-0.6-0.1-1.2-0.1-1.7 0-0.4 0.2-0.9 0.4-1.3 0.3-0.9 0.9-1.7 0.9-2.7 0-1.7-0.3-4.9-1.1-6.3-0.6-0.2-1.2-0.4-1.6-0.8-0.9-0.6-1.8-1.6-2.1-2.7 0 0 0.1-0.1 0.1 0 0.7 0.8 1.3 1.6 2.3 2.1 1 0.4 1.9 0.7 3 0.7 2.1 0 4.8 0.3 6-1.7 0-0.1 0.7-0.8 0.6-0.7z"/><path class="t" d="m42.7 40.8c-0.1 0.1-1.3 2.2-6.6 2-0.3 0.2 0.7 2.3 0.1 4.9-0.1-1.7-0.4-3.8-1-4.8-0.6-0.2-1.2-0.4-1.6-0.8-0.9-0.6-1.8-1.6-2.1-2.7 0 0 0.1-0.1 0.1 0 0.7 0.8 1.3 1.6 2.3 2.1 1 0.4 1.9 0.7 3 0.7 2 0 4.5 0.3 5.8-1.4z"/><path class="t" d="m41.6 47c-0.2 1.2-0.5 2.3-1.1 3.3 0 0.1 0 0 0 0 0.1-1.1 0.4-2.2 0.6-3.4 0.1-0.5 0.6-3.5 0.6-3.5 0.1 0.5 0 1.3 0 1.9 0.1 0.6 0 1.1-0.1 1.7z"/><path class="a1" d="m43.5 39.6q0 0 0 0c-0.2 0.6-0.4 1.1-0.8 1.6-0.4 0.4-0.8 0.8-1.2 1.2-0.1 0 0 0.1 0 0.1 1.1-0.4 2.4-1.7 2-2.9z"/><path class="t" d="m16.9 36.6c0 0-1 0.8-1.2 1-0.5 0.4-1 0.7-1.5 1q0 0 0 0c1.3 0.9 3.7-1.2 2.7-2z"/><path class="a2" d="m25.1 36.2c-1.1 0.9-3-0.2-4.2-0.3q-0.1 0 0-0.1c0.6-0.1 1.2 0.1 1.9 0.2 0.8 0.1 1.4 0 2.2 0 0.1 0 0.2 0.1 0.1 0.2z"/><path class="u" d="m45.7 50.1q-0.1 0.4-0.1 0.7 0.1-0.4 0.1-0.7z"/><path class="u" d="m54.3 39q0 0.3 0 0.7c-0.1 0.8-1 1.3-1.4 1.9-0.3 0.4-0.6 0.9-1.1 1-1.5 0.4-2.9 1.1-4.1 1.9-0.5 0.3-1 0.7-1.2 1.2-0.3 0.6-0.2 1.2-0.3 1.8-0.1 0.6-0.2 1.2-0.3 1.8q-0.1 0.4-0.2 0.8 0.2-1 0.3-2.1 0-0.7 0-1.4c0.1-1-0.4-0.5-0.9-0.1-0.5 0.5-1 1.1-1.6 1.5-0.6 0.6-1.3 1.7-2 3 0.6-2.3 2.3-4.1 3.7-5.2 1.6-1.2 2.8-2.6 4.8-3.3q0.7-0.2 1.4-0.4c0.2 0 0.4-0.1 0.6-0.2 0.2-0.3 0.4-0.6 0.7-0.9 0.3-0.3 0.7-0.7 1-1 0.1-0.2 0.5-0.8 0.6-1z"/><path class="a3" d="m45.7 50.1q-0.1 0.4-0.1 0.7 0.1-0.4 0.1-0.7z"/><path class="a4" d="m54.3 39.1q0 0.3 0 0.6c-0.1 0.8-1 1.3-1.4 1.9-0.3 0.4-0.6 0.9-1.1 1-1.5 0.4-2.9 1.1-4.1 1.9-0.5 0.3-1 0.7-1.2 1.2-0.3 0.6-0.2 1.2-0.3 1.8-0.1 0.6-0.2 1.2-0.3 1.8q-0.1 0.4-0.2 0.8 0.2-1 0.3-2.1 0-0.7 0-1.4c0.1-1-0.4-0.5-0.9-0.1-0.5 0.5-1 1.1-1.6 1.5-0.6 0.6-1.3 1.7-2 3 0.6-2.3 2.3-4.1 3.7-5.2 1.6-1.2 2.8-2.6 4.8-3.3q0.7-0.2 1.4-0.4c0.2 0 0.4-0.1 0.6-0.2 0.2-0.3 0.4-0.6 0.7-0.9 0.3-0.3 0.7-0.7 1-1 0.1-0.2 0.4-0.8 0.6-0.9z"/><path class="u" d="m41.6 50.8c-0.3 0.5-0.6 1.1-0.8 1.7-0.2 0.4-0.3 0.9-0.5 1.3-0.2 0.7-0.9 1.1-1.4 1.6-1.6 1.5-2.8 4.1-4.5 5.6 0 0 0.2-0.6 0.2-0.6 1.1-1.7 2.2-3.7 3.7-5.2 0.6-0.6 1.3-1.2 1.7-1.9 0.4-0.9 1.1-1.7 1.6-2.6q0 0 0 0.1z"/><path class="a5" d="m41.6 50.8c-0.3 0.5-0.6 1.1-0.8 1.7-0.2 0.4-0.3 0.9-0.5 1.3-0.2 0.7-0.9 1.1-1.4 1.6-1.6 1.5-2.8 4.1-4.5 5.6 0 0 0.2-0.6 0.2-0.6 1.1-1.7 2.2-3.7 3.7-5.2 0.6-0.6 1.3-1.2 1.7-1.9 0.4-0.9 1.1-1.7 1.6-2.6q0 0 0 0.1z"/><path class="u" d="m43.5 38c0-0.9-0.1-1.9-0.1-2.8q0.1 0 0.1 0c0.3 0.9 0.6 2 0.6 3 0 0.5-0.5 1.3-0.6 1.3q0-0.8 0-1.5z"/><path class="a6" d="m43.5 38c0-0.9-0.1-1.9-0.1-2.8q0.1 0 0.1 0c0.3 0.9 0.6 2 0.6 3 0 0.4-0.4 1.2-0.6 1.2q0-0.7 0-1.4z"/><path class="u" d="m54.4 27.9c-0.1 1.1-0.5 2.3-0.7 3.4q-0.4 1.7-1 3.3c-0.4 1.1-0.9 2.2-1.4 3.3-0.4 0.7-0.7 1.4-1.6 1.6 0 0.1-0.1 0 0-0.1 0.6-0.6 1-1.6 1.4-2.4q0.8-1.5 1.3-3.2 0.5-1.5 1-3.1c0.3-0.9 0.5-1.9 1-2.8q0 0 0 0z"/><path class="a7" d="m54.4 27.9c-0.1 1.1-0.5 2.3-0.7 3.4q-0.4 1.7-1 3.3c-0.4 1.1-0.9 2.2-1.4 3.3-0.4 0.7-0.7 1.4-1.6 1.6 0 0.1-0.1 0 0-0.1 0.6-0.6 1-1.6 1.4-2.4q0.8-1.5 1.3-3.2 0.5-1.5 1-3.1c0.3-0.9 0.5-1.9 1-2.8q0 0 0 0z"/><path class="u" d="m55 35.7c-0.2 0.9-0.4 1.7-0.5 2.5 0 0.5 0 1.1-0.3 1.5 0 0.1 0 0 0 0 0.1-1.1 0-2.2 0.2-3.4 0.1-0.6 0.2-1-0.1-1.6-0.3-0.4-0.8-0.8-1.2-1.1-0.1-0.2 0-0.4 0.1-0.5 0.1-0.2 0-0.5 0.2-0.7 0.6 0.5 1.1 1.3 1.5 1.9 0.2 0.5 0.2 0.9 0.1 1.4z"/><path class="a8" d="m55 35.7c-0.2 0.9-0.4 1.7-0.5 2.5 0 0.5 0 1.1-0.3 1.5 0 0.1 0 0 0 0 0.1-1.1 0-2.2 0.2-3.4 0.1-0.6 0.2-1-0.1-1.6-0.3-0.4-0.8-0.8-1.2-1.1-0.1-0.2 0-0.4 0.1-0.5 0.1-0.2 0-0.5 0.2-0.7 0.6 0.5 1.1 1.3 1.5 1.9 0.2 0.5 0.2 0.9 0.1 1.4z"/><path class="u" d="m53.4 42.1c-0.4 1.1-1.3 2-1.6 3.1-0.3 0.8-0.6 1.5-1.4 2q-0.8 0.4-1.6 0.6c-0.5 0.2-1.2 0.4-1.6 0.8-0.8 0.9-1 2.1-1.3 3.2-0.1 0.1-0.2 0.2-0.3 0.2-0.7 0-1.4 0.2-2 0.5-0.7 0.4-0.9 0.8-1.2 1.5-0.2 0.5-0.6 0.8-1 1.2q-0.7 0.7-1.5 1.3c-1.1 1-2.2 1.9-3.3 2.9-0.7 0.6-1.4 1.4-2.3 1.7-0.1 0.1-0.2-0.1-0.1-0.1 0.6-0.3 1-0.9 1.4-1.3 0.5-0.6 1.1-1 1.6-1.5 1.1-1 2.2-1.9 3.3-2.9 0.5-0.5 1.2-1 1.5-1.6 0.2-0.5 0.4-0.9 0.8-1.3 0.7-0.5 1.7-0.9 2.6-0.9 0.3-1 0.5-2 1.2-2.9 0.6-0.8 1.3-1.1 2.2-1.4 0.6-0.3 1.5-0.5 1.9-1 0.3-0.4 0.5-0.9 0.7-1.4 0.6-1 1.5-1.7 2-2.7q0 0 0 0z"/><path class="a9" d="m53.4 42.1c-0.4 1.1-1.3 2-1.6 3.1-0.3 0.8-0.6 1.5-1.4 2q-0.8 0.4-1.6 0.6c-0.5 0.2-1.2 0.4-1.6 0.8-0.8 0.9-1 2.1-1.3 3.2-0.1 0.1-0.2 0.2-0.3 0.2-0.7 0-1.4 0.2-2 0.5-0.7 0.4-0.9 0.8-1.2 1.5-0.2 0.5-0.6 0.8-1 1.2q-0.7 0.7-1.5 1.3c-1.1 1-2.2 1.9-3.3 2.9-0.7 0.6-1.4 1.4-2.3 1.7-0.1 0.1-0.2-0.1-0.1-0.1 0.6-0.3 1-0.9 1.4-1.3 0.5-0.6 1.1-1 1.6-1.5 1.1-1 2.2-1.9 3.3-2.9 0.5-0.5 1.2-1 1.5-1.6 0.2-0.5 0.4-0.9 0.8-1.3 0.7-0.5 1.7-0.9 2.6-0.9 0.3-1 0.5-2 1.2-2.9 0.6-0.8 1.3-1.1 2.2-1.4 0.6-0.3 1.5-0.5 1.9-1 0.3-0.4 0.5-0.9 0.7-1.4 0.6-1 1.5-1.7 2-2.7q0 0 0 0z"/><path class="t" d="m24.3 51.1c-0.6-0.6-1.6-1-2.4-1.5-1.3-0.9-2.4-1.9-3.1-3.3-0.6-1.3-1.2-2.6-2.2-3.7-0.9-1.2-2.3-2.1-2.9-3.5q0 0 0 0 0-0.3-0.1-0.5 0.5 0 1-0.1 0.1 0.1 0.2 0.3c0.7 1.2 2.1 3 2.7 4.2 0.6 1.1 1 2.3 1.7 3.3q1.3 1.9 4.9 4.3 0.1 0.2 0.2 0.5z"/><path class="aa" d="m24.3 51.1c-0.6-0.6-1.6-1-2.4-1.5-1.2-0.8-2.2-1.7-2.9-3q0.1-0.1 0.3-0.2 1.4 1.9 4.8 4.2 0.1 0.2 0.2 0.5z"/><path class="ab" d="m35 60.8q0 0.2-0.7 0.3l-1.1-0.5q-0.7-5.7-0.8-6.3 0-0.1 0 0c0.6 1.3 2.7 5.7 2.6 6.5z"/><g style="opacity:.5"><path class="ac" d="m44.6 5.7q-0.1 0.1-0.3 0.1 0 0-0.1 0 0 0.1 0 0.2 0 0.2-0.2 0.4-0.1 0.1-0.2 0.1-0.1 0.1-0.3 0.1-0.1 0-0.2 0-0.2-0.1-0.3-0.2-0.1-0.1-0.1-0.2 0 0 0 0-0.1 0.1-0.2 0.1-0.1 0.1-0.3 0.1h-0.2q-0.1-0.1-0.3-0.2-0.1-0.2-0.1-0.5 0-0.3 0.2-0.5 0.1 0 0.2-0.1 0.1 0 0.3 0 0.1 0 0.1 0 0-0.1 0-0.1 0.1-0.2 0.2-0.3 0.1 0 0.2-0.1 0.1-0.1 0.3-0.1 0 0 0 0 0.1 0.1 0.2 0.1 0.1-0.1 0.2-0.1-0.1-0.1-0.1-0.2 0-0.2 0.1-0.3 0.1 0 0.2 0 0.2 0 0.3 0.1 0.1 0.1 0.1 0.2-0.1 0.2-0.2 0.2 0 0.1-0.1 0.1 0 0 0 0 0.1 0.2 0 0.3 0 0.1-0.1 0.1 0 0 0 0 0 0.1 0 0.1 0 0.1 0 0.2 0 0 0.1 0.1 0 0 0 0 0-0.2 0.1-0.2 0.1-0.2 0.3-0.1 0.1 0 0.2 0.1 0.1 0.1 0.1 0.3 0 0.1-0.1 0.2z"/><path class="ad" d="m40.9 4.6q0.1 0.2 0.1 0.3 0 0.1-0.1 0.2 0 0.1-0.1 0.3-0.1 0-0.2 0.1-0.2 0-0.3 0-0.2 0-0.3-0.1-0.2-0.1-0.3-0.3 0 0 0 0-0.2 0-0.4-0.2-0.2-0.2-0.1-0.4 0-0.2 0.2-0.4c0.1-0.1 0.2-0.2 0.4-0.2q0.2 0.1 0.4 0.2 0 0.1 0 0.1 0.2 0 0.4 0.1 0 0 0.1-0.1 0 0 0.1 0 0.1 0 0.1 0.1 0 0 0 0 0 0 0.1 0 0 0.1 0 0.2 0 0.1-0.1 0.1z"/><path class="ae" d="m50.3 4.9q0 0.1-0.1 0.1 0 0-0.1 0 0 0.2-0.2 0.3-0.1 0-0.1 0 0 0.1 0 0.1-0.1 0.2-0.3 0.3 0 0.1-0.1 0.1-0.2 0-0.3 0 0 0-0.1 0 0 0-0.1 0-0.2 0.1-0.4 0 0 0-0.1 0.1 0.2 0.2 0.1 0.5c-0.1 0.2-0.3 0.4-0.6 0.5q-0.1 0-0.2 0-0.3-0.1-0.5-0.3-0.1 0-0.1 0.1c-0.2 0.1-0.4 0.1-0.6 0-0.1-0.1-0.2-0.2-0.3-0.4 0-0.1 0-0.3 0.1-0.4q0.2-0.1 0.3-0.1 0.2 0 0.3 0 0.1 0.1 0.2 0.1c0.1-0.2 0.3-0.4 0.5-0.5q0.1 0 0.2 0-0.1-0.1 0-0.3 0.1-0.1 0.2-0.1 0-0.1 0.1-0.1 0-0.1 0-0.2c0.2-0.2 0.5-0.3 0.7-0.2q0.2 0.1 0.3 0.1 0 0 0 0 0.1 0.1 0.1 0.1c0.1-0.1 0.3-0.2 0.5-0.2q0.1 0 0.3 0.1 0-0.1 0.1-0.1 0.1 0 0.1 0c0.2 0.1 0.2 0.3 0.1 0.4z"/><path class="af" d="m44.8 7.2c-0.2 0-0.3 0-0.4-0.1-0.3-0.2-0.4-0.6-0.2-0.9 0.1-0.1 0.2-0.2 0.3-0.3 0.2-0.1 0.4-0.1 0.5 0 0.3 0.1 0.4 0.3 0.5 0.5 0.1 0.5-0.3 0.9-0.7 0.8z"/></g><path class="ag" d="m19 11.5q0 0.1 0.1 0.1 0 0.1 0 0.1 0.2 0 0.3 0.3 0 0 0 0 0.1 0 0.1 0 0.2 0.1 0.3 0.3 0.1 0.1 0.1 0.2 0 0.1 0 0.2 0 0.1-0.1 0.1 0.1 0.1 0.1 0.1 0 0.2 0 0.4 0 0 0 0.1 0.3-0.1 0.6-0.1c0.2 0.1 0.4 0.3 0.5 0.6q0 0.1 0 0.2-0.1 0.4-0.3 0.5 0 0.1 0.1 0.1c0.1 0.2 0.1 0.4 0 0.6-0.1 0.1-0.2 0.3-0.4 0.3-0.1 0-0.3 0-0.4-0.1q-0.1-0.1-0.1-0.3 0-0.1 0-0.3 0.1-0.1 0.1-0.2c-0.2 0-0.4-0.2-0.5-0.5q0-0.1 0-0.1-0.2 0-0.3-0.1-0.1 0-0.2-0.1 0-0.1 0-0.1-0.1-0.1-0.2-0.1c-0.2-0.1-0.3-0.5-0.2-0.7q0-0.1 0.1-0.3 0 0 0 0 0.1 0 0.1-0.1c-0.2-0.1-0.3-0.3-0.3-0.4q0-0.2 0.1-0.3 0-0.1 0-0.1 0-0.1 0-0.2c0.1-0.1 0.2-0.2 0.4-0.1z"/><path class="ah" d="m18.2 13.8q0 0 0.1 0.1 0.1 0.1 0.1 0.2 0 0.1-0.1 0.3-0.1 0.1-0.2 0.1-0.1 0-0.1 0-0.1 0.1-0.1 0.1-0.2 0.2-0.4 0.2-0.3 0-0.6-0.2 0 0 0 0c-0.3 0.1-0.6 0.2-0.8 0.2q-0.3-0.1-0.4-0.2-0.2-0.1-0.3-0.3c-0.2 0-0.5 0-0.7-0.2q-0.1 0-0.2-0.1-0.1-0.1-0.2-0.2c-0.1-0.3-0.5-1.1 0.1-1.3q0.1 0 0.1 0 0.1 0 0.1 0c0.2-0.2 0.4-0.3 0.7-0.3 0.4 0.1 0.6 0.4 0.7 0.8q0 0 0 0c0.4-0.2 0.9-0.1 1.1 0.2q0 0 0 0 0.1 0 0.2 0 0.3 0 0.6 0.2 0.2 0.1 0.3 0.4z"/><path class="ai" d="m17.7 11.3q0.2 0.1 0.3 0.1 0 0.1 0.1 0.2 0.1 0.1 0.1 0.2 0 0.1 0 0.2 0 0.2-0.1 0.3-0.1 0.1-0.2 0.2-0.2 0-0.4 0 0 0 0 0-0.1 0.2-0.3 0.2-0.2 0-0.4-0.1-0.2-0.1-0.2-0.4c-0.1-0.1 0-0.3 0-0.4q0.2-0.1 0.4-0.2 0 0 0.1 0 0.1-0.1 0.2-0.2 0 0 0-0.1 0 0 0-0.1 0.1 0 0.2-0.1-0.1 0.1-0.1 0.1 0-0.1 0.1-0.1 0.1 0 0.1 0.1 0.1 0 0.1 0.1z"/><path class="aj" d="m28.5 30.1q0 0 0-0.1c-1-2.7-5.8-2.6-8-2.6-0.9 0-4.8 0.1-4.6 1.5 0.1 0.7 1.4 1.5 1.9 1.9 1.3 1 3.6 2.4 5.2 1.8 0.4-0.2 0.7-0.5 1-0.8 0.2-0.1 0.9-0.5 1-0.7 0.8-1.1-3.8-1.6-4.5-1.3 0.1 0.8 1 1.7 1.8 1.9-1.2-0.3-2.5-0.7-3.4-1.6-2.1-1.9 2.4-1.2 3.1-1.1 1.6 0.3 2.9 0.7 4.5 1.3-1.4 0.6-2.2 2.6-3.6 3-1.1 0.4-3.1-0.6-4.1-1-1.5-0.7-3-1.6-4.1-2.8-0.5-0.5-0.9-0.9-0.7-1.6 0.1-0.6 1-1.1 0.7-1.7-0.3-0.6-1.3-0.3-1.8-0.2-1.3 0.1-2.5 0.1-3.7 0 0.6-0.7 1.6-1.1 2.4-1.7 0.8-0.7 1.7-1.4 2.6-2.1 0.9-0.8 1.8-1.7 2.6-2.6 0.7-0.7 2-1.8 1.9-3 0.7 0 1.5 0.3 2.2 0.1 0.1 0 1.4-0.8 1.3-0.8 0.7 0.4 1 1.1 1.9 1.2 0.8 0.2 1.5-0.4 2-1 1-1 1.5-2.7 2.1-3.9 0.9-1.6 1.2-3.3 1.4-5.1 0.1-1 0.4-1.3 1.3-0.6 0.9 0.7 1 0.8 2.2 0.5 1.4-0.4 2.8-0.3 4.1-0.6 0.3-0.1 0.9-0.5 1.2-0.4 0.5 0.1 0.7 1.1 0.8 1.6 1.5 3.8 3.2 7.6 5.5 11 0.9 1.4 2.3 2.5 3.5 3.7 1 1.1 2.5 2.1 3.2 3.3 0.7 1.5 0.2 2.7-1.2 3.5-1.1 0.8-3.2 1.5-4.6 1.5-0.8 0.1-4.7-0.9-4.6 0.7 0 0.7 1.6 0.9 1.3 1.6-0.3 0.7-2.2 0.8-2.9 0.8-1.4 0.1-2.8 0.2-4.2 0.1-0.8 0-1.5 0-2.2 0-1.3 0-3 0.3-4.2 0-1.5-0.5 0-2.4-0.3-3.7z"/><path class="ak" d="m13.5 22.7q0.3-0.2 0.7-0.5c0.9-0.8 1.8-1.7 2.6-2.6 0.5-0.5 1.3-1.2 1.7-2-0.1 0.5-0.2 1.1-0.4 1.6-0.4 0.9-1.2 1.6-2 2.1-0.8 0.6-1.6 1-2.5 1.4q0 0-0.1 0z"/><path class="al" d="m22.2 15.9c0.7 0.4 1 1.1 1.9 1.2 0.5 0.1 0.9-0.1 1.3-0.3q-0.1 0.6-0.3 1.2-0.1 0.5-0.5 0.6 0 0 0 0c0.2-0.4 0-0.9-0.4-1-0.6-0.1-1.6-0.5-1.7-1.2q0-0.3-0.3-0.5z"/><path class="am" d="m47.5 32.2c-2.5 3.6-5.5 3.8-9 3.6-1.5 0-3.5-0.3-4.9-0.5-1.4-0.1-2.9-0.5-4.3-0.3-0.7 0.1-1.2 0.3-1.6-0.3-0.3-0.4-0.2-2.8-1.1-2.6-0.4 0.2-0.5 1.3-0.6 1.7-0.3 0.7-0.6 1.3-1.4 1.6-0.9 0.3-2.1 0.2-3.1 0.2-1.6 0-3.2-0.4-4.4-1.5-1.1-1-2.5-1.6-3.7-2.6-0.9-0.7-1.7-1.7-2.6-2.4-0.9-0.7-2.1-0.9-2.6-2-0.4-0.9 1.4-1.8 2-2.3 1.2-0.9 2.5-1.4 4-1.7 0.8-0.2 1.5-0.3 2.2-0.6 0.6-0.2 1.1-0.8 1.8-0.8-0.1-0.4-0.4-0.8-0.5-1.2 0.5-0.1 1.4-0.7 1.8-0.4-0.3 0.3-0.7 0.3-1 0.6 0.3 0.2 0.6 0.6 0.9 1-0.6 0-1.6 0.6-2 1 1.5 2.7 6.4 4.1 9.3 4.9 4.6 1.3 10.5 0.2 11-5.4 1 1.7 3 3 4.4 4.4-2.2 1.8 0.8 2.4 1.8 3.3q0.3 0.3 0.7 0.7c0.9 0.7 1.7 1.6 2.9 1.6z"/><path class="an" d="m52.3 24.9c0.8 0.5 1.6 1.1 2.4 1.5 0.1 0.6-1.9 2.1-2.4 2.5-0.9 0.7-2.1 1.2-3.1 1.9-1.4 0.9-2 0.7-3.3-0.1-1.1-0.6-2.4-0.9-2.9-2.1 4.9-0.4-2.7-4.2-2.6-4.3 0.4-0.4 1.1-0.3 1.6-0.7-1.2-1-3-0.9-4.2-1.6-0.9-0.5-1.1-1.8-1.3-2.8-0.1-0.5-0.3-1-0.2-1.6 0-0.7 0.2-1.3 0.4-1.9 0.1-0.3 0.2-0.7 0.4-0.8 0.2 0 0.6 0.2 0.8 0.2-0.2-0.2-0.4-0.3-0.7-0.5-0.2-0.1-0.2-0.2-0.4 0-0.3 0.2-0.6 0.7-0.8 1-0.4-1.1-1.1-2-1.8-2.9-0.8-0.9-2.1-2.1-1.8-3.4 0.2-0.9 1.5-1.5 2.4-1.2 0.5 0.2 0.7 0.8 1.2 0.9 0.6 0.1 1.3-0.2 1.6-0.8 0.2-0.3 0.4-1.2 0.8-1.3 0.4 0 0.6 0.7 0.7 0.9 0.5 1.3 0.8 2.7 1.2 4.1q0.2 0.5 0.5 1c0.2 0.1 0.5 0 0.7 0.1 0.1 0 0 1.3 0 1.5 0.1 0.5 0.1 1.1 0.2 1.6 0.1 0.3 0.4 0.5 0.6 0.8 0.3 0.4 0.6 0.8 1 1.2 2.3 2.7 5.6 4.7 8.6 6.5q0.2 0.2 0.4 0.3z"/><path class="ao" d="m30.7 7.7c-0.6-0.2-1.4-1-0.8-1.7 0.3-0.4 1 0 1.4 0.1 0.2 0.1 0.5 0.2 0.7 0.1 0.3 0 0.6-0.3 0.9-0.4 0.5 0 0.9 0.1 1.3 0.1 0.3 0 0.5-0.2 0.8-0.3 0.4-0.2 0.8-0.2 1.2 0 0.3 0 0.5 0.2 0.8 0.2 0.4 0.1 0.7 0 1 0 0.5 0.1 0.4 0.4 0.3 0.9-0.1 0.3-0.2 0.8-0.4 1.1-0.4 0.6-1.3 0.9-1.4 1.7q1.1 0.1 2.1-0.2c0.2 0 1.4 3.5 1.6 3.8 0.4-0.1 0.8 0 1.3 0.1 0 1.1 0 2.4 0 3.6-0.4-0.9-0.3-1.9-0.6-2.8-0.1-0.2-1.2 0-1.4 0.1-0.2-0.6-0.5-1.2-0.8-1.8-0.3-0.4-0.5-1.3-0.8-1.6-0.6-0.6-1.5 0.1-2.1-0.7-0.4-0.6-0.6-0.6-1.3-0.6-0.6 0-1.4-0.2-1.8 0.4q-0.3 0.5-1.2 2.2l2 0.5-1.9 4q0.6 0.6 1.6 2.8l-2.8-2.3 2.3-4-2 0.3q-0.4-1.6-1-1.9c0.4-0.4 0.8-0.8 1.1-1.4 0.2-0.4 0.1-0.6 0-1.1q0-0.3 0-0.5-0.1-0.4-0.1-0.7z"/><path class="ap" d="m19.8 16.8c0.4 0.1 0.8 0.1 1.3-0.1 0.3-0.1 0.6-0.4 1-0.4 0.2 0.2-0.1 0.7-0.2 1-0.4 0.5-1 0.8-1.6 0.7-0.1 0.3-0.1 0.6-0.1 0.8-0.1 0.4-0.2 0.8-0.2 1.2-0.2-0.3-0.1-0.8-0.2-1.1 0-0.4 0.1-0.7-0.3-0.9-0.4-0.2-0.9-0.3-0.9-0.8 0-0.4 0.3-0.4 0.7-0.4 0.1 0 0.3 0 0.5 0z"/><path class="aq" d="m22 17.3c-0.3 0.6-0.9 0.8-1.5 0.7 0.6 0.1 1.6-0.8 1.5-1.5-0.4-0.1-0.8 0.5-1.2 0.5q-0.1 0.1-0.3 0.1c-0.3 0-1.1-0.3-1.4-0.2-0.4 0.2 0 0.5 0.2 0.7 0.3 0.2 0.6 0.1 0.7 0.5q0 0.3 0 0.7 0 0.6 0 1.2c-0.1-0.3-0.2-0.8-0.3-1.2q0-0.3-0.1-0.5c-0.3-0.6-1.3-0.5-1.2-1.3 0-0.6 1.1-0.4 1.5-0.3q0.3 0 0.6 0 0.2 0 0.2 0c0.3-0.1 0.6-0.2 0.8-0.4 0.2-0.1 0.3-0.3 0.5-0.4q0.1 0 0.2 0c0.6-0.1-0.1 1.3-0.2 1.4z"/><path class="ar" d="m16.7 23q0-0.1 0.1-0.1 0 0 0 0c0.1-0.2 0.4-0.3 0.6-0.2 0.5 0.1 0.7 0.8 0.3 1.1q-0.2 0.2-0.4 0.2 0 0 0.1 0-0.1 0-0.2 0-0.3 0-0.4-0.2 0 0 0 0-0.1-0.1-0.1-0.1c-0.2-0.2-0.2-0.5 0-0.7z"/><path class="as" d="m28.9 7.4q0.1-0.1 0.2-0.1 0 0 0 0c0.1-0.2 0.4-0.3 0.6-0.2 0.5 0.1 0.7 0.8 0.3 1.1q-0.2 0.2-0.4 0.2 0 0 0.1 0-0.1 0-0.2 0-0.3 0-0.4-0.2-0.1 0-0.1 0 0-0.1 0-0.1c-0.2-0.2-0.2-0.5-0.1-0.7z"/><path class="at" d="m38 7.5q0-0.1 0.1-0.1 0 0 0 0c0.1-0.2 0.4-0.3 0.6-0.2 0.5 0.1 0.7 0.7 0.3 1.1q-0.1 0.2-0.4 0.2 0 0 0.1 0-0.1 0-0.2 0-0.3 0-0.4-0.2 0 0 0 0-0.1-0.1-0.1-0.1c-0.2-0.2-0.1-0.5 0-0.7z"/><path class="au" d="m54.5 41.2c-0.6 1-1.3 2-2.1 2.7 0.7-0.8 1-1.9 1.5-2.9 0.2-0.6 0.6-1-0.1-1.4-0.9-0.5-2.2-0.4-3.2-0.5-1.3-0.1-1.2-0.7-1.3-1.8-0.1-1.7 0.3-3.4 0-5-0.2-1.2-1.4-0.8-2.2-1.2-0.5-0.2-0.9-0.9-1.2-1.3-0.5-0.6-0.7-1.3-1-2-0.4-1.1-0.2-2.3-0.7-3.3q-0.1-0.3-0.4-0.6c-0.5-0.5-1.4-0.8-2-1.2-1-0.5-1.9-1-2.5-1.8q-0.5-0.6-0.8-1.3c-0.6-1.5-0.5-3.2-0.2-4.8 0.3-1.1 0.5-2.4 0.2-3.5-0.2-0.9-1.7-2.2-2.1-0.8-0.2 0.5-0.1 1.1 0.1 1.5 0.2 0.6 0.8 2.3-0.3 2.4-1.4 0.1-0.5-2.3-0.4-3 0.1-0.9 0.6-2.4-0.3-3-1-0.8-3-0.4-3.3 0.8-0.2 0.9-0.1 1.4-0.7 2.2-0.4 0.6-0.9 1.1-1.4 1.6-0.4 0.6-0.7 1.2-0.9 1.9-0.3 1.1-0.5 2.8 0.5 3.6 0.6 0.5 1.3 0.8 2 1q0.4 0.2 0.8 0.3c1.4 0.5 3 1.1 3.9 2.3 1.1 1.5 0.1 3.3-1.4 3.9-1 0.5-2 0.7-3 0.9-3.4 0.5-6.9-0.4-10.3-0.4q-0.5 0-1 0.1c-1.7 0.5-3.3 1.8-2.2 3.5 0.1 0.2 0.4 0.4 0.6 0.5q0.6 0.5 1.4 0.8 0.1 0 0.1 0.1c1.3 0.4 2.5 0.4 3.6-0.4 0.3-0.3 0.6-0.6 0.6-1 0-0.4-0.2-0.5-0.6-0.5-0.9-0.3-1.9-0.6-2.9-0.4-0.5 0-1.1 0.3-0.8 0.8 0.3 0.5 1 1.1 1.5 1.1-1.1-0.2-2.3-0.4-2.9-1.4-0.8-1.2 1.5-1.7 2.2-1.8 0.7 0 1.4-0.2 2.1-0.1 1.7 0 3.2 0.4 4.9 0.8 0.4 0.1 1.7 0.4 1.5 1.1-0.1 0.2-1 0.6-1.2 0.7-1.3 0.8-1.7 1.7-1.8 3.1-0.2 1.4 0 2.8 0.2 4.2 0.1 0.8 0.1 1.6 0.1 2.5 0.1 0.6-0.1 1.4 0.2 2.1 0.2 0.5 0.7 1 1.1 1.5 0.7 0.9 1.1 2.1 1 3.2 0 0.8-0.8 2.6 0.3 3 0.5 0.2 1-0.3 1.5 0.3 0.3 0.4-0.1 1.4-0.1 1.9 0 2.1-0.1 4.2-0.1 6.2q-0.3-0.2-0.9-0.5 0.1-0.2 0.1-0.4c0.1-1.5 0.3-2.8 0.2-4.3 0-1 0-1.2-1.1-1.2h-0.1c-0.5 0-0.6-0.6-0.8-1.2 0-0.2 0-0.6-0.1-0.8 0-0.7-0.1-1.5-0.3-2.2-0.2-0.9-0.6-1.7-1.1-2.5-0.4-0.6-0.8-1.4-1-2.1-0.3-0.9 0-2.2 0-3.2q0-1.7-0.2-3.4c-0.1-0.9-0.2-2.1-0.9-2.8-0.9-0.9-2.5-0.8-3.7-0.9q-0.5-0.1-1-0.2c-1.8-0.3-3.5-1-5.1-1.8-1.4-0.7-2.3-2-3.6-2.6-0.5-0.2-1.2-0.5-1.6-0.1-0.4 0.4-0.3 1-0.3 1.5 0.1 0.6 0.2 1.3 0.3 1.9 0.1 0.7 0.2 1.5 0.3 2.2 0.1 1.1 0 1.4-1 1.9-0.9 0.5-1.3 1.4-1.1 2.5 0.1 1.1 1 2.4 0.9 3.5-0.6-1-1.4-2-1.5-3.2q-0.1-1.1-0.1-2.2c0-0.8 0-0.9 0.7-1.1 0.5-0.2 1-0.3 1.2-0.7 0.3-0.8-0.3-2-0.4-2.7-0.2-1.3-0.5-2.5-0.6-3.7-0.4-2.7 3.8-3.3 5.7-3.6q2.9-0.5 5.9-0.3 0.4 0 0.8 0c2.4 0.3 4.6 1.1 7 1.6 1.5 0.4 2.9 0.1 4.4-0.2 1.2-0.2 2.2-1.7 1.5-2.9-0.6-1.1-2.1-1.1-3-1.8q-1-0.6-1.5-1.4c-1.5-2-1.3-4.6 0.1-6.8 0.5-0.9 1.4-1.3 2-2.1 0.5-0.6 0.4-2.5-0.1-3.1-0.4-0.4-0.9-0.3-0.8-1 0.7-0.1 1.3 0.5 2 0.2 0.3-0.1 0.5-0.4 0.9-0.5 0.5 0 0.9 0.1 1.3 0.1 0.3-0.1 0.6-0.3 1-0.3 0.4 0 0.6 0.2 1 0.4 0.6 0.3 1.8-0.6 1.3 0.6-0.8 2.2 1.7 3.7 2 5.7 0.1 1.1 0.5 2 0.8 3 0.4 1.2 0.5 2.7 1.6 3.5 1.1 0.8 2.3 0.9 3.1 2.1 1.3 1.8 0.2 4 1.1 5.8 0.4 0.8 1 1.6 1.9 1.8 1.4 0.4 2.2 0.3 2.9 1.8 0.4 1.1 0.2 2.4 0.2 3.5 0 0.7-0.4 1.6-0.1 2.3 0.3 0.8 1.1 0.9 1.8 0.9 2.2 0.2 2.3 2.3 1.5 3.8z"/><path class="av" d="m54.4 38.2c0.6 0.8 0.5 2.2 0.1 3-0.6 1-1.3 2-2.1 2.7 0.7-0.8 1-1.9 1.5-2.9 0.2-0.6 0.6-1-0.1-1.4-0.9-0.5-2.2-0.4-3.2-0.5-1.3-0.1-1.2-0.7-1.3-1.8 0-1.3 0.1-2.5 0.1-3.8 0.1-1 0.3-1.6-0.9-2.1-0.3-0.2-1.2 0-1.2-0.5 0.2-0.1 0.6 0 0.8-0.1-0.3-0.4-1.6-0.5-1.7-1.1 0.4 0.1 1.3 0.6 1.5 0.3-0.2-0.3-0.7-0.4-0.9-0.6-0.4-0.3-0.8-0.7-1.1-1 0.6 0.3 1.1 0.7 1.8 0.8 0.7 0.2 1.5-0.1 2.2 0.2 0.6 0.3 0.9 0.8 1.2 1.3 0.9 2.3-0.9 4.3-0.4 6.5 0.2 0.9 1.3 0.7 2.3 0.6 0.6 0 1.1 0.1 1.4 0.4z"/><path class="aw" d="m30 5.7q-0.1 0.6-0.3 1.2 0.6 0.2 1.2 0.6 0.1 0.1 0.1 0.2c-0.1 0.6 0.2 1.2 0.2 1.8 0 0.5-0.3 0.8-0.6 1.2-0.7 1-1.4 2-1.9 3.1 0 0-0.1 0-0.1 0 0.1-1.2 1-2.3 1.7-3.3 0.4-0.4 0.7-0.8 0.5-1.4q-0.1-0.4-0.2-0.8c-0.1-0.4-0.1-0.6-0.4-0.8q-0.4-0.2-0.9-0.4c0 0-0.1-0.2 0-0.2 0.2-0.5 0.4-0.9 0.4-1.5 0-0.1 0.1-0.1 0.2-0.1q0.9 0.4 1.7 1 0 0 0 0c-0.2-0.1-1.6-0.6-1.6-0.6z"/><path class="ax" d="m30 5.7q-0.1 0.6-0.3 1.2 0.6 0.2 1.2 0.6 0.1 0.1 0.1 0.2c-0.1 0.6 0.2 1.2 0.2 1.8 0 0.5-0.3 0.8-0.6 1.2-0.7 1-1.4 2-1.9 3.1 0 0-0.1 0-0.1 0 0.1-1.2 1-2.3 1.7-3.3 0.4-0.4 0.7-0.8 0.5-1.4q-0.1-0.4-0.2-0.8c-0.1-0.4-0.1-0.6-0.4-0.8q-0.4-0.2-0.9-0.4c0 0-0.1-0.2 0-0.2 0.2-0.5 0.4-0.9 0.4-1.5 0-0.1 0.1-0.1 0.2-0.1q0.9 0.4 1.7 1 0 0 0 0c-0.2-0.1-1.6-0.6-1.6-0.6z"/><path class="ay" d="m38.9 6c-0.1 0.7-0.2 1.4-0.6 2.1q-0.2 0.2-0.5 0.4 0-0.3-0.1-0.5 0 0 0-0.1c0.5-0.5 0.6-1.1 0.8-1.8-0.3-0.1-0.5-0.1-0.8-0.3q0-0.1 0-0.1 0.5 0.1 0.9 0.1c0.1-0.1 0.3 0 0.3 0.2z"/><path class="az" d="m29.9 22.8c0.3 0.2 1.2 0.5 1.6 0.1 0.3-0.4-0.3-1-0.7-1.1 1 0.3 2.7 0.9 2.4 2.3-0.4 1.8-3.1 1.6-4.5 1.6-2.7 0.2-5.7-0.5-6.4-3.4-0.1-0.6-0.1-1.4-0.4-1.9-0.2 1-0.7 2-0.8 3 0-1 0-1.9 0-2.9 0-0.5-0.1-1 0-1.5 0.1-0.6 0.5-0.7 0.8-1 0.5-0.4 0.6-0.8 0.6-1.4 0.3 0.3 0.5 0.5 0.8 0.7 0.3 0.1 1 0 1.1 0.3 0.1 0.2-0.3 0.8-0.4 1-0.3 0.3-0.6 0.5-0.9 0.7 0.3 0 0.6 0 0.8-0.1 0.7-0.1 1.2-0.5 1.7-0.9 0.3-0.2 0.5-0.5 0.8-0.8 0.2-0.2 1-0.6 1-0.8-0.1 0.7-0.7 1.2-1 1.8-0.5 1.1-0.1 2 0.7 2.7 0.8 0.8 2 1.3 2.8 1.6z"/><path class="aA" d="m47.3 30c-1.7 0.2-2.2-2.1-2.3-3.3-0.2-1.1-0.3-2.3-1-3.1-0.8-0.9-1.8-1.2-2.8-1.6-1.8-0.8-3-2.2-3-4.3 0.1-2.4 1.6-5.1 0.2-7.3-0.1-0.1 0-0.1 0-0.1 1.5 1.6 1 3.9 0.7 5.8-0.1 1.2-0.3 2.6 0.3 3.6 0.6 0.9 1.5 1.4 2.4 1.7 1.8 0.7 3.2 1.7 3.6 3.6 0.2 0.9 0.3 1.7 0.4 2.6 0.2 1.1 0.4 1.8 1.5 2.3 0.1 0 0.1 0.1 0 0.1z"/><path class="aB" d="m35.5 13.8c-0.2-1 0.1-2.2 0.4-3.1q0 0 0.1 0c-0.2 1 0 1.9 0.2 2.9 0.3 0.4-0.6 0.9-0.7 0.2z"/><path class="aC" d="m41.6 20.5q0 0.1-0.1 0.1c-0.2 0.2-0.6 0-0.7-0.2q-0.2-0.3-0.3-0.6 0 0 0 0c0.1 0.1 0.2 0.2 0.4 0.3q0.2 0 0.3 0.1c0.2 0 0.4 0.1 0.4 0.3z"/><path class="aD" d="m40.4 19c0 0.1 0 0.1-0.1 0.1q-0.4-0.1-0.5-0.5c0-0.2-0.1-0.4 0.1-0.6q0.1 0 0.1 0c0.3 0.2 0.4 0.7 0.4 1z"/><path class="aE" d="m40 19.5c-0.2-0.1-0.4-0.3-0.3-0.5 0-0.1 0.1-0.1 0.1 0q0 0 0.1 0 0 0.1 0 0.1 0.1 0.1 0.2 0.2c0.1 0.1 0 0.2-0.1 0.2z"/><path class="aF" d="m43.8 21.5c-0.3 0.3-0.7-0.1-0.8-0.3q-0.2-0.1-0.4-0.3c-0.1-0.1-0.1-0.2-0.2-0.3q0-0.1 0-0.1c0.2 0.1 0.4 0 0.5 0.1 0.2 0 0.4 0.1 0.5 0.2 0.2 0.1 0.6 0.5 0.4 0.7z"/><path class="aG" d="m45.2 22.8c0 0.1-0.1 0.1-0.1 0-0.1-0.1-0.1-0.3-0.2-0.5-0.1-0.1-0.2-0.3-0.2-0.5-0.1 0 0 0 0 0 0.2 0.1 0.4 0.3 0.5 0.5 0 0.2 0.1 0.4 0 0.5z"/><path class="aH" d="m47 28.4c-0.6 0-1-0.6-0.9-1.1 0-0.1 0-0.1 0.1 0 0.2 0.3 0.8 0.5 0.9 1 0 0.1-0.1 0.2-0.1 0.1z"/><path class="aI" d="m48.6 27.7c-0.2 0.2-0.6 0.2-0.9 0.1q-0.4-0.3-0.7-0.8 0 0 0 0c0.2 0.2 0.5 0.4 0.8 0.5 0.3 0.1 0.5 0 0.7 0.1 0.1 0 0.1 0 0.1 0.1z"/><path class="aJ" d="m43.5 25.1c0 0-0.1 0.1-0.1 0.1-0.3-0.2-0.4-0.4-0.6-0.6-0.2-0.2-0.3-0.4-0.5-0.6 0-0.1 0-0.1 0.1-0.1 0.3 0.1 0.5 0.3 0.7 0.5 0.2 0.2 0.4 0.4 0.4 0.7z"/><path class="aK" d="m49.8 34.8q-0.2 0.9-0.6 1.8c0 0.1 0 0.1 0 0 0.1-1.2 0.4-2.4 0.2-3.7-0.1-0.9-0.4-1.4-1.4-1.7-0.4-0.2-0.8-0.3-1.1-0.6q0-0.1 0-0.1c0.5 0.4 1 0.4 1.6 0.4 0.2 0.1 0.5 0.1 0.7 0.2 0.5 0.4 0.7 0.9 0.8 1.5 0.1 0.7-0.1 1.5-0.2 2.2z"/><path class="aL" d="m54.5 39c0.5 0.7 0.3 1.5 0 2.2-0.3 0.5-0.9 0.8-1.1 1.4 0.2-0.6 1.1-2.1 0.9-2.7-0.4-0.9-2.7-1.2-3.5-1.1 0.8-0.2 2.7-0.6 3.5 0.1q0.1 0 0.2 0.1z"/><path class="aM" d="m32.2 8.5c-0.1 0.1-0.2 0.4-0.2 0.5-0.2 0.4-0.3 0.7-0.5 1.1-0.4 0.8-1 1.3-1.7 1.8 0.3-0.7 1-1.3 1.3-2 0.2-0.7-0.1-1.5-0.1-2.2 0-1.2-1.6-2.2-2.7-2.4 0 0 2.2 0.4 2.6 0.5q1.2 0.2 0.3-1.4c0.2 0.2 0.6 0.5 1 0.5 0.5 0.1 0.4-0.4 0.3-0.8q0-0.3-0.4-1.8 0.8 1.9 1.2 1.9c0.6-0.1 0.8-1.8 0.8-2.3 0.2 0.6 0.1 1.3 0.2 2 0.1 0.6 0.4 0.9 1 0.4q0.2-0.2 1.5-1.9-0.6 1.2-0.9 1.8c-0.2 0.3-0.3 0.5 0.1 0.4q0.5-0.1 1.4-0.7-1.3 1.2-1.2 1.7c0.1 0.9 2.2 0.1 2.5-0.2-1.2 1.1-2.4 1.7-2.4 3.6-0.2-0.3-0.4-0.7-0.7-0.9q-0.6-0.3-1.1-0.3c-0.8-0.1-1.8 0.2-2.3 0.7z"/><path class="aN" d="m37.1 7c0.2 1.6-0.9 3.1-2.7 3.4-1.7 0.3-3.3-0.8-3.6-2.4-0.2-1.6 0.9-3.2 2.7-3.4 1.7-0.3 3.3 0.7 3.6 2.4z"/><path class="aw" d="m35.9 8.9c-0.5-0.5-1.2-0.6-1.8-0.6-0.6-0.1-1.3 0-1.7 0.6q0 0 0 0c0.1-0.7 0.9-1 1.5-1.1 0.4 0 0.9 0 1.2 0.1 0.3 0.2 0.5 0.4 0.7 0.7q0 0.1 0.1 0.3z"/><path class="aO" d="m35.9 8.9c-0.5-0.5-1.2-0.6-1.8-0.6-0.6-0.1-1.3 0-1.7 0.6q0 0 0 0c0.1-0.7 0.9-1 1.5-1.1 0.4 0 0.9 0 1.2 0.1 0.3 0.2 0.5 0.4 0.7 0.7q0 0.1 0.1 0.3z"/><path class="aP" d="m31 8.4c0 0.3 0.1 0.5 0.1 0.8-0.2-0.3-0.3-0.7-0.4-1-0.1-0.2-0.1-0.4-0.2-0.5q-0.2-0.3-0.3-0.5 0 0 0 0c0.2 0.1 0.4 0.1 0.5 0.3q0.2 0.1 0.2 0.3c0.1 0.2 0.1 0.4 0.1 0.6z"/><path class="aQ" d="m46.9 31.4c0.4 0.1 0.4-0.1 0.8-0.1 0.4 0 0.7 0 0.8 0.3 0.1 0.3 0 0.9 0 1.2 0 1.1-0.1 2.1-0.1 3.2 0 0.6-0.1 1.1 0 1.7 0 0.5-0.1 0.9-0.2 1.4 0.1-0.6-0.2-1.3-0.3-1.9-0.1-0.7-0.2-1.4-0.3-2.1-0.1-1-0.2-2-0.2-3.1-0.8 0-1.5 0-2.2-0.2-0.7-0.1-1.5 0-2.2-0.1 0.1-0.6-0.4-1.4-0.9-1.8-0.6 0.5-1 1.1-1.4 1.7-0.4 0.7-0.6 1-0.6 1.8-0.5 0-0.9-0.3-1.3-0.4-0.6-0.2-1.2-0.4-1.8-0.6-1-0.4-2.2-0.6-3.2-0.9 0.3-0.3 0.9-0.5 1.3-0.8q0.6-0.3 1.2-0.7c0.1-0.1 0.8-0.7 0.7-0.7-1-0.1-2-0.1-3-0.3-0.7-0.2-1.4-0.3-2-0.8q0 0 0 0c0.7 0.5 1.6 0.5 2.4 0.5 1 0.1 2-0.1 3.1-0.1 0.2 0 0.3 0.2 0.3 0.3 0 1.1-1.3 1.6-2 2.1 1 0 2 0.4 2.9 0.5 0.3 0 0.7 0 1 0.1 0.7-0.6 0.8-1.8 1.5-2.4-0.6-0.2-1-0.5-1.6-0.8 0.4-0.3 0.9-0.6 1.3-0.8 0.6-0.2 0.4-0.9-0.2-1.1-0.3-0.1-1 0-1.3 0.1-1 0-2.3 0.2-3.2-0.1 0.6 0.1 1.4-0.3 2-0.4q0.3-0.1 0.7-0.2c-0.3-0.5-0.7-1-1-1.5 0.7-0.4 1.4-0.5 2.1-0.8-0.2 0.2-1.3 0.6-1.4 0.8 0 0.2 0.8 1.2 1 1.4 0 0 0.9-0.4 1.1-0.4 0.2 0.1 0.5 0.4 0.7 0.5 0.3 0.2 0.6 0.4 1 0.6 0.4 0.3 0.7 0.7 1 1-0.5 0.3-1.2 0.2-1.8 0.2 0.3 0.5 0.7 0.8 1.1 1.1 0.5 0.4 0.9 0.9 1.5 1.2 0.6 0.3 1.2 0.6 1.8 0.9q0.1 0.1 0.1 0.1c0.3 0.1 0.5 0.3 0.8 0.4z"/><path class="aR" d="m49.5 26.2c-1.3 1.3-4.9-0.1-8-3.2-3.1-3.1-4.6-6.6-3.3-8 1.3-1.3 4.9 0.1 8 3.2 3.2 3.1 4.6 6.7 3.3 8z"/><path class="aS" d="m26.5 42.7c0 0-0.1 0-0.1 0-0.1-1.1-0.3-2.1-0.4-3.1q0-1.5-0.1-2.9c-0.1-0.8-0.2-1.8-0.6-2.6-0.5-0.8-1.3-0.9-2.1-1.4q0 0 0.1 0c0.8 0.4 1.7 0.3 2.3 1.1 0.5 0.6 0.7 1.5 0.7 2.2q0.2 1.6 0.4 3.2c0 1.2-0.1 2.3-0.2 3.5z"/><path class="aT" d="m30.7 54.1c0 0.1-0.1 0.1-0.1 0 0-1 0.2-2.5-0.9-3-0.7-0.2-1.3-0.6-1.4-1.3-0.2-1.3 0.4-2.8-0.4-4-0.5-0.8-1.2-1.4-1.4-2.3-0.1 0 0-0.1 0 0 0.5 1.1 1.6 1.7 2.2 2.7 0.2 0.4 0.3 1.1 0.3 1.7 0 0.6-0.2 1.8 0.3 2.2 0.6 0.5 1.5 0.5 1.7 1.3 0.2 0.9 0.1 1.9-0.3 2.7z"/><path class="aU" d="m10.9 25.7c-1.1 0.4-1.9 1.6-1.9 2.8-0.1 1 0.1 2 0 3-0.1 0-0.9-2.6-0.8-4 0-0.5 0.5-1.2 0.9-1.5 0.6-0.4 1.1-0.4 1.8-0.4 0 0 0 0 0 0.1z"/><path class="aV" d="m9.5 34.4c0.2 0.2 0 0.7-0.2 0.9-0.2 0.3-0.6 0.3-0.9 0.6-0.3 0.3-0.5 0.7-0.5 1.1-0.1 0.4-0.1 0.9 0 1.3 0 0.4-0.1 1 0.1 1.3-0.5-1-0.9-2.7-0.6-3.8 0.1-0.6 1-0.5 1.6-0.7 0.3-0.1 0.5-0.3 0.5-0.7z"/><path class="aW" d="m26 30.2c-0.2 1-1.5 1.5-2.5 1.4 0 0-0.1-0.1 0-0.1 0.6-0.3 1.4-0.5 1.4-1.2 0-0.2 0.1-0.4 0-0.5-0.3-0.4-0.8-0.6-1.2-0.7-1.1-0.2-2.4-0.5-3.4 0.1q0 0 0 0c0.4-0.6 1.3-0.8 1.9-0.9 0.9-0.2 1.9-0.2 2.7 0.2 0.7 0.3 1.2 0.9 1.1 1.7z"/><path class="aX" d="m18.1 31.8c-1.3-0.2-2.7-0.7-3.6-1.7-0.6-0.5-1.2-1.3-2-1.7-0.5-0.3-1.1-0.5-1.7-0.9q0 0 0.1 0c0.5 0.3 1.2 0.4 1.8 0.6 0.7 0.4 1.3 0.9 1.9 1.3 1.2 0.9 2.3 1.6 3.5 2.3 0.1 0 0.1 0.1 0 0.1z"/><path class="aY" d="m13.7 26c-0.3 0.2-0.7 0.1-1.1 0.3 0 0-0.1-0.1 0-0.1 0.3-0.3 0.7-0.5 1.1-0.4 0.1 0 0.1 0.1 0 0.2z"/><path class="aZ" d="m16.6 25.7c-0.1 0-0.3 0-0.4 0-0.2 0.1-0.3 0.1-0.5 0.1-0.1 0-0.1-0.1-0.1-0.2 0.2-0.2 0.7-0.4 1-0.3 0.1 0.1 0.1 0.3 0 0.4z"/><path class="b0" d="m14.2 26.6c0 0 0 0 0 0 0.3-0.2 1.3-0.7 1.4-0.2 0.2 0.5-1.1 0.3-1.4 0.2z"/><path class="b1" d="m17 26.6q-0.4 0-0.8-0.1 0 0 0-0.1c0.2-0.2 0.5-0.2 0.8-0.2 0.3-0.1 0.3 0.4 0 0.4z"/><path class="b2" d="m16.9 27.2c0 0.2-0.4 0.5-0.6 0.4-0.3 0-0.6 0-0.8-0.1q-0.1 0-0.1-0.1c0.2-0.2 0.5-0.3 0.7-0.4 0.2-0.1 0.5-0.1 0.8 0q0 0.1 0 0.2z"/><path class="b3" d="m18.9 25.7c-0.1 0.3-0.8 0.5-1.1 0.2 0 0 0-0.1 0-0.1 0.3-0.2 0.7-0.6 1.1-0.4 0.1 0.1 0.1 0.2 0 0.3z"/><path class="b4" d="m18.9 26.5c-0.2 0.2-0.6 0.4-0.9 0.2 0 0 0-0.1 0-0.1 0.1-0.2 0.4-0.4 0.7-0.4 0.2 0 0.3 0.2 0.2 0.3z"/><path class="b5" d="m20.7 25.6c-0.2 0.1-0.4 0.1-0.7 0.1q-0.1 0-0.3 0-0.1 0-0.2 0 0 0 0-0.1c0-0.2 0.3-0.3 0.4-0.3 0.2-0.1 0.5-0.2 0.7 0 0.1 0 0.2 0.2 0.1 0.3z"/><path class="b6" d="m22.3 25.6c-0.1 0.1-0.3 0.1-0.5 0.1q-0.1 0-0.3-0.1c0 0-0.1 0-0.2-0.1-0.2-0.2 0.8-0.8 1-0.3q0.1 0.2 0 0.4z"/><path class="b7" d="m23.6 25.6c-0.1 0.1-0.3 0.1-0.4 0q-0.2 0-0.3-0.1c-0.1-0.1-0.1-0.1 0-0.2q0.1-0.1 0.3-0.1c0.1 0 0.3 0 0.4 0.1 0 0.1 0 0.2 0 0.3z"/><path class="b8" d="m20.7 26.3q-0.1 0-0.2 0-0.1 0-0.1-0.1c-0.1 0-0.1-0.1 0-0.1q0-0.1 0.1-0.1 0.1 0 0.2 0c0.1 0 0.2 0 0.2 0.1 0.1 0.2-0.1 0.2-0.2 0.2z"/><path class="b9" d="m18.9 25.1c-0.2 0-0.4 0.1-0.6 0-0.1 0-0.1-0.1-0.1-0.1 0.1-0.2 0.3-0.3 0.6-0.3 0.1-0.1 0.3-0.1 0.4 0.1 0 0.2-0.2 0.2-0.3 0.3z"/><path class="ba" d="m14.9 27.3q-0.1 0.3-0.4 0.5c-0.2 0.1-0.6 0-0.7-0.3-0.1-0.2 0.1-0.3 0.3-0.3 0.2 0 0.3 0.1 0.4 0.1q0.2 0 0.4-0.1 0 0 0 0.1z"/><path class="bb" d="m12.9 27.3c-0.3 0.1-0.5 0-0.7-0.2 0 0 0-0.1 0.1-0.1 0.2-0.2 0.4-0.1 0.6-0.1 0.2 0 0.4 0 0.5 0.2 0 0.2-0.4 0.2-0.5 0.2z"/><path class="bc" d="m11.6 26.6q-0.3 0.2-0.6 0.4c-0.2 0.1-0.4 0.2-0.6 0.1q-0.1-0.1 0-0.2c0.1-0.2 0.4-0.3 0.5-0.3 0.3-0.1 0.5-0.1 0.7-0.1 0.1 0 0.1 0.1 0 0.1z"/><path class="bd" d="m13.1 25.3c-0.1 0.3-0.5 0.3-0.8 0.2q0 0 0-0.1 0.1 0 0.2-0.1 0.1-0.1 0.2-0.1c0.1-0.1 0.3-0.1 0.4 0q0 0 0 0.1z"/><path class="be" d="m15 25.4c-0.3 0.1-0.5-0.1-0.8-0.2 0 0 0-0.1 0.1-0.1 0.2 0 0.5 0 0.7 0.1 0.1 0.1 0.1 0.2 0 0.2z"/><path class="bf" d="m27 28.9c-0.1 0.3-0.5 0.2-0.7 0.2-0.2-0.1-0.4-0.2-0.5-0.4q0 0 0 0c0.2 0 0.4 0.1 0.6 0.1 0.2 0 0.4-0.1 0.5 0q0.1 0.1 0.1 0.1z"/><path class="bg" d="m27.8 29.3q-0.1 0-0.2-0.1 0 0-0.1-0.1-0.1 0-0.1-0.1 0 0-0.1-0.1 0-0.1 0.1-0.1 0 0 0.1 0 0.1 0 0.2 0c0.1 0 0.3 0.1 0.3 0.2 0.2 0.2 0 0.4-0.2 0.3z"/><path class="bh" d="m29.2 29.5c-0.2 0.1-0.3 0-0.4 0-0.1 0-0.2 0-0.3-0.1 0-0.1 0.2-0.2 0.2-0.2 0.1 0 0.2 0 0.3 0q0.1 0 0.2 0c0.1 0.1 0.1 0.2 0 0.3z"/><path class="bi" d="m27.6 29.9c-0.4 0.2-0.8-0.2-1.1-0.3 0 0 0-0.1 0-0.1 0.2-0.1 0.4-0.1 0.5-0.1 0.2 0 0.4 0 0.6 0.1 0.2 0.1 0.1 0.4 0 0.4z"/><path class="bj" d="m28.7 29.9q-0.3 0.1-0.6 0.1c0 0 0-0.1 0-0.1 0.2-0.1 0.3-0.2 0.5-0.2 0.1 0 0.2 0.2 0.1 0.2z"/><path class="bk" d="m27 30.7c-0.2 0.2-0.6 0.2-0.8 0.4-0.1 0-0.1 0-0.1-0.1q0.1-0.3 0.3-0.4c0.1-0.1 0.3-0.2 0.5-0.2 0.1 0.1 0.2 0.2 0.1 0.3z"/><path class="bl" d="m26.5 31.9c0.1 0.2 0 0.5-0.3 0.6q-0.1 0-0.2-0.2c-0.3-0.3 0.2-0.8 0.5-1 0.1 0 0.1 0 0.1 0.1-0.1 0.2-0.1 0.3-0.1 0.5z"/><path class="bm" d="m26.3 33.9c0 0.1-0.1 0.1-0.1 0-0.1-0.3-0.1-0.6 0-0.9 0 0 0.1 0 0.1 0 0.1 0.3 0.1 0.6 0 0.9z"/><path class="bn" d="m23.7 32.4c-0.3 0.3-1 0-1.3-0.2 0 0 0 0 0 0 0.3 0 0.5 0.1 0.7 0 0.2 0 0.4 0 0.5 0.1q0.1 0 0.1 0.1z"/><path class="bo" d="m25.2 32.3c0 0.1 0 0.3-0.2 0.3-0.2 0-0.4-0.1-0.6-0.3 0 0-0.2-0.2-0.2-0.3 0-0.1 0.3-0.2 0.4-0.1 0.3 0 0.6 0.1 0.6 0.4z"/><path class="bp" d="m25.7 33.2c0 0.1-0.1 0.1-0.2 0.1-0.1-0.1-0.1-0.2-0.1-0.3q0-0.1 0-0.2 0-0.1 0-0.1c0.1-0.1 0.1-0.1 0.2 0q0 0 0.1 0.1 0 0 0 0.1c0.1 0.1 0.1 0.2 0 0.3z"/><path class="bq" d="m15.5 28.8q-0.1 0-0.1 0c-0.2 0-0.2-0.1-0.3-0.1q-0.2-0.1-0.4-0.2c-0.1 0-0.3-0.1-0.3-0.2q0 0 0-0.1c0.3-0.1 1.2 0.1 1.1 0.6z"/><g style="opacity:.7;mix-blend-mode:color-dodge"><path class="br" d="m16.7 30q0 0 0 0c0 0.1-0.1 0.2-0.2 0.2q0 0 0 0-0.1 0-0.1 0 0 0 0 0c-0.2 0-0.3-0.2-0.4-0.4-0.1-0.1-0.1-0.3-0.2-0.5q0-0.1 0.1-0.1 0.3 0 0.5 0.3c0.1 0.1 0.3 0.3 0.3 0.5z"/><path class="bs" d="m16.5 30.2q0 0 0 0h-0.1q0 0 0 0 0 0 0.1 0 0 0 0 0z"/></g><path class="bt" d="m17.9 31.2c-0.1 0.1-0.3 0-0.4-0.1q-0.1-0.1-0.3-0.2 0-0.1 0-0.2c-0.1-0.1 0-0.2 0.1-0.1 0.1 0 0.2 0 0.2 0q0.2 0.1 0.3 0.2c0.1 0.1 0.3 0.3 0.1 0.4z"/><path class="bu" d="m19.1 31.6c-0.1 0-0.2 0-0.4 0-0.1 0-0.1-0.2 0-0.2q0.2 0 0.4 0c0.2 0 0.2 0.2 0 0.2z"/><path class="bv" d="m16.3 28.6c-0.2-0.1-0.2-0.2-0.3-0.3q-0.2-0.2-0.4-0.3c0 0 0-0.1 0-0.1 0.2 0.1 0.4 0.1 0.6 0.1 0.2 0.1 0.3 0.2 0.4 0.4 0.1 0.2-0.2 0.3-0.3 0.2z"/><path class="bw" d="m17.4 29.6c0 0.1-0.1 0.1-0.2 0.1-0.2 0-0.3-0.2-0.3-0.3-0.1-0.2-0.1-0.3-0.1-0.4q0-0.1 0-0.1c0.2 0 0.3 0.1 0.4 0.2 0.1 0.2 0.3 0.3 0.2 0.5z"/><path class="bx" d="m18.2 30.7q0 0.1 0 0.1c-0.2-0.1-0.4-0.4-0.5-0.5-0.1-0.1 0-0.2 0.1-0.1q0.1 0.1 0.2 0.2c0.1 0.1 0.2 0.2 0.2 0.3z"/><path class="by" d="m17.6 27.8c-0.2 0.1-0.4-0.3-0.4-0.4-0.1-0.2-0.3-0.4-0.3-0.6q-0.1-0.1 0-0.1 0.4 0.1 0.6 0.3c0.2 0.2 0.4 0.6 0.1 0.8z"/><path class="bz" d="m17.8 29c0 0.1-0.2 0.1-0.2 0.1-0.2-0.1-0.2-0.3-0.3-0.4 0-0.2 0-0.4 0.1-0.5q0-0.1 0.1 0c0.2 0 0.2 0.2 0.3 0.3 0 0.2 0.1 0.3 0 0.5z"/><path class="bA" d="m35 24.4c-0.6 1-2.3 1.2-3.4 1.3-0.1 0-0.1 0 0-0.1 1-0.4 3.3-1.1 2.8-2.6-0.5-1.4-1.6-2-2.8-2.7-1.6-0.9-3.9-2.3-3.2-4.5q0 0 0 0c-0.7 3.2 3.8 3.8 5.6 5.2 1 0.8 1.8 2.2 1 3.4z"/><path class="bB" d="m36.4 7.1c0 0.4-0.3 0.7-0.7 0.7-0.3 0-0.7-0.3-0.7-0.7 0-0.4 0.4-0.7 0.7-0.7 0.4 0 0.7 0.3 0.7 0.7z"/><path class="bC" d="m32.8 4.3c0 0.4-0.3 0.7-0.7 0.7-0.4 0-0.7-0.3-0.7-0.7 0-0.4 0.3-0.7 0.7-0.7 0.4 0 0.7 0.3 0.7 0.7z"/><path class="bD" d="m34.3 6.2c0 0.2-0.2 0.4-0.4 0.4-0.2 0-0.4-0.2-0.4-0.4 0-0.3 0.2-0.4 0.4-0.4 0.2 0 0.4 0.1 0.4 0.4z"/><path class="bE" d="m32 24.9c0 0.2-0.2 0.4-0.4 0.4-0.2 0-0.4-0.2-0.4-0.4 0-0.2 0.2-0.4 0.4-0.4 0.2 0 0.4 0.2 0.4 0.4z"/><path class="bF" d="m31.1 23.7c0 0.2-0.1 0.4-0.3 0.4-0.3 0-0.4-0.2-0.4-0.4 0-0.2 0.1-0.4 0.4-0.4 0.2 0 0.3 0.2 0.3 0.4z"/><path class="bG" d="m31.7 22.8c0 0.2-0.2 0.4-0.4 0.4-0.2 0-0.4-0.2-0.4-0.4 0-0.2 0.2-0.4 0.4-0.4 0.2 0 0.4 0.2 0.4 0.4z"/><path class="bH" d="m31.1 22.3c0 0.2-0.1 0.4-0.3 0.4-0.3 0-0.4-0.2-0.4-0.4 0-0.2 0.1-0.4 0.4-0.4 0.2 0 0.3 0.2 0.3 0.4z"/><path class="bI" d="m32.4 7.9c0 0.4-0.3 0.7-0.7 0.7-0.3 0-0.6-0.3-0.6-0.7 0-0.3 0.3-0.7 0.6-0.7 0.4 0 0.7 0.4 0.7 0.7z"/><path class="bJ" d="m36.1 4.3c0 0.4-0.3 0.7-0.7 0.7-0.4 0-0.7-0.3-0.7-0.7 0-0.4 0.3-0.7 0.7-0.7 0.4 0 0.7 0.3 0.7 0.7z"/><path class="bK" d="m31.4 2.9c0 0.4-0.3 0.7-0.7 0.7-0.4 0-0.7-0.3-0.7-0.7 0-0.4 0.3-0.7 0.7-0.7 0.4 0 0.7 0.3 0.7 0.7z"/><path class="bL" d="m36.6 1c0 0.4-0.3 0.7-0.7 0.7-0.4 0-0.7-0.3-0.7-0.7 0-0.4 0.3-0.7 0.7-0.7 0.4 0 0.7 0.3 0.7 0.7z"/><path class="bM" d="m22.5 25.1c0.1 1.8-3.4 3.6-7.7 3.8-4.4 0.3-8-1-8.2-2.8-0.1-1.9 3.4-3.6 7.7-3.9 4.4-0.3 8.1 1 8.2 2.9z"/><path class="bN" d="m23.5 6.2c4.9-0.8 9.6 2.6 10.4 7.5 0.8 5-2.6 9.6-7.5 10.4-5 0.8-9.7-2.5-10.5-7.5-0.8-4.9 2.6-9.6 7.6-10.4z"/><path class="bO" d="m8.3 19.5c4.9-0.8 9.6 2.6 10.4 7.6 0.8 4.9-2.6 9.6-7.5 10.4-5 0.8-9.6-2.6-10.4-7.5-0.8-5 2.5-9.7 7.5-10.5z"/><path class="bP" d="m47.9 19.1q0 0 0 0 0 0 0 0z"/><path fill-rule="evenodd" class="bQ" d="m49 25c0.1-0.5 0.3-1.1 0.3-1.6 0-0.4-0.3-1-0.5-1.2 0.2-0.3 0.5-0.5 0.7-0.8 0.1-0.1 0.2-0.3 0.2-0.4-0.1-0.6-0.8-0.4-1.1-0.4q0.1-0.2 0.2-0.3c-0.3-0.2-0.6-0.3-0.8-0.4q-0.2-0.2-0.4-0.5-0.2-0.2-0.4-0.4 0 0-0.1 0c-0.2 0-0.3-0.3-0.5-0.5q0 0 0 0 0.1 0.1 0.3 0.2 0.1 0 0.1 0.1c0-0.1-0.1-0.7-0.1-0.7-0.3-0.2-0.6-0.4-0.8-0.7 0.3 0.1 0.6 0.2 0.9 0.3 0 0.2 0 0.4 0 0.6 0 0 0.2 0.3 0.2 0.4q0-0.1 0-0.1c0.1-0.1 0.1-0.2 0.1-0.3 0-0.2 0-0.3-0.1-0.5q0 0 0 0c0.2 0.2 0.4 0.7 0.3 1q0 0 0 0.1 0.1 0.2 0.2 0.4 0.2 0.2 0.4 0.4c0.3 0.3 0.6 0.3 1 0.5q-0.1-0.1-0.2-0.3 0 0 0 0c-0.2-0.2-0.4-0.2-0.5-0.5-0.2-0.2-0.3-0.4-0.4-0.6q0-0.1 0-0.1c0.2 0.2 0.3 0.4 0.4 0.6 0.1 0.1 0.2 0.2 0.4 0.3q-0.2-0.4-0.3-0.8 0 0 0 0-0.2-0.1-0.4-0.3c-0.1-0.1-0.2-0.2-0.3-0.4q-0.3-0.4-0.4-0.9 0 0 0 0c0.1 0.3 0.3 0.6 0.5 0.8 0.1 0.2 0.3 0.2 0.5 0.3-0.2-0.1-0.2-0.4-0.3-0.6q0-0.2 0-0.3-0.2-0.3-0.3-0.5-0.2-0.2-0.3-0.4 0-0.2-0.1-0.3c0-0.1-0.5-0.2-0.5-0.2q-0.4-0.1-0.7-0.3c0.3 0.1 0.7 0 1 0.3q0 0 0.1 0 0 0-0.1-0.1-0.1-0.2-0.2-0.4 0 0 0.1 0 0 0.2 0.2 0.3-0.1 0-0.1-0.1c0-0.1-0.1-0.4 0-0.5 0-0.1 0.1-0.1 0.1 0 0.1 0.1 0.1 0.3 0.1 0.4q0 0.1 0 0.2 0.1 0 0.1-0.1 0-0.1 0-0.2c0-0.1 0-0.2 0-0.3 0-0.2 0.3-0.2 0.3 0-0.1 0.1-0.1 0.2-0.2 0.4q0 0.1 0 0.2 0 0 0.1 0 0-0.1 0.1 0c0.1 0 0.1 0 0.1 0.1q0 0 0 0 0 0 0 0 0 0.1-0.1 0.1 0 0 0 0.1 0 0 0 0 0 0-0.1 0.1 0 0.1 0.1 0.2 0 0.3 0.2 0.5 0 0.1 0.1 0.1 0 0.1 0 0.1 0.1 0.2 0.3 0.4c-0.1-0.3 0-0.7 0-1q0 0 0 0c0 0.4 0 0.9 0.2 1.2q0 0 0 0c0-0.1 0.1-0.3 0.1-0.4q0-0.4 0-0.8 0 0 0 0 0.1 0.4 0.1 0.8 0 0 0 0.1 0-0.1 0-0.1 0 0 0 0 0 0.1 0 0.1 0.1-0.2 0.2-0.5c0-0.1 0.1-0.1 0.1 0 0 0.3-0.1 0.7-0.3 1q0 0.4 0.1 0.9c0-0.2 0.1-0.2 0.2-0.4q0.1-0.2 0.2-0.5 0-0.1 0 0 0 0.3-0.1 0.5 0 0.2 0 0.4 0.1-0.1 0.3-0.3c0.3-0.2 0.2-0.6 0.2-1 0-0.3-0.1-0.6-0.1-1-0.1 0.1-0.3 0-0.4 0-0.1 0-0.2-0.1-0.2-0.2 0.2-0.3 0.2-0.6 0.1-1q0 0.1 0 0.1 0 0-0.1 0c-0.1 0.2-0.3 0.1-0.4 0-0.1-0.1-0.2-0.3-0.3-0.5q0 0 0 0 0.2 0.2 0.4 0.4c-0.2-0.2-0.2-0.5-0.3-0.7q-0.1-0.2-0.3-0.4 0-0.1 0-0.1 0.4 0.3 0.7 0.6 0-0.2 0-0.4c0 0-0.4-0.3-0.4-0.4-0.1 0-0.3-0.1-0.3-0.1-0.1-0.3-0.1-0.8-0.2-1.1 0.2 0.6 0.3 0.9 0.7 1.2 0.4 0.2 0.3 0.6 0.5 1q0-0.1 0-0.3 0-0.2 0-0.5 0 0 0 0 0 0.1 0.1 0.3l-0.1-0.3c0.1-0.3 0.7-0.6 0.9-0.9-0.2 0.3-0.5 0.6-0.6 0.8-0.1 0.2-0.2 0.4-0.2 0.7q0 0 0 0 0 0.1 0 0.1c0 0.1 0 0.4 0 0.4q0 0 0 0 0.1 0.2 0.1 0.5-0.1 0.2-0.1 0.5c0.2 0 0.3 0 0.4 0.1q0.1-0.3 0.2-0.7-0.1-0.1 0-0.3c-0.2 0-0.2-0.2-0.2-0.4 0-0.2-0.1-0.4-0.1-0.6q0 0 0 0c0 0.1 0.1 0.4 0.2 0.5q0.1 0 0.1 0.1 0-0.3 0.1-0.6c0-0.1 0.2-0.1 0.2 0 0 0.2-0.1 0.5-0.2 0.7q0.1-0.2 0.2-0.5c0 0 0.1 0 0.1 0.1q-0.1 0.3-0.2 0.6c0 0.1 0 0.3-0.1 0.4q0 0.1 0 0.2c-0.1 0.2-0.2 0.5-0.1 0.8q0 0 0 0 0.1-0.3 0.2-0.8 0 0 0 0c0 0.4-0.1 0.8-0.2 1.1q0 0 0 0.1 0 0 0 0 0 0 0 0c0.1-0.3 0.3-0.4 0.5-0.6 0.1-0.2 0.4-0.5 0.4-0.7 0-0.5-0.2-1-0.2-1.4 0.1 0.3 0.2 0.6 0.3 1 0.1-0.6 0-1.2 0.1-1.7 0 0.4 0 0.9 0.1 1.4 0 0.2 0.1 0.5 0.1 0.7 0 0.3-0.2 0.5-0.4 0.6q0.2 0 0.3 0c0 0 0 0 0 0.1q0 0 0 0 0 0 0 0 0 0.1 0 0.3c0.1-0.2 0.1-0.3 0.2-0.5 0.1 0 0.2 0 0.2 0.1 0.1 0.2-0.1 0.5-0.2 0.6q0 0.1-0.1 0.1 0.1 0.2 0.1 0.3 0.1 0.1 0.3 0.3c0 0 0.1-0.5 0.2-0.6q0.1-0.3 0.2-0.7c0.1-0.2 0.1-0.2 0-0.4-0.1-0.1-0.2-0.2-0.3-0.2 0.2-0.3-0.1-1-0.1-1.4 0.1 0.2 0.1 0.4 0.2 0.6 0 0.2 0.1 0.4 0 0.5 0.1 0.1 0.2 0.2 0.2 0.3 0.2-0.1 0-0.6 0-0.8q0 0 0 0c0.1 0.2 0.2 0.5 0.2 0.7q0 0 0 0c0.1-0.3 0.1-0.6 0.1-0.8q0.1-0.1 0.1 0c0 0.2 0 0.5 0 0.7q0.1-0.1 0.1-0.2c0 0 0 0 0 0q0 0.4-0.1 0.7-0.1 0.2-0.2 0.5 0.1-0.1 0.3-0.2c0 0 0.1 0.1 0 0.1-0.1 0.1-0.3 0.2-0.5 0.3q0 0.1 0 0.1 0 0 0.1 0c0.1-0.1 0.3-0.1 0.3 0 0.1 0.1-0.2 0.3-0.5 0.4q-0.1 0.3-0.2 0.6c0.3 0.2 0.5 0.4 0.8 0.5q0 0 0 0 0.1 0 0.2-0.1c-0.2 0-0.3-0.3-0.3-0.4 0-0.1 0.1-0.2 0.1-0.2q0-0.1 0.1-0.2c0.1 0 0 0.2 0.1 0.3q0.1 0.1 0.1 0.2 0.2-0.3 0.2-0.7 0.1-0.2 0.1-0.3-0.1 0-0.1-0.1c-0.1-0.1-0.1-0.3-0.1-0.5-0.1-0.2-0.1-0.3-0.1-0.5q0 0 0 0c0.1 0.2 0.2 0.4 0.3 0.2 0.1-0.1 0-0.3 0-0.5-0.1-0.3 0-1-0.2-1.3 0.2 0.4 0.6 1.5 0.4 1.9q0-0.1 0.1-0.2 0 0 0 0c0 0.1 0 0.3-0.1 0.5q0 0.1 0 0.1c0 0.3 0 0.5-0.1 0.7q0 0.3-0.1 0.6c0-0.2 0.2-0.3 0.2-0.4q0.1-0.1 0.2-0.2c0.2 0.2 0.5 0.4 0.8 0.5-0.2 0-0.5-0.2-0.7-0.1-0.2 0.1-0.6 0.5-0.7 0.8q-0.4 0.6-0.9 1.1c-0.4 0.4-0.9 0.6-1.3 0.8-0.1 0.1-0.1 0.1-0.2 0.2q-0.1 0.1-0.2 0.3c-0.1 0.3-0.2 0.6-0.3 0.9q0.2 0.1 0.4 0.1c0.2 0 0.2 0 0.3-0.2 0.2-0.3 0.5-0.5 0.7-0.8-0.1 0.2-0.2 0.4-0.3 0.6-0.1 0.2-0.2 0.4-0.4 0.6 0 0.1 0 0.1-0.1 0.1-0.2 0-0.6-0.2-0.7-0.1-0.1 0-0.2 0.4-0.2 0.5-0.1 0.2 0.1 0.5 0.1 0.6 0.1 0.6 0.1 1.1 0.2 1.7 0 0 0 0.4 0 0.5 0 0-0.2-0.1-0.2-0.1-0.2-0.1-0.5-0.1-0.7-0.2zm4.2-8.9q0 0 0 0 0 0 0 0zm-6 2.6q0 0 0 0 0 0 0 0zm5.2-0.1c-0.4 0.1-0.7 0.1-1.1 0.1q-0.1 0.2-0.2 0.4-0.1 0.3-0.3 0.5c-0.1 0.1-0.2 0.3-0.3 0.4q0 0-0.1 0 0 0 0 0 0.8-0.1 1.4-0.7 0.3-0.3 0.6-0.7zm-0.5-0.4q-0.1-0.1-0.3-0.2 0 0 0 0.1-0.1 0.2-0.2 0.5 0.2 0 0.4-0.1 0.2 0 0.4-0.1-0.2-0.1-0.3-0.2zm-2.5 1.8c0.1 0.1 0.4 0.1 0.5 0.1-0.1-0.2-0.1-0.5-0.1-0.7q0 0 0 0 0 0.2 0.1 0.3 0.1 0.1 0.1 0.1 0 0.1 0 0.1 0.1 0 0 0 0.1 0.1 0.1 0.1 0 0 0 0c0-0.2 0-0.4 0-0.5q0.1-0.4 0.2-0.8 0 0 0 0 0 0.3 0 0.7c0 0.1 0 0.3 0 0.4 0.1-0.3 0.4-0.5 0.5-0.7q0.3-0.6 0.5-1.1 0.1-0.1 0.1-0.2c-0.1-0.2-0.4-0.5-0.5-0.8q0 0 0 0 0 0 0 0 0-0.2 0-0.2 0-0.1 0-0.1 0-0.2 0-0.3c0 0.1-0.2 0.1-0.3 0.1q-0.1 0-0.1 0c-0.2 0.2-0.5 0.3-0.7 0.5q0 0.1 0 0c0 0.3 0 0.7 0.1 0.9 0.1 0.1 0.4 0.2 0.4 0.2 0-0.1 0-0.2 0-0.3 0-0.1-0.1-0.1-0.1-0.1-0.1-0.2-0.1-0.4-0.1-0.6q0.1 0.2 0.3 0.3c-0.1-0.2 0.1-0.5 0-0.7 0.1 0.2 0.2 0.6 0.2 0.7 0.1-0.2 0.1-0.4 0.2-0.6-0.1 0.2 0.1 0.4 0 0.6 0.1 0 0.3 0.1 0.4 0.2-0.2 0-0.6-0.1-0.8 0.1 0.1 0.2 0 0.5 0 0.6-0.2 0-0.3-0.1-0.5 0 0 0.1 0 0.1-0.1 0.1q-0.1 0.3-0.2 0.5c-0.1 0.1-0.3 0.2-0.4 0.3q-0.1 0.1-0.2 0.1c0 0 0.1 0.4 0.1 0.4q0.1 0.3 0.3 0.3zm1.4-3.3q0 0.1 0 0.1 0 0 0-0.1z"/><path class="bR" d="m33.4 35.8c1.1 5.3-2.6 10.4-8.3 11.6-5.8 1.2-11.3-2.2-12.5-7.4-1.1-5.2 2.6-10.4 8.4-11.6 5.7-1.1 11.3 2.2 12.4 7.4z"/><path class="bS" d="m61.4 27.1c1.2 5.2-2.6 10.4-8.3 11.5-5.8 1.2-11.3-2.1-12.5-7.3-1.1-5.3 2.6-10.5 8.4-11.6 5.7-1.2 11.3 2.1 12.4 7.4z"/><path fill-rule="evenodd" class="bT" d="m34 33.4q0 0.2-0.1 0.4 0.1-0.2 0.1-0.4 0-0.2-0.1-0.4 0-0.4-0.1-0.8-0.5 0-1 0.2-0.2 0-0.4 0.2-0.2 0.1-0.4 0.2l-0.1 0.2-0.1-0.2q-0.4-0.6-1-1.1-0.2-0.2-0.5-0.4c-0.4-0.2-1.4 0.4-1.8 0.7 0.6-0.5 1.1-1.2 1.8-1.5-0.2-0.3-0.1-0.6-0.1-0.9 0 0.1 0.2 0.5 0.4 0.6 0.3 0.2 0.9-0.1 1.2-0.3q-0.2-0.2-0.4-0.3-0.3-0.2-0.6-0.5c-0.4-0.3-1-0.5-1.3-1 0.4-0.4 1-0.7 1.4-0.9q-0.5 0.5-1 1c0.2 0.1 0.3 0.3 0.4 0.4 0.2 0.2 0.5 0.3 0.6 0.4q0.3 0.2 0.6 0.4 0.3 0.2 0.6 0.3l0.1 0.1-0.1 0.2q-0.3 0.2-0.6 0.4-0.3 0.1-0.6 0.2-0.4 0.2-0.6 0.3 0 0-0.1 0 0.2 0.1 0.2 0.1c0.3 0.1 0.5 0.3 0.7 0.5q0.5 0.5 0.8 1 0.2-0.1 0.4-0.2 0.2-0.1 0.5-0.2 0.2 0 0.5-0.1 0.3 0 0.6 0.1 0.1 0.5 0.1 0.9 0.1 0.2 0 0.4zm-4.2-5.2q0 0 0 0 0 0 0 0z"/><path class="bU" d="m18.7 21.6l0.1 0.2h-0.2c-0.3 0.1-0.5 0.2-0.8 0.2q-0.5 0.1-0.8 0.2c-0.3 0-0.6 0.2-0.8 0.3q-0.1 0.2-0.2 0.4 0 0.1 0 0.4 0 0 0 0l0.1-0.3h-0.1v0.2 0.1q0 0 0 0v-0.3 0.3h0.1v0.1 0.1l-0.1 0.2c0.1 0 0 0.3 0 0.3v-0.3-0.4q-0.1-0.2-0.1-0.5 0-0.2 0.2-0.4c0.2-0.3 0.5-0.4 0.8-0.5q0.4-0.1 0.8-0.2 0.3-0.1 0.6-0.1-0.1-0.2-0.3-0.4c-0.1-0.2-0.3-0.4-0.5-0.6v-0.2h0.1q0.2-0.1 0.4-0.1 0.2-0.1 0.4-0.1 0.3-0.1 0.7-0.1-0.3 0.1-0.7 0.2-0.2 0.1-0.4 0.2-0.1 0-0.1 0.1 0.1 0.2 0.4 0.4c0.1 0.1 0.3 0.3 0.4 0.6z"/><path class="bV" d="m16.1 23.3h-0.1z"/><path class="bW" d="m23.9 21.5c-0.2-0.6-0.4-1.2-0.7-1.8 0.6 1.2 1.1 2.4 1.7 3.6q-0.1 0-0.2 0c0.2-0.2 0.5-0.4 0.7-0.6h0.1l0.1 0.1c0.3 0.4 0.7 0.7 1 1 0.4 0.3 0.8 0.7 1.1 1.1q-0.3-0.3-0.6-0.5-0.3-0.2-0.6-0.5-0.3-0.2-0.6-0.4-0.3-0.3-0.5-0.6l0.2 0.1c-0.3 0.2-0.5 0.3-0.8 0.5l-0.1 0.1c-0.4-0.6-0.6-1.3-0.8-2.1z"/><path class="bX" d="m33.2 12.5l-0.1 0.2-0.4 0.8-0.3 0.7-0.8 1.4c-0.1 0.3-0.2 0.5-0.3 0.7q-0.1 0.2-0.1 0.4 0 0.1 0.2 0.3c0.3 0.4 0.8 0.7 1 1.2-0.3-0.4-0.8-0.6-1.2-1.1q-0.2-0.1-0.2-0.4c-0.1-0.1-0.1-0.3 0-0.5 0.1-0.2 0.2-0.5 0.3-0.7q0.4-0.8 0.8-1.5 0.1-0.3 0.4-0.7 0.1-0.2 0.3-0.5-0.4 0-0.9 0-0.2 0-0.5 0-0.3 0-0.5-0.1 1-0.1 2.1-0.2z"/><path class="bY" d="m54.9 27.1c-0.5 0.7-1.6 1.4-2.3 1.8-0.3 0.2-1.1 0.7-1.8 1.2q-0.1-0.1-0.2-0.2 0.6-0.5 1.2-1c1.7-1.4 1.7-2.8 0.9-3.4-0.9-0.6-2-1.3-2.7-2.1-0.1 0 0-0.1 0-0.1 1.2 0.9 2.4 1.6 3.7 2.4 0.5 0.3 1.6 0.7 1.2 1.4z"/></svg>