<svg version="1.2" xmlns="http://www.w3.org/2000/svg" viewBox="0 0 49 62" width="49" height="62"><defs><linearGradient id="P" gradientUnits="userSpaceOnUse"/><radialGradient id="g1" cx="31.8" cy="19.9" r="6.5" href="#P"><stop stop-color="#8f9ea5"/><stop offset="1" stop-color="#969"/></radialGradient><radialGradient id="g2" cx="32" cy="19.9" r="6.6" href="#P"><stop stop-color="#8f9ea5"/><stop offset="1" stop-color="#969"/></radialGradient><radialGradient id="g3" cx="31.9" cy="20" r="6.6" href="#P"><stop stop-color="#8f9ea5"/><stop offset="1" stop-color="#969"/></radialGradient><radialGradient id="g4" cx="31.9" cy="20.7" r="5.8" href="#P"><stop stop-color="#8f9ea5"/><stop offset="1" stop-color="#969"/></radialGradient><radialGradient id="g5" cx="31.9" cy="20" r="6.6" href="#P"><stop stop-color="#8f9ea5"/><stop offset="1" stop-color="#969"/></radialGradient><linearGradient id="g6" x1="29.7" y1="10.2" x2="26.3" y2="12.9" href="#P"><stop stop-color="#158555"/><stop offset="1" stop-color="#07050f"/></linearGradient><radialGradient id="g7" cx="32.5" cy="19.5" r="5.2" href="#P"><stop stop-color="#9ff"/><stop offset="1"/></radialGradient><radialGradient id="g8" cx="32.7" cy="19.5" r="4.7" href="#P"><stop stop-color="#9ff"/><stop offset="1"/></radialGradient><radialGradient id="g9" cx="31.9" cy="20" r="6.6" href="#P"><stop stop-color="#8f9ea5"/><stop offset="1" stop-color="#969"/></radialGradient><radialGradient id="g10" cx="31.9" cy="20" r="6.6" href="#P"><stop stop-color="#8f9ea5"/><stop offset="1" stop-color="#969"/></radialGradient><radialGradient id="g11" cx="31.9" cy="20" r="6.6" href="#P"><stop stop-color="#8f9ea5"/><stop offset="1" stop-color="#969"/></radialGradient><linearGradient id="g12" x1="28.3" y1="12.5" x2="24.6" y2="15.5" href="#P"><stop stop-color="#07050f"/><stop offset="1" stop-color="#158555"/></linearGradient><linearGradient id="g13" x1="35.3" y1="21.4" x2="31.6" y2="24.4" href="#P"><stop stop-color="#07050f"/><stop offset="1" stop-color="#158555"/></linearGradient><linearGradient id="g14" x1="34" y1="26" x2="34" y2="26" href="#P"><stop stop-color="#07050f"/><stop offset="1" stop-color="#158555"/></linearGradient><linearGradient id="g15" x1="27.8" y1="11.8" x2="23.8" y2="14.9" href="#P"><stop stop-color="#07050f"/><stop offset="1" stop-color="#158555"/></linearGradient><linearGradient id="g16" x1="34.2" y1="26" x2="34.2" y2="26" href="#P"><stop stop-color="#07050f"/><stop offset="1" stop-color="#158555"/></linearGradient><linearGradient id="g17" x1="28.1" y1="12.3" x2="24.4" y2="15.3" href="#P"><stop stop-color="#07050f"/><stop offset="1" stop-color="#158555"/></linearGradient><linearGradient id="g18" x1="35.5" y1="21.6" x2="31.8" y2="24.6" href="#P"><stop stop-color="#07050f"/><stop offset="1" stop-color="#158555"/></linearGradient><linearGradient id="g19" x1="33.2" y1="24" x2="33.2" y2="24" href="#P"><stop stop-color="#07050f"/><stop offset="1" stop-color="#158555"/></linearGradient><linearGradient id="g20" x1="28" y1="12" x2="24.1" y2="15.1" href="#P"><stop stop-color="#07050f"/><stop offset="1" stop-color="#158555"/></linearGradient><radialGradient id="g21" cx="31.9" cy="19.9" r="6.6" href="#P"><stop stop-color="#8f9ea5"/><stop offset="1" stop-color="#969"/></radialGradient><linearGradient id="g22" x1="31.3" y1="16.2" x2="27.5" y2="19.2" href="#P"><stop stop-color="#158555"/><stop offset="1" stop-color="#07050f"/></linearGradient><linearGradient id="g23" x1="17" y1="7" x2="18.6" y2="7" href="#P"><stop stop-color="#158555"/><stop offset="1" stop-color="#07050f"/></linearGradient><linearGradient id="g24" x1="23.4" y1="15" x2="24.6" y2="15" href="#P"><stop stop-color="#07050f"/><stop offset="1" stop-color="#158555"/></linearGradient><linearGradient id="g25" x1="8.1" y1="11.7" x2="9.6" y2="11.7" href="#P"><stop stop-color="#07050f"/><stop offset="1" stop-color="#158555"/></linearGradient><linearGradient id="g26" x1="1.1" y1="27.2" x2="48.1" y2="27.2" href="#P"><stop stop-color="#556b74"/><stop offset="1" stop-color="#34444b"/></linearGradient><radialGradient id="g27" cx="24.7" cy="41.6" r="22.6" href="#P"><stop stop-color="#8f9ea5"/><stop offset=".8" stop-color="#97739c"/><stop offset="1" stop-color="#969"/></radialGradient><linearGradient id="g28" x1="-25.5" y1="49.4" x2="87.6" y2="49.4" href="#P"><stop stop-color="#556b74"/><stop offset="1" stop-color="#34444b"/></linearGradient><linearGradient id="g29" x1="34" y1="19.7" x2="53.8" y2="20.8" href="#P"><stop stop-color="#0e0a1f"/><stop offset="1" stop-color="#34444b"/></linearGradient><linearGradient id="g30" x1="39.2" y1="54.8" x2="33" y2="62.5" href="#P"><stop stop-color="#0e0a1f"/><stop offset="1" stop-color="#34444b"/></linearGradient><linearGradient id="g31" x1="30.4" y1="37.7" x2="53.4" y2="39" href="#P"><stop stop-color="#0e0a1f"/><stop offset="1" stop-color="#34444b"/></linearGradient><linearGradient id="g32" x1="34.1" y1="22.2" x2="53.5" y2="23.3" href="#P"><stop stop-color="#07050f"/><stop offset="1" stop-color="#158555"/></linearGradient><linearGradient id="g33" x1="34.3" y1="19.9" x2="53.2" y2="21" href="#P"><stop stop-color="#07050f"/><stop offset="1" stop-color="#158555"/></linearGradient><linearGradient id="g34" x1=".5" y1="40" x2="-0.6" y2="31.3" href="#P"><stop stop-color="#839095"/><stop offset="1" stop-color="#566c75"/></linearGradient><linearGradient id="g35" x1="-4.3" y1="43" x2="44.8" y2="59.1" href="#P"><stop stop-color="#627a83"/><stop offset="1" stop-color="#4c636c"/></linearGradient><linearGradient id="g36" x1="17.1" y1="31.8" x2="45.5" y2="41.1" href="#P"><stop stop-color="#07050f"/><stop offset="1" stop-color="#158555"/></linearGradient><linearGradient id="g37" x1="22.5" y1="15.2" x2="47.3" y2="23.4" href="#P"><stop stop-color="#07050f"/><stop offset="1" stop-color="#158555"/></linearGradient><linearGradient id="g38" x1="37.7" y1="48.1" x2="41.1" y2="52.8" href="#P"><stop stop-color="#07050f"/><stop offset="1" stop-color="#158555"/></linearGradient><radialGradient id="g39" cx="31.6" cy="48.5" r="6.4" href="#P"><stop stop-color="#8f9ea5"/><stop offset=".8" stop-color="#97739c"/><stop offset="1" stop-color="#969"/></radialGradient><radialGradient id="g40" cx="27.7" cy="44.4" r="2.5" href="#P"><stop stop-color="#6f6"/><stop offset="1" stop-color="#76878e"/></radialGradient><linearGradient id="g41" x1="28.1" y1="39.7" x2="36.9" y2="39.7" href="#P"><stop stop-color="#07050f"/><stop offset="1" stop-color="#158555"/></linearGradient><linearGradient id="g42" x1="28.3" y1="49.3" x2="36.8" y2="49.3" href="#P"><stop stop-color="#07050f"/><stop offset="1" stop-color="#158555"/></linearGradient><linearGradient id="g43" x1="35.1" y1="37.9" x2="42.9" y2="42.2" href="#P"><stop stop-color="#07050f"/><stop offset="1" stop-color="#158555"/></linearGradient><radialGradient id="g44" cx="43.5" cy="40.4" r="5.3" href="#P"><stop stop-color="#8f9ea5"/><stop offset=".8" stop-color="#97739c"/><stop offset="1" stop-color="#969"/></radialGradient><linearGradient id="g45" x1="34.8" y1="42" x2="40.3" y2="42" href="#P"><stop stop-color="#07050f"/><stop offset="1" stop-color="#158555"/></linearGradient><linearGradient id="g46" x1="34.4" y1="38.9" x2="47.6" y2="38.9" href="#P"><stop stop-color="#839095"/><stop offset="1" stop-color="#566c75"/></linearGradient><linearGradient id="g47" x1="34.4" y1="40.7" x2="47.6" y2="40.7" href="#P"><stop stop-color="#556b74"/><stop offset="1" stop-color="#34444b"/></linearGradient><linearGradient id="g48" x1="34.4" y1="41.3" x2="47.6" y2="41.3" href="#P"><stop stop-color="#839095"/><stop offset="1" stop-color="#566c75"/></linearGradient><linearGradient id="g49" x1="26" y1="39.2" x2="37.4" y2="39.2" href="#P"><stop stop-color="#65757c"/><stop offset="1" stop-color="#475d66"/></linearGradient><radialGradient id="g50" cx="31.2" cy="42.9" r="3.9" href="#P"><stop stop-color="#6f6"/><stop offset="1" stop-color="#76878e"/></radialGradient><linearGradient id="g51" x1="6.4" y1="28.3" x2="30" y2="28.3" href="#P"><stop stop-color="#07050f"/><stop offset="1" stop-color="#158555"/></linearGradient><linearGradient id="g52" x1="1.8" y1="33.7" x2="19.8" y2="38.6" href="#P"><stop stop-color="#0e0a1f"/><stop offset="1" stop-color="#34444b"/></linearGradient><linearGradient id="g53" x1="1.9" y1="27.5" x2="27.5" y2="3.7" href="#P"><stop stop-color="#a7bbb7"/><stop offset="1" stop-color="#81a7a0"/></linearGradient><radialGradient id="g54" cx="8.5" cy="30.8" r="17.2" href="#P"><stop stop-color="#b8ccd5"/><stop offset="1" stop-color="#cf8acf"/></radialGradient><linearGradient id="g55" x1="11.4" y1="53.7" x2="-1.9" y2="40.2" href="#P"><stop stop-color="#34444b"/><stop offset="1" stop-color="#556b74"/></linearGradient><linearGradient id="g56" x1="12" y1="53.1" x2="-1.3" y2="39.7" href="#P"><stop stop-color="#0e0a1f"/><stop offset="1" stop-color="#34444b"/></linearGradient><linearGradient id="g57" x1="11.7" y1="53" x2="-1.4" y2="39.7" href="#P"><stop stop-color="#07050f"/><stop offset="1" stop-color="#158555"/></linearGradient><radialGradient id="g58" cx="14.2" cy="49" r="8.8" href="#P"><stop stop-color="#6d8590"/><stop offset="1" stop-color="#56707b"/></radialGradient><radialGradient id="g59" cx="3.5" cy="38.7" r="3.8" href="#P"><stop stop-color="#6f6"/><stop offset="1" stop-color="#76878e"/></radialGradient><radialGradient id="g60" cx="4.3" cy="34.5" r="10.3" href="#P"><stop stop-color="#8f9ea5"/><stop offset=".8" stop-color="#97739c"/><stop offset="1" stop-color="#969"/></radialGradient><radialGradient id="g61" cx="23" cy="37.5" r="21.4" href="#P"><stop stop-color="#6f6"/><stop offset="1" stop-color="#76878e"/></radialGradient><linearGradient id="g62" x1="11.1" y1="36" x2="41.3" y2="36" href="#P"><stop stop-color="#627a83"/><stop offset="1" stop-color="#4c636c"/></linearGradient><linearGradient id="g63" x1="13.9" y1="35.7" x2="20.7" y2="35.7" href="#P"><stop stop-color="#627a83"/><stop offset="1" stop-color="#4c636c"/></linearGradient><radialGradient id="g64" cx="5.7" cy="30.9" r="7.6" href="#P"><stop stop-color="#6f6"/><stop offset="1" stop-color="#76878e"/></radialGradient><radialGradient id="g65" cx="2.8" cy="38.5" r="4.4" href="#P"><stop stop-color="#6f6"/><stop offset="1" stop-color="#76878e"/></radialGradient><linearGradient id="g66" x1="21.9" y1="44.3" x2="31.1" y2="53.4" href="#P"><stop stop-color="#0e0a1f"/><stop offset="1" stop-color="#34444b"/></linearGradient><linearGradient id="g67" x1="-29.5" y1="49.3" x2="92.7" y2="49.3" href="#P"><stop stop-color="#0e0a1f"/><stop offset="1" stop-color="#34444b"/></linearGradient><linearGradient id="g68" x1="19.9" y1="59.7" x2="17.1" y2="54.1" href="#P"><stop stop-color="#5b727c"/><stop offset="1" stop-color="#40555d"/></linearGradient><linearGradient id="g69" x1="19" y1="48.9" x2="25.9" y2="48.9" href="#P"><stop stop-color="#65757c"/><stop offset="1" stop-color="#475d66"/></linearGradient><radialGradient id="g70" cx="21.6" cy="52.5" r="2.2" href="#P"><stop stop-color="#6f6"/><stop offset="1" stop-color="#76878e"/></radialGradient><radialGradient id="g71" cx="22.4" cy="54.3" r="3.1" href="#P"><stop stop-color="#6f6"/><stop offset="1" stop-color="#76878e"/></radialGradient><linearGradient id="g72" x1="26" y1="39.3" x2="37.4" y2="39.3" href="#P"><stop stop-color="#627a83"/><stop offset="1" stop-color="#4c636c"/></linearGradient><radialGradient id="g73" cx="31.3" cy="45.3" r="4.7" href="#P"><stop stop-color="#6f6"/><stop offset="1" stop-color="#76878e"/></radialGradient><linearGradient id="g74" x1="34.2" y1="43.2" x2="35.6" y2="43.1" href="#P"><stop stop-color="#627a83"/><stop offset="1" stop-color="#4c636c"/></linearGradient><linearGradient id="g75" x1="35.5" y1="39.5" x2="37.3" y2="39.5" href="#P"><stop stop-color="#627a83"/><stop offset="1" stop-color="#4c636c"/></linearGradient><linearGradient id="g76" x1="9.4" y1="37.1" x2="11.6" y2="37.1" href="#P"><stop stop-color="#627a83"/><stop offset="1" stop-color="#4c636c"/></linearGradient><radialGradient id="g77" cx="17.7" cy="38.1" r="1.5" href="#P"><stop stop-color="#6f6"/><stop offset="1" stop-color="#76878e"/></radialGradient><radialGradient id="g78" cx="45.2" cy="30.5" r="3.7" href="#P"><stop stop-color="#6f6"/><stop offset="1" stop-color="#76878e"/></radialGradient><radialGradient id="g79" cx="46.3" cy="44.8" r="6.5" href="#P"><stop stop-color="#878d9b"/><stop offset="1" stop-color="#76878e"/></radialGradient><radialGradient id="g80" cx="32.1" cy="57.1" r="4.4" href="#P"><stop stop-color="#878d9b"/><stop offset="1" stop-color="#76878e"/></radialGradient><radialGradient id="g81" cx="37.7" cy="40" r="1.9" href="#P"><stop stop-color="#878d9b"/><stop offset="1" stop-color="#76878e"/></radialGradient><radialGradient id="g82" cx="46.1" cy="36.5" r="6.7" href="#P"><stop stop-color="#606674"/><stop offset="1" stop-color="#76878e"/></radialGradient><radialGradient id="g83" cx="48.8" cy="39.3" r="3.1" href="#P"><stop stop-color="#606674"/><stop offset="1" stop-color="#76878e"/></radialGradient><radialGradient id="g84" cx="42.4" cy="52.5" r="14.6" href="#P"><stop stop-color="#606674"/><stop offset="1" stop-color="#76878e"/></radialGradient><radialGradient id="g85" cx="18.8" cy="25.8" r="32.6" href="#P"><stop stop-color="#8f9ea5"/><stop offset="1" stop-color="#687e87"/></radialGradient><radialGradient id="g86" cx="17" cy="50" r="5.8" href="#P"><stop stop-color="#606674"/><stop offset="1" stop-color="#76878e"/></radialGradient><linearGradient id="g87" x1="26.8" y1="53.5" x2="29.2" y2="53.5" href="#P"><stop stop-color="#627a83"/><stop offset="1" stop-color="#4c636c"/></linearGradient><radialGradient id="g88" cx="9.3" cy="15.9" r="8.7" href="#P"><stop stop-color="#8f9ea5"/><stop offset="1" stop-color="#969"/></radialGradient><linearGradient id="g89" x1="7.1" y1="1.9" x2="13.2" y2="1.9" href="#P"><stop stop-color="#07050f"/><stop offset="1" stop-color="#158555"/></linearGradient><radialGradient id="g90" cx="11.8" cy="17.7" r="11.8" href="#P"><stop stop-color="#9ff"/><stop offset="1"/></radialGradient><radialGradient id="g91" cx="12.1" cy="17.7" r="13.5" href="#P"><stop stop-color="#9ff"/><stop offset="1"/></radialGradient><radialGradient id="g92" cx="11.9" cy="17.7" r="12.7" href="#P"><stop stop-color="#9ff"/><stop offset="1"/></radialGradient><radialGradient id="g93" cx="18" cy="13.7" r="12.7" href="#P"><stop stop-color="#8f9ea5"/><stop offset="1" stop-color="#969"/></radialGradient><radialGradient id="g94" cx="17.9" cy="13.8" r="12.7" href="#P"><stop stop-color="#8f9ea5"/><stop offset="1" stop-color="#969"/></radialGradient><radialGradient id="g95" cx="18" cy="13.8" r="12.7" href="#P"><stop stop-color="#8f9ea5"/><stop offset="1" stop-color="#969"/></radialGradient><radialGradient id="g96" cx="18" cy="13.8" r="12.7" href="#P"><stop stop-color="#8f9ea5"/><stop offset="1" stop-color="#969"/></radialGradient><radialGradient id="g97" cx="17.9" cy="13.8" r="12.8" href="#P"><stop stop-color="#8f9ea5"/><stop offset="1" stop-color="#969"/></radialGradient><linearGradient id="g98" x1="21.3" y1="-3.6" x2="13.2" y2="-1" href="#P"><stop stop-color="#158555"/><stop offset="1" stop-color="#07050f"/></linearGradient><radialGradient id="g99" cx="19.3" cy="13.4" r="10" href="#P"><stop stop-color="#9ff"/><stop offset="1"/></radialGradient><radialGradient id="g100" cx="19.3" cy="13.4" r="10" href="#P"><stop stop-color="#9ff"/><stop offset="1"/></radialGradient><radialGradient id="g101" cx="18" cy="13.8" r="12.7" href="#P"><stop stop-color="#8f9ea5"/><stop offset="1" stop-color="#969"/></radialGradient><radialGradient id="g102" cx="18" cy="13.8" r="12.7" href="#P"><stop stop-color="#8f9ea5"/><stop offset="1" stop-color="#969"/></radialGradient><radialGradient id="g103" cx="17.9" cy="13.8" r="12.7" href="#P"><stop stop-color="#8f9ea5"/><stop offset="1" stop-color="#969"/></radialGradient><linearGradient id="g104" x1="17.2" y1="-0.4" x2="8.3" y2="2.4" href="#P"><stop stop-color="#07050f"/><stop offset="1" stop-color="#158555"/></linearGradient><linearGradient id="g105" x1="23.9" y1="20.5" x2="15" y2="23.3" href="#P"><stop stop-color="#07050f"/><stop offset="1" stop-color="#158555"/></linearGradient><linearGradient id="g106" x1="24" y1="21.3" x2="15.3" y2="24.1" href="#P"><stop stop-color="#07050f"/><stop offset="1" stop-color="#158555"/></linearGradient><linearGradient id="g107" x1="16.6" y1="-2" x2="8.2" y2=".7" href="#P"><stop stop-color="#07050f"/><stop offset="1" stop-color="#158555"/></linearGradient><linearGradient id="g108" x1="24.2" y1="21.5" x2="15.3" y2="24.3" href="#P"><stop stop-color="#07050f"/><stop offset="1" stop-color="#158555"/></linearGradient><linearGradient id="g109" x1="17" y1="-0.9" x2="8.3" y2="1.8" href="#P"><stop stop-color="#07050f"/><stop offset="1" stop-color="#158555"/></linearGradient><linearGradient id="g110" x1="24.1" y1="21" x2="15.1" y2="23.8" href="#P"><stop stop-color="#07050f"/><stop offset="1" stop-color="#158555"/></linearGradient><linearGradient id="g111" x1="18.1" y1="23.7" x2="18.1" y2="23.7" href="#P"><stop stop-color="#07050f"/><stop offset="1" stop-color="#158555"/></linearGradient><linearGradient id="g112" x1="16.9" y1="-1.5" x2="8.1" y2="1.3" href="#P"><stop stop-color="#07050f"/><stop offset="1" stop-color="#158555"/></linearGradient><radialGradient id="g113" cx="17.9" cy="13.8" r="12.4" href="#P"><stop stop-color="#8f9ea5"/><stop offset="1" stop-color="#969"/></radialGradient><linearGradient id="g114" x1="20" y1="8.3" x2="11.1" y2="11.1" href="#P"><stop stop-color="#158555"/><stop offset="1" stop-color="#07050f"/></linearGradient><radialGradient id="g115" cx="14.9" cy="18" r="7.6" href="#P"><stop stop-color="#8f9ea5"/><stop offset="1" stop-color="#969"/></radialGradient><linearGradient id="g116" x1="15" y1="8.6" x2="20.3" y2="9.9" href="#P"><stop stop-color="#07050f"/><stop offset="1" stop-color="#158555"/></linearGradient><radialGradient id="g117" cx="16.9" cy="19.5" r="10.4" href="#P"><stop stop-color="#9ff"/><stop offset="1"/></radialGradient><linearGradient id="g118" x1="16.2" y1="20" x2="20.5" y2="20" href="#P"><stop stop-color="#a4b4bb"/><stop offset="1" stop-color="#7a99a6"/></linearGradient><linearGradient id="g119" x1="14.5" y1="20" x2="20.3" y2="20" href="#P"><stop stop-color="#a4b4bb"/><stop offset="1" stop-color="#7a99a6"/></linearGradient><linearGradient id="g120" x1="13.2" y1="20" x2="18.9" y2="20" href="#P"><stop stop-color="#a4b4bb"/><stop offset="1" stop-color="#7a99a6"/></linearGradient><radialGradient id="g121" cx="16.6" cy="23.5" r="1.4" href="#P"><stop stop-color="#9f3"/><stop offset="1" stop-color="#3c0"/></radialGradient><linearGradient id="g122" x1="12.6" y1="22.9" x2="16.9" y2="22.9" href="#P"><stop stop-color="#a4b4bb"/><stop offset="1" stop-color="#7a99a6"/></linearGradient><linearGradient id="g123" x1="10.9" y1="22.8" x2="16.7" y2="22.8" href="#P"><stop stop-color="#a4b4bb"/><stop offset="1" stop-color="#7a99a6"/></linearGradient><linearGradient id="g124" x1="9.6" y1="22.9" x2="15.3" y2="22.9" href="#P"><stop stop-color="#a4b4bb"/><stop offset="1" stop-color="#7a99a6"/></linearGradient><radialGradient id="g125" cx="13" cy="26.1" r="1.4" href="#P"><stop stop-color="#9f3"/><stop offset="1" stop-color="#3c0"/></radialGradient><linearGradient id="g126" x1="13.4" y1="19.7" x2="40.2" y2="19.7" href="#P"><stop stop-color="#a4b4bb"/><stop offset="1" stop-color="#7a99a6"/></linearGradient><linearGradient id="g127" x1="13.7" y1="19.9" x2="40.4" y2="19.9" href="#P"><stop stop-color="#a4b4bb"/><stop offset="1" stop-color="#7a99a6"/></linearGradient><linearGradient id="g128" x1="16.4" y1="19.5" x2="37.3" y2="19.5" href="#P"><stop stop-color="#a4b4bb"/><stop offset="1" stop-color="#7a99a6"/></linearGradient><radialGradient id="g129" cx="19.1" cy="37.9" r="12.5" href="#P"><stop stop-color="#9f3"/><stop offset="1" stop-color="#3c0"/></radialGradient><linearGradient id="g130" x1="21.4" y1="33.1" x2="19.4" y2="36.1" href="#P"><stop stop-color="#ff0"/><stop offset="1" stop-color="#030"/></linearGradient><radialGradient id="g131" cx="12.8" cy="34.2" r="3.6" href="#P"><stop stop-color="#ff3"/><stop offset="1"/></radialGradient><linearGradient id="g132" x1="39.7" y1="25.7" x2="45.8" y2="25.7" href="#P"><stop stop-color="#a4b4bb"/><stop offset="1" stop-color="#7a99a6"/></linearGradient><linearGradient id="g133" x1="37.1" y1="25.6" x2="45.6" y2="25.6" href="#P"><stop stop-color="#a4b4bb"/><stop offset="1" stop-color="#7a99a6"/></linearGradient><linearGradient id="g134" x1="35.3" y1="25.7" x2="43.5" y2="25.7" href="#P"><stop stop-color="#a4b4bb"/><stop offset="1" stop-color="#7a99a6"/></linearGradient><radialGradient id="g135" cx="40.2" cy="29.8" r="2" href="#P"><stop stop-color="#9f3"/><stop offset="1" stop-color="#3c0"/></radialGradient><radialGradient id="g136" cx="24.8" cy="28.1" r="7" href="#P"><stop stop-color="#9f3"/><stop offset="1" stop-color="#3c0"/></radialGradient><linearGradient id="g137" x1="18.7" y1="34" x2="14.9" y2="27.2" href="#P"><stop stop-color="#ff0"/><stop offset="1" stop-color="#030"/></linearGradient><radialGradient id="g138" cx="27.4" cy="26.3" r="8.1" href="#P"><stop stop-color="#ff0"/><stop offset="1"/></radialGradient><radialGradient id="g139" cx="18.7" cy="52.3" r="2.9" href="#P"><stop stop-color="#3f0"/><stop offset="1" stop-color="#0c0"/></radialGradient><radialGradient id="g140" cx="39.2" cy="39.3" r="2.9" href="#P"><stop stop-color="#3f0"/><stop offset="1" stop-color="#0c0"/></radialGradient><radialGradient id="g141" cx="35.8" cy="40.1" r="8.4" href="#P"><stop stop-color="#9f3"/><stop offset="1" stop-color="#3c0"/></radialGradient><radialGradient id="g142" cx="31.4" cy="30" r="3.6" href="#P"><stop stop-color="#ff3"/><stop offset=".7"/></radialGradient><radialGradient id="g143" cx="15" cy="46" r="6.5" href="#P"><stop stop-color="#ff3"/><stop offset=".7"/></radialGradient><radialGradient id="g144" cx="38.3" cy="38.5" r="2.2" href="#P"><stop stop-color="#ff3"/><stop offset=".7"/></radialGradient><linearGradient id="g145" x1="8.8" y1="26.6" x2="11.3" y2="26.6" href="#P"><stop offset=".1"/><stop offset=".6" stop-color="#d6c2d6"/></linearGradient><linearGradient id="g146" x1="39.1" y1="22.5" x2="41.3" y2="22.5" href="#P"><stop offset=".1"/><stop offset=".6" stop-color="#d6c2d6"/></linearGradient><linearGradient id="g147" x1="41" y1="23.6" x2="42.2" y2="23.6" href="#P"><stop offset=".1"/><stop offset=".6" stop-color="#d6c2d6"/></linearGradient><linearGradient id="g148" x1="37.7" y1="22" x2="38.8" y2="22" href="#P"><stop offset=".1"/><stop offset=".6" stop-color="#d6c2d6"/></linearGradient><linearGradient id="g149" x1="6.8" y1="28" x2="8.2" y2="28" href="#P"><stop offset=".1"/><stop offset=".6" stop-color="#d6c2d6"/></linearGradient><linearGradient id="g150" x1="36.3" y1="19.6" x2="37.6" y2="19.6" href="#P"><stop offset=".1"/><stop offset=".6" stop-color="#d6c2d6"/></linearGradient><linearGradient id="g151" x1="6.3" y1="25.8" x2="8.4" y2="25.8" href="#P"><stop offset=".1"/><stop offset=".6" stop-color="#d6c2d6"/></linearGradient><radialGradient id="g152" cx="18.1" cy="35.6" r="1.7" href="#P"><stop stop-color="#0f0"/><stop offset="1" stop-color="#2e444d"/></radialGradient><linearGradient id="g153" x1="18.8" y1="30.4" x2="19.5" y2="29.8" href="#P"><stop offset=".1"/><stop offset=".6" stop-color="#d6c2d6"/></linearGradient><linearGradient id="g154" x1="13.5" y1="25.9" x2="14.6" y2="25.2" href="#P"><stop offset=".1"/><stop offset=".6" stop-color="#d6c2d6"/></linearGradient><linearGradient id="g155" x1="29.8" y1="32.2" x2="31.1" y2="31.9" href="#P"><stop offset=".1"/><stop offset=".6" stop-color="#d6c2d6"/></linearGradient><radialGradient id="g156" cx="39.9" cy="24.9" r=".5" href="#P"><stop stop-color="#9f3"/><stop offset="1" stop-color="#3c0"/></radialGradient><radialGradient id="g157" cx="7" cy="28.3" r=".6" href="#P"><stop stop-color="#9f3"/><stop offset="1" stop-color="#3c0"/></radialGradient><radialGradient id="g158" cx="43.1" cy="23.9" r="4.3" href="#P"><stop stop-color="#9f3"/><stop offset="1" stop-color="#3c0"/></radialGradient><radialGradient id="g159" cx="40.7" cy="15.6" r=".6" href="#P"><stop stop-color="#9f3"/><stop offset="1" stop-color="#3c0"/></radialGradient><radialGradient id="g160" cx="43.3" cy="16.6" r="1.1" href="#P"><stop stop-color="#9f3"/><stop offset="1" stop-color="#3c0"/></radialGradient><radialGradient id="g161" cx="42.7" cy="19" r="2.3" href="#P"><stop stop-color="#ff3"/><stop offset="1"/></radialGradient><radialGradient id="g162" cx="39.8" cy="19.3" r="2.3" href="#P"><stop stop-color="#9f3"/><stop offset="1" stop-color="#3c0"/></radialGradient><radialGradient id="g163" cx="38.9" cy="17" r="2.1" href="#P"><stop stop-color="#ff3"/><stop offset="1"/></radialGradient><radialGradient id="g164" cx="43.7" cy="16.1" r="1.2" href="#P"><stop stop-color="#ff3"/><stop offset="1"/></radialGradient><radialGradient id="g165" cx="40.4" cy="24.2" r=".9" href="#P"><stop stop-color="#9f3"/><stop offset="1" stop-color="#3c0"/></radialGradient><radialGradient id="g166" cx="40.1" cy="23.3" r=".9" href="#P"><stop stop-color="#ff3"/><stop offset="1"/></radialGradient><radialGradient id="g167" cx="30.3" cy="22.7" r="6.1" href="#P"><stop stop-color="#0f0"/><stop offset="1"/></radialGradient><radialGradient id="g168" cx="9.4" cy="35.5" r="3.7" href="#P"><stop stop-color="#0f0"/><stop offset="1"/></radialGradient><radialGradient id="g169" cx="30.4" cy="45.8" r="3.7" href="#P"><stop stop-color="#0f0"/><stop offset="1"/></radialGradient><radialGradient id="g170" cx="18.7" cy="52.9" r="3.7" href="#P"><stop stop-color="#0f0"/><stop offset="1"/></radialGradient><radialGradient id="g171" cx="15.9" cy="19.5" r="3.7" href="#P"><stop stop-color="#fff"/><stop offset="1"/></radialGradient><radialGradient id="g172" cx="41.7" cy="29" r="2" href="#P"><stop stop-color="#0f0"/><stop offset="1"/></radialGradient><radialGradient id="g173" cx="13.7" cy="25.9" r="1.6" href="#P"><stop stop-color="#0f0"/><stop offset="1"/></radialGradient><radialGradient id="g174" cx="17.5" cy="23.1" r="2.2" href="#P"><stop stop-color="#0f0"/><stop offset="1"/></radialGradient><radialGradient id="g175" cx="21" cy="16.7" r="2.2" href="#P"><stop stop-color="#0f0"/><stop offset="1"/></radialGradient><radialGradient id="g176" cx="7.5" cy="18.4" r="1.9" href="#P"><stop stop-color="#0f0"/><stop offset="1"/></radialGradient><radialGradient id="g177" cx="3.9" cy="32.8" r="3.2" href="#P"><stop stop-color="#fff"/><stop offset="1"/></radialGradient><radialGradient id="g178" cx="37.1" cy="53.9" r="6.2" href="#P"><stop stop-color="#fff"/><stop offset="1"/></radialGradient></defs><style>.a{fill:url(#g1)}.b{fill:url(#g2)}.c{fill:url(#g3)}.d{fill:url(#g4)}.e{fill:url(#g5)}.f{opacity:.6;fill:url(#g6)}.g{opacity:.4;mix-blend-mode:color-dodge;fill:url(#g7)}.h{opacity:.4;mix-blend-mode:color-dodge;fill:url(#g8)}.i{fill:url(#g9)}.j{fill:url(#g10)}.k{fill:url(#g11)}.l{fill:url(#g12)}.m{fill:url(#g13)}.n{fill:url(#g14)}.o{fill:url(#g15)}.p{fill:url(#g16)}.q{fill:url(#g17)}.r{fill:url(#g18)}.s{fill:url(#g19)}.t{fill:url(#g20)}.u{fill:url(#g21)}.v{opacity:.3;fill:#909}.w{opacity:.6;fill:url(#g22)}.x{opacity:.3;fill:#ffc}.y{opacity:.5;fill:#ffc}.z{fill:#fff}.A{fill:url(#g23)}.B{fill:url(#g24)}.C{fill:url(#g25)}.D{fill:url(#g26)}.E{opacity:.5;fill:url(#g27)}.F{opacity:.5;fill:url(#g28)}.G{opacity:.7;fill:url(#g29)}.H{opacity:.7;fill:url(#g30)}.I{opacity:.7;fill:url(#g31)}.J{fill:url(#g32)}.K{fill:url(#g33)}.L{fill:url(#g34)}.M{opacity:.5;fill:url(#g35)}.N{opacity:.5;fill:url(#g36)}.O{opacity:.4;fill:url(#g37)}.P{opacity:.7;fill:url(#g38)}.Q{opacity:.5;fill:url(#g39)}.R{opacity:.4;fill:url(#g40)}.S{fill:#2e444d}.T{opacity:.4;fill:url(#g41)}.U{opacity:.5;fill:url(#g42)}.V{fill:url(#g43)}.W{opacity:.5;fill:url(#g44)}.X{fill:url(#g45)}.Y{opacity:.5;fill:url(#g46)}.Z{fill:url(#g47)}.a0{opacity:.5;fill:url(#g48)}.a1{fill:url(#g49)}.a2{opacity:.4;fill:url(#g50)}.a3{opacity:.4;fill:url(#g51)}.a4{fill:url(#g52)}.a5{fill:url(#g53)}.a6{fill:url(#g54)}.a7{fill:url(#g55)}.a8{opacity:.2;fill:url(#g56)}.a9{opacity:.3;fill:url(#g57)}.aa{opacity:.7;fill:url(#g58)}.ab{fill:url(#g59)}.ac{fill:url(#g60)}.ad{fill:url(#g61)}.ae{fill:url(#g62)}.af{fill:url(#g63)}.ag{fill:url(#g64)}.ah{fill:url(#g65)}.ai{opacity:.7;fill:url(#g66)}.aj{opacity:.7;fill:url(#g67)}.ak{fill:url(#g68)}.al{fill:url(#g69)}.am{opacity:.4;fill:url(#g70)}.an{fill:url(#g71)}.ao{fill:url(#g72)}.ap{fill:url(#g73)}.aq{fill:url(#g74)}.ar{opacity:.5;fill:url(#g75)}.as{opacity:.5;fill:url(#g76)}.at{opacity:.3;fill:url(#g77)}.au{fill:url(#g78)}.av{opacity:.3;fill:url(#g79)}.aw{opacity:.5;fill:#6c9}.ax{opacity:.3;fill:url(#g80)}.ay{opacity:.3;fill:url(#g81)}.az{opacity:.6;fill:url(#g82)}.aA{opacity:.6;fill:url(#g83)}.aB{opacity:.6;fill:url(#g84)}.aC{opacity:.5;fill:url(#g85)}.aD{opacity:.5;fill:url(#g86)}.aE{opacity:.4;fill:url(#g87)}.aF{fill:url(#g88)}.aG{opacity:.5;fill:url(#g89)}.aH{opacity:.4;mix-blend-mode:color-dodge;fill:url(#g90)}.aI{opacity:.4;mix-blend-mode:color-dodge;fill:url(#g91)}.aJ{opacity:.4;mix-blend-mode:color-dodge;fill:url(#g92)}.aK{fill:url(#g93)}.aL{fill:url(#g94)}.aM{fill:url(#g95)}.aN{fill:url(#g96)}.aO{fill:url(#g97)}.aP{opacity:.6;fill:url(#g98)}.aQ{opacity:.4;mix-blend-mode:color-dodge;fill:url(#g99)}.aR{opacity:.4;mix-blend-mode:color-dodge;fill:url(#g100)}.aS{fill:url(#g101)}.aT{fill:url(#g102)}.aU{fill:url(#g103)}.aV{fill:url(#g104)}.aW{fill:url(#g105)}.aX{fill:url(#g106)}.aY{fill:url(#g107)}.aZ{fill:url(#g108)}.b0{fill:url(#g109)}.b1{fill:url(#g110)}.b2{fill:url(#g111)}.b3{fill:url(#g112)}.b4{fill:url(#g113)}.b5{opacity:.6;fill:url(#g114)}.b6{fill:url(#g115)}.b7{opacity:.5;fill:url(#g116)}.b8{opacity:.4;mix-blend-mode:color-dodge;fill:url(#g117)}.b9{opacity:.3}.ba{opacity:.1;fill:url(#g118)}.bb{opacity:.3;fill:url(#g119)}.bc{fill:url(#g120)}.bd{fill:url(#g121)}.be{fill:#030}.bf{fill:#c2e0e0}.bg{opacity:.1;fill:url(#g122)}.bh{opacity:.3;fill:url(#g123)}.bi{fill:url(#g124)}.bj{fill:url(#g125)}.bk{opacity:.7;fill:url(#g126)}.bl{opacity:.3;fill:url(#g127)}.bm{opacity:.6}.bn{fill:url(#g128)}.bo{fill:url(#g129)}.bp{opacity:.5;fill:url(#g130)}.bq{mix-blend-mode:color-dodge;fill:url(#g131)}.br{opacity:.1;fill:url(#g132)}.bs{opacity:.3;fill:url(#g133)}.bt{fill:url(#g134)}.bu{fill:url(#g135)}.bv{fill:url(#g136)}.bw{opacity:.5;fill:url(#g137)}.bx{opacity:.6;mix-blend-mode:color-dodge;fill:url(#g138)}.by{opacity:.5;fill:url(#g139)}.bz{opacity:.4;fill:url(#g140)}.bA{fill:url(#g141)}.bB{mix-blend-mode:color-dodge;fill:url(#g142)}.bC{mix-blend-mode:color-dodge;fill:url(#g143)}.bD{mix-blend-mode:color-dodge;fill:url(#g144)}.bE{opacity:.7;fill:#fff}.bF{opacity:.3;fill:url(#g145)}.bG{opacity:.4}.bH{opacity:.4;fill:#c2e0e0}.bI{opacity:.3;fill:url(#g146)}.bJ{opacity:.3;fill:url(#g147)}.bK{opacity:.3;fill:url(#g148)}.bL{opacity:.3;fill:url(#g149)}.bM{opacity:.3;fill:#c2e0e0}.bN{opacity:.3;fill:url(#g150)}.bO{opacity:.3;fill:url(#g151)}.bP{opacity:.7;fill:url(#g152)}.bQ{opacity:.7;fill:#2e444d}.bR{opacity:.3;fill:url(#g153)}.bS{opacity:.3;fill:url(#g154)}.bT{opacity:.3;fill:url(#g155)}.bU{fill:url(#g156)}.bV{fill:url(#g157)}.bW{fill:url(#g158)}.bX{fill:url(#g159)}.bY{fill:url(#g160)}.bZ{mix-blend-mode:color-dodge;fill:url(#g161)}.c0{fill:url(#g162)}.c1{opacity:.7;mix-blend-mode:color-dodge;fill:url(#g163)}.c2{mix-blend-mode:color-dodge;fill:url(#g164)}.c3{fill:url(#g165)}.c4{mix-blend-mode:color-dodge;fill:url(#g166)}.c5{opacity:.6;mix-blend-mode:color-dodge;fill:url(#g167)}.c6{opacity:.7;mix-blend-mode:color-dodge;fill:url(#g168)}.c7{opacity:.3;mix-blend-mode:color-dodge;fill:url(#g169)}.c8{opacity:.3;mix-blend-mode:color-dodge;fill:url(#g170)}.c9{opacity:.6;mix-blend-mode:color-dodge;fill:url(#g171)}.ca{mix-blend-mode:color-dodge;fill:url(#g172)}.cb{mix-blend-mode:color-dodge;fill:url(#g173)}.cc{mix-blend-mode:color-dodge;fill:url(#g174)}.cd{opacity:.4;mix-blend-mode:color-dodge;fill:url(#g175)}.ce{opacity:.4;mix-blend-mode:color-dodge;fill:url(#g176)}.cf{opacity:.4;mix-blend-mode:color-dodge;fill:url(#g177)}.cg{opacity:.4;mix-blend-mode:color-dodge;fill:url(#g178)}</style><path class="a" d="m35.5 21.5q0 0 0 0c0.2-0.1 0.4-0.2 0.6-0.3q0.1 0.2 0.2 0.4c0.2 0.6 0.2 1.3 0.3 1.9 0.1 0.5 0.2 1 0 1.6-0.1 0.3-0.5 0.5-0.8 0.4-0.7-0.1-1.5 0.2-2.2 0q0 0-0.1 0c-0.4 0.3-1.1 0.2-1.1-0.3 0-1-0.1-1.9-0.3-2.8-0.1-0.6-0.2-1.3-0.3-1.9q-0.4-0.8-0.8-1.5 0.3-0.1 0.6-0.4 0 0 0 0c-0.2 0.1-0.3 0.2-0.5 0.1q-0.1 0-0.2 0 0-0.1-0.1-0.1 0-0.1-0.1-0.2 0.3-0.1 0.6-0.3 0 0 0 0-0.3 0-0.5 0.1 0-0.1 0-0.1c-0.3-0.5-0.7-1-1-1.4-0.3-0.6-0.6-1.1-1-1.6q-0.4-0.5-0.8-0.9 1 0.1 1.9 0.4 0.8 0.4 1.5 1c1 0.8 2 1.7 2.9 2.7q1 1.2 1.7 2.7 0 0.1 0 0.1-0.2 0.2-0.5 0.4z"/><path class="b" d="m28.6 14.9q0-0.1 0-0.1 0 0 0 0.1z"/><path class="c" d="m33.8 25.5q-0.1 0-0.2 0 0.1 0 0.2 0z"/><path class="d" d="m34.2 25.6q-0.1 0-0.2 0 0.1 0 0.2 0z"/><path class="e" d="m28.4 14.6q0 0-0.1 0 0.1 0 0.1 0z"/><path class="f" d="m36.1 21.2q0.1 0.2 0.2 0.4c0.2 0.6 0.2 1.3 0.3 1.9 0.1 0.5 0.2 1 0 1.6-0.1 0.3-0.5 0.5-0.8 0.4-0.5 0-0.9 0-1.3 0.1 0-0.9 0-1.8-0.1-2.7-0.2-1.3-0.7-2.5-1.3-3.7-0.5-1.1-1.1-2.2-2-3.1-0.6-0.6-1.2-1-1.9-1.3-0.4-0.2-0.8-0.4-1.2-0.6q0 0 0 0 1 0.1 1.9 0.4 0.8 0.4 1.5 1c1 0.8 2 1.7 2.9 2.7q1 1.2 1.7 2.7 0 0.1 0 0.1-0.2 0.2-0.5 0.4 0 0 0 0c0.2-0.1 0.4-0.2 0.6-0.3z"/><path class="g" d="m29.2 14.8c-0.4-0.2-0.8-0.4-1.2-0.6q0 0 0 0 1 0.1 1.9 0.4 0.8 0.4 1.5 1c1 0.8 2 1.7 2.9 2.7q1 1.2 1.7 2.7 0 0.1 0 0.1-0.2 0.2-0.4 0.3-0.5-1.1-1.2-2.2c-0.8-1-1.7-2-2.8-2.8q-0.4-0.3-0.9-0.7-0.7-0.5-1.5-0.9z"/><path class="h" d="m36.3 21.6c0.2 0.6 0.2 1.3 0.3 1.9 0.1 0.5 0.2 1 0 1.6 0 0.2-0.2 0.3-0.4 0.4q0.1-0.4 0.1-0.8c0.1-0.6-0.1-1.3-0.2-1.9q-0.2-0.7-0.5-1.4 0.3-0.1 0.5-0.2 0.1 0.2 0.2 0.4z"/><path class="i" d="m28.2 14.4q-0.1 0-0.1-0.1 0 0.1 0.1 0.1z"/><path class="j" d="m34 25.6q-0.1 0-0.2-0.1 0.1 0.1 0.2 0.1z"/><path class="k" d="m34.4 25.6q-0.1 0-0.2 0 0.1 0 0.2 0z"/><path class="l" d="m28.8 15.1q-0.1-0.1-0.2-0.2 0.1 0.1 0.2 0.2z"/><path class="m" d="m33.5 25.5q0.1 0 0.1 0 0 0 0 0 0 0 0 0 0 0-0.1 0z"/><path class="n" d="m34 26q0 0 0 0 0 0 0 0z"/><path class="o" d="m28 14.2q0 0.1 0.1 0.1-0.1 0-0.1-0.1 0 0 0 0z"/><path class="p" d="m34.2 26q0 0 0 0 0 0 0 0z"/><path class="q" d="m28.6 14.8q-0.1-0.1-0.2-0.2 0.1 0.1 0.2 0.2z"/><path class="r" d="m33.8 25.5q0 0 0 0 0 0 0 0z"/><path class="s" d="m34.5 25.6q-0.1 0-0.1 0 0 0 0.1 0z"/><path class="t" d="m28.3 14.6q-0.1-0.1-0.1-0.2 0 0.1 0.1 0.2z"/><path class="u" d="m33.1 19.2c0.6 1.2 1.1 2.4 1.3 3.7 0.1 0.9 0.1 1.8 0.1 2.7q-0.1 0-0.1 0-0.1 0-0.2 0 0 0 0 0-0.1 0-0.2 0 0 0 0 0-0.1 0-0.2-0.1 0 0 0 0-0.1 0-0.2 0 0 0 0 0 0 0-0.1 0c-0.4 0.3-1.1 0.2-1.1-0.3 0-1-0.1-1.9-0.3-2.8-0.1-0.6-0.2-1.3-0.3-1.9q-0.4-0.8-0.8-1.5 0.3-0.1 0.6-0.4 0 0 0 0c-0.2 0.1-0.3 0.2-0.5 0.1q-0.1 0-0.2 0 0-0.1-0.1-0.1 0-0.1-0.1-0.2 0.3-0.1 0.6-0.3 0 0 0 0-0.3 0-0.5 0.1 0-0.1 0-0.1c-0.3-0.5-0.7-1-1-1.4-0.3-0.6-0.6-1.1-1-1.6q-0.1-0.1-0.2-0.2 0-0.1 0-0.1-0.1-0.1-0.2-0.2 0 0-0.1 0-0.1-0.1-0.1-0.2-0.1 0-0.1-0.1-0.1 0-0.1-0.1c0.4 0.2 0.8 0.4 1.2 0.6 0.7 0.3 1.3 0.7 1.9 1.3 0.9 0.9 1.5 2 2 3.1z"/><path class="v" d="m32.3 23.4q0-0.1 0-0.2c0.4 0.1 0.9 0 1.3-0.1q0.4-0.1 0.8-0.2 0 0 0 0 0 0.3 0 0.5 0 0-0.1 0c-0.7 0.1-1.3 0.1-2 0z"/><path class="v" d="m32.9 18.8q0.1 0.1 0.2 0.3-0.2 0-0.4 0.1c-0.4 0.2-0.8 0.5-1.2 0.8q0-0.1-0.1-0.3 0.4-0.3 0.9-0.6 0.3-0.1 0.6-0.3z"/><path class="w" d="m31.4 18.8q-0.2 0.1-0.3 0.3 0-0.1-0.1-0.1 0.2-0.1 0.4-0.2z"/><path class="v" d="m29.5 16.2q0-0.1-0.1-0.1 0.2-0.2 0.3-0.4 0.2-0.2 0.4-0.4 0 0 0 0c-0.2 0.3-0.4 0.5-0.6 0.9z"/><path class="v" d="m29.6 16.4q0-0.1 0-0.1c0.2-0.4 0.4-0.6 0.7-0.9q0.1 0.1 0.1 0.1-0.1 0.1-0.2 0.2c-0.1 0.1-0.4 0.4-0.6 0.7z"/><path class="v" d="m29.8 16.6q-0.1-0.1-0.1-0.1c0.2-0.3 0.6-0.6 0.8-0.8q0 0 0.1-0.1 0 0.1 0.1 0.2-0.2 0.1-0.4 0.3c-0.2 0.1-0.4 0.3-0.5 0.5z"/><path class="v" d="m30.5 17.6q-0.1-0.1-0.2-0.2 0.5-0.1 1-0.4 0.2-0.1 0.4-0.2 0 0 0.1 0.1-0.1 0.1-0.2 0.1c-0.3 0.3-0.7 0.5-1.1 0.6z"/><path class="v" d="m32.7 18.3q0.1 0.2 0.1 0.3-0.1 0.1-0.2 0.1c-0.5 0.2-0.9 0.6-1.2 0.9q-0.1-0.2-0.3-0.4 0.7-0.4 1.3-0.8 0.1-0.1 0.3-0.1z"/><path class="v" d="m33.7 20.5q0 0.1 0.1 0.2c-0.6 0.3-1.2 0.6-1.9 0.5q0-0.1-0.1-0.3c0.5 0.1 0.9 0 1.3-0.2q0.3-0.1 0.6-0.2z"/><path class="v" d="m33.9 21q0.1 0.2 0.2 0.5-0.1 0-0.2 0c-0.6 0.1-1.3 0.1-1.9 0q-0.1-0.1-0.1-0.2c0.5 0.3 1.1 0 1.6-0.2q0.2 0 0.4-0.1z"/><path class="x" d="m34.5 25.5c0 0 0.1-0.7 0.1-0.9 0-0.4-0.1-0.8-0.2-1.2-0.4-2.9-2.1-5.7-2.8-6.6-0.8-1-1.9-1.6-3-2.3q0 0 0 0c1.2 0.5 2.3 1.2 3.2 2.1 0.8 1 1.6 2.2 2.1 3.5 0.1 0.3 0.2 0.5 0.6 0.5 0.3-0.1 0.5-0.2 0.8-0.4-0.1 0.5-0.8 0.7-1 1.1-0.4 0.6 0.7 0 0.9-0.2-0.1 0.3-0.7 0.7-0.8 0.9 0 0.4 0.4 0.4 0.7 0.4-0.6 0.5-0.3 1.2-0.2 1.7 0.1 0.6 0.7 0.9 1.1 1.3-0.3 0.1-0.6 0.2-0.9 0.2-0.2 0-0.4 0-0.6-0.1z"/><path class="y" d="m34.4 25.5c-0.1-0.5 0-2.1-0.1-2.7q-0.1-0.9-0.4-1.9c-0.4-1.1-0.9-2.1-1.6-3.1 0 0 0.1 0 0.1 0 0.8 0.9 1.3 1.9 1.7 3 0.4 1.1 0.6 3.5 0.4 4.7 0 0.1-0.1 0.1-0.1 0z"/><path class="z" d="m33.5 19.9q0.1-0.1 0.1-0.1c0.5 0.7 0.8 1.7 0.9 2.6 0 0-0.1 0-0.1 0-0.4-0.7-0.7-1.7-0.9-2.5z"/><path class="z" d="m28.7 14.4c0.5 0.2 0.9 0.5 1.3 0.8q0 0 0 0c-0.5-0.2-0.9-0.4-1.3-0.7q-0.1-0.1 0-0.1z"/><path class="z" d="m30.3 15.3c0.2 0 0.3 0.1 0.3 0.3q0 0-0.1 0c-0.1 0-0.2-0.1-0.2-0.1-0.1-0.1 0-0.2 0-0.2z"/><path class="A" d="m18.5 12.4c-0.1 0.5-0.6 0.4-0.9 0.2-0.4-0.2-0.5-0.9-0.5-1.3 0-0.2 0-0.3 0-0.5 0-0.2-0.1-0.4-0.1-0.6 0-0.2 0.1-0.3 0.2-0.5q0.1-0.1 0.1-0.3c0-0.2 0-0.3 0.1-0.5 0.4-0.5 0.9 0.3 1 0.7 0.3 0.9 0.3 2.2 0.1 2.8z"/><path class="B" d="m24.5 20.1c-0.2 0.3-0.6 0.3-0.9 0-0.3-0.3-0.3-0.9-0.2-1.3 0.1-0.3 0.2-0.6 0.3-0.9q0-0.4 0-0.9c0-0.1 0.1-0.1 0.1 0q0.4 0.3 0.6 0.8c0.4 0.7 0.4 1.6 0.1 2.3z"/><path class="C" d="m9.6 15.8c0.2 0.5 0.8 1.8-0.1 2-1 0.3-1.3-1.4-1.4-2-0.1-0.6-0.1-1.1-0.2-1.7q0 0 0 0c-0.2-0.6 0.9-0.9 1.2-0.3q0.1 0.3 0.2 0.5c0.1 0.5 0.1 1.1 0.3 1.5z"/><path class="D" d="m46.8 34.5q1.8 2.5 1.5 3.4-0.3 0.9-0.3 1.7-0.1 1.7-0.3 2.4c-0.4 1.8-2.2 3.9-2.8 5.5-0.8 2-3.8 1.2-4.3 2.7-0.7 1.7-1.1 2.8-1.2 3.1q-2.7-0.2-3.5 2.4l-7.3 6.4-2.9-0.9 0.2-1.4q-4.5-2.4-6.3-4.2-0.8-0.7-1.4-0.9l-2.4-0.8-4.8-3.2-7-7.3q-0.9-1.8-1.6-3.5c-0.2-1.8-0.4-3.6-0.6-5.3q0.2-0.4 0.5-0.8 0-0.1 0-0.1l2.9-0.3-2.3-4.2h45.5z"/><path class="E" d="m10.1 48.1c0.2 0.7 0.3 1.4 0.4 2.1l-6-6.3c0.8 0.2 1.6 0.4 2.4 0.8 1 0.4 2.5 0.9 2.9 2 0.2 0.4 0.2 0.9 0.3 1.4z"/><path class="F" d="m25.8 51.7c-0.5 3.8-2 5.6-2.5 6.3 0.1-0.8 0.2-1.6 0.4-2.4 0.4-1.3 0.7-2.7 0.6-4.1h0.3q1.3-0.5 1.2 0.2z"/><path class="G" d="m47.8 39.5q0.1 1.8-0.1 2.5c-0.4 1.8-2.2 3.9-2.8 5.5-0.8 2-3.8 1.2-4.3 2.7-0.7 1.7-1.1 2.8-1.2 3.1q-2.7-0.2-3.5 2.4l-7.2 6.3q0.2-0.5 0.3-0.8c0.8-1.6 2-3 3.3-4.1 0.6-0.5 1.3-1 1.8-1.6 0.6-0.7 0.4-1.3 0.8-2.1 0.9-1.6 1-3.2 1.3-4.9 0.4-1.8 1.3-4 1.2-5.8 0-1 0.2-1.9 0.1-2.9 0-0.9 0-1.8-0.2-2.7-0.2-0.7-0.6-1.4-0.9-2q-0.4-1.2-0.6-2.5c-0.2-1.7-0.1-3.4 0.1-5.1 0.3-2.1 0.6-3.5 0.9-5.7l11.6 7.4-1.6 5.3q1.8 2.1 1.5 3-0.3 0.8-0.5 2z"/><path class="H" d="m29.5 61.3c0.3-0.4 0.4-1.1 0.8-1.5 1-1.3 1.9-2.3 3-3.5 0.5-0.5 1.2-1 1.7-1.4q0.7 0.1 1.3 0-0.3 0.4-0.4 0.8z"/><path class="I" d="m47.7 42c-0.4 1.8-2.2 3.9-2.8 5.5-0.8 2-3.8 1.2-4.3 2.7-0.7 1.7-1.1 2.8-1.2 3.1q-0.7-0.1-1.2 0.1-0.1 0-0.2 0c-0.4 0.1-1.3 0.5-1.8 1.6-0.3 0.6-1.5 0.4-2.1 0.5 0.3-0.2 1-2.7 1.9-4.2 1.1-2 4-3.9 4.8-4.9 0.9-1 2.4-1.4 3.7-2 1.6-0.8 2.9-2.1 3.2-3.7 0.1 0.5 0.1 1 0 1.3z"/><path class="v" d="m47.7 42c-0.4 1.8-2.2 3.9-2.8 5.5-0.8 2-3.8 1.2-4.3 2.7q-0.4 1.1-0.7 1.8 0-0.2 0-0.4 0.2-2.2 0.2-4.4 0.4-0.5 0.7-0.8c0.9-1 2.4-1.4 3.7-2 1.6-0.8 2.9-2.1 3.2-3.7 0.1 0.5 0.1 1 0 1.3z"/><path class="J" d="m41.9 24.6l6.1 4.4c-0.3 1.1-0.6 2.3-0.9 3.4-0.4 1.4-0.9 2.9-1.4 4.3-0.5 1.4-1.1 2.7-2.2 3.8-0.3 0.4-0.7 0.7-1.1 1 0-0.7 0-1.4 0-2.1-0.1-1.8 0.2-3.5 0.1-5.3-0.1-0.8-0.3-1.7-0.4-2.5q-0.1-1.3-0.2-2.6c0-1.5 0.1-2.9 0-4.4z"/><path class="K" d="m41.1 34.4q0 0-0.1 0 0 0 0 0.1 0 0-0.1 0c-1.1-0.1-2.3-0.2-3.5-0.3-0.3 0-0.8 0-1.3 0q-0.2-0.8-0.3-1.6c-0.2-1.7-0.1-3.4 0.1-5.1 0.3-2.1 0.6-3.4 1-5.5l4.8 2.4c-0.2 1.5-0.2 2.9-0.2 4.3 0 1.7 0.3 3.3 0.4 5 0.2 1.6 0 3.3 0 5-0.1 0.8-0.1 1.5-0.1 2.3-0.1-0.2-0.5-3.8-0.5-4.2 0-0.7 0.2-1.8-0.2-2.4z"/><path class="L" d="m11.8 38.4q-0.2 3.4-1.6 6.4-0.1-0.1-0.2-0.3-0.2-0.2-0.4-0.4 0.1-0.4 0-0.7c-0.1-1.3-0.8-2.3-1.9-3-1.2-0.9-2.3-1.8-3.3-2.9-0.9-1-1.7-2-2.6-3q0.3-0.4 0.5-0.7 0-0.1 0-0.1l2.9-0.3-2.3-4.2 5.7-4c0.7 2.1 1.8 4.1 2.5 6.3 0.7 2.2 0.8 4.6 0.7 6.9z"/><path class="v" d="m11.8 38.4q-0.2 3.4-1.6 6.4-0.1-0.1-0.2-0.3-0.2-0.2-0.4-0.4 0.1-0.4 0-0.7c-0.1-1.3-0.8-2.3-1.9-3-1.2-0.9-2.3-1.8-3.3-2.9-0.9-1-1.7-2-2.6-3q0.3-0.4 0.5-0.7 0-0.1 0-0.1l2.9-0.3-2.3-4.2 5.7-4c0.7 2.1 1.8 4.1 2.5 6.3 0.7 2.2 0.8 4.6 0.7 6.9z"/><path class="v" d="m37.8 31.1c0 2.1-0.2 4.1-0.3 6.2-0.1 2-0.1 4.1-0.3 6.1-0.1 1.9-0.5 3.8-1 5.7-0.5 1.7-0.3 2.6-1.5 5.2q-0.2 0.3-0.2 0.5-0.4 0.3-0.7 0.6c-0.9 1.1-1.8 2.3-2.7 3.4q-1.1 1.5-2.1 3l-0.4 0.3-2.9-0.9 0.2-1.4q-1.3-0.7-2.8-1.6c0.1-1.5 1.1-3.1 1.1-4.6-0.1-0.8-1.1-1.5-1.3-2.3-0.2-0.8-0.8-1.5-1.4-2.1-0.9-1.2-2.2-2.1-3.2-3.3-1.1-1.3-1.9-2.9-2.4-4.5-0.3-0.8-1.8-4-2-4.8-0.2-0.7 0.9-1.3 1.2-1.9 0.3-0.9 0.3-1.8 0.4-2.7 0.1-3.7-0.1-6.3-0.6-9.9l22 0.3c0.1 1.3 0.6 1.3 0.7 2.6 0.2 2 0.3 4.1 0.2 6.1z"/><path class="M" d="m25.7 61.2l0.2-1.4q0 0 0 0c0.2-0.6 0.6-3.6 0.9-4.4 0.3 1.2 1.8 5.8 1.7 6.6z"/><path class="N" d="m27.6 37.3c-0.1 0.7-0.4 1.4-0.6 2-0.3 0.7-0.3 1.4-0.6 2-0.3-0.8-0.1-2.1-0.7-2.8-0.8-0.8-3.1-1.4-3.4-0.5-0.5 1.5 0.4 5 0.2 7.4-0.8-3.3-1.4-5.4-1.8-7.4-0.7-0.2-0.4 0.2-1 0.6q-0.8 0.6-1.7 3.3 1.7 4.9 1.7 5.5c-0.5-0.5-1-0.9-1.4-1.5-1.1-1.3-1.9-2.9-2.4-4.5-0.3-0.8-1.8-4-2-4.8q0-0.2 0-0.4c1.4 0.2 2.9 0.2 4.3 0.2 1.8 0.1 3.5 0.2 5.2 0.5 1.4 0.3 2.8 0 4.2 0.4z"/><path class="O" d="m37.8 31.1c0 2.1-0.2 4.1-0.3 6.2-0.1 2-0.1 4.1-0.3 6.1-0.1 1.9-0.5 3.8-1 5.7-0.5 1.7-0.9 3.5-1.5 5.2q-0.1 0.3-0.2 0.5-0.4 0.3-0.7 0.6c-0.9 1.1-1.8 2.3-2.7 3.4q-1 1.4-2 2.9 0-0.5 0.1-0.9c0.1-1.6 0.2-3.2 0.6-4.8 0.4-1.8 0.8-3.7 0.9-5.6 0.1-2-0.3-4-0.4-5.9-0.1-2-0.1-3.9-0.2-5.8-0.2-2-0.5-4-0.7-6.1-0.2-1.9-0.3-3.9-0.6-5.9-0.3-1.9-0.6-2.9-0.6-4.8l8.7 0.2c0.2 1.3 0.6 1.6 0.7 2.9 0.2 2 0.3 4.1 0.2 6.1z"/><path class="P" d="m36.2 49.2c0.1 1.1-0.1 2.2-1.5 5.1q-0.2 0.3-0.2 0.5-0.4 0.3-0.7 0.6c-0.9 1.1-1.8 2.3-2.7 3.4q-1 1.4-2 2.9 0-0.5 0.1-0.9c0.1-1.6 0.2-3.2 0.6-4.8q0.1-0.6 0.3-1.3c1.6-1.1 3.4-2.2 4.7-3.6q0.8-0.9 1.4-1.9z"/><path class="Q" d="m37.3 41.5q0 1-0.1 1.9c-0.1 2.7-0.7 5.8-2.4 8-0.6 0.7-1.4 1.1-2 1.7-0.6 0.5-1.1 1-1.7 1.5-0.4 0.3-0.6 0.4-0.9 0.7q-0.2 0.1-0.4 0.2c-0.1-0.1-0.2-0.2-0.2-0.3q-0.2-0.3-0.3-0.6c-0.7-1.6-1.2-3.6-1.7-5.4-0.6-2.6-1-5.2-1.6-7.8 3.7 0.4 7.5 0.4 11.3 0.1z"/><path class="R" d="m26.9 45.6c-0.3-1.4-0.6-2.8-0.9-4.2q0.9 0.1 1.9 0.2c-0.1 1.1 1.6 2 1.7 3.2 0 0.5-1 2.4-1.6 2.8q-0.1 0-0.1 0.1c-0.9 0.4-0.9-1.5-1-2.1z"/><path class="S" d="m34.4 41.7c1.6-0.1 2.4-0.4 2.5 1.2 0.1 2.1-0.6 4.3-1.1 6.3-0.3 1.3-0.7 2.4-2 3-1.1 0.6-2 1.2-2.9 2.1-0.3 0.4-0.5 0.7-1 0.8-0.2-1 0.7-2.6 1-3.5q0.1-0.3 0-0.5c0.1-1.1-0.1-2.3-0.1-3.4 0-0.2-0.1-1.2-0.1-1.6 0-0.2-1.9-3.2-2.6-4.5 0.3 0.5 5.6 0.1 6.3 0.1z"/><path class="T" d="m30.7 46.1c0-0.2-1.9-3.2-2.6-4.5 0.3 0.5 5.6 0.1 6.3 0.1 1.6-0.1 2.4-0.4 2.5 1.2q0 0.1 0 0.1c-0.3 0-0.5 0.1-0.7 0.1-0.3 0.1-0.6 0.3-0.8 0.5-1.3 0.6-2.4 1.6-3.3 2.8-0.5 0.7-0.9 1.5-1.3 2.3q0-0.5 0-1c0-0.2-0.1-1.2-0.1-1.6z"/><path class="U" d="m34.5 51.8q-0.3 0.2-0.7 0.4c-1.1 0.6-2 1.2-2.9 2.1-0.3 0.4-0.5 0.7-1 0.8-0.2-1 0.7-2.6 1-3.5q0-0.2 0-0.3 1.8 0.1 3.6 0.5z"/><path class="V" d="m36 49.5c-0.6 0.9-0.9 1.7-1.5 2.3 1.2-3.2 1.6-6.8 0.8-10.1q0 0-0.1-0.1c1-0.1 1.4-0.2 2.3-0.2 0.1 2 0.2 5.5-1.5 8.1z"/><path class="W" d="m47.6 41.6c-0.5 0.9-1.4 2-2.4 2.4-1 0.5-2.3 0.7-3.2 1.3-0.5 0.3-0.8 0.6-1.1 1.1-0.2-0.4-0.4-0.7-0.6-1-0.4-0.6-0.9-1.2-1.5-1.6 0.7-0.7 1.3-0.6 2.2-1.3 0.5-0.3 2.6-1.4 2.6-1.4 0.1 0 0.3-0.5 0.4-0.6 0.3-0.5 0.6-1 0.9-1.4 0.7-0.8 0.9-1.6 1.2-2.5 0.3-0.6 0.5-1.5 0.7-2.1 0.4 0.8 1.2 1.6 1.4 2.5 0.2 0.6-0.1 1.5-0.3 2.1q0 0.2 0 0.4c-0.1 0.7 0.1 1.5-0.3 2.1z"/><path class="X" d="m35.8 51.2c0.5-1-0.3-0.9 1-3.4 0.6-1 1.8-3.8 1.8-3.8q0 0 0 0c0.3 0.6 0.6 1.1 1 1.6q0.3 0.5 0.6 1.1c0.1 0.1 0.1 0 0.1 0.2-1.1 0.3-2.6 1.9-4.5 4.3z"/><path class="Y" d="m45.8 43.4q-0.4 0.3-0.8 0.5-0.3 0.2-0.6 0.3 0-0.1 0-0.1-0.4-1.5-1-2.9 0.1 0 0.2-0.1l0.1-0.2c0.3 0.6 0.7 1.1 1.2 1.5q0.4 0.5 0.9 1z"/><path class="Z" d="m38.1 44.9c0.3-0.5 0.5-0.9 0.5-0.9 0.7-0.8 1.3-0.8 2.2-1.3q0.2 1.1 0.5 2.1 0.1 0.4 0.2 0.8c-0.3 0.4-1.4 1.3-1.5 1.5-0.2-0.2-0.2-0.2-0.4-0.4q-0.5-0.7-1.1-1.3-0.2-0.2-0.4-0.5z"/><path class="a0" d="m38.5 44.2q0.1-0.2 0.1-0.2c0.3-0.4 0.6-0.6 0.9-0.7 0.4 1 1.1 1.9 1.5 2.9q-0.2 0.3-0.4 0.7-0.1 0-0.1 0c-0.6-0.9-1.3-1.8-2-2.7z"/><path class="a1" d="m37.3 41.2c0.1 0 0.3 0.4 0.2 0.5-0.4 0.7-0.7 1.3-1.2 1.8-0.2 0.3-0.2 0.3-0.4 0.3-0.4 0.2-0.8 0.2-1.2 0.3-0.8 0.1-1.6 0.2-2.4 0.3-0.6 0.1-0.9 0.2-1.4 0.1q-1.1-0.1-2-0.6c-1.1-0.5-2.4-1.4-2.8-2.4q-0.1-0.1-0.1-0.2 0.4 0.1 0.8 0.1c1.3 0.1 2.5 0 3.8 0 2.2 0 4.4-0.1 6.7-0.2z"/><path class="a2" d="m36.5 43.4q-0.1 0.1-0.2 0.1c-0.2 0.3-0.2 0.3-0.4 0.3-0.4 0.2-0.8 0.2-1.2 0.3-0.8 0.1-1.6 0.2-2.4 0.3-0.6 0.1-0.9 0.2-1.4 0.1q-1.1-0.1-2-0.6c-1.1-0.5-2.4-1.4-2.8-2.4q-0.1-0.1-0.1-0.2 0.4 0.1 0.8 0.1c0.9 0 1.7 0 2.6 0 1.1 1.1 2.7 1.6 4.3 1.8q1.4 0.2 2.8 0.2z"/><path class="a3" d="m7.3 34.3q-1.5-3.8-1.1-4c0.9-0.4 2.7 1.2 3.3 1.6 0.6 0.5 3.9 2.5 3.9 3.3-0.1 1.2-2.7 0.1-3.3-0.1-0.7-0.3-1.5-1.1-1.5 0.1q-0.1 0.9 0 1.8c0 0.4 0 0.8 0 1.2 0 0-0.2 0.6-0.3 0.5q-0.3-0.5-1-4.4z"/><path class="a4" d="m19.2 53.2c-1.8-0.9-3.8-2.2-5.1-3.7-1.7-2-2.3-4.6-3.8-6.7-0.5-0.8-1.1-1.6-1.4-2.4q-0.1-0.2-0.2-0.5c1-0.3 1.9-0.9 2.7-1.5 0.2 0 0.4 0.1 0.7 0.5 1 1.4 2.8 7 3.2 8.1 0.2 0.7 0.6 0.9 1.1 1.4 0.5 0.4 0.9 1 1.3 1.4 1.1 1.1 1.1 2 1.5 3.4z"/><path class="a5" d="m48.4 29.2q-2.7 2-5.4 3.9-0.3 0.2-0.6 0.4-0.8 0-1.7 0.1c-0.6 0-1.2 0.1-1.8 0.1-0.7 0.1-1.3 0.1-2 0.1q0 0 0 0 0.9 0.1 1.8 0.1c0.7 0.1 1.4 0.4 2.1 0.5q0.1 0 0.3 0.1l-1.9 1.3c-0.5 0.4-1 1-1.6 1.3-0.8 0.4-1.9 0.3-2.8 0.3q-11.4 0-12 0c-0.7-0.1-0.6-0.7-0.6-0.8-0.1-0.9-0.3-1.8-0.3-2.7 0 0 0 0 0 0-0.2 0.8-0.4 1.5-0.7 2.3q-0.1 0.4-0.3 0.8 0 0.1-0.3 0.4h-2.5c-1.1 0-2.3 0.1-3.4 0q-0.2 0-0.4-0.1c-1.1-0.3-2.1-1-3.2-1.8-0.1-0.1-0.1-0.3 0.1-0.3 0.5 0 1.1 0 1.6 0q0 0 0 0c-0.5-0.1-0.9-0.3-1.4-0.5-0.4-0.3-0.8-0.5-1.3-0.7q-0.7-0.4-1.5-0.6-0.5-0.4-1-0.8l-4.7-3.4 10.8-7.6 1.2-0.5c1.1-0.3 2.9 0 3.9 0 2.5 0 4.9 0.1 7.1-0.5 0.3-0.1 0.5-0.3 0.7-0.4 0.3 0.4 0.9 0.4 1.3 0.1 0.5 0.1 1 0.5 1.5 0.7 0.5 0.2 0.4 0.6 0.9 0.2 0.3-0.2 0.2-0.9 0.5-1 0.4-0.1 0.6 0.4 0.9 0.4 0.4-0.1 0.4-0.7 0.6-0.9q0.1 0 0.1 0 0 0 0.1 0c0 0.3 0.4 0.6 0.8 0.6 0.4 0 0.7-0.3 0.8-0.7q0.1 0 0.2 0.1c0.8 0.2 1.5 0.4 2.2 0.9q0.2 0.1 0.3 0.2c0.7 0.5 1.1 1.2 1.8 1.7 0.8 0.5 1.7 0.6 2.6 0.7 0.1 0.3 0.4 0.6 0.8 0.6q0.2 0 0.5-0.1c0.2 0.3 0.2 0.5 0.5 0.7q0.1 0 0.2 0.1 0.2 0 0.3 0-0.1 0.2-0.1 0.3c0 0.5 0.4 0.8 0.8 0.8q0.1 0 0.1 0 0.1 0.3 0.2 0.5c0.2 0.4 3.5 3.4 3.9 3.1z"/><path class="a6" d="m39.1 35.9c-0.5 0.3-0.9 0.9-1.5 1.2-0.8 0.4-1.9 0.3-2.8 0.3q-11.4 0-12 0c-0.7-0.1-0.6-0.7-0.6-0.8-0.1-0.9-0.3-1.8-0.3-2.7 0 0 0 0 0 0-0.2 0.8-0.4 1.5-0.7 2.3q-0.1 0.4-0.3 0.8 0 0.1-0.3 0.4h-2.5c-1.1 0-2.3 0.1-3.4 0q-0.2 0-0.4-0.1c-1.1-0.3-2.1-1-3.2-1.8-0.1-0.1-0.1-0.3 0.1-0.3 0.5 0 1.1 0 1.6 0q0 0 0 0c-0.5-0.1-0.9-0.3-1.4-0.5-0.4-0.3-0.8-0.5-1.3-0.7q-0.7-0.4-1.5-0.6-0.5-0.4-1-0.8l-4.7-3.4 10.8-7.6 1-0.4c-0.1 2 1.2 4.1 2.5 5.6 1.9 2.2 4.1 4.1 6.8 5.4 2.8 1.3 5.8 2.1 8.7 2.9 2.1 0.6 4.3 0.8 6.4 0.8z"/><path class="a7" d="m20.6 56.5q-0.1-0.1-0.2-0.1 0-0.2-1.7-2.5-1.3 0.2-1.9 0c0 0-3.3-2.4-4.8-3.7q-0.1-0.9-0.3-1.8c-0.5-1.7-1.7-2.8-3.3-3.5-1-0.4-1.9-0.7-2.8-1-0.5-0.2-1.1-0.4-1.6-0.5q-0.9-1.8-1.6-3.5c-0.2-1.8-0.4-3.6-0.6-5.3q0.2-0.4 0.5-0.8 0-0.1 0-0.1l1.5-0.2q0.7 1.2 1.6 2.3c0.9 0.9 2 1.5 3.1 2q0.3 0.6 0.6 1.1c0.6 0.8 0.3 1 0.8 1.8 0.6 1.1 2 2.9 2.6 4 0.6 1.1 1 2.2 1.6 3.2q1.2 1.8 4.8 4.2 1.7 4.1 1.7 4.4z"/><path class="a8" d="m20.2 54.2c0 0.8 0.4 1.5 0.3 2.2-0.7-0.6-1.2-1.7-1.8-2.5q-1.3 0.2-1.9 0c0 0-3.3-2.4-4.8-3.7q0-0.6-0.2-1.1c0.1 0.3 3.1-1.1 3.3-1.2 1.4-0.4 3.2-0.5 4.6-0.3-0.1 1.4 0.7 2.6 0.7 4.1q0 0.2 0 0.4c0 0.7-0.2 1.4-0.2 2.1z"/><path class="a9" d="m9.3 39.2c-1 0.2-2.1 1-2.7 1.6-0.7 0.7-1.2 1.6-1.4 2.5q0 0.1 0 0.2-0.1-0.3-0.2-0.6c-0.3-1-0.6-2.1-0.8-3.2-0.2-1.5-0.3-3.1-0.4-4.6 0.1-0.4 0.1-0.9 0.1-1.3q0.7 1 1.5 2c0.9 0.9 2 1.5 3.1 2q0.3 0.6 0.6 1.1 0.1 0.1 0.2 0.3z"/><path class="aa" d="m19.7 54.1c0.4 1.1 0.9 2.2 0.9 2.4q-0.1-0.1-0.2-0.1 0-0.2-1.7-2.5-1.3 0.2-1.9 0c0 0-3.3-2.4-4.8-3.7q-0.1-0.9-0.3-1.8c-0.5-1.7-1.7-2.8-3.3-3.5-1-0.4-1.9-0.7-2.8-1q-0.4-0.2-0.9-0.3 0.7 0.1 5 1.3 2.5 2.5 2.9 4.3c0.4 1.8 2.3 2.4 3.5 3.7 0.2 0.2 0.5 0.6 0.8 0.6 0.4 0.2 0.9 0.1 1.3 0.1 0.6 0 1 0.2 1.5 0.5z"/><path class="ab" d="m5.2 43.8q-0.6-0.2-1.2-0.4-0.9-1.8-1.6-3.5c-0.2-1.8-0.4-3.6-0.6-5.3q0.2-0.4 0.5-0.8 0-0.1 0-0.1l1.2-0.2c0.2 3.5 0 5.3 1.7 10.3z"/><path class="ac" d="m11.9 38.5c-0.5 0.9-1.4 1.5-2.2 2.2q-0.4-0.1-0.8-0.2c-1.6-0.6-3.3-1.1-4.9-1.7q-0.1 0-0.1 0-0.2-0.1-0.3-0.2-0.8-1.4-1.7-2.8-0.1-0.6-0.1-1.2 0.2-0.4 0.5-0.8 0-0.1 0-0.2l2.8-0.3c0.5 1.1 0.6 2.1 1.6 2.8 1 0.8 2.2 1.2 3.4 1.6 0.6 0.3 1.3 0.5 1.8 0.8z"/><path class="ad" d="m41.3 34.5c-0.5 0.5-1.4 1-2 1.5-0.3 0.3-0.7 0.5-1.1 0.8-0.7 0.4-1.3 0.8-2.2 0.9-0.9 0.1-1.7-0.1-2.6-0.1-2.2-0.1-4.4 0.3-6.7 0.2q-1.2-0.1-2.3-0.2c-0.7 0-1.5 0.5-2.2 0.1-0.5-0.3-0.5-0.9-0.5-1.5-0.1-0.4 0-0.8 0-1.3 0 0.6-0.4 1.4-0.6 2-0.2 0.4-0.4 1.1-0.3 1.6 0.1 0.5 0.7 3.3 1 4.1-0.5-0.8-1.4-3.6-1.7-4-0.4-0.7-1.3-0.4-2.1-0.4-0.6-0.1-1.7-0.4-2.3-0.2q-0.1 0-0.2 0.1-0.8 0.7-1.5-0.3c-0.3-0.4-1.5-1.2-2.1-1.1 0 0.4-0.1 1-0.1 1.4-0.1-0.9-0.9-1.9-0.7-2.9 2.8 2.5 5.5 2 6.4 2.1 0.9 0 2.1-0.3 2.8-0.8 0.8-0.6 1.1-2 1.6-2.8-0.1 0.1 0.1 0.8 0.1 1q0.1 0.5 0.2 1.1c0.1 0.4 0.1 0.9 0.6 1.1 0.5 0.2 1.2 0 1.7-0.1 0.9-0.1 1.8 0.1 2.7 0.2 2 0.1 3.9-0.1 5.9 0.1 1.1 0.1 2.4 0.3 3.5 0.2 0.9-0.2 2-1.5 2.6-2.2 0.5-0.6-0.1-0.6-0.7-0.8-0.5-0.2-1.1-0.2-1.5-0.4 0.7-0.2 1.5-0.1 2.2 0.1 0.6 0.1 1.6 0.1 2.1 0.5z"/><path class="ae" d="m21.8 42.6c-0.5-0.8-1.4-3.6-1.7-4q-0.2-0.3-0.4-0.4c0.2-0.1 0.7-0.2 0.8-0.2q0.2 0 0.3 0 0 0.3 0 0.5c0.1 0.5 0.7 3.3 1 4.1z"/><path class="af" d="m16.9 43.3c0.8 1.4 2 2.5 2.9 3.9 0.1 0.1 0.8 3.2 0.9 4.7-0.9-2.5-1.1-4.4-1.3-4.5-0.4-0.4-0.8-1-1.2-1.4-0.7-0.9-1.7-1.9-2.2-2.8-0.5-0.9-0.9-2-1.3-3-0.2-0.7-0.5-1.8-0.8-2.5 0.6 0.4 1.5 0.1 1.9 0.2-0.7 0.6 0 1.9 0.1 2.4 0.3 0.6 0.6 1.1 0.7 1.7 0.2 0.4 0.2 0.9 0.3 1.3z"/><path class="ag" d="m10.1 34.3c-0.8-0.2-1.5-0.4-2.1-0.9q-1-0.7-1.9-1.4c-0.1-0.1-1.6-1.5-1.6-0.9 0.1 0.4 0.4 0.8 0.6 1.2 0.2 0.5 0.4 1.1 0.6 1.6 0.1 0.5 0.4 1.1 0.4 1.6q-0.2-0.5-0.4-1c-0.6-1.3-3-5.3-2.9-5.5 0-0.2 1.5-1.2 2-1.4 0.5-0.3 1-0.5 1.5-0.8q0 0 0 0c-0.6 0.5-2.7 2.1-2.6 2.5 0.2 0.5 3.5 2.9 4.1 3.3 0.5 0.5 1.2 0.8 1.9 1.1 0.9 0.4 2.6 0.8 3.3 1.6 0.1 0.1-2.5-0.9-2.9-1z"/><path class="ah" d="m9.8 40.5c-0.5 0.1-1 0-1.4-0.1q-1.1-0.1-2.1-0.5c-0.6-0.3-1.3-0.2-1.9-0.4 0 0.6 0.3 1.4 0.4 2 0.1 0.8 0.3 1.5 0.4 2.2-0.1-0.4-0.5-0.9-0.7-1.4-0.1-0.4-0.3-0.7-0.4-1.1-0.6-2-0.2-2-0.6-2.3-0.3-0.3-1-1.1-1.4-2q-0.1-0.7-0.2-1.5 0.1 0.4 0.4 0.8c0.4 0.7 0.8 1.8 1.5 2.2 0.6 0.2 1.1 0.3 1.7 0.5 0.6 0.1 1 0.3 1.6 0.5 0.9 0.3 1.8 0.6 2.7 1 0 0 0 0.1 0 0.1z"/><path class="ai" d="m23 51.6l1.5 0.1q1.4-0.7 1.3 0c-0.5 4.4-2.6 6.2-2.6 6.6-1-0.6-3-1.7-4.2-6.7q-0.1-0.4 1.7 0.1-0.4-3.1-0.8-4.1 2.5 1.8 3.1 4z"/><path class="aj" d="m25.9 51.6c-0.5 3.9-2.3 6-2.7 6.6 0-0.4 0.1-0.9 0.1-1.3 0.1-0.9 0.5-1.7 0.7-2.6 0.2-0.7 0.2-1.3 0.1-2.1-0.1-0.1-0.1-0.4-0.2-0.5h0.6q1.5-0.9 1.4-0.1z"/><path class="ak" d="m22.4 57.7c-1-0.7-2.4-2.2-3.4-6.1-0.1-0.3 1.1 0 1.5 0.1 0.2 0.4 0.4 0.7 0.4 1.1 0.1 0.7-0.1 1.3 0.2 2 0.3 0.6 0.7 1.3 1 2q0.2 0.5 0.3 0.9z"/><path class="al" d="m23.1 51.8q2.2-0.6 2.7-0.5c0.1 0 0.1 0.3 0.1 0.4-0.2 0.6-1.5 2.4-1.7 2.4-0.5 0.2-2.3 0-3.4-0.4-0.3-0.1-1.5-1.3-1.8-2.2q0 0 0-0.1 0.1 0 1.4-0.5l0.3 0.9z"/><path class="am" d="m24.2 54.1q0 0 0 0c-0.5 0.2-2.3 0-3.4-0.4-0.3-0.1-1.5-1.3-1.8-2.2q0 0 0-0.1 0.1 0 1.4-0.5l0.3 0.9q3.3 2.2 3.5 2.3z"/><path class="an" d="m25.3 52.5c0.6-0.9 0.5-1.2 0.5-1.2 0.3 0.1-0.2 1.1-0.4 1.5q-0.2 0.3-0.4 0.6c-0.3 0.4-0.7 0.8-1 1.3-0.2 0.4-0.4 0.9-0.6 1.4q0.2-0.5 0.2-1c0-0.1 0.1-0.3 0.1-0.4-0.1-0.4-0.5-0.3-0.8-0.3q-0.5-0.1-1.1-0.1c0-0.1-0.7-0.2-0.7-0.2 0.1 0.5 0.3 1 0.5 1.4 0.1 0.3 0.2 0.6 0.3 0.9 0.1 0.3 0.3 0.5 0.3 0.8q0 0 0-0.1c-0.2-0.2-0.4-0.6-0.6-0.9q-0.3-0.4-0.5-1c-0.2-0.3-0.3-0.7-0.4-1.1-0.1-0.1-0.2-0.2-0.3-0.4-0.5-0.6-1.3-1.3-1.4-2.2 0 0 0.1 0 0.1 0 0.1 0.5 0.7 1.1 1.1 1.6 0.5 0.4 1.2 0.6 1.8 0.7 0.4 0.1 1.8 0.5 2.1 0.2 0.2-0.3 0.4-0.5 0.6-0.7q0.2-0.2 0.4-0.5 0.1-0.1 0.2-0.3z"/><path class="ao" d="m37.5 41.7c-0.4 1.1-1.5 2.6-2.7 2.8q-1.8 0.3-3.7 0.3-0.4 0-0.8-0.1c0.2 0.2 0.9 2.8 0.6 5.1-0.1 0.9 0 1.8-0.3 2.7-0.3 0.6-0.6 1.6-0.6 2.3 0 0.1 2-1.2 2.2-1.6-0.3 0.5-0.6 1.1-1.1 1.4-0.6 0.4-1.1 0.8-1.3 1.5-0.1 0.6-0.4 2.3-0.5 3-0.1-0.7 0.1-2.3 0.1-3 0-0.5-0.1-1.1-0.1-1.6-0.1-0.4 0.2-0.9 0.3-1.2 0.4-0.9 0.9-1.7 0.9-2.6 0-1.6-0.3-4.7-1-6.1-0.6-0.1-1.2-0.3-1.6-0.7-0.9-0.6-1.7-1.5-1.9-2.6-0.1 0 0-0.1 0.1 0 0.6 0.7 1.2 1.6 2.1 2 1 0.4 1.9 0.6 2.9 0.6 2 0.1 4.6 0.3 5.7-1.6 0.1-0.1 0.7-0.8 0.7-0.6z"/><path class="ap" d="m36.6 42.6c0 0.1-1.2 2.1-6.2 2-0.3 0.1 0.6 2.1 0 4.6-0.1-1.6-0.4-3.6-0.9-4.6-0.6-0.1-1.2-0.3-1.6-0.7-0.9-0.6-1.7-1.5-1.9-2.6-0.1 0 0-0.1 0.1 0 0.6 0.7 1.2 1.6 2.1 2 1 0.4 1.9 0.6 2.9 0.6 1.9 0.1 4.3 0.3 5.5-1.3z"/><path class="aq" d="m35.6 48.6c-0.2 1.1-0.5 2.2-1 3.2 0 0-0.1 0-0.1 0 0.2-1.1 0.5-2.2 0.6-3.3 0.1-0.5 0.6-3.4 0.6-3.4 0.1 0.5 0 1.3 0 1.8 0.1 0.6 0 1.1-0.1 1.7z"/><path class="ar" d="m37.5 41.5q0 0 0 0c-0.3 0.6-0.4 1-0.8 1.5-0.4 0.4-0.8 0.8-1.2 1.2 0 0 0 0 0 0 1-0.4 2.3-1.5 2-2.7z"/><path class="as" d="m11.9 38.6c0 0-0.9 0.8-1.2 1-0.4 0.4-0.9 0.6-1.3 0.9q0 0.1 0 0.1c1.2 0.8 3.4-1.3 2.5-2z"/><path class="at" d="m19.8 38.2c-1.1 0.9-2.9-0.2-4.1-0.3q0 0 0 0c0.6-0.1 1.2 0 1.8 0.1 0.8 0.1 1.4 0 2.2 0 0.1 0 0.2 0.2 0.1 0.2z"/><path class="au" d="m48.3 29.5c-0.4 0.6-1.4 1.3-2.1 1.7-0.6 0.4-2.6 1.6-3.1 2.1q-0.6 0.5-0.7 1.8-0.1-1.2-0.1-1.7c1.1-0.5 2.2-1.4 3.1-2.2 1.6-1.3 1.7-2.7 0.9-3.2-0.9-0.6-2-1.3-2.7-2.1 0 0 0-0.1 0.1 0 1.1 0.8 2.3 1.5 3.5 2.2 0.5 0.3 1.6 0.7 1.1 1.4z"/><path class="S" d="m39.5 51.6q0 0.3-0.1 0.6 0.1-0.3 0.1-0.6z"/><path class="S" d="m47.7 40.9q0.1 0.3 0.1 0.7c-0.1 0.7-1 1.2-1.4 1.8-0.3 0.4-0.5 0.8-1 1-1.4 0.3-2.7 1-3.9 1.8-0.5 0.3-1 0.7-1.2 1.2-0.3 0.5-0.2 1.1-0.3 1.7-0.1 0.5-0.1 1.1-0.2 1.7q-0.1 0.4-0.3 0.8 0.2-1 0.3-2 0-0.7 0-1.4c0.1-1-0.3-0.5-0.8-0.1-0.5 0.5-1 1-1.5 1.5-0.6 0.5-1.4 1.6-2 2.8 0.6-2.1 2.2-3.9 3.5-5 1.6-1.1 2.8-2.5 4.7-3.1q0.6-0.3 1.3-0.4c0.2-0.1 0.4-0.1 0.6-0.3 0.2-0.2 0.4-0.5 0.6-0.8 0.3-0.3 0.7-0.6 1-1 0.1-0.1 0.4-0.7 0.5-0.9z"/><path class="av" d="m39.5 51.6q0 0.3-0.1 0.6 0.1-0.3 0.1-0.6z"/><path class="aw" d="m47.8 41q0 0.3 0 0.6c-0.1 0.7-1 1.2-1.4 1.8-0.3 0.4-0.5 0.8-1 1-1.4 0.3-2.7 1-3.9 1.8-0.5 0.3-1 0.7-1.2 1.2-0.3 0.5-0.2 1.1-0.3 1.7-0.1 0.5-0.1 1.1-0.2 1.7q-0.1 0.4-0.3 0.8 0.2-1 0.3-2 0-0.7 0-1.4c0.1-1-0.3-0.5-0.8-0.1-0.5 0.5-1 1-1.5 1.5-0.6 0.5-1.4 1.6-2 2.8 0.6-2.1 2.2-3.9 3.5-5 1.6-1.1 2.8-2.5 4.7-3.1q0.6-0.3 1.3-0.4c0.2-0.1 0.4-0.1 0.6-0.3 0.2-0.2 0.4-0.5 0.6-0.8 0.3-0.3 0.7-0.6 1-1 0.1-0.1 0.4-0.7 0.6-0.8z"/><path class="S" d="m35.6 52.2c-0.3 0.5-0.6 1.1-0.8 1.6-0.2 0.5-0.2 0.9-0.4 1.3-0.2 0.6-0.9 1.1-1.4 1.5-1.5 1.5-2.7 4-4.3 5.4 0 0 0.1-0.5 0.2-0.5 1.1-1.7 2.1-3.6 3.5-5.1 0.6-0.6 1.3-1.1 1.6-1.8 0.5-0.8 1.1-1.6 1.6-2.4q0 0 0 0z"/><path class="ax" d="m35.6 52.2c-0.3 0.5-0.6 1.1-0.8 1.6-0.2 0.5-0.2 0.9-0.4 1.3-0.2 0.6-0.9 1.1-1.4 1.5-1.5 1.5-2.7 4-4.3 5.4 0 0 0.1-0.5 0.2-0.5 1.1-1.7 2.1-3.6 3.5-5.1 0.6-0.6 1.3-1.1 1.6-1.8 0.5-0.8 1.1-1.6 1.6-2.4q0 0 0 0z"/><path class="S" d="m37.4 39.9c0-0.8-0.1-1.8 0-2.6q0-0.1 0-0.1c0.4 0.9 0.6 2 0.6 2.9 0 0.5-0.5 1.2-0.6 1.2q0-0.7 0-1.4z"/><path class="ay" d="m37.4 39.9c0-0.8-0.1-1.8 0-2.6q0-0.1 0-0.1c0.4 0.9 0.6 2 0.6 2.9 0 0.5-0.4 1.2-0.6 1.2q0-0.7 0-1.4z"/><path class="S" d="m47.9 30.3c-0.1 1-0.4 2.1-0.7 3.2q-0.4 1.6-1 3.2-0.5 1.6-1.3 3.1c-0.4 0.7-0.7 1.4-1.5 1.6-0.1 0-0.1 0-0.1-0.1 0.7-0.6 1.1-1.6 1.4-2.3q0.8-1.5 1.3-3 0.5-1.5 1-3c0.2-0.9 0.4-1.9 0.9-2.7q0-0.1 0 0z"/><path class="az" d="m47.9 30.3c-0.1 1-0.4 2.1-0.7 3.2q-0.4 1.6-1 3.2-0.5 1.6-1.3 3.1c-0.4 0.7-0.7 1.4-1.5 1.6-0.1 0-0.1 0-0.1-0.1 0.7-0.6 1.1-1.6 1.4-2.3q0.8-1.5 1.3-3 0.5-1.5 1-3c0.2-0.9 0.4-1.9 0.9-2.7q0-0.1 0 0z"/><path class="S" d="m48.4 37.8c-0.1 0.8-0.3 1.5-0.4 2.3 0 0.5 0 1.1-0.3 1.5 0 0 0 0 0 0 0.1-1.1 0-2.2 0.2-3.3 0-0.5 0.2-1-0.2-1.5-0.2-0.4-0.6-0.8-1.1-1 0-0.2 0.1-0.4 0.1-0.6 0.1-0.2 0.1-0.4 0.2-0.6 0.6 0.5 1.1 1.2 1.4 1.8 0.3 0.5 0.2 0.9 0.1 1.4z"/><path class="aA" d="m48.4 37.8c-0.1 0.8-0.3 1.5-0.4 2.3 0 0.5 0 1.1-0.3 1.5 0 0 0 0 0 0 0.1-1.1 0-2.2 0.2-3.3 0-0.5 0.2-1-0.2-1.5-0.2-0.4-0.6-0.8-1.1-1 0-0.2 0.1-0.4 0.1-0.6 0.1-0.2 0.1-0.4 0.2-0.6 0.6 0.5 1.1 1.2 1.4 1.8 0.3 0.5 0.2 0.9 0.1 1.4z"/><path class="S" d="m46.9 43.9c-0.3 1.1-1.2 1.9-1.5 2.9-0.3 0.9-0.5 1.5-1.4 2q-0.7 0.3-1.5 0.6c-0.5 0.1-1.1 0.3-1.5 0.7-0.8 0.9-1 2-1.3 3.1 0 0.1-0.1 0.2-0.3 0.2-0.6 0-1.3 0.1-1.9 0.4-0.6 0.4-0.8 0.8-1.1 1.5-0.2 0.4-0.6 0.8-1 1.1q-0.7 0.7-1.4 1.3c-1.1 0.9-2.2 1.8-3.2 2.8-0.7 0.6-1.3 1.3-2.2 1.6-0.1 0.1-0.2-0.1-0.1-0.1 0.6-0.3 0.9-0.8 1.4-1.3 0.4-0.5 1-0.9 1.5-1.4 1-0.9 2.1-1.8 3.2-2.7 0.5-0.5 1.1-1 1.4-1.6 0.2-0.5 0.4-0.9 0.8-1.2 0.6-0.6 1.6-0.9 2.4-0.9 0.3-1 0.5-1.9 1.2-2.8 0.6-0.8 1.2-1 2.1-1.4 0.6-0.2 1.4-0.4 1.8-0.9 0.4-0.4 0.5-0.9 0.7-1.3 0.5-1 1.4-1.6 1.9-2.6q0 0 0 0z"/><path class="aB" d="m46.9 43.9c-0.3 1.1-1.2 1.9-1.5 2.9-0.3 0.9-0.5 1.5-1.4 2q-0.7 0.3-1.5 0.6c-0.5 0.1-1.1 0.3-1.5 0.7-0.8 0.9-1 2-1.3 3.1 0 0.1-0.1 0.2-0.3 0.2-0.6 0-1.3 0.1-1.9 0.4-0.6 0.4-0.8 0.8-1.1 1.5-0.2 0.4-0.6 0.8-1 1.1q-0.7 0.7-1.4 1.3c-1.1 0.9-2.2 1.8-3.2 2.8-0.7 0.6-1.3 1.3-2.2 1.6-0.1 0.1-0.2-0.1-0.1-0.1 0.6-0.3 0.9-0.8 1.4-1.3 0.4-0.5 1-0.9 1.5-1.4 1-0.9 2.1-1.8 3.2-2.7 0.5-0.5 1.1-1 1.4-1.6 0.2-0.5 0.4-0.9 0.8-1.2 0.6-0.6 1.6-0.9 2.4-0.9 0.3-1 0.5-1.9 1.2-2.8 0.6-0.8 1.2-1 2.1-1.4 0.6-0.2 1.4-0.4 1.8-0.9 0.4-0.4 0.5-0.9 0.7-1.3 0.5-1 1.4-1.6 1.9-2.6q0 0 0 0z"/><path class="aC" d="m14 23.8c-0.4 0.4-1.3 1-1.2 1.6 0.1 1.5 7.5 3.6 8.6 3.9 4.1 1.3 7.4 0.7 9.5 0.3 1.6-0.4 3.9-1.1 5-2.5-1.4-1.2-3.6-1.9-5.3-2.4-1.3-0.5-2.8-0.1-4.1 0-1.2 0.1-2.7 0.2-3.8 0.8 0.8 0.4 1.3 1.2 2.2 1.4 0.8 0.1 1.7 0.5 2.5 0.4 1.5-0.2 2.8-0.7 4.2-0.8-0.8 0.1-1.2 0.6-2 0.9-0.9 0.4-1.9 0.8-2.7 1.2-0.7 0.3-1.4-0.4-2.1-0.5-0.9-0.3-1.8-0.6-2.7-1-1.6-0.6-3.7-0.9-5-2 0.4-0.3 1.5-0.4 2-0.4 1.1-0.1 2.2-0.4 3.4-0.5q2-0.1 3.9-0.6 0.6-0.1 3.2-1 4.5 2.3 5.4 2.5 0.7 0.2 4.4 2.4-5 2.3-6.3 2.8c-0.8 0.4-1.5 0.8-2.3 1.3-0.8 0.5-4 2.5-4.4 3-0.7-0.6-1.4-1.3-2.2-1.9q-0.9-0.6-1.8-1.2c-0.8-0.4-1.6-0.7-2.5-0.9-1.3-0.2-2.6-0.8-3.9-1-1.6-0.3-6.6-1.6-8-1.3 1.6-1.3 2.9-3.8 4.4-5.2 1.2-1 1.9-2 3.5-2q1.4 0 2.8 0 4.2 0 8.4 0 3.3 0 6.6 0c0.8 0 2-0.2 2.8 0l0.8 0.2 5.2 3.8q-0.6-0.3-1.3-0.5c-1.6-0.6-3.1-1.3-4.7-1.9-3.3-1-6.6-0.9-10-0.9-2.2 0.1-4.4-0.1-6.6 0-1 0.1-2.1 0.1-3.1 0.4-1 0.3-2 0.9-2.8 1.6z"/><path class="aw" d="m19.1 52.5c-0.7-0.6-1.7-1-2.4-1.4-1.3-0.9-2.3-1.8-3-3.2-0.6-1.3-1.1-2.4-2.1-3.6-0.9-1.1-2.1-2-2.7-3.3q0 0 0 0-0.1-0.3-0.1-0.5 0.5 0 0.9-0.1 0.1 0.2 0.2 0.3c0.6 1.1 2 2.9 2.6 4 0.6 1.1 1 2.2 1.6 3.2q1.2 1.8 4.8 4.2 0 0.2 0.2 0.4z"/><path class="aD" d="m19.1 52.5c-0.7-0.6-1.7-1-2.4-1.4-1.2-0.8-2.1-1.7-2.8-2.9q0.2-0.1 0.3-0.2 1.3 1.8 4.7 4.1 0 0.2 0.2 0.4z"/><path class="aE" d="m29.3 61.8q-0.1 0.2-0.7 0.3l-1.1-0.5q-0.6-5.5-0.7-6 0-0.1 0-0.1c0.5 1.4 2.6 5.5 2.5 6.3z"/><path class="aF" d="m12.4 25.2q0 0.1-0.1 0.1c-0.5 1.1-1.6 1.5-2.3 2.4-0.2 0.4-0.8 0.7-1.3 0.3-0.7-0.5-0.9-1.4-1.3-2.1-0.4-1-1-1.9-1.3-2.9-0.5-2.2-0.7-4.5-0.6-6.7 0-2.3 0.3-4.5 0.7-6.8 0.2-1 0.4-2 0.8-3 0.5-0.9 1.1-1.8 1.7-2.6q0 1-0.1 2.1c0 1.1 0.2 2.2 0.2 3.2 0.1 1 0.2 2.1 0.3 3.1q0.2 0.2 0.3 0.6 0.1 1 0.3 1.9c-0.3 0-0.6 0.1-0.8 0-0.1 0-0.1 0-0.1 0 0.3 0.2 0.6 0.4 1 0.5q0 0.3 0.1 0.6-0.2 0.3-0.3 0.5c-0.3 0.5-0.5 1-0.5 1.5q0 0 0 0c0.1-0.6 0.6-0.9 1-1.3 0.3 1 0.8 2 1.2 2.9 0.5 1.4 1.2 2.8 2 4 0.5 0.8-0.2 1.6-0.9 1.7z"/><path class="aG" d="m12.4 25.2q0 0.1-0.1 0.1c-0.2 0.4-0.5 0.8-0.8 1-0.8-1.1-1.6-2.3-2.2-3.7-0.9-1.9-1.4-4.1-1.8-6.2-0.4-2.2-0.7-4.4-0.5-6.6 0.1-1.3 0.4-2.5 0.9-3.7 0.2-0.7 0.5-1.4 0.8-2.2q0 1.1-0.1 2.1c0 1.1 0.2 2.2 0.2 3.2 0.1 1 0.2 2.1 0.3 3.1q0.2 0.2 0.3 0.6 0.1 1 0.3 1.9c-0.3 0-0.6 0.1-0.8 0-0.1 0-0.1 0-0.1 0 0.3 0.2 0.6 0.4 1 0.5q0 0.3 0.1 0.6-0.2 0.3-0.3 0.5c-0.3 0.5-0.5 1-0.5 1.5q0 0 0 0c0.1-0.6 0.6-0.9 1-1.3 0.3 1 0.8 2 1.2 2.9 0.5 1.4 1.2 2.8 2 4 0.5 0.8-0.2 1.6-0.9 1.7z"/><path class="aH" d="m9.3 14.3c0-0.7-0.2-1.3-0.6-1.9-0.5-0.7-0.3-1.8-0.3-2.7 0-1.8-0.1-3.7 0.2-5.5q0.1-0.1 0.1-0.3 0 1.1-0.1 2.1c0 1.1 0.2 2.2 0.2 3.2 0.1 1 0.2 2.1 0.3 3.1q0.2 0.2 0.3 0.6 0.1 1 0.3 1.9-0.2 0-0.3 0 0-0.2-0.1-0.5z"/><path class="aI" d="m9.8 15.3q0 0.3 0.1 0.6-0.2 0.3-0.3 0.5 0 0 0 0.1-0.1-0.7-0.2-1.3 0.2 0.1 0.4 0.1z"/><path class="aJ" d="m12.7 25.1q0.2-0.3 0.4-0.7c0.1-0.2 0.1-0.4-0.1-0.5-1-0.9-1.3-2.6-1.9-3.8-0.5-0.9-0.9-1.8-1.3-2.7q-0.1-0.2-0.1-0.4 0.2-0.2 0.4-0.4c0.3 1 0.8 2 1.2 2.9 0.5 1.4 1.2 2.8 2 4 0.5 0.7 0 1.4-0.6 1.6z"/><path class="x" d="m10.8 27c-0.2 0.4-0.7 0.6-1.1 0.8 0.1-1 0.5-2 0.1-3-0.3-0.8-0.7-2.1-1.7-2 0.3-0.3 0.8-0.8 0.4-1.3-0.3-0.3-1.3-0.2-1.6-0.3 0.4 0 2.1-0.4 1.1-0.9-0.6-0.2-1.5 0.2-2-0.2 0.4-0.2 0.8-0.2 1.2-0.5 0.5-0.4 0.3-0.8 0.2-1.3-0.6-2.2-0.8-4.8-0.7-7 0.1-2.2 0.7-4.3 1.5-6.3q0.1 0 0.1 0c-0.5 2.1-1.2 4.1-1.2 6.3-0.1 2.1 0.5 7.7 2.6 12.1 0.2 0.6 0.5 1.2 0.8 1.7 0.2 0.3 0.7 0.8 1 1q0 0.1-0.1 0.3c-0.2 0.2-0.4 0.5-0.6 0.6z"/><path class="y" d="m10.4 25c-1.3-1.4-2.1-3.6-2.6-5.5-0.5-1.9-0.8-3.9-0.8-6 0 0 0.1 0 0.1 0 0.2 2 0.5 4 1 5.9 0.4 1.1 0.7 2.1 1.2 3.1 0.4 0.8 0.8 1.6 1.2 2.5 0 0 0 0-0.1 0z"/><path class="z" d="m8.8 22.1c0 0 0 0-0.1 0-0.7-1.3-1.1-3-1.2-4.5q0 0 0.1 0c0.5 1.4 1.1 3 1.2 4.5z"/><path class="z" d="m8.2 5c-0.2 0.9-0.4 1.7-0.8 2.5q0 0 0 0c0.2-0.9 0.4-1.7 0.8-2.5 0 0 0 0 0 0z"/><path class="z" d="m7.3 8.1c0 0.2 0.1 0.4-0.1 0.5q-0.1 0-0.1 0c-0.2-0.1-0.1-0.4 0-0.6 0.1-0.1 0.3 0 0.2 0.1z"/><path class="aK" d="m23.5 19q0 0 0 0c0.4 0 0.8 0 1.2 0q0.1 0.4 0.1 0.8c0 1.2-0.5 2.4-0.8 3.6-0.2 1-0.3 2-1 2.9-0.5 0.5-1.4 0.4-1.9 0.1-1.2-0.6-2.8-0.6-3.8-1.5q-0.1-0.1-0.2-0.1c-1 0.2-2.2-0.4-1.8-1.4 0.7-1.6 1.1-3.4 1.4-5.1 0.2-1.3 0.5-2.5 0.7-3.7q-0.1-1.7-0.3-3.3 0.6 0.1 1.3-0.1 0 0 0 0c-0.4-0.1-0.7-0.1-1-0.3q-0.2-0.1-0.4-0.1 0-0.2 0-0.3 0-0.2 0-0.4 0.6 0 1.2-0.2 0 0 0 0-0.6-0.1-1-0.2 0 0 0-0.1c-0.2-1.1-0.5-2.2-0.7-3.3-0.2-1.1-0.4-2.3-0.7-3.5q-0.5-1.1-0.9-2.2c1.1 0.6 2.2 1.3 3.2 2.1 0.8 0.8 1.5 1.8 2.1 2.8 1.2 2.2 2.4 4.5 3.2 6.9q1.1 3 1.3 6.1 0 0.1-0.1 0.1-0.5 0.2-1.1 0.4z"/><path class="aL" d="m15.6 2.2q-0.1 0-0.1-0.1 0 0.1 0.1 0.1z"/><path class="aM" d="m17.6 25.1q-0.2-0.1-0.3-0.2 0.1 0.1 0.3 0.2z"/><path class="aN" d="m18.3 25.5q-0.2-0.1-0.3-0.2 0.1 0.1 0.3 0.2z"/><path class="aO" d="m15.3 1.7q0-0.1 0-0.2 0 0.1 0 0.2z"/><path class="aP" d="m24.7 19q0.1 0.4 0.1 0.8c0 1.2-0.5 2.4-0.8 3.6-0.2 1-0.3 2-1 2.9-0.5 0.5-1.4 0.4-1.9 0.1-0.7-0.4-1.6-0.5-2.4-0.8 0.7-1.6 1.4-3.2 1.7-4.9 0.6-2.4 0.5-5 0.3-7.4-0.2-2.5-0.5-4.9-1.5-7.2-0.6-1.3-1.4-2.5-2.4-3.5-0.6-0.7-1.3-1.3-1.9-2q0 0 0 0c1.1 0.6 2.2 1.3 3.2 2.1 0.8 0.8 1.5 1.8 2.1 2.8 1.2 2.2 2.4 4.5 3.2 6.9q1.1 3 1.3 6.1 0 0.1-0.1 0.1-0.5 0.2-1.1 0.4 0 0 0 0c0.4 0 0.8 0 1.2 0z"/><path class="aQ" d="m16.8 2.6c-0.6-0.7-1.3-1.3-1.9-2q0 0 0 0c1.1 0.6 2.2 1.3 3.2 2.1 0.8 0.8 1.5 1.8 2.1 2.8 1.2 2.2 2.4 4.5 3.2 6.9q1.1 3 1.3 6.1 0 0.1-0.1 0.1-0.4 0.2-0.9 0.3c0-1.6-0.3-3.2-0.7-4.7-0.6-2.5-1.7-4.9-3-7.1q-0.6-0.9-1.3-1.9c-0.5-0.9-1.2-1.8-1.9-2.6z"/><path class="aR" d="m24.8 19.8c0 1.2-0.5 2.4-0.8 3.6-0.2 1-0.3 2-1 2.9-0.3 0.3-0.7 0.4-1.1 0.4q0.4-0.6 0.8-1.3c0.5-1.1 0.7-2.4 0.9-3.6q0.2-1.4 0.1-2.8 0.5 0 1 0 0.1 0.4 0.1 0.8z"/><path class="aS" d="m15.1 1.2q0-0.1-0.1-0.2 0.1 0.1 0.1 0.2z"/><path class="aT" d="m17.9 25.3q-0.1-0.1-0.3-0.1 0.2 0 0.3 0.1z"/><path class="aU" d="m18.7 25.6q-0.2 0-0.4-0.1 0.2 0.1 0.4 0.1z"/><path class="aV" d="m15.8 2.8q-0.1-0.3-0.2-0.6 0.1 0.3 0.2 0.6z"/><path class="aW" d="m17.1 24.8q0.1 0 0.2 0.1 0 0 0 0 0 0 0 0-0.1-0.1-0.2-0.1z"/><path class="aX" d="m18 25.3q0 0-0.1 0 0.1 0 0.1 0z"/><path class="aY" d="m14.9 0.6q0.1 0.2 0.1 0.4 0-0.2-0.1-0.4 0 0 0 0z"/><path class="aZ" d="m18.3 25.5q0 0 0 0 0 0 0 0z"/><path class="b0" d="m15.5 2.1q-0.1-0.2-0.2-0.4 0.1 0.2 0.2 0.4z"/><path class="b1" d="m17.6 25.2q0-0.1 0-0.1 0 0 0 0.1z"/><path class="b2" d="m18.7 25.6q0 0 0 0 0 0 0 0z"/><path class="b3" d="m15.3 1.5q-0.1-0.2-0.2-0.3 0.1 0.1 0.2 0.3z"/><path class="b4" d="m20.7 13.3c0.2 2.4 0.3 5-0.3 7.4-0.3 1.7-1 3.3-1.7 4.9q0 0 0 0-0.2 0-0.4-0.1 0 0 0 0-0.2-0.1-0.3-0.2 0 0-0.1 0-0.1-0.1-0.3-0.1 0-0.1 0-0.1-0.2-0.1-0.3-0.2 0 0 0 0-0.1-0.1-0.2-0.1c-1 0.2-2.2-0.4-1.8-1.4 0.7-1.6 1.1-3.4 1.4-5.1 0.2-1.3 0.5-2.5 0.7-3.7q-0.1-1.7-0.3-3.3 0.6 0.1 1.3-0.1 0 0 0 0c-0.4-0.1-0.7-0.1-1-0.3q-0.2-0.1-0.4-0.1 0-0.2 0-0.3 0-0.2 0-0.4 0.6 0 1.2-0.2 0 0 0 0-0.6-0.1-1-0.2 0 0 0-0.1c-0.2-1.1-0.5-2.2-0.7-3.3-0.2-1.1-0.4-2.3-0.7-3.5q-0.1-0.3-0.2-0.6-0.1 0-0.1-0.1-0.1-0.2-0.2-0.4 0-0.1 0-0.2-0.1-0.2-0.2-0.3 0-0.1-0.1-0.2 0-0.2-0.1-0.4c0.6 0.7 1.3 1.3 1.9 2 1 1 1.8 2.2 2.4 3.5 1 2.3 1.3 4.7 1.5 7.2z"/><path class="v" d="m16.3 20.3q0.1-0.2 0.1-0.5c0.7 0.5 1.7 0.8 2.5 0.9q0.8 0.1 1.5 0 0 0 0 0-0.1 0.5-0.2 1-0.2 0-0.3-0.1c-1.2-0.3-2.5-0.7-3.6-1.3z"/><path class="v" d="m20.7 12.4q0 0.3 0 0.5-0.4 0-0.9 0.1c-0.8 0-1.7 0.2-2.5 0.5q0-0.2 0-0.5c0.6-0.1 1.3-0.3 2-0.5 0.4-0.1 0.9-0.1 1.4-0.1z"/><path class="b5" d="m17.8 11.3q-0.3 0.1-0.7 0.3 0-0.1 0-0.3 0.4 0.1 0.7 0z"/><path class="v" d="m16.3 5.2q0-0.1 0-0.2 0.3-0.2 0.6-0.4 0.5-0.4 1-0.6 0.1 0.1 0.1 0.1c-0.6 0.3-1.2 0.7-1.7 1.1z"/><path class="v" d="m16.4 5.7q0-0.1-0.1-0.2c0.6-0.5 1.3-0.8 2-1q0 0 0.1 0.1-0.3 0.1-0.5 0.2c-0.2 0.2-0.9 0.5-1.5 0.9z"/><path class="v" d="m16.5 6.1q0-0.1-0.1-0.1c0.7-0.4 1.4-0.7 2-0.9q0.1-0.1 0.2-0.1 0.1 0.2 0.2 0.3-0.5 0.1-1 0.3c-0.4 0.1-0.9 0.3-1.3 0.5z"/><path class="v" d="m17 8.5q0-0.2-0.1-0.4 1.1 0.1 2.1-0.1c0.2 0 0.5-0.1 0.8-0.1q0.1 0.1 0.1 0.2-0.2 0.1-0.3 0.1c-0.9 0.3-1.7 0.3-2.6 0.3z"/><path class="v" d="m20.5 11.2q0.1 0.4 0.1 0.8-0.3 0-0.5 0c-1 0.1-1.9 0.4-2.8 0.8q-0.1-0.5-0.1-1c0.9-0.2 1.9-0.3 2.8-0.5q0.2 0 0.5-0.1z"/><path class="v" d="m20.9 16q0 0.2 0 0.4c-1.4 0.2-2.6 0.2-3.8-0.5q0.1-0.2 0.1-0.5c0.8 0.4 1.6 0.5 2.5 0.6q0.6 0 1.2 0z"/><path class="v" d="m20.9 16.9q-0.1 0.6-0.1 1.1-0.1 0-0.2 0c-1.3-0.3-2.4-0.9-3.5-1.5q0-0.2 0-0.4c0.6 0.8 2 0.9 2.9 0.9q0.4-0.1 0.9-0.1z"/><path class="x" d="m18.9 25.6c-0.1-0.1 0.6-1.3 0.8-1.7 0.2-0.7 0.3-1.5 0.5-2.2 1.2-5.5 0.1-11.7-0.6-13.9-0.7-2.3-2.4-4.2-3.7-6.2q0 0 0 0c1.8 1.8 3.4 3.7 4.2 6 0.9 2.3 1.5 5.2 1.4 7.7 0 0.6-0.1 1.1 0.7 1.3 0.7 0.2 1.2 0 1.8 0-0.6 0.8-1.9 0.6-2.6 1.1-1.2 0.9 1.2 0.7 1.8 0.4-0.4 0.4-1.8 0.7-2.1 1.1-0.4 0.6 0.5 1 1 1.2-1.4 0.4-1.5 1.8-1.6 2.8-0.2 1.3 0.6 2.2 1.1 3.3-0.6-0.1-1.3-0.2-1.8-0.4-0.2-0.1-0.6-0.3-0.9-0.5z"/><path class="y" d="m18.7 25.6c0.2-1.1 1.5-4 1.7-5 0.3-1.2 0.4-2.5 0.5-3.7 0.1-2.3-0.2-4.6-0.6-6.7-0.1-0.1 0.1-0.1 0.1-0.1 0.7 2.2 1 4.4 1 6.7 0 2.2-1.3 6.7-2.6 8.8 0 0-0.1 0-0.1 0z"/><path class="z" d="m21 14.7q0.1 0 0.1 0c0.5 1.6 0.4 3.5-0.1 5.2 0 0.1-0.1 0.1-0.1 0-0.4-1.6-0.2-3.5 0.1-5.2z"/><path class="z" d="m16 1.5c0.8 0.7 1.3 1.5 1.9 2.4q0 0-0.1 0c-0.7-0.7-1.3-1.5-1.9-2.3 0 0 0.1-0.1 0.1-0.1z"/><path class="z" d="m18.4 4.3c0.2 0.1 0.5 0.4 0.3 0.6q-0.1 0.1-0.2 0.1c-0.2-0.1-0.3-0.3-0.3-0.5-0.1-0.2 0.1-0.3 0.2-0.2z"/><path class="b6" d="m16.2 23.9q0 0-0.1 0c-0.6 0.5-1.6 0.5-2.3 0.9-0.3 0.2-0.8 0.2-1.1-0.1-0.6-0.4-0.6-1-0.8-1.5-0.3-0.7-0.7-1.3-0.7-1.9-0.2-1.4 0-2.7 0.4-4 0.3-1.3 0.9-2.5 1.6-3.8q0.4-0.8 1.1-1.5 0.8-0.6 1.8-1.1-0.1 0.6-0.4 1.2c-0.1 0.6-0.1 1.2-0.2 1.9-0.1 0.6-0.2 1.1-0.3 1.7q0.2 0.2 0.2 0.5 0 1.1 0 2.2c0.2 0.7 0.5 1.3 0.7 2 0.2 0.9 0.6 1.9 1.2 2.7 0.3 0.6-0.4 0.9-1.1 0.8z"/><path class="b7" d="m16.2 23.9q0 0-0.1 0c-0.2 0.2-0.5 0.4-0.8 0.4-0.6-0.8-1.1-1.7-1.4-2.6-0.5-1.3-0.6-2.6-0.6-4 0-1.3 0-2.6 0.5-3.8 0.3-0.7 0.8-1.4 1.3-2 0.3-0.3 0.7-0.7 1-1q-0.2 0.6-0.4 1.2c-0.1 0.6-0.1 1.2-0.2 1.9-0.1 0.6-0.2 1.1-0.3 1.7q0.2 0.2 0.2 0.5 0 1.1 0 2.2c0.2 0.7 0.5 1.3 0.7 2 0.2 0.9 0.6 1.9 1.2 2.7 0.3 0.6-0.4 0.9-1.1 0.8z"/><path class="b8" d="m16.5 23.9q0.2-0.2 0.4-0.3c0.1-0.1 0.2-0.2 0.1-0.3-0.8-0.8-0.8-1.8-1.2-2.6-0.2-0.6-0.5-1.2-0.7-1.9-0.2-0.6 0-1.2 0.1-1.8 0-0.5-0.1-0.8-0.3-1.2-0.3-0.6 0-1.1 0.2-1.7 0.2-1 0.4-2.1 0.9-3.1q0.1 0 0.1-0.1-0.2 0.6-0.4 1.2c-0.1 0.6-0.1 1.2-0.2 1.9-0.1 0.6-0.2 1.1-0.3 1.7q0.2 0.2 0.2 0.5 0 1.1 0 2.2c0.2 0.7 0.5 1.3 0.7 2 0.2 0.9 0.6 1.9 1.2 2.7 0.2 0.5-0.2 0.8-0.8 0.8z"/><path class="x" d="m14.6 24.6c-0.3 0.1-0.7 0.2-1.1 0.2 0.3-0.6 0.7-1 0.5-1.7-0.1-0.6-0.2-1.3-1.1-1.5 0.3-0.1 0.8-0.3 0.5-0.7-0.2-0.2-1.1-0.4-1.3-0.5 0.3 0.1 1.8 0.2 1-0.3-0.4-0.2-1.2-0.2-1.7-0.5 0.4 0 0.8 0 1.2-0.1 0.4-0.1 0.3-0.4 0.3-0.7-0.2-1.3 0-2.9 0.4-4.1 0.4-1.3 1.3-2.3 2.3-3.3q0 0 0 0c-0.7 1.1-1.6 2.1-1.9 3.4-0.4 1.2-0.7 4.5 0.4 7.4 0.2 0.4 0.3 0.8 0.5 1.2 0.1 0.2 0.5 0.6 0.7 0.8q0 0.1-0.1 0.1c-0.2 0.1-0.4 0.2-0.6 0.3z"/><path class="y" d="m14.6 23.3c-1-1.1-1.4-2.5-1.5-3.7-0.2-1.2-0.1-2.4 0.2-3.6 0 0 0.1 0 0.1 0.1-0.2 1.1-0.2 2.3 0 3.6q0.2 1 0.5 2c0.2 0.5 0.5 1.1 0.7 1.6 0 0.1 0 0.1 0 0z"/><path class="z" d="m13.6 21.3c0 0-0.1 0-0.1 0-0.4-0.9-0.5-1.9-0.3-2.8q0 0 0 0c0.3 0.9 0.5 1.9 0.4 2.8z"/><path class="z" d="m15.6 11.4c-0.4 0.5-0.6 0.9-1.1 1.3q0 0 0 0c0.3-0.5 0.6-0.9 1-1.3q0.1 0 0.1 0z"/><path class="z" d="m14.4 13c-0.1 0.1-0.1 0.2-0.2 0.2q-0.1 0.1-0.1 0c-0.2-0.1 0-0.2 0.1-0.3 0.1-0.1 0.2 0 0.2 0.1z"/><path class="S" d="m19.1 22.8c0.4 0.4 0.7 0.4 1.2 0.6 0.4 0.1 0.6 0.3 0.3 0.6-0.3 0.4-0.8 0.7-1.2 1-0.6 0.3-1.3 0.7-2 0.8-0.4 0.1-1.3 0.3-1.6 0.1 0.3-0.5 0.1-0.7-0.5-0.8-0.3 0-2.7 0.1-2.3-0.5 0.2-0.5 0.9-0.6 1.3-0.9 0.3-0.4 0.4-1 0.9-1.2 0.6-0.3 1.2-0.5 1.8-0.5 0.4-0.1 0.9-0.1 1.3 0q0.3 0.1 0.5 0.4 0.1 0.2 0.3 0.4z"/><path class="b9" d="m14.4 23.5c0.3-0.4 0.4-0.8 0.8-1 0.6-0.3 1.2-0.5 1.8-0.5 0.4-0.1 0.9-0.1 1.3 0 0.4 0.2 0.5 0.4 0.7 0.8 0 0.2 0.2 0.4 0.4 0.6 0.3 0.4 0.6 0.6 1.1 0.7-0.5 0.1-1-0.1-1.4-0.2 0 0.1 0.2 0.2 0.3 0.3-0.2 0-0.8-0.5-0.6 0-0.1 0.1-0.2 0-0.3 0 0 0.1-0.1 0.1-0.2 0.2q-0.9 0.2-1.6-0.3c-0.4-0.2-0.8-0.1-1.2 0-0.3 0-0.6-0.1-0.8-0.3q-0.3-0.1-0.3-0.3z"/><path class="ba" d="m17.9 24.4q-0.6 0.1-1.2-0.3-0.2-0.1-0.5-0.1 0.1-0.2 0.1-0.4 0.1-0.5 0.3-1c0.1-0.2 0.2-0.4 0.4-0.6q0 0 0 0c0.4-0.1 0.9-0.1 1.3 0q0.2 0.1 0.4 0.3 0.1 0.5 0 0.9-0.1 0.2-0.2 0.4-0.1 0.4-0.6 0.7 0 0.1 0 0.1z"/><path class="bb" d="m17.5 24.4q-0.4 0-0.8-0.3-0.2-0.1-0.5-0.1 0.1-0.2 0.1-0.4 0.1-0.5 0.3-1c0.1-0.2 0.2-0.4 0.4-0.6q0 0 0 0c0.4-0.1 0.9-0.1 1.3 0q0.2 0.1 0.3 0.3c0.2 0.9 0 1.9-1 2.1q-0.1 0-0.1 0z"/><path fill-rule="evenodd" class="bc" d="m18.9 23.1c-0.1 0.5-0.6 1.3-1.1 1.4-0.4 0.1-0.7-0.1-1-0.2q-0.3-0.1-0.5-0.1c-0.1 0-0.4 0-0.4 0.1 0.1 0.1 0.4 0.3 0.3 0.5-0.1 0-0.3-0.1-0.4 0 0 0-0.1 0.1-0.1 0.2q-0.1 0-0.1 0c-0.4 0.3-1 0.1-1.5 0.1-0.2 0-1.4-0.1-1.1-0.5 0.3-0.5 0.9-0.6 1.3-0.9 0.3-0.4 0.4-1 0.9-1.2 0.6-0.3 1.2-0.5 1.8-0.5 0.4-0.1 0.9-0.1 1.3 0 0.3 0.1 0.5 0.4 0.6 0.7q0 0.2 0 0.4zm-0.5 0.2c0.3-0.4 0-1.3-1-1.1-0.4 0.1-1.2 0.1-1.6 0.3-0.2 0.2-0.7 0.4-0.8 0.7-0.1 0.5 0.5 0.7 0.9 0.7q0.4 0 0.8 0.1c0.4 0.1 0.7-0.2 1-0.5 0.1-0.1 0.7-0.1 0.7-0.2z"/><path class="bd" d="m17.8 24.3c-0.5 0.2-0.5 0-0.9-0.2-0.3-0.1-1.2-0.1-1.4-0.5-0.4-1.1 2-1.3 2.6-1.1q0.1 0.1 0.2 0.1c0.5 0.5 0 1.4-0.5 1.7z"/><g style="opacity:.5"><path class="be" d="m16.8 24.1c-0.4-0.1-1.1-0.1-1.3-0.5-0.2-0.6 0.4-0.9 1-1.1-0.3 0.3-0.5 0.7-0.4 1 0 0.3 0.4 0.5 0.7 0.6z"/></g><path class="bf" d="m16 24.1c-0.5 0-1.5-0.1-1.3-0.9 0-0.5 0.7-0.9 1.3-0.9q0 0 0 0c-0.4 0.2-1.1 0.5-1.1 1 0 0.5 0.8 0.6 1.1 0.8q0 0 0 0z"/><path class="S" d="m15.5 25.6c0.3 0.3 0.7 0.3 1.2 0.4 0.3 0.1 0.6 0.3 0.3 0.6-0.7 0.8-1.9 0.9-2.6 1.7-0.6 0.8-0.3 1.7 0.3 2.3-0.2 0-2.4-0.8-2.5-0.6-0.3 0.2-0.1 1.2-0.1 1.6-0.8 0-1.5-0.6-2.3-0.6 0.7 0 1.4 0.3 2.2 0.2-0.2-0.5-0.1-1.1-0.3-1.6 0.4 0 1.1 0.2 1.3-0.1-0.4-0.5-0.7-1.9-1.3-1.9-0.3 0-2.7 0.1-2.3-0.5 0.2-0.4 0.9-0.5 1.2-0.8 0.4-0.4 0.5-0.8 1-1 0.6-0.3 1.2-0.4 1.8-0.5 0.4 0 0.8 0 1.2 0.1q0.3 0.1 0.5 0.3 0.2 0.2 0.4 0.4z"/><path class="b9" d="m10.8 26.2c0.2-0.4 0.4-0.7 0.8-0.9 0.6-0.3 1.2-0.4 1.8-0.5 0.4 0 0.8 0 1.2 0.1 0.4 0.1 0.6 0.3 0.7 0.7 0.1 0.2 0.3 0.3 0.4 0.5 0.4 0.3 0.7 0.5 1.2 0.6-0.5 0-1-0.1-1.5-0.2 0.1 0.1 0.3 0.2 0.4 0.3-0.2 0-0.8-0.4-0.6 0-0.1 0-0.2 0-0.3 0-0.1 0-0.1 0.1-0.2 0.1q-0.9 0.2-1.6-0.2c-0.4-0.2-0.8-0.1-1.2-0.1-0.3 0-0.6 0-0.9-0.2q-0.2-0.1-0.2-0.2z"/><path class="bg" d="m14.3 27q-0.7 0-1.2-0.3-0.2-0.1-0.5-0.1 0.1-0.2 0.1-0.3 0.1-0.5 0.3-0.9c0.1-0.2 0.2-0.4 0.4-0.6q0 0 0 0c0.4 0 0.8 0 1.2 0.1q0.3 0.1 0.4 0.2 0.1 0.4 0 0.8 0 0.2-0.1 0.3-0.2 0.4-0.6 0.7 0 0 0 0.1z"/><path class="bh" d="m13.9 27q-0.4-0.1-0.8-0.3-0.2-0.1-0.5-0.1 0.1-0.2 0.1-0.3 0.1-0.5 0.3-0.9c0.1-0.2 0.2-0.4 0.4-0.6q0 0 0 0c0.4 0 0.8 0 1.2 0.1q0.3 0.1 0.4 0.2c0.2 0.8 0 1.7-1.1 1.8q0 0.1 0 0.1z"/><path fill-rule="evenodd" class="bi" d="m15.2 25.8c0 0.5-0.5 1.1-1 1.2-0.4 0.1-0.7 0-1-0.1q-0.3-0.1-0.6-0.1c0 0-0.3 0-0.3 0 0.1 0.2 0.3 0.3 0.3 0.5-0.1 0-0.3-0.1-0.4 0 0 0-0.1 0.1-0.1 0.1q-0.1 0.1-0.1 0.1c-0.5 0.2-1 0.1-1.5 0.1-0.2 0-1.4-0.1-1.1-0.5 0.2-0.4 0.9-0.5 1.2-0.8 0.4-0.4 0.5-0.8 1-1 0.6-0.3 1.2-0.4 1.8-0.5 0.4 0 0.8 0 1.2 0.1 0.4 0.1 0.6 0.3 0.6 0.6q0.1 0.1 0 0.3zm-0.4 0.2c0.2-0.4 0-1.1-1-1-0.4 0.1-1.2 0.1-1.6 0.3-0.2 0.1-0.7 0.3-0.8 0.6-0.1 0.5 0.5 0.6 0.9 0.6q0.4 0 0.8 0.1c0.4 0.1 0.7-0.2 1-0.4 0.1-0.1 0.7-0.2 0.7-0.2z"/><path class="bj" d="m14.2 26.8c-0.5 0.2-0.5 0-0.9-0.1-0.3-0.1-1.2-0.1-1.4-0.5-0.4-0.9 2-1.1 2.6-0.9q0.1 0.1 0.2 0.1c0.5 0.4 0 1.2-0.5 1.4z"/><g style="opacity:.5"><path class="be" d="m13.2 26.7c-0.4-0.1-1.1-0.1-1.3-0.5-0.2-0.5 0.3-0.7 1-0.9-0.3 0.3-0.5 0.6-0.4 0.9 0 0.3 0.4 0.4 0.7 0.5z"/></g><path class="bf" d="m12.4 26.7c-0.5 0-1.5-0.1-1.4-0.8 0.1-0.5 0.8-0.8 1.4-0.8q0 0 0 0c-0.4 0.2-1.1 0.4-1.1 0.9 0 0.5 0.7 0.5 1.1 0.7q0 0 0 0z"/><path class="S" d="m38.5 25.7c0.6 0.4 2 0.7 2 1.3 0 0.5-0.5 1-0.8 1.4-0.4 0.6-0.9 1.3-1.4 1.8-1.5 1.5-3.7 2.6-5.6 3-1 0.2-2.1 0.1-3 0.6-0.6 0.3-0.4 0.9-1.1 1.2-0.6 0.2-1.6 0-2.2-0.1-1.3-0.3-2.5-0.7-3.7-0.9-0.6-0.1-1-0.3-1.6-0.4-0.5 0-1.1 0.2-1.7 0.2-0.7 0-1.3 0-1.9-0.3-0.7-0.3-1.2-0.7-1.7-1.3-0.7-0.7-1.4-1.6-2-2.3-0.5-0.6-1.3-1.9-0.5-2.4 0.8-0.5 1.8-0.4 2.6-0.9 0.7-0.4 1.1-1.3 2.1-1.6 0.8-0.2 1.8-0.6 2.8-0.8 0.8-0.1 1.7 0 2.4-0.7 0.3-0.3 0.4-0.8 0.6-1.1 0.6-0.8 1.9-0.6 2.8-0.7 1.3 0 2.7 0.4 4 0.2 1.2-0.2 2.6 0.3 3.7 0.8 0.7 0.3 1.5 0.7 2.1 1.1 0.7 0.5 1.1 1.1 1.7 1.6q0.2 0.2 0.4 0.3z"/><path class="b9" d="m40.5 27c0 0.5-0.5 1-0.8 1.4-0.4 0.6-0.9 1.3-1.4 1.8-1 1-1.9 1.8-3.3 2-1.1 0.1-2.5 0.6-3.1-0.7q-0.5-1.5-0.7-3.1c-0.1-1.1 0-2.2 0.1-3.3 0.1-1.1 0.2-2.2 0.8-3.1q0.4 0.1 0.9 0.2-0.1 0.4 0 0.9c0.1 0.8 0.4 1.6 1.4 1.7 0.8 0 1.5-0.4 1.9-1.1q0.1 0.1 0.1 0.1c0.7 0.5 1.1 1.1 1.7 1.6q0.2 0.2 0.4 0.3c0.6 0.4 2 0.7 2 1.3z"/><path class="bk" d="m21.7 33.7q-0.3 0-0.6-0.1c-0.5 0-1.1 0.2-1.7 0.2-0.7 0-1.3 0-1.9-0.3-0.7-0.3-1.2-0.7-1.7-1.3-0.7-0.7-1.4-1.6-2-2.3-0.5-0.6-1.3-1.9-0.5-2.4 0.8-0.5 1.8-0.4 2.6-0.9 0.7-0.4 1.1-1.3 2.1-1.6 0.8-0.2 1.8-0.6 2.8-0.8 0.8-0.1 1.7 0 2.4-0.7 0.3-0.3 0.4-0.8 0.6-1.1 0.6-0.8 1.9-0.6 2.8-0.7 1.1 0 2.3 0.3 3.5 0.2-1.5 0.8-2.5 2.2-3.3 3.6-1.6 2.6-1.9 7.1-5.1 8.2z"/><path class="bl" d="m29.3 21.9q0.6 0.1 1.3 0c1.2-0.2 2.6 0.3 3.7 0.8 0.7 0.3 1.5 0.7 2.1 1.1 0.5 0.3 0.8 0.7 1.2 1.1-0.3 1.8-1.7 3.2-3.3 4.1-0.8 0.4-1.7 0.7-2.6 1.1-1 0.3-2.1 0.7-3.2 0.4-1-0.3-2-1.2-2.6-2-0.6-0.6-1.2-1.2-0.5-1.9 0.4-0.4 0.8-0.6 1.1-0.9 0.7-0.7 1.2-1.5 1.8-2.2q0.6-0.8 1-1.6z"/><path class="bm" d="m29 22c-0.5 0.9-1.1 1.7-1.8 2.4-0.3 0.5-0.7 0.9-1.1 1.3-0.4 0.4-0.8 0.7-1.2 1.1-0.3 0.4-0.2 0.9 0.1 1.3q-0.2 0.8-0.6 1.6c-0.2 0.4-0.5 1.3-0.8 1.5-0.7 0.4-2.3-0.3-3-0.3-0.7 0.1-1.7 1-2.3 0.2-0.2-0.2-0.2-0.7-0.2-1.1-0.1-0.3-0.4-0.6-0.6-0.8-0.3-0.5-0.6-0.9-0.7-1.4-0.2-0.6 0.1-1.2 0.4-1.7q0.2-0.2 0.5-0.4c0.7-0.5 1.3-1.1 2.2-1.2 0.9-0.1 1.9 0 2.7-0.4 0.9-0.4 1.2-1.4 2-1.9 0.6-0.4 1.9-0.4 2.7-0.4 0.6 0.1 1.1 0.1 1.7 0.2z"/><path fill-rule="evenodd" class="bn" d="m37.4 26c-0.1 0.9-0.4 1.7-1 2.2-1.2 1.1-2.6 1.8-4.1 2.2-0.5 0.2-1.2 0.2-1.6 0.5-0.5 0.5-0.3 1.6-0.3 2.2-0.2-0.2-0.2-0.7-0.3-1-0.1-0.3-0.3-0.6-0.4-0.9-2-0.3-1.3 2.6-1 3.7-0.8-0.6-0.6-1.8-0.9-2.6-0.3-1.2-1.8-1.2-2.8-0.8-0.2 0.1-0.5 0.4-0.7 0.5-0.4 0.4-0.8 0.7-1.3 1 0.1-0.4 0.7-0.9 0.6-1.3-0.1-0.5-1.7-0.4-2.1-0.4-1.1 0-2 0.2-2.9 0.8-0.1 0.2-1.1 0.7-1.2 0.8 0.1-1.2 0.6-2.9-0.2-4-0.4-0.5-0.9-0.9-0.9-1.7 0.2-1.5 1.5-2.7 2.9-3.1 0.8-0.2 1.8-0.4 2.6-0.3 0.4 0 0.8 0.1 1.1-0.2 0.4-0.3 0.3-0.8 0.6-1.2 0.6-0.6 1.7-0.8 2.6-0.8 0.9-0.1 1.9-0.1 2.9 0 2.2 0.1 4.7 0.5 6.7 1.4 1.2 0.5 1.7 1.8 1.7 3zm-20 6.9q0 0 0 0 0 0 0 0zm18.7-5c1.2-1.3 1.1-3.5-0.3-4.3-1.4-0.8-3.6-1.3-5.1-1.5-0.9-0.1-1.8-0.2-2.8-0.2-1.1 0-3.2-0.3-4 0.7-0.5 0.6 0 1.6-0.9 1.8-0.8 0.3-1.7 0-2.5 0.1-1 0.2-1.8 0.5-2.6 1.1-0.6 0.5-1.1 0.9-1 1.7 0 0.8 0.4 0.9 0.8 1.4 0.4 0.4 0.5 1.5 0.5 2 0 0.3 0 1.4-0.1 1.6 0.5-0.6 1-1.2 1.6-1.7 0.8-0.6 1.2-0.2 2.1-0.1q1.6 0.1 3.2 0.3c1.1 0.2 2.1-0.1 3.2-0.1 0.9-0.1 1.9-0.2 2.8-0.4 1-0.3 1.9-0.7 2.8-1.1 0.4-0.2 1-0.4 1.5-0.6q0.5-0.3 0.8-0.7z"/><path class="b9" d="m17.2 28.9q-0.1-0.1-0.2-0.2 0.3-0.1 0.5-0.3 0.1 0.1 0.2 0.3c0.4 0.4 0.5 1.5 0.5 2 0 0.3 0 1.1-0.1 1.5q-0.1 0.2-0.2 0.3-0.1 0.2-0.2 0.3-0.2 0.1-0.3 0.1c0.1-1.2 0.6-2.9-0.2-4z"/><path class="bo" d="m19.8 53q0.4 1.6 0.3 3.2c-0.3-0.2-0.8-0.6-1-1-0.3-0.4-0.2-1-0.3-1.6-0.3-1.4-0.8-3-1.4-4.3-0.6-1.1-1.9-1.8-2.7-2.8-0.5-0.7-0.9-1.3-1.1-2.1-0.3-0.8-0.2-1.7-0.5-2.5-0.6-2-5.1-7.4-1.8-9.2 0.7-0.4 1.6-0.7 2.4-0.9 0.9-0.2 1.8-0.3 2.5-1 0.8-0.9 1.3-2.1 1.4-3.3 0.1-0.4 0.3-0.9 0.6-1.2 0.5-0.4 1.1-0.5 1.7-0.5 1-0.1 2-0.2 2.9-0.4 1-0.2 2.1 0 3.1 0.4 0.6 0.3 1.1 0.3 1.8 0.5 0.6 0.2 1.2 0.7 1.9 0.9q0.8 0.2 1.5 0.3c0.5 0.1 1.3 0.1 1.2 0.8-0.2 1.3-2.1 1.8-3.2 2.1-1.7 0.5-3.4 0.7-5.2 0.5-2.5-0.3-4.2-1.5-5.4 1.3-0.4 0.9-0.4 1.3-1.4 1.6-1.4 0.4-4.2 0.6-4.7 2.3-0.6 1.8 1.2 4 2.1 5.3 0.6 0.9 1.2 1.6 1.3 2.6 0.2 1.2 0.4 2 1.2 2.9 1 0.9 1.9 1.6 2.3 2.9 0.3 1 0.3 2.2 0.5 3.2z"/><path class="bp" d="m20.7 30.3q0.1 0.1 0.1 0 0.1 0.1 0.1 0.1c-1 0-1.8 0.3-2.4 1.8-0.4 0.9-0.4 1.3-1.4 1.6-0.6 0.2-1.6 0.3-2.4 0.6 0.7-0.5 1.5-0.8 2.2-1.4 0.9-0.8 2.4-4.4 3.8-2.7z"/><path class="bq" d="m11.7 35.7c-0.3 1.1 0.2 2.6 0.4 3.6-1.5-1.4-2.3-5.6 0.4-6.2q0.9-0.2 1.8-0.4c0.7-0.2 1.4 0 2-0.2-1.3 0.4-4.1 1.7-4.6 3.2z"/><path class="S" d="m43.9 28.8c0.5 0.6 1 0.6 1.7 0.9 0.5 0.1 0.8 0.4 0.4 0.9-0.4 0.6-1.2 1.1-1.8 1.4-0.9 0.5-1.9 1-2.9 1.2-0.5 0.2-1.8 0.5-2.3 0.2 0.5-0.8 0.2-1.1-0.7-1.2-0.4 0-3.9 0.2-3.3-0.8 0.3-0.6 1.3-0.7 1.8-1.3 0.5-0.6 0.7-1.3 1.4-1.7 0.8-0.5 1.7-0.7 2.6-0.7 0.6-0.1 1.2-0.2 1.8 0 0.3 0.1 0.5 0.3 0.7 0.5 0.2 0.2 0.4 0.4 0.6 0.6z"/><path class="b9" d="m37 29.9c0.4-0.6 0.6-1.2 1.2-1.5 0.8-0.5 1.7-0.7 2.6-0.7 0.6-0.1 1.2-0.2 1.8 0 0.6 0.2 0.8 0.6 1 1.2 0.1 0.3 0.4 0.5 0.6 0.8 0.5 0.6 1 0.9 1.7 1-0.7 0.1-1.5-0.1-2.1-0.3 0.1 0.2 0.3 0.3 0.4 0.5-0.2 0-1.1-0.7-0.8 0-0.1 0.1-0.2 0-0.4 0-0.1 0.1-0.2 0.2-0.3 0.2-0.9 0.2-1.7 0.2-2.4-0.3-0.5-0.4-1.1-0.1-1.7-0.1-0.4 0-0.9-0.2-1.2-0.4-0.2-0.1-0.3-0.2-0.4-0.4z"/><path class="br" d="m42.1 31.2q-0.9 0.1-1.8-0.4-0.3-0.3-0.6-0.2 0-0.3 0.1-0.5 0.1-0.8 0.4-1.5c0.1-0.4 0.3-0.7 0.5-0.9q0.1 0 0.1 0c0.6-0.1 1.2-0.2 1.8 0q0.4 0.2 0.6 0.4 0.1 0.7 0 1.3-0.1 0.3-0.2 0.6-0.3 0.6-0.8 1.1-0.1 0-0.1 0.1z"/><path class="bs" d="m41.5 31.2q-0.6 0-1.2-0.4-0.3-0.3-0.6-0.2 0-0.3 0.1-0.5 0.1-0.8 0.4-1.5c0.1-0.4 0.3-0.7 0.5-0.9q0.1 0 0.1 0c0.6-0.1 1.2-0.2 1.8 0q0.4 0.2 0.6 0.4c0.2 1.3-0.1 2.8-1.6 3.1q-0.1 0-0.1 0z"/><path fill-rule="evenodd" class="bt" d="m43.5 29.3c-0.1 0.8-0.8 1.8-1.6 2-0.5 0.2-1-0.1-1.4-0.3-0.3-0.1-0.5-0.1-0.8-0.1-0.1 0-0.5 0-0.5 0.1 0.2 0.2 0.5 0.4 0.5 0.7-0.2 0-0.5 0-0.6 0-0.1 0.1-0.2 0.2-0.2 0.3q-0.1 0.1-0.2 0.1c-0.6 0.3-1.4 0.1-2.1 0.1-0.3 0-2.1-0.1-1.6-0.8 0.3-0.6 1.3-0.7 1.8-1.3 0.5-0.6 0.7-1.3 1.4-1.7 0.8-0.5 1.7-0.7 2.6-0.7 0.6-0.1 1.2-0.2 1.8 0 0.5 0.2 0.8 0.6 0.9 1q0 0.3 0 0.6zm-0.6 0.2c0.3-0.5 0-1.8-1.5-1.6-0.7 0.1-1.7 0.2-2.3 0.5-0.4 0.2-1.1 0.6-1.2 1.1-0.1 0.7 0.8 1 1.3 1q0.6 0 1.2 0.1c0.5 0.1 1-0.3 1.4-0.7 0.1-0.2 1-0.2 1.1-0.4z"/><path class="bu" d="m41.9 31c-0.6 0.3-0.7 0-1.2-0.3-0.5-0.2-1.7-0.1-2-0.7-0.7-1.6 2.9-1.8 3.7-1.5q0.2 0 0.3 0.1c0.7 0.6-0.1 2-0.8 2.4z"/><g style="opacity:.5"><path class="be" d="m40.5 30.7c-0.6-0.2-1.6-0.1-1.8-0.7-0.4-0.9 0.4-1.3 1.4-1.5-0.4 0.3-0.7 0.9-0.6 1.4 0 0.4 0.5 0.6 1 0.8z"/></g><path class="bf" d="m39.4 30.7c-0.8 0-2.2-0.1-2-1.2 0.1-0.9 1.1-1.4 1.9-1.5q0 0.1 0 0.1c-0.5 0.3-1.6 0.7-1.6 1.4 0.1 0.8 1.1 0.9 1.7 1.2q0 0 0 0z"/><path class="bv" d="m32.7 29.9c-3.7 1.4-9.3 1.2-13 0.2-2.5-0.7-2.8-3.4-0.5-4.6 0.9-0.5 1.9-0.4 3-0.4 0.5 0 1.2-0.4 1.6-0.7 0.5-0.5 0-1 0.8-1.5 1.6-1 6.1-0.2 6.7-0.1 1.7 0.3 3.5 0.8 4.7 2.1 0.9 0.9 0.8 2 0.3 2.7-0.7 1.1-2.6 1.9-3.6 2.3z"/><path class="bw" d="m18.1 28.5c-0.4-0.2-0.5-1-0.3-1.5 0.2-0.6 0.8-1.2 1.4-1.5 0.9-0.5 1.9-0.4 3-0.4 0.5 0 1.2-0.4 1.6-0.7 0.5-0.5 0-1 0.8-1.5 0.8-0.5 2.4-0.6 3.8-0.4q-0.6 0.1-1.1 0.4c-0.5 0.2-0.7 0.9-0.9 1.4-0.6 1.9-2.7 1.7-4.3 2.1-1.1 0.2-3.1 1-1.4 2.2 0.7 0.5 1.7 0.8 2.6 1 0.4 0.1 2.3 0.2 2.1-0.5-0.1-0.5-1.7-0.5-2.1-0.5 0.7-0.7 2.1-0.2 2.7 0.3 1.4 1-0.4 1.3-1.3 1.3-0.6 0-1.4 0.2-1.9 0-0.3 0-0.5-0.2-0.7-0.3-0.2 0-0.5 0-0.7 0-0.6-0.2-0.2-0.3-0.5-0.6-0.5-0.5-1.2 0.5-1.6 0q0 0 0-0.1c0.8-1.3-0.6-0.4-1.2-0.7z"/><path class="bf" d="m21.7 24c-1.2 0.2-2.7 0.6-3.7 1.4-0.8 0.7-1.7 1.9-1 3q0 0 0 0c-1.3-0.6-0.5-2.2 0.2-3 1.2-1.3 2.8-1.7 4.5-1.5 0 0 0.1 0.1 0 0.1z"/><path class="bf" d="m35.4 29.7q0 0-0.1 0c-0.1 0-0.3-0.1-0.3-0.3 0-0.2 0.2-0.3 0.3-0.3q0.1 0.1 0.1 0.1c0.3 0 0.3 0.4 0 0.5z"/><path class="bf" d="m37 30.3v0.3c1 0 1-0.3 0-0.3z"/><path class="bf" d="m35 30.3v0.3c1 0 1-0.3 0-0.3z"/><path class="bf" d="m35.9 28.3c0 0-0.1-0.1 0-0.1 0.7-1.1 1.1-2.4 0.4-3.6-0.6-1.1-1.9-1.6-3-2.1q-0.1 0 0 0c1.4 0.4 3.4 0.7 3.9 2.4 0.2 1 0 3.1-1.3 3.4z"/><path class="bx" d="m34 26.5c-0.3 1-1.5 1.8-2.3 2.3-0.6 0.3-1.2-0.2-1-0.7 0.1-0.4 0.2-0.7 0.5-0.9q-0.8 0.1-1.5 0.4c-1 0.4-1.9 0.8-2.9 1.3-0.8 0.3-1.7 0.7-2.6 0.6-0.5 0-0.9-0.5-0.6-1 0.9-1.3 2.5-2.1 3.8-3.2 0.2-0.1 0.5-0.4 0.5-0.7-0.8-0.1-1.8 0.7-2.5 1-1.1 0.7-2.2 1.5-3.6 1.5-0.3 0-0.9 0.1-1-0.4 0-0.2 0.4-0.6 0.6-0.8 0.4-0.4 1.1-0.9 1.7-0.7-0.4 0.2-1.2 0.6-1.1 1.3 1.4 0.2 2.9-1.8 3.9-2.5q0.8-0.6 1.7-0.9c0.6-0.2 2.4-0.3 2.9 0.3 0.4 0.7 0.1 1.3-0.5 1.7-0.6 0.5-1.2 0.8-1.9 1.1-0.6 0.3-1.7 0.7-1.9 1.3 0.5-0.2 1-0.6 1.5-0.9 1.4-0.6 2.8-1.2 4.3-1.4 0.8-0.1 2.5-0.1 2 1.3z"/><ellipse class="by" cx="18.7" cy="52.3" rx="2.9" ry="4.3"/><ellipse class="bz" cx="39.2" cy="39.3" rx="2.9" ry="4.3"/><path class="bA" d="m42 46.1q-0.1 1-0.1 2c0 0.6 0 1.3-0.4 1.7-0.2 0.3-0.6 0.1-0.6-0.2 0-1.3 0.1-2.6 0.2-3.9 0-0.7-0.1-1.1-0.8-1.4-0.5-0.1-1-0.3-1.4-0.6-0.7-0.5-0.8-1.3-0.7-2.1 0.1-1.2 0.4-2.4 0.4-3.6 0-0.4 0-1.2-0.4-1.4-0.6-0.3-1.2-0.3-1.7-0.4-1.1-0.1-2.1-0.3-3-0.9-1.1-0.9-1.3-2.6-2-3.8-0.5-0.9-1.2-0.6-1.9-1.1 0.8 0.6 3.3-1.6 4-0.5 0.2 0.3-0.1 0.9-0.1 1.2-0.2 1-0.7 2.9 0.4 3.5 1.6 0.8 5.4 0 5.5 2.6 0.1 1.3-0.1 2.7-0.2 4 0 0.4-0.1 1.1 0.1 1.5 0.3 0.4 1 0.6 1.5 0.8 1.1 0.4 1.4 1.4 1.2 2.6z"/><path class="bB" d="m33.1 30c-0.7 0.7-2.2 1.2-3.1 0.5q0 0 0-0.1c1.1 0 2-0.5 3.1-0.5 0 0 0.1 0.1 0 0.1z"/><path class="bC" d="m19 52.6c0 0.1-0.1 0.1-0.1 0-0.2-1.3-0.5-2.3-1.2-3.4-0.4-0.6-0.8-1.1-1.4-1.5-0.4-0.3-0.8-0.6-1.2-1-0.8-0.8-1.1-1.8-1.3-3-0.1-0.6-0.1-1.2-0.3-1.8-0.2-0.6-0.6-1.1-0.8-1.7 0 0 0-0.1 0 0 0.9 0.9 1.7 1.8 2 3 0.2 0.7 0.2 1.5 0.6 2.1 0.3 0.6 0.8 0.9 1.2 1.4 1.4 1.6 3.1 3.6 2.5 5.9z"/><path class="bD" d="m39.4 43.8c-1.7-0.1-1.3-2.4-1.2-3.5 0.2-1.6 1.1-3.6-0.9-4.3q0 0 0-0.1c4.3 0.2-0.2 7.6 2.1 7.9z"/><path class="bE" d="m28.8 30q-0.2 0.1-0.4 0.1c-0.5 0-1-0.4-1-0.9 0-0.6 0.5-1 1-1 0.5 0 0.9 0.4 0.9 1 0-0.3-0.2-0.5-0.4-0.5-0.3-0.1-0.6 0.1-0.8 0.3-0.1 0.2-0.1 0.5 0 0.7 0.2 0.2 0.4 0.3 0.7 0.3z"/><path class="bE" d="m25.2 25.2q0 0.1-0.1 0.2c-0.1 0.3-0.4 0.4-0.7 0.3-0.2-0.1-0.4-0.4-0.3-0.7 0.2-0.3 0.5-0.4 0.7-0.3q-0.2 0-0.3 0.1c-0.1 0.2-0.1 0.3 0 0.5 0.1 0.1 0.2 0.2 0.4 0.1q0.2 0 0.3-0.2z"/><path class="bE" d="m22.7 29.4q0 0.1 0 0.2c-0.1 0.3-0.5 0.4-0.7 0.3-0.3-0.1-0.4-0.4-0.3-0.7 0.1-0.3 0.4-0.4 0.7-0.3q-0.2 0-0.4 0.2c-0.1 0.1-0.1 0.3 0 0.4 0.1 0.1 0.3 0.2 0.4 0.2q0.2-0.1 0.3-0.3z"/><path class="bE" d="m33.3 23.6q0 0.1 0 0.2c-0.1 0.3-0.4 0.4-0.7 0.3-0.3-0.1-0.4-0.4-0.3-0.7 0.1-0.3 0.4-0.4 0.7-0.3q-0.2 0-0.4 0.1c-0.1 0.2-0.1 0.4 0 0.5 0.1 0.1 0.3 0.2 0.4 0.1q0.2 0 0.3-0.2z"/><path class="bF" d="m10.6 30.2c-0.3 0.2-0.7 0.3-1.1 0.3-0.4-0.1-0.9-0.1-1.2-0.4-0.3-0.3-0.4-0.8 0-1.1q0-0.1 0.1-0.1c0.4-0.5 1.3-0.5 1.8-0.2 0.5 0.3 1 1 0.4 1.5z"/><path class="bG" d="m9.5 30.5q0 0 0 0c-0.4-0.1-0.9-0.1-1.2-0.4-0.3-0.3-0.4-0.8 0-1.1q0-0.1 0.1-0.1c0.3-0.4 0.9-0.5 1.4-0.3-0.3 0-0.7 0.3-0.8 0.5-0.3 0.5 0.1 1 0.5 1.4z"/><path class="bH" d="m11.1 30.1c-0.1 0.2-0.6 0.5-0.8 0.5-0.7 0.1-1.1-0.1-1.1-0.1 0.8-0.1 1.1 0 1.5-0.5 0.5-0.6-0.4-1.2-0.9-1.5q0 0 0 0c0.7 0.1 1.7 0.7 1.3 1.6z"/><path class="bI" d="m40.7 25.2c-0.3 0.1-0.6 0.1-1 0.1-0.3 0-0.7 0-1-0.2-0.3-0.1-0.3-0.4 0-0.5q0.1 0 0.1-0.1c0.4-0.2 1.1-0.2 1.6 0 0.4 0.1 0.8 0.5 0.3 0.7z"/><path class="bG" d="m39.7 25.3q0 0 0 0c-0.3 0-0.7 0-1-0.2-0.3-0.1-0.3-0.4 0-0.5q0.1 0 0.1-0.1c0.3-0.2 0.8-0.2 1.2-0.1-0.3 0-0.6 0.1-0.7 0.2-0.2 0.3 0.1 0.6 0.4 0.7z"/><path class="bH" d="m41.1 25.1c-0.1 0.2-0.5 0.3-0.7 0.3-0.5 0.1-0.9-0.1-0.9-0.1 0.7 0 0.9 0.1 1.3-0.2 0.4-0.3-0.4-0.6-0.8-0.8q0 0 0 0c0.6 0.1 1.4 0.4 1.1 0.8z"/><path class="bJ" d="m41.8 26c-0.1 0-0.3 0-0.5 0-0.2 0-0.4 0-0.5-0.1-0.2 0-0.2-0.2 0-0.3q0 0 0 0c0.2-0.1 0.6-0.1 0.9 0 0.2 0 0.4 0.2 0.1 0.4z"/><path class="bG" d="m41.3 26q0 0 0 0c-0.2 0-0.4 0-0.5-0.1-0.2 0-0.2-0.2 0-0.3q0 0 0 0c0.2-0.1 0.4-0.1 0.7-0.1-0.2 0-0.4 0.1-0.4 0.2-0.1 0.1 0 0.3 0.2 0.3z"/><path class="bH" d="m42.1 25.9c-0.1 0.1-0.3 0.2-0.4 0.2-0.3 0-0.5 0-0.5 0 0.4-0.1 0.5 0 0.7-0.2 0.2-0.1-0.2-0.3-0.4-0.4q0 0 0 0c0.3 0 0.7 0.2 0.6 0.4z"/><path class="bK" d="m38.5 24.5c-0.1 0.1-0.3 0.1-0.5 0.1-0.2 0-0.4 0-0.6-0.1-0.1-0.1-0.1-0.3 0-0.4q0.1-0.1 0.1-0.1c0.2-0.2 0.6-0.1 0.8 0 0.3 0.1 0.5 0.3 0.2 0.5z"/><path class="bG" d="m38 24.6q0 0 0 0c-0.2 0-0.4 0-0.6-0.1-0.1-0.1-0.1-0.3 0-0.4q0.1-0.1 0.1-0.1c0.2-0.1 0.4-0.1 0.6-0.1-0.1 0-0.3 0.1-0.3 0.2-0.2 0.2 0 0.4 0.2 0.5z"/><path class="bH" d="m38.7 24.5c0 0.1-0.2 0.2-0.3 0.2-0.3 0-0.5-0.1-0.5-0.1 0.3 0 0.5 0 0.7-0.2 0.2-0.2-0.2-0.4-0.4-0.5q0 0 0 0c0.3 0 0.7 0.3 0.5 0.6z"/><path class="bL" d="m7.8 30.8c-0.2 0.1-0.4 0.1-0.6 0.1-0.2 0-0.5 0-0.7-0.2-0.2-0.1-0.2-0.4 0-0.6q0 0 0.1-0.1c0.2-0.2 0.7-0.2 1 0 0.3 0.1 0.5 0.5 0.2 0.8z"/><path class="b9" d="m7.2 30.9q0 0 0 0c-0.2 0-0.5 0-0.7-0.2-0.2-0.1-0.2-0.4 0-0.6q0 0 0.1-0.1c0.2-0.2 0.5-0.2 0.8-0.1-0.2 0-0.4 0.1-0.5 0.3-0.1 0.2 0.1 0.5 0.3 0.7z"/><path class="bM" d="m8.1 30.7c-0.1 0.2-0.3 0.3-0.5 0.3-0.3 0.1-0.6-0.1-0.6-0.1 0.5 0 0.6 0.1 0.9-0.2 0.3-0.3-0.2-0.7-0.5-0.9q0 0 0 0c0.4 0.1 0.9 0.4 0.7 0.9z"/><path class="bN" d="m37.3 22.4c-0.2 0.2-0.4 0.2-0.7 0.2-0.2 0-0.5 0-0.6-0.2-0.2-0.2-0.2-0.4 0-0.6q0 0 0.1-0.1c0.2-0.3 0.7-0.2 0.9-0.1 0.3 0.2 0.6 0.6 0.3 0.8z"/><path class="b9" d="m36.6 22.6q0 0 0 0c-0.2 0-0.5 0-0.6-0.2-0.2-0.2-0.2-0.4 0-0.6q0 0 0.1-0.1c0.1-0.2 0.4-0.2 0.7-0.2-0.2 0.1-0.4 0.2-0.4 0.3-0.2 0.3 0 0.6 0.2 0.8z"/><path class="bM" d="m37.5 22.4c0 0.1-0.3 0.3-0.4 0.3-0.4 0.1-0.6-0.1-0.6-0.1 0.4 0 0.6 0 0.8-0.2 0.3-0.4-0.2-0.7-0.5-0.9q0 0 0 0c0.4 0.1 1 0.4 0.7 0.9z"/><path class="bO" d="m7.8 28.6c-0.2 0.1-0.6 0.2-0.9 0.2-0.4 0-0.8-0.1-1.1-0.2-0.2-0.2-0.3-0.5 0-0.6q0.1-0.1 0.2-0.1c0.3-0.3 1-0.3 1.5-0.1 0.4 0.1 0.8 0.5 0.3 0.8z"/><path class="b9" d="m6.9 28.8q0 0 0 0c-0.4 0-0.8-0.1-1.1-0.2-0.2-0.2-0.3-0.5 0-0.6q0.1-0.1 0.2-0.1c0.2-0.2 0.7-0.3 1.1-0.2-0.2 0-0.6 0.2-0.7 0.3-0.2 0.3 0.1 0.6 0.5 0.8z"/><path class="bM" d="m8.2 28.5c-0.1 0.2-0.4 0.3-0.7 0.4-0.5 0-0.9-0.1-0.9-0.1 0.7-0.1 0.9 0 1.3-0.3 0.4-0.3-0.3-0.7-0.7-0.8q0 0 0 0c0.5 0 1.4 0.4 1 0.8z"/><path class="bP" d="m20.2 34.7c-0.2 0.6-0.7 1.3-1.1 1.7q0 0.1-0.1 0c0.1-0.4 0.3-0.9 0.4-1.3-0.5 0.1-1.1 0.2-1.6 0.4-0.1 0-1 0.4-0.9 0.5-0.3-0.4-0.4-0.7-0.9-1q0 0 0.1 0c0.4 0.1 0.6 0.4 0.9 0.6 0.1 0.1 1.1-0.3 1.2-0.3q0.7-0.2 1.4-0.5c0.3-0.1 0.5-0.1 0.6-0.1z"/><path class="bQ" d="m22 31.2c0.3 0.5-1.1 1.3-1.4 1.5-0.5 0.3-1.1 0.7-0.2 0.9 0.5 0 1.1 0 1.5 0.2-1.8-0.1-3.5 0.8-5.3 1-1.5 0.1-3.1 0.3-4.3 1.4 0.2-1 1.5-1.6 2.4-1.9 1.3-0.3 2.4-0.2 3.3-1.2 0.6-0.7 1-1.5 2-1.7 0.2-0.1 1-0.3 1.5-0.3 0.3-0.1 0.5 0 0.5 0.1z"/><g style="opacity:.3"><path class="bR" d="m20.8 32q0 0.2-0.2 0.4c-0.1 0.1-0.3 0.1-0.4 0.1-0.2 0-0.3-0.1-0.3-0.3q0 0 0 0c0-0.3 0.3-0.5 0.5-0.5 0.2 0 0.5 0.1 0.4 0.3z"/><path class="bG" d="m20.6 32.4q0 0 0 0c-0.1 0.1-0.3 0.1-0.4 0.1-0.2 0-0.3-0.1-0.3-0.3q0 0 0 0c0-0.2 0.2-0.4 0.3-0.4 0 0-0.1 0.2-0.1 0.3 0.1 0.2 0.3 0.3 0.5 0.3z"/><path class="bH" d="m21 31.9c0 0.1-0.1 0.3-0.1 0.3-0.2 0.2-0.4 0.2-0.4 0.2 0.2-0.2 0.3-0.2 0.3-0.4 0-0.3-0.4-0.3-0.6-0.3q0 0 0 0c0.3-0.1 0.7-0.1 0.8 0.2z"/></g><g style="opacity:.7"><path class="bS" d="m15.6 27.8c-0.1 0.2-0.2 0.3-0.4 0.4-0.2 0.1-0.4 0.2-0.6 0.2-0.2-0.1-0.4-0.3-0.3-0.5q0 0 0.1-0.1c0-0.3 0.4-0.5 0.7-0.5 0.3 0 0.6 0.1 0.5 0.5z"/><path class="bG" d="m15.2 28.2q0 0 0 0c-0.2 0.1-0.4 0.2-0.6 0.2-0.2-0.1-0.4-0.3-0.3-0.5q0 0 0.1-0.1c0-0.2 0.2-0.4 0.5-0.5-0.2 0.1-0.3 0.4-0.3 0.5 0.1 0.2 0.4 0.4 0.6 0.4z"/><path class="bH" d="m15.8 27.6c0 0.1-0.1 0.4-0.2 0.5-0.3 0.2-0.5 0.2-0.5 0.2 0.3-0.3 0.5-0.3 0.5-0.6 0.1-0.4-0.5-0.4-0.7-0.4q0 0 0 0c0.3-0.1 0.9-0.1 0.9 0.3z"/></g><path class="bT" d="m31.2 34.6c-0.1 0.2-0.3 0.3-0.5 0.3-0.2 0-0.5 0-0.6-0.1-0.2-0.1-0.3-0.3-0.1-0.5q0 0 0-0.1c0.2-0.2 0.6-0.3 0.9-0.2 0.3 0.1 0.6 0.4 0.3 0.6z"/><path class="bG" d="m30.7 34.9q0 0 0 0c-0.2 0-0.5 0-0.6-0.1-0.2-0.1-0.3-0.3-0.1-0.5q0 0 0-0.1c0.1-0.2 0.4-0.3 0.7-0.2-0.2 0-0.4 0.2-0.4 0.3-0.1 0.2 0.2 0.5 0.4 0.6z"/><path class="bH" d="m31.5 34.5c-0.1 0.2-0.3 0.3-0.4 0.4-0.3 0.1-0.5 0-0.5 0 0.3-0.1 0.5-0.1 0.7-0.3 0.2-0.4-0.3-0.6-0.6-0.7q0 0 0 0c0.3 0 0.9 0.2 0.8 0.6z"/><path class="bU" d="m40.5 24.9c0 0.5-1 0.5-1.2 0.3-0.2-0.1-0.2-0.4 0-0.5 0.3-0.2 1.1-0.3 1.2 0.2q0 0 0 0z"/><path class="bV" d="m7.7 28.6c-0.4 0.2-1.3 0.2-1.5-0.2-0.2-0.3 0.1-0.4 0.4-0.5 0.4 0 0.8 0.1 1.1 0.3 0.1 0.1 0.1 0.3 0 0.4z"/><path class="bW" d="m44.7 18.9c0 0.1-0.1 0.1-0.2 0-0.6-1.3-1.5 0.3-1.7 1.1-0.3 0.9-0.5 1.8-0.6 2.8-0.4 2.4-0.4 4.7-0.4 7.2q0 0 0 0c-0.2-1.5-0.2-3.4-0.2-5.2 0-1.4-0.1-3 0.2-4.4 0.2-1 0.7-2.5 1.8-2.8 0.9-0.2 1.3 0.5 1.1 1.3z"/><path class="bX" d="m41.2 16.6q0 0 0 0c-0.2-0.6-0.4-1.1-1-1.4-0.3-0.2 0-0.7 0.3-0.6 0.8 0.3 0.7 1.3 0.7 2z"/><path class="bY" d="m44.3 16.3c-0.2 0.1-0.5 0.1-0.7 0.2q-0.3 0.1-0.6 0.2c-0.4 0.2-0.7 0.5-0.8 0.9q0 0.1-0.1 0 0-0.8 0.5-1.4c0.4-0.5 1-0.9 1.5-0.8 0.5 0.1 0.4 0.7 0.2 0.9z"/><path class="bZ" d="m43.2 18.7c-0.9 0.7-0.9 2.1-1.2 3.2q0 0 0 0c0.1-1.2-0.1-2.7 0.9-3.5 0.3-0.2 0.6 0.1 0.3 0.3z"/><path class="c0" d="m41.3 22q0 0 0 0c-0.2-1.1-0.4-2.1-0.9-3.1-0.2-0.5-0.5-1.1-0.9-1.4-0.4-0.3-0.8-0.2-1.2-0.4-0.3-0.1-0.3-0.4-0.1-0.6 0.4-0.4 1.2-0.2 1.6 0.1 0.5 0.4 0.8 1 0.9 1.6 0.4 1.2 0.4 2.5 0.6 3.8z"/><path class="c1" d="m40.2 17.8c0.1 0 0 0.1 0 0-0.3-0.4-0.7-0.6-1.1-0.6-0.3-0.1-0.9 0-0.9-0.4 0-0.6 0.9-0.2 1.2 0 0.3 0.2 0.7 0.6 0.8 1z"/><path class="c2" d="m44 16c-0.6 0.3-1.2 0.3-1.6 0.9q0 0 0 0c0.3-0.5 0.8-0.9 1.4-1.2 0.2-0.1 0.4 0.2 0.2 0.3z"/><path class="c3" d="m41.1 25.5c0-0.4-0.1-0.8-0.2-1.1-0.1-0.3-0.5-1.1-0.9-0.8-0.2 0-0.3 0-0.3-0.1-0.4-0.6 0.2-0.8 0.7-0.5 0.8 0.4 0.9 1.7 0.7 2.5z"/><path class="c4" d="m40.7 23.6q0 0.1 0 0c-0.1-0.2-0.5-0.3-0.7-0.2-0.2 0.1-0.3-0.4 0-0.4q0.2 0 0.4 0.2c0.2 0.1 0.2 0.3 0.3 0.4z"/><path class="c5" d="m36.5 24.1c-0.3 1.5-3.4 2.2-6.8 1.4-3.5-0.7-6-2.6-5.6-4.2 0.3-1.6 3.4-2.2 6.8-1.5 3.5 0.8 6 2.7 5.6 4.3z"/><path class="c6" d="m13.3 36.3c-0.4 2.1-2.6 3.4-4.7 2.9-2.2-0.5-3.6-2.5-3.1-4.6 0.4-2 2.6-3.3 4.7-2.8 2.2 0.4 3.6 2.5 3.1 4.5z"/><path class="c7" d="m34.3 46.7c-0.5 2-2.6 3.3-4.8 2.8-2.1-0.5-3.5-2.5-3.1-4.6 0.5-2 2.6-3.3 4.8-2.8 2.2 0.5 3.5 2.5 3.1 4.6z"/><path class="c8" d="m22.6 53.8c-0.4 2.1-2.5 3.4-4.7 2.9-2.2-0.5-3.6-2.6-3.1-4.6 0.4-2.1 2.6-3.4 4.7-2.9 2.2 0.5 3.6 2.6 3.1 4.6z"/><path class="c9" d="m19.8 20.4c-0.4 2-2.6 3.3-4.7 2.8-2.2-0.4-3.6-2.5-3.1-4.6 0.4-2 2.5-3.3 4.7-2.8 2.2 0.5 3.6 2.5 3.1 4.6z"/><circle class="ca" cx="41.7" cy="29" r="2"/><circle class="cb" cx="13.7" cy="25.9" r="1.6"/><ellipse class="cc" cx="17.5" cy="23.1" rx="2.2" ry="1.5"/><ellipse class="cd" cx="21" cy="16.7" rx="2.2" ry="4.3"/><path class="ce" d="m9.7 17.9c0.6 2.3 0.1 4.4-1.1 4.7-1.2 0.3-2.6-1.3-3.2-3.6-0.6-2.3-0.2-4.5 1-4.8 1.2-0.3 2.7 1.3 3.3 3.7z"/><path class="cf" d="m7.4 33.7c-0.5 1.8-2.4 2.9-4.3 2.4-1.9-0.5-3.1-2.3-2.7-4.2 0.5-1.8 2.4-2.9 4.3-2.4 1.9 0.5 3.1 2.3 2.7 4.2z"/><path class="cg" d="m43.7 55.5c-0.8 3.5-4.5 5.6-8.2 4.7-3.6-0.9-5.9-4.5-5.1-8 0.9-3.5 4.6-5.6 8.3-4.6 3.6 0.9 5.9 4.4 5 7.9z"/></svg>